<?xml version="1.0" encoding="utf-8"?>
<!-- Generator: Adobe Illustrator 19.2.0, SVG Export Plug-In . SVG Version: 6.00 Build 0)  -->
<svg version="1.1" id="Layer_1" xmlns="http://www.w3.org/2000/svg" xmlns:xlink="http://www.w3.org/1999/xlink" x="0px" y="0px"
	 viewBox="0 0 29 26" style="enable-background:new 0 0 29 26;" xml:space="preserve">
<style type="text/css">
	.st0{fill:#2DC08D;}
</style>
<g>
	<path id="path-1" class="st0" d="M23.4,2.7l3.3,7.1h-6.5L23.4,2.7z M1.7,14.6L5,7.6l3.3,7.1H1.7z M28.4,10.5c0-0.1,0-0.2-0.1-0.3
		L24,0.8c0,0,0,0,0,0c0,0,0,0,0,0c0,0,0-0.1,0-0.1c0,0,0,0,0,0c0,0,0,0-0.1-0.1c0,0,0,0,0,0c0,0-0.1,0-0.1-0.1c0,0,0,0,0,0
		c0,0-0.1,0-0.1,0c0,0,0,0,0,0c0,0-0.1,0-0.1,0c0,0,0,0,0,0c0,0-0.1,0-0.1,0c0,0,0,0,0,0c0,0,0,0,0,0c0,0-0.1,0-0.1,0c0,0,0,0,0,0
		l-7.7,2V1.8c0-0.7-0.6-1.3-1.3-1.3S12.8,1,12.8,1.8v1.4l-8,2.1c0,0,0,0,0,0c0,0-0.1,0-0.1,0c0,0,0,0,0,0c0,0-0.1,0-0.1,0
		c0,0,0,0,0,0c0,0-0.1,0-0.1,0.1c0,0,0,0,0,0c0,0,0,0.1-0.1,0.1c0,0,0,0,0,0c0,0,0,0,0,0L0.1,15C0,15.1,0,15.2,0,15.3c0,0,0,0,0,0.1
		c0,2.6,2.2,4.8,5,4.8s5-2.1,5-4.8c0,0,0,0,0-0.1c0-0.1,0-0.2-0.1-0.3l-4-8.6l6.9-1.8v14.5c0,2.2-1.8,4-4,4c-1,0-1.8,0.8-1.8,1.8
		c0,0.4,0.3,0.7,0.7,0.7h13c0.4,0,0.7-0.3,0.7-0.7c0-1-0.8-1.8-1.8-1.8c-2.2,0-4-1.8-4-4V3.9l6.6-1.8l-3.7,8c0,0.1-0.1,0.2-0.1,0.3
		c0,0,0,0,0,0.1c0,2.6,2.2,4.8,5,4.8S28.4,13.1,28.4,10.5C28.4,10.5,28.4,10.5,28.4,10.5z"/>
</g>
<title>1.A/Icons-Normal/General/Search Copy 5svg</title>
<desc>Created with Sketch.</desc>
<g id="Home-Nov-2017-v2" transform="translate(-770.000000, -3586.000000)">
	<g id="_x31_.A_x2F_Icons-Normal_x2F_Platform_x2F_ballance" transform="translate(756.000000, 3571.000000)">
		<g id="Colors_x2F_Blue" transform="translate(14.000000, 15.400000)">
			<g id="Mask">
				<path id="path-1_1_" class="st0" d="M23.4,2.3l3.3,7.1h-6.5L23.4,2.3z M1.7,14.2L5,7.2l3.3,7.1H1.7z M28.4,10.1
					c0-0.1,0-0.2-0.1-0.3L24,0.4c0,0,0,0,0,0c0,0,0,0,0,0c0,0,0-0.1,0-0.1c0,0,0,0,0,0c0,0,0,0-0.1-0.1c0,0,0,0,0,0
					c0,0-0.1,0-0.1-0.1c0,0,0,0,0,0c0,0-0.1,0-0.1,0c0,0,0,0,0,0c0,0-0.1,0-0.1,0c0,0,0,0,0,0c0,0-0.1,0-0.1,0c0,0,0,0,0,0
					c0,0,0,0,0,0c0,0-0.1,0-0.1,0c0,0,0,0,0,0l-7.7,2V1.4c0-0.7-0.6-1.3-1.3-1.3s-1.3,0.6-1.3,1.3v1.4l-8,2.1c0,0,0,0,0,0
					c0,0-0.1,0-0.1,0c0,0,0,0,0,0c0,0-0.1,0-0.1,0c0,0,0,0,0,0c0,0-0.1,0-0.1,0.1c0,0,0,0,0,0c0,0,0,0.1-0.1,0.1c0,0,0,0,0,0
					c0,0,0,0,0,0l-4.3,9.3C0,14.7,0,14.8,0,14.9c0,0,0,0,0,0.1c0,2.6,2.2,4.8,5,4.8s5-2.1,5-4.8c0,0,0,0,0-0.1c0-0.1,0-0.2-0.1-0.3
					L5.9,6l6.9-1.8v14.5c0,2.2-1.8,4-4,4c-1,0-1.8,0.8-1.8,1.8c0,0.4,0.3,0.7,0.7,0.7h13c0.4,0,0.7-0.3,0.7-0.7c0-1-0.8-1.8-1.8-1.8
					c-2.2,0-4-1.8-4-4V3.5l6.6-1.8l-3.7,8c0,0.1-0.1,0.2-0.1,0.3c0,0,0,0,0,0.1c0,2.6,2.2,4.8,5,4.8S28.4,12.7,28.4,10.1
					C28.4,10.1,28.4,10.1,28.4,10.1z"/>
			</g>
		</g>
	</g>
</g>
</svg>
