<?xml version="1.0" encoding="utf-8"?>
<!-- Generator: Adobe Illustrator 19.2.0, SVG Export Plug-In . SVG Version: 6.00 Build 0)  -->
<svg version="1.1" id="Layer_1" xmlns="http://www.w3.org/2000/svg" xmlns:xlink="http://www.w3.org/1999/xlink" x="0px" y="0px"
	 viewBox="0 0 20 20" style="enable-background:new 0 0 20 20;" xml:space="preserve">
<style type="text/css">
	.st0{fill:#2DC08D;}
</style>
<g>
	<path id="path-1" class="st0" d="M19.3,6.1l-2.1,2.1l-5.4-5.4l2.1-2.1c0.3-0.3,0.7-0.5,1.2-0.5s0.9,0.2,1.2,0.5l3,3
		c0.3,0.3,0.5,0.7,0.5,1.2C19.8,5.3,19.6,5.8,19.3,6.1L19.3,6.1z M11.4,5.9c-0.1,0-0.2,0-0.2,0.1l-7,7c-0.1,0.1-0.1,0.1-0.1,0.2
		c0,0.2,0.1,0.3,0.3,0.3c0.1,0,0.2,0,0.2-0.1l7-7c0.1-0.1,0.1-0.1,0.1-0.2C11.7,6,11.5,5.9,11.4,5.9L11.4,5.9z M6.1,17l-3-3
		l-1.2,1.2v1.4h1.7v1.7h1.4L6.1,17z M16.3,9L5.6,19.8H0.2v-5.4L11,3.7L16.3,9z"/>
</g>
<title>1.A/Icons-Normal/General/Search Copy 3svg</title>
<desc>Created with Sketch.</desc>
<g id="Home-Nov-2017-v2" transform="translate(-198.000000, -3589.000000)">
	<g id="_x31_.A_x2F_Icons-Normal_x2F_Platform_x2F_edit" transform="translate(180.000000, 3571.000000)">
		<g id="Colors_x2F_Blue" transform="translate(18.200000, 18.200000)">
			<g id="Mask">
				<path id="path-1_1_" class="st0" d="M19.1,5.9L17,8l-5.4-5.4l2.1-2.1C14,0.2,14.5,0,14.9,0s0.9,0.2,1.2,0.5l3,3
					c0.3,0.3,0.5,0.7,0.5,1.2C19.6,5.1,19.4,5.6,19.1,5.9L19.1,5.9z M11.2,5.7c-0.1,0-0.2,0-0.2,0.1l-7,7c-0.1,0.1-0.1,0.1-0.1,0.2
					c0,0.2,0.1,0.3,0.3,0.3c0.1,0,0.2,0,0.2-0.1l7-7c0.1-0.1,0.1-0.1,0.1-0.2C11.5,5.8,11.3,5.7,11.2,5.7L11.2,5.7z M5.9,16.8l-3-3
					l-1.2,1.2v1.4h1.7v1.7h1.4L5.9,16.8z M16.1,8.8L5.4,19.6H0v-5.4L10.8,3.5L16.1,8.8z"/>
			</g>
		</g>
	</g>
</g>
</svg>
