<?xml version="1.0" encoding="utf-8"?>
<!-- Generator: Adobe Illustrator 19.2.0, SVG Export Plug-In . SVG Version: 6.00 Build 0)  -->
<svg version="1.1" id="Layer_1" xmlns="http://www.w3.org/2000/svg" xmlns:xlink="http://www.w3.org/1999/xlink" x="0px" y="0px"
	 viewBox="0 0 34 24" style="enable-background:new 0 0 34 24;" xml:space="preserve">
<style type="text/css">
	.st0{fill:#2DC08D;}
</style>
<g>
	<path id="path-1" class="st0" d="M32.6,18.7c0.7,0,1.2,0.6,1.2,1.2v2.1c0,0.7-0.6,1.2-1.2,1.2s-1.2-0.6-1.2-1.2V20
		C31.3,19.3,31.9,18.7,32.6,18.7z M18.2,16l7.8-2.6v4.3c0,0.5-0.3,1-0.9,1.2l-7.8,2.6c-0.1,0-0.3,0.1-0.4,0.1s-0.3,0-0.4-0.1
		l-7.8-2.6C8.3,18.6,8,18.1,8,17.6v-4.3l7.8,2.6c0.4,0.1,0.8,0.2,1.2,0.2S17.8,16.1,18.2,16z M32.9,6c0.5,0.2,0.9,0.6,0.9,1.2v7.3
		c0,0.7-0.6,1.2-1.2,1.2s-1.2-0.6-1.2-1.2V9L26,10.7l-8.6,2.9c-0.1,0-0.3,0.1-0.4,0.1c-0.1,0-0.3,0-0.4-0.1L8,10.7L1.1,8.4
		C0.5,8.2,0.2,7.8,0.2,7.2c0-0.5,0.3-1,0.9-1.2l15.6-5.2c0.1,0,0.3-0.1,0.4-0.1c0.1,0,0.3,0,0.4,0.1L32.9,6z"/>
</g>
<title>1.A/Icons-Normal/General/Search Copy 4svg</title>
<desc>Created with Sketch.</desc>
<g id="Home-Nov-2017-v2" transform="translate(-479.000000, -3587.000000)">
	<g id="_x31_.A_x2F_Icons-Normal_x2F_Platform_x2F_ballance-Copy" transform="translate(468.000000, 3571.000000)">
		<g id="Colors_x2F_Blue" transform="translate(11.200000, 16.800000)">
			<g id="Mask">
				<path id="path-1_1_" class="st0" d="M32.4,17.9c0.7,0,1.2,0.6,1.2,1.2v2.1c0,0.7-0.6,1.2-1.2,1.2s-1.2-0.6-1.2-1.2v-2.1
					C31.1,18.5,31.7,17.9,32.4,17.9z M18,15.2l7.8-2.6v4.3c0,0.5-0.3,1-0.9,1.2l-7.8,2.6c-0.1,0-0.3,0.1-0.4,0.1
					c-0.1,0-0.3,0-0.4-0.1L8.6,18c-0.5-0.2-0.9-0.6-0.9-1.2v-4.3l7.8,2.6c0.4,0.1,0.8,0.2,1.2,0.2C17.2,15.3,17.6,15.3,18,15.2z
					 M32.7,5.2c0.5,0.2,0.9,0.6,0.9,1.2v7.3c0,0.7-0.6,1.2-1.2,1.2s-1.2-0.6-1.2-1.2V8.2l-5.3,1.8l-8.6,2.9c-0.1,0-0.3,0.1-0.4,0.1
					s-0.3,0-0.4-0.1L7.8,9.9L0.9,7.6C0.3,7.4,0,7,0,6.4c0-0.5,0.3-1,0.9-1.2l15.6-5.2C16.5,0,16.7,0,16.8,0s0.3,0,0.4,0.1L32.7,5.2z
					"/>
			</g>
		</g>
	</g>
</g>
</svg>
