<?xml version="1.0" encoding="utf-8"?>
<!-- Generator: Adobe Illustrator 19.2.0, SVG Export Plug-In . SVG Version: 6.00 Build 0)  -->
<svg version="1.1" id="Layer_1" xmlns="http://www.w3.org/2000/svg" xmlns:xlink="http://www.w3.org/1999/xlink" x="0px" y="0px"
	 viewBox="0 0 26 25" style="enable-background:new 0 0 26 25;" xml:space="preserve">
<style type="text/css">
	.st0{fill:#FFFFFF;}
	.st1{fill:#2DC08D;}
</style>
<g>
	<path id="path-1" class="st0" d="M25.6,9.7c0-0.4-0.3-0.6-0.8-0.7l-7.6-1.1L13.7,1c-0.2-0.4-0.4-0.6-0.7-0.6S12.4,0.6,12.3,1
		L8.9,7.9L1.2,9C0.7,9.1,0.4,9.3,0.4,9.7c0,0.2,0.1,0.5,0.4,0.7l5.5,5.4L5,23.4c0,0.1,0,0.2,0,0.3c0,0.2,0.1,0.4,0.2,0.5
		c0.1,0.1,0.3,0.2,0.5,0.2c0.2,0,0.4-0.1,0.6-0.2l6.8-3.6l6.8,3.6c0.2,0.1,0.4,0.2,0.6,0.2c0.2,0,0.4-0.1,0.5-0.2
		c0.1-0.1,0.2-0.3,0.2-0.5c0-0.1,0-0.2,0-0.3l-1.3-7.6l5.5-5.4C25.5,10.2,25.6,9.9,25.6,9.7L25.6,9.7z"/>
</g>
<title>1.A/Icons-Normal/General/Search Copy 6svg</title>
<desc>Created with Sketch.</desc>
<g id="Home-Nov-2017-v2" transform="translate(-1059.000000, -3586.000000)">
	<g id="_x31_.A_x2F_Icons-Normal_x2F_Platform_x2F_Star" transform="translate(1044.000000, 3571.000000)">
		<g id="Colors_x2F_Blue" transform="translate(15.400000, 15.400000)">
			<g id="Mask">
				<path id="path-1_1_" class="st1" d="M25.2,9.3c0-0.4-0.3-0.6-0.8-0.7l-7.6-1.1l-3.4-6.9C13.2,0.2,12.9,0,12.6,0S12,0.2,11.9,0.6
					L8.5,7.5L0.8,8.6C0.3,8.7,0,8.9,0,9.3C0,9.5,0.1,9.8,0.4,10l5.5,5.4L4.6,23c0,0.1,0,0.2,0,0.3c0,0.2,0.1,0.4,0.2,0.5
					C4.8,24,5,24,5.2,24c0.2,0,0.4-0.1,0.6-0.2l6.8-3.6l6.8,3.6C19.6,24,19.8,24,20,24c0.2,0,0.4-0.1,0.5-0.2
					c0.1-0.1,0.2-0.3,0.2-0.5c0-0.1,0-0.2,0-0.3l-1.3-7.6l5.5-5.4C25.1,9.8,25.2,9.5,25.2,9.3L25.2,9.3z"/>
			</g>
		</g>
	</g>
</g>
</svg>
