<svg id="Layer_1" data-name="Layer 1" xmlns="http://www.w3.org/2000/svg" viewBox="0 0 71.13 74.04"><defs><style>.cls-1{fill:#2dc08d;}.cls-2{fill:#fff;}</style></defs><title>star-01</title><path class="cls-1" d="M514.29,280.74h0a7.29,7.29,0,0,1-3.78,11.63h0a7.29,7.29,0,0,0-5.4,7.43h0a7.29,7.29,0,0,1-9.9,7.19h0a7.29,7.29,0,0,0-8.74,2.84h0a7.29,7.29,0,0,1-12.23,0h0a7.29,7.29,0,0,0-8.74-2.84h0a7.29,7.29,0,0,1-9.9-7.19h0a7.29,7.29,0,0,0-5.4-7.43h0a7.29,7.29,0,0,1-3.78-11.63h0a7.29,7.29,0,0,0,0-9.19h0a7.29,7.29,0,0,1,3.78-11.63h0a7.29,7.29,0,0,0,5.4-7.43h0a7.29,7.29,0,0,1,9.9-7.19h0a7.29,7.29,0,0,0,8.74-2.84h0a7.29,7.29,0,0,1,12.23,0h0a7.29,7.29,0,0,0,8.74,2.84h0a7.29,7.29,0,0,1,9.9,7.19h0a7.29,7.29,0,0,0,5.4,7.43h0a7.29,7.29,0,0,1,3.78,11.63h0A7.29,7.29,0,0,0,514.29,280.74Z" transform="translate(-444.79 -239.13)"/><path class="cls-2" d="M470.18,273.35V262.42H472a2.39,2.39,0,0,1,1.8.66,3.28,3.28,0,0,1,.63,2.3q0,1.91-1.33,2.34,1.56,0.34,1.56,2.52a3.58,3.58,0,0,1-.64,2.43,2.3,2.3,0,0,1-1.78.7h-2Zm3.06-7.86v-0.37a2.15,2.15,0,0,0-.31-1.35,1.11,1.11,0,0,0-.89-0.37h-0.61v3.92H472Q473.24,267.32,473.24,265.49Zm0.17,5V270.1q0-2-1.23-2h-0.75v4.22h0.75a1.09,1.09,0,0,0,.91-0.41A2.4,2.4,0,0,0,473.41,270.53Z" transform="translate(-444.79 -239.13)"/><path class="cls-2" d="M477.4,268.4v4h2.72v1h-4V262.42h3.92v1H477.4v4h2.44v1H477.4Z" transform="translate(-444.79 -239.13)"/><path class="cls-2" d="M485.11,270.9a2.31,2.31,0,0,0-.84-1.92l-1.25-.92a3.39,3.39,0,0,1-1.41-3,3.28,3.28,0,0,1,.62-2.27,2.56,2.56,0,0,1,3.35,0,3.5,3.5,0,0,1,.72,2.18l-1.19.27q-0.06-2-1.16-2t-1.1,1.7a3.76,3.76,0,0,0,.16,1.22,1.89,1.89,0,0,0,.63.84l1.23,0.92a4.83,4.83,0,0,1,.7.59,2.82,2.82,0,0,1,.51.9,4,4,0,0,1,.24,1.46,2.81,2.81,0,0,1-.65,2.11,2.46,2.46,0,0,1-1.76.61,2.17,2.17,0,0,1-1.73-.72,4.51,4.51,0,0,1-.77-2.56l1.17-.2A4.48,4.48,0,0,0,483,272a1,1,0,0,0,.9.56Q485.11,272.56,485.11,270.9Z" transform="translate(-444.79 -239.13)"/><path class="cls-2" d="M487.19,263.42v-1h4.26v1h-1.51v9.94h-1.23v-9.94h-1.52Z" transform="translate(-444.79 -239.13)"/><path class="cls-2" d="M465.85,285.53a0.94,0.94,0,0,0,.84.48,0.92,0.92,0,0,0,.82-0.41,3.66,3.66,0,0,0,.37-1.57l1.09,0.14a3.87,3.87,0,0,1-.71,2.23,2.08,2.08,0,0,1-1.63.63,2.06,2.06,0,0,1-1.69-.77,4.61,4.61,0,0,1-.62-2.81v-4.25a4.62,4.62,0,0,1,.63-2.81,2.06,2.06,0,0,1,1.68-.76,2.2,2.2,0,0,1,1.61.55,3.11,3.11,0,0,1,.68,2l-1.14.28a3.19,3.19,0,0,0-.35-1.38,0.86,0.86,0,0,0-.77-0.38,0.9,0.9,0,0,0-.8.49,3.81,3.81,0,0,0-.3,1.8v4.84A3.61,3.61,0,0,0,465.85,285.53Z" transform="translate(-444.79 -239.13)"/><path class="cls-2" d="M474,286.79v-5h-2.36v5h-1.25V275.85h1.25v5H474v-5h1.23v10.94H474Z" transform="translate(-444.79 -239.13)"/><path class="cls-2" d="M481.86,279.12v4.41a4.4,4.4,0,0,1-.63,2.74,2.55,2.55,0,0,1-3.62,0,4.4,4.4,0,0,1-.63-2.74v-4.41a4.4,4.4,0,0,1,.63-2.74,2.55,2.55,0,0,1,3.62,0A4.4,4.4,0,0,1,481.86,279.12Zm-1.23,4.64v-4.87q0-2.25-1.2-2.25a1,1,0,0,0-.9.48,3.44,3.44,0,0,0-.32,1.77v4.88a3.43,3.43,0,0,0,.32,1.76,1,1,0,0,0,.9.48Q480.63,286,480.63,283.76Z" transform="translate(-444.79 -239.13)"/><path class="cls-2" d="M483.61,286.79V275.85h1.25v10.94h-1.25Z" transform="translate(-444.79 -239.13)"/><path class="cls-2" d="M488.14,285.53a0.94,0.94,0,0,0,.84.48,0.92,0.92,0,0,0,.82-0.41,3.66,3.66,0,0,0,.37-1.57l1.09,0.14a3.87,3.87,0,0,1-.71,2.23,2.08,2.08,0,0,1-1.63.63,2.06,2.06,0,0,1-1.69-.77,4.61,4.61,0,0,1-.62-2.81v-4.25a4.62,4.62,0,0,1,.63-2.81,2.06,2.06,0,0,1,1.68-.76,2.2,2.2,0,0,1,1.61.55,3.11,3.11,0,0,1,.68,2l-1.14.28a3.19,3.19,0,0,0-.35-1.38,0.86,0.86,0,0,0-.77-0.38,0.9,0.9,0,0,0-.8.49,3.81,3.81,0,0,0-.3,1.8v4.84A3.61,3.61,0,0,0,488.14,285.53Z" transform="translate(-444.79 -239.13)"/><path class="cls-2" d="M493.92,281.83v4h2.72v1h-4V275.85h3.92v1h-2.67v4h2.44v1h-2.44Z" transform="translate(-444.79 -239.13)"/></svg>
