<?xml version="1.0" encoding="UTF-8"?>
<svg width="24px" height="27px" viewBox="0 0 24 27" version="1.1" xmlns="http://www.w3.org/2000/svg" xmlns:xlink="http://www.w3.org/1999/xlink">
    <!-- Generator: sketchtool 50.2 (55047) - http://www.bohemiancoding.com/sketch -->
    <title>D2F7E563-71B3-4BDA-89D2-074BB2182BCF@3x</title>
    <desc>Created with sketchtool.</desc>
    <defs>
        <rect id="path-1" x="0" y="0" width="38" height="38"></rect>
    </defs>
    <g id="Selected-direction" stroke="none" stroke-width="1" fill="none" fill-rule="evenodd">
        <g id="Announcment-MSG" transform="translate(-268.000000, -13.000000)">
            <g id="Emoji_img" transform="translate(261.000000, 8.000000)">
                <mask id="mask-2" fill="white">
                    <use xlink:href="#path-1"></use>
                </mask>
                <g id="Mask"></g>
                <g id="Emoji_u1f44b" mask="url(#mask-2)">
                    <g transform="translate(6.979592, 6.204082)">
                        <g id="Group" stroke="none" fill-rule="evenodd" transform="translate(0.000000, 2.132653)">
                            <path d="M6.81772414,13.6104786 C6.59122167,13.8243101 6.3626601,13.5689579 6.3626601,13.5689579 C6.3626601,13.5689579 2.55741872,9.50408344 2.31032512,9.32139245 C1.96233498,9.06604027 1.21693596,8.66536572 0.471536946,9.43972639 C0.160610837,9.76151165 -0.345931034,10.4777434 0.595083744,11.6320182 C0.798935961,11.8811423 6.72712315,18.1798293 7.07305419,18.5202989 C7.07305419,18.5202989 9.81167488,21.2066868 11.4692611,22.2177154 C11.9284433,22.49798 12.4452808,22.7948528 13.048601,23.0024562 C13.6498621,23.2100596 14.3293695,23.3533059 15.0459409,23.3533059 C15.7625123,23.3616101 16.5058522,23.2225158 17.2080099,22.9630116 C17.9101675,22.7014313 18.5649655,22.3215171 19.1600493,21.8834739 C19.3062463,21.7713681 19.4545025,21.6592622 19.5924631,21.5388523 L19.991931,21.2066868 C20.2699113,20.972095 20.5293596,20.725047 20.7785123,20.4738468 C21.2788768,19.9714466 21.7298227,19.4337538 22.1272315,18.8836048 C22.5225813,18.3313798 22.8582167,17.7604705 23.1259015,17.1916372 C23.3935862,16.6228039 23.5809655,16.0518945 23.6942167,15.5121257 C23.8136453,14.9744329 23.8465911,14.4658046 23.8280591,14.0215333 C23.8239409,13.5772621 23.735399,13.1973478 23.66333,12.8942469 C23.5809655,12.5911459 23.4924236,12.3648582 23.4224138,12.2153838 C23.3544631,12.0659093 23.317399,11.98702 23.317399,11.98702 C23.2226798,11.7192117 23.1320788,11.4638595 23.0517734,11.2334197 C22.8252709,10.5836211 22.5637635,9.85493318 22.2919606,9.10548492 C22.1766502,8.78785172 22.1231133,8.64460538 22.1231133,8.64460538 L22.1251724,8.65083348 C21.1265025,5.91669677 20.0537044,3.09951869 20.0537044,3.09951869 C19.8910345,2.60334658 19.2918325,2.43103576 18.8511823,2.75074499 C17.5786502,3.67250406 17.1894778,5.01777407 17.6383645,6.45231353 L18.7894089,9.63279754 C18.9520788,9.98779935 18.5031921,10.3988541 18.2025616,10.151806 C17.2574286,9.37536933 15.2580296,7.23497833 15.2580296,7.23497833 C14.3643744,6.3713482 9.32160591,1.15842695 8.98391133,0.840793751 C8.30440394,0.203451327 7.44781281,-0.124562037 6.79507389,0.359153874 C6.12792118,0.853249955 5.94260099,1.61723045 6.58710345,2.4517961 C6.76212808,2.6780838 11.8584335,8.10691259 11.8584335,8.10691259 C12.1549458,8.42039372 11.8048966,8.86466498 11.4774975,8.55948799 C11.4774975,8.55948799 5.13748768,1.89126693 4.85127094,1.57986184 C4.20265025,0.869858226 3.16073892,0.71415568 2.54300493,1.29959725 C1.93968473,1.87050659 1.95409852,2.80679791 2.61301478,3.54171392 C2.82304433,3.77422973 7.28926108,8.52834748 9.07657143,10.4756673 C9.196,10.6064575 9.2886601,10.7808443 9.11157635,10.944851 C9.10951724,10.946927 8.93037438,11.1420742 8.69975369,10.8929502 C8.21380296,10.3697896 3.36047291,5.27105021 3.09072906,4.99493769 C2.47093596,4.3596713 1.63905419,4.05864638 0.969842365,4.6773045 C0.360344828,5.2399097 0.261507389,6.22187376 0.961605911,6.9152691 L6.84037438,13.1807396 C6.84037438,13.1807396 7.03187192,13.4091033 6.81772414,13.6104786 Z" id="Shape" fill="#FAC036" fill-rule="nonzero"></path>
                            <path d="M16.3617143,8.38717717 L16.8579606,8.92279393 C16.8579606,8.92279393 14.0184433,11.6859951 15.9540099,15.9294085 C15.9540099,15.9294085 16.2052217,16.4671013 15.8757635,16.5563708 C15.8757635,16.5563708 15.5874877,16.7183014 15.2580296,15.8920399 C15.2580296,15.8899639 13.303931,11.860382 16.3617143,8.38717717 Z" id="Shape" fill="#E48C15" fill-rule="nonzero"></path>
                        </g>
                        <path d="M11.9428571,1.42176871 C11.9428571,1.42176871 13.2277408,1.61114658 14.4175298,2.85071082 C15.6073188,4.09242708 16.1579832,5.68707483 16.1579832,5.68707483" id="Shape" stroke="#FFFFFF" stroke-linecap="round"></path>
                        <path d="M14.7529412,0 C14.7529412,0 15.7818968,0.484918794 16.5763265,1.68237132 C17.3707563,2.87982386 17.5630252,4.26530612 17.5630252,4.26530612" id="Shape" stroke="#FFFFFF" stroke-linecap="round"></path>
                        <path d="M6.32268908,22.0358189 C6.32268908,22.0358189 5.06263609,22.1084028 3.66711666,21.2746178 C2.27159723,20.4408328 1.40504202,19.1938776 1.40504202,19.1938776" id="Shape" stroke="#FFFFFF" stroke-linecap="round"></path>
                        <path d="M5.62016807,23.4586336 C5.62016807,23.4586336 4.41076481,23.498373 3.02350814,22.9022826 C1.63625146,22.3061922 0.702521008,21.3265306 0.702521008,21.3265306" id="Shape" stroke="#FFFFFF" stroke-linecap="round"></path>
                    </g>
                </g>
            </g>
        </g>
    </g>
</svg>