<?xml version="1.0" encoding="utf-8"?>
<!-- Generator: Adobe Illustrator 19.2.0, SVG Export Plug-In . SVG Version: 6.00 Build 0)  -->
<svg version="1.1" id="Layer_1_copy" xmlns="http://www.w3.org/2000/svg" xmlns:xlink="http://www.w3.org/1999/xlink" x="0px"
	 y="0px" viewBox="0 0 44 44" style="enable-background:new 0 0 44 44;" xml:space="preserve">
<g fill="#2DC08D">
	<path d="M37.9,38H6.1c-0.8,0-1.6-0.4-2-1.1c-0.5-0.7-0.6-1.5-0.3-2.3l3.3-9C7.2,25.3,7.6,25,8,25h28c0.4,0,0.8,0.3,0.9,0.7l3.3,9
		c0.3,0.8,0.2,1.6-0.3,2.3S38.7,38,37.9,38z M8.7,27l-3,8.3c-0.1,0.2,0,0.4,0.1,0.5S5.9,36,6.1,36h31.7c0.2,0,0.4-0.1,0.4-0.2
		c0.1-0.1,0.1-0.2,0.1-0.5l-3-8.3H8.7z"/>
	<path d="M36,27H8c-0.6,0-1-0.4-1-1V10c0-2.2,1.8-4,4-4h22c2.2,0,4,1.8,4,4v16C37,26.6,36.6,27,36,27z M9,25h26V10c0-1.1-0.9-2-2-2
		H11c-1.1,0-2,0.9-2,2V25z"/>
	<polygon points="26,33 18,33 19,30 25,30 	"/>
	<path d="M24,21h-4c-1.7,0-3-1.3-3-3c0-0.6,0.4-1,1-1s1,0.4,1,1c0,0.6,0.4,1,1,1h4c0.6,0,1-0.4,1-1c0-0.6,0.4-1,1-1s1,0.4,1,1
		C27,19.7,25.7,21,24,21z"/>
	<circle cx="18.5" cy="14.5" r="1.5"/>
	<circle cx="25.5" cy="14.5" r="1.5"/>
</g>
</svg>
