<?xml version="1.0" encoding="utf-8"?>
<!-- Generator: Adobe Illustrator 19.2.0, SVG Export Plug-In . SVG Version: 6.00 Build 0)  -->
<svg version="1.1" id="Layer_1_copy_2" xmlns="http://www.w3.org/2000/svg" xmlns:xlink="http://www.w3.org/1999/xlink" x="0px"
	 y="0px" viewBox="0 0 44 44" style="enable-background:new 0 0 44 44;" xml:space="preserve">
<g fill="#2DC08D">
	<path d="M19.4,30.7c-0.3,0-0.5-0.1-0.7-0.3l-3-3c-0.4-0.4-0.4-1,0-1.4L34.2,7.5c1.2-1.2,3.2-1.2,4.4,0c1.2,1.2,1.2,3.2,0,4.4
		L20.1,30.4C20,30.6,19.7,30.7,19.4,30.7z M17.9,26.7l1.6,1.6l17.8-17.8c0.4-0.4,0.4-1.1,0-1.6c-0.4-0.4-1.2-0.4-1.6,0L17.9,26.7z"
		/>
	<rect x="21.9" y="21.1" transform="matrix(0.7071 -0.7071 0.7071 0.7071 -9.6917 23.0181)" width="2" height="4.2"/>
	<path d="M10.4,37.4c-2.4,0-4.6-0.6-5.8-2.1c-0.2-0.3-0.3-0.7-0.1-1.1c0.2-0.3,0.5-0.6,0.9-0.6c0.6,0,1.4-1.1,2.2-2.3
		c1.7-2.4,4-5.7,8.8-5.7v2c-3.8,0-5.6,2.6-7.1,4.9c-0.6,0.9-1.2,1.7-1.9,2.3c1.6,0.7,4.3,0.8,6.7-0.1c1.6-0.6,4.3-2,4.3-5.1h2
		c0,3.2-2.1,5.7-5.6,7C13.5,37.1,11.9,37.4,10.4,37.4z"/>

    <path d="M14,21c-0.3,0-0.5-0.1-0.7-0.3l-4-4c-0.4-0.4-0.4-1,0-1.4s1-0.4,1.4,0l4,4c0.4,0.4,0.4,1,0,1.4C14.5,20.9,14.3,21,14,21z"/>
    <path d="M30,37c-0.3,0-0.5-0.1-0.7-0.3l-4-4c-0.4-0.4-0.4-1,0-1.4s1-0.4,1.4,0l4,4c0.4,0.4,0.4,1,0,1.4C30.5,36.9,30.3,37,30,37z"/>
    <path d="M19,17c-0.6,0-1-0.4-1-1v-4c0-0.6,0.4-1,1-1s1,0.4,1,1v4C20,16.6,19.6,17,19,17z"/>
    <path d="M34,28h-4c-0.6,0-1-0.4-1-1s0.4-1,1-1h4c0.6,0,1,0.4,1,1S34.6,28,34,28z"/>
    <path d="M9,25H7c-0.6,0-1-0.4-1-1s0.4-1,1-1h2c0.6,0,1,0.4,1,1S9.6,25,9,25z"/>
    <path d="M22,39c-0.6,0-1-0.4-1-1v-2c0-0.6,0.4-1,1-1s1,0.4,1,1v2C23,38.6,22.6,39,22,39z"/>
</g>
</svg>
