<?xml version="1.0" encoding="utf-8"?>
<!-- Generator: Adobe Illustrator 19.2.0, SVG Export Plug-In . SVG Version: 6.00 Build 0)  -->
<svg version="1.1" id="Layer_1_copy_4" xmlns="http://www.w3.org/2000/svg" xmlns:xlink="http://www.w3.org/1999/xlink" x="0px"
	 y="0px" viewBox="0 0 44 44" style="enable-background:new 0 0 44 44;" xml:space="preserve">
<style type="text/css">
	.st0{fill:none;stroke:#2DC08D;stroke-width:2;stroke-linecap:round;stroke-linejoin:round;stroke-miterlimit:10;}
</style>
<g fill="#2DC08D">
    <path d="M22,40c-9.9,0-18-8.1-18-18c0-9.9,8.1-18,18-18c9.9,0,18,8.1,18,18C40,31.9,31.9,40,22,40z M22,6C13.2,6,6,13.2,6,22
    	s7.2,16,16,16s16-7.2,16-16S30.8,6,22,6z"/>
    <path d="M16.4,20.2c-2,0-3.6-1.6-3.6-3.6s1.6-3.6,3.6-3.6s3.6,1.6,3.6,3.6S18.4,20.2,16.4,20.2z M16.4,15c-0.9,0-1.6,0.7-1.6,1.6
    	s0.7,1.6,1.6,1.6s1.6-0.7,1.6-1.6S17.3,15,16.4,15z"/>
    <path d="M26.6,20.2c-2,0-3.6-1.6-3.6-3.6s1.6-3.6,3.6-3.6s3.6,1.6,3.6,3.6S28.6,20.2,26.6,20.2z M26.6,15c-0.9,0-1.6,0.7-1.6,1.6
    	s0.7,1.6,1.6,1.6s1.6-0.7,1.6-1.6S27.5,15,26.6,15z"/>
    <path d="M22,33c-5.5,0-10-4.5-10-10c0-0.6,0.4-1,1-1h18c0.6,0,1,0.4,1,1C32,28.5,27.5,33,22,33z M14.1,24c0.5,3.9,3.9,7,7.9,7
    	s7.4-3.1,7.9-7H14.1z"/>
    <path d="M30,27H14c-0.6,0-1-0.4-1-1s0.4-1,1-1h16c0.6,0,1,0.4,1,1S30.6,27,30,27z"/>
    <path class="st0" d="M17,6"/>
</g>
</svg>
