<?xml version="1.0" encoding="utf-8"?>
<!-- Generator: Adobe Illustrator 19.2.0, SVG Export Plug-In . SVG Version: 6.00 Build 0)  -->
<svg version="1.1" id="Layer_1_copy_6" xmlns="http://www.w3.org/2000/svg" xmlns:xlink="http://www.w3.org/1999/xlink" x="0px"
	 y="0px" viewBox="0 0 44 44" style="enable-background:new 0 0 44 44;" xml:space="preserve">
<g fill="#2DC08D">
    <path d="M15,26c-0.6,0-1-0.4-1-1v-8c0-0.6,0.4-1,1-1s1,0.4,1,1v8C16,25.6,15.6,26,15,26z"/>
    <path d="M20,22h-5c-0.6,0-1-0.4-1-1s0.4-1,1-1h5c0.6,0,1,0.4,1,1S20.6,22,20,22z"/>
    <path d="M20,26c-0.6,0-1-0.4-1-1v-8c0-0.6,0.4-1,1-1s1,0.4,1,1v8C21,25.6,20.6,26,20,26z"/>
    <path d="M29,26c-0.3,0-0.6-0.1-0.8-0.4l-2.5-3c-0.2-0.3-0.3-0.7-0.1-1.1c0.2-0.4,0.5-0.6,0.9-0.6c0.8,0,1.5-0.7,1.5-1.5
    	S27.3,18,26.5,18H25v7c0,0.6-0.4,1-1,1s-1-0.4-1-1v-8c0-0.6,0.4-1,1-1h2.5c1.9,0,3.5,1.6,3.5,3.5c0,1.3-0.7,2.4-1.8,3l1.5,1.8
    	c0.4,0.4,0.3,1.1-0.1,1.4C29.5,25.9,29.2,26,29,26z"/>
    <path d="M26.5,23H24c-0.6,0-1-0.4-1-1s0.4-1,1-1h2.5c0.6,0,1,0.4,1,1S27.1,23,26.5,23z"/>
    <path d="M22,38c-0.2,0-0.3,0-0.5-0.1C20.9,37.5,5,29.1,5,16.5C5,11.3,9.3,7,14.5,7c3,0,5.7,1.4,7.5,3.7C23.8,8.4,26.5,7,29.5,7
    	c5.2,0,9.5,4.3,9.5,9.5c0,12.6-15.9,21-16.5,21.4C22.3,38,22.2,38,22,38z M14.5,9C10.4,9,7,12.4,7,16.5c0,10.3,12.4,17.9,15,19.4
    	c2.6-1.5,15-9.1,15-19.4c0-4.1-3.4-7.5-7.5-7.5c-2.8,0-5.3,1.5-6.6,4c-0.3,0.7-1.4,0.7-1.8,0C19.8,10.5,17.3,9,14.5,9z"/>
</g>
</svg>
