<?xml version="1.0" encoding="utf-8"?>
<!-- Generator: Adobe Illustrator 19.2.0, SVG Export Plug-In . SVG Version: 6.00 Build 0)  -->
<svg version="1.1" id="Layer_1_copy_5" xmlns="http://www.w3.org/2000/svg" xmlns:xlink="http://www.w3.org/1999/xlink" x="0px"
	 y="0px" viewBox="0 0 44 44" style="enable-background:new 0 0 44 44;" xml:space="preserve">
<style type="text/css">
	.st0{fill:none;stroke:#2DC08D;stroke-width:2;stroke-linejoin:round;stroke-miterlimit:10;}
	.st1{fill:none;stroke:#2DC08D;stroke-width:2;stroke-linecap:round;stroke-linejoin:round;stroke-miterlimit:10;}
</style>
<path class="st0" d="M11,21V9c0-1.7,1.3-3,3-3h12.5c1,0,1.9,0.3,2.6,1l4.5,3.8c0.9,0.8,1.4,1.9,1.4,3.1V34c0,1.7-1.3,3-3,3H14
	c-1.7,0-3-1.3-3-3V21z"/>
<polyline class="st0" points="27,6 27,14 35,14 "/>
<line class="st1" x1="30" y1="19" x2="16" y2="19"/>
<line class="st1" x1="30" y1="23" x2="16" y2="23"/>
<line class="st1" x1="22" y1="15" x2="16" y2="15"/>
<line class="st1" x1="22" y1="11" x2="16" y2="11"/>
<line class="st1" x1="30" y1="27" x2="16" y2="27"/>
<line class="st1" x1="30" y1="31" x2="16" y2="31"/>
</svg>
