<?xml version="1.0" encoding="utf-8"?>
<!-- Generator: Adobe Illustrator 19.2.0, SVG Export Plug-In . SVG Version: 6.00 Build 0)  -->
<svg version="1.1" id="Layer_1_copy_3" xmlns="http://www.w3.org/2000/svg" xmlns:xlink="http://www.w3.org/1999/xlink" x="0px"
	 y="0px" viewBox="0 0 44 44" style="enable-background:new 0 0 44 44;" xml:space="preserve">
<g fill="#2DC08D">
    <path d="M22,40c-9.9,0-18-8.1-18-18c0-9.9,8.1-18,18-18c9.9,0,18,8.1,18,18C40,31.9,31.9,40,22,40z M22,6C13.2,6,6,13.2,6,22
    	s7.2,16,16,16s16-7.2,16-16S30.8,6,22,6z"/>
    <path d="M29,30c-0.3,0-0.5-0.1-0.7-0.3l-14-14c-0.4-0.4-0.4-1,0-1.4s1-0.4,1.4,0l14,14c0.4,0.4,0.4,1,0,1.4C29.5,29.9,29.3,30,29,30
    	z"/>
    <path d="M15,30c-0.3,0-0.5-0.1-0.7-0.3c-0.4-0.4-0.4-1,0-1.4l14-14c0.4-0.4,1-0.4,1.4,0s0.4,1,0,1.4l-14,14C15.5,29.9,15.3,30,15,30
    	z"/>
</g>
</svg>
