<?xml version="1.0" encoding="utf-8"?>
<!-- Generator: Adobe Illustrator 19.2.0, SVG Export Plug-In . SVG Version: 6.00 Build 0)  -->
<svg version="1.1" id="Layer_1" xmlns="http://www.w3.org/2000/svg" xmlns:xlink="http://www.w3.org/1999/xlink" x="0px" y="0px"
	 viewBox="0 0 44 44" style="enable-background:new 0 0 44 44;" xml:space="preserve">
<g fill="#2DC08D">
	<path d="M34.2,10l-4.5-3.8C28.9,5.4,27.7,5,26.5,5H14c-2.2,0-4,1.8-4,4v12H9c-0.6,0-1,0.4-1,1v11c0,0.6,0.4,1,1,1h1
		c0,2.2,1.8,4,4,4h18c2.2,0,4-1.8,4-4V13.9C36,12.4,35.4,11,34.2,10z M32.9,11.6c0.6,0.5,0.9,1.2,1,1.9h-6V7.4
		c0.2,0.1,0.3,0.2,0.5,0.3L32.9,11.6z M10,23h20v9H12h-2V23z M32,36H14c-1.1,0-2-0.9-2-2h19c0.6,0,1-0.4,1-1V22c0-0.6-0.4-1-1-1H12
		V9c0-1.1,0.9-2,2-2h12v7.5c0,0.6,0.4,1,1,1h7V34C34,35.1,33.1,36,32,36z"/>
	<path d="M13,28h3v0l1-1v-1l-1-1h-3h-1v5h1V28z M13,26h3v1h-3V26z"/>
	<path d="M22,30l1-1v-3l-1-1h-3h-1v5h1H22z M19,26h3v3h-3V26z"/>
	<polygon points="25,28 27,28 27,27 25,27 25,26 28,26 28,25 25,25 24,25 24,26 24,30 25,30 	"/>
</g>
</svg>
