<?xml version="1.0" encoding="utf-8"?>
<!-- Generator: Adobe Illustrator 19.2.0, SVG Export Plug-In . SVG Version: 6.00 Build 0)  -->
<svg version="1.1" xmlns="http://www.w3.org/2000/svg" xmlns:xlink="http://www.w3.org/1999/xlink" x="0px" y="0px"
	 viewBox="0 0 44 44" style="enable-background:new 0 0 44 44;" xml:space="preserve">
<style type="text/css">
	.st0{display:none;}
	.st1{display:inline;fill:none;stroke:#2DC08D;stroke-width:2;stroke-linejoin:round;stroke-miterlimit:10;}
	.st2{display:inline;}
	.st3{display:inline;fill:none;stroke:#2DC08D;stroke-width:2;stroke-linecap:round;stroke-linejoin:round;stroke-miterlimit:10;}
	.st4{fill:none;stroke:#2DC08D;stroke-width:2;stroke-linecap:round;stroke-linejoin:round;stroke-miterlimit:10;}
	.st5{fill:none;stroke:#2DC08D;stroke-width:2;stroke-linejoin:round;stroke-miterlimit:10;}
</style>
<g id="Layer_1" class="st0">
	<path class="st1" d="M11,21V9c0-1.7,1.3-3,3-3h12.5c1,0,1.9,0.3,2.6,1l4.5,3.8c0.9,0.8,1.4,1.9,1.4,3.1V34c0,1.7-1.3,3-3,3H14
		c-1.7,0-3-1.3-3-3v-2"/>
	<rect x="9" y="22" class="st1" width="22" height="11"/>
	<polyline class="st1" points="27,6.5 27,14.5 35,14.5 	"/>
	<g class="st2">
		<polygon points="13,28 16,28 16,27 13,27 13,26 16,26 16,25 13,25 12,25 12,30 13,30 		"/>
		<polygon points="16,26 16,25 17,26 17,27 16,28 16,27 		"/>
		<polygon points="22,30 22,29 19,29 19,26 22,26 22,25 19,25 18,25 18,30 19,30 		"/>
		<polygon points="22,26 22,25 23,26 23,29 22,30 22,29 		"/>
		<polygon points="25,28 27,28 27,27 25,27 25,26 28,26 28,25 25,25 24,25 24,26 24,30 25,30 		"/>
	</g>
</g>
<g id="Layer_1_copy_7" class="st0">
	<path class="st3" d="M11,34c0,1.7,1.3,3,3,3h18c1.7,0,3-1.3,3-3V13.9c0-1.2-0.5-2.3-1.4-3.1L29.1,7c-0.7-0.6-1.7-1-2.6-1H14
		c-1.7,0-3,1.3-3,3v5"/>
	<polyline class="st1" points="27,6.5 27,14.5 35,14.5 	"/>
	<polyline class="st3" points="11,30 11,18 8,23 	"/>
	<path class="st3" d="M18.5,30L18.5,30c-1.9,0-3.5-1.6-3.5-3.5v-5c0-1.9,1.6-3.5,3.5-3.5h0c1.9,0,3.5,1.6,3.5,3.5v5
		C22,28.4,20.4,30,18.5,30z"/>
</g>
<g id="Layer_1_copy_8" class="st0">
	<path class="st3" d="M32,35h2c1.7,0,3-1.3,3-3V11.9c0-1.2-0.5-2.3-1.4-3.1L31.1,5c-0.7-0.6-1.7-1-2.6-1H16c-1.7,0-3,1.3-3,3v2"/>
	<polyline class="st1" points="29,4.5 29,12.5 37,12.5 	"/>
	<polyline class="st1" points="24,9.5 24,17.5 32,17.5 	"/>
	<path class="st1" d="M8,24V12c0-1.7,1.3-3,3-3h12.5c1,0,1.9,0.3,2.6,1l4.5,3.8c0.9,0.8,1.4,1.9,1.4,3.1V37c0,1.7-1.3,3-3,3H11
		c-1.7,0-3-1.3-3-3v-2"/>
	<rect x="6" y="24" class="st1" width="15" height="11"/>
	<g class="st2">
		<polygon points="16,28 16,27 17,28 17,31 16,32 16,31 		"/>
		<polygon points="13,28 13,27 12,28 12,31 13,32 13,31 		"/>
		<rect x="13" y="27" width="3" height="1"/>
		<rect x="13" y="31" width="3" height="1"/>
		<rect x="10" y="27" width="1" height="5"/>
		<polygon points="9,28 10,28 10,27 		"/>
	</g>
</g>
<g id="Layer_1_copy_10" class="st0">
	<path class="st3" d="M32,35h2c1.7,0,3-1.3,3-3V11.9c0-1.2-0.5-2.3-1.4-3.1L31.1,5c-0.7-0.6-1.7-1-2.6-1H16c-1.7,0-3,1.3-3,3v2"/>
	<polyline class="st1" points="29,4.5 29,12.5 37,12.5 	"/>
	<path class="st3" d="M8,37c0,1.7,1.3,3,3,3h18c1.7,0,3-1.3,3-3V16.9c0-1.2-0.5-2.3-1.4-3.1L26.1,10c-0.7-0.6-1.7-1-2.6-1H11
		c-1.7,0-3,1.3-3,3V37z"/>
	<polyline class="st1" points="24,9.5 24,17.5 32,17.5 	"/>
</g>
<g id="Layer_1_copy_9">
	<path class="st4" d="M32,35h2c1.7,0,3-1.3,3-3V11.9c0-1.2-0.5-2.3-1.4-3.1L31.1,5c-0.7-0.6-1.7-1-2.6-1H16c-1.7,0-3,1.3-3,3v2"/>
	<polyline class="st5" points="29,4.5 29,12.5 37,12.5 	"/>
	<path class="st4" d="M8,37c0,1.7,1.3,3,3,3h18c1.7,0,3-1.3,3-3V16.9c0-1.2-0.5-2.3-1.4-3.1L26.1,10c-0.7-0.6-1.7-1-2.6-1H11
		c-1.7,0-3,1.3-3,3v6"/>
	<polyline class="st5" points="24,9.5 24,17.5 32,17.5 	"/>
	<polyline class="st4" points="8,33 8,22 5,27 	"/>
	<path class="st4" d="M15.5,33L15.5,33c-1.9,0-3.5-1.6-3.5-3.5v-4c0-1.9,1.6-3.5,3.5-3.5h0c1.9,0,3.5,1.6,3.5,3.5v4
		C19,31.4,17.4,33,15.5,33z"/>
</g>
<g id="Layer_1_copy_5" class="st0">
	<path class="st1" d="M11,21V9c0-1.7,1.3-3,3-3h12.5c1,0,1.9,0.3,2.6,1l4.5,3.8c0.9,0.8,1.4,1.9,1.4,3.1V34c0,1.7-1.3,3-3,3H14
		c-1.7,0-3-1.3-3-3V21z"/>
	<polyline class="st1" points="27,6 27,14 35,14 	"/>
	<line class="st3" x1="30" y1="19" x2="16" y2="19"/>
	<line class="st3" x1="30" y1="23" x2="16" y2="23"/>
	<line class="st3" x1="22" y1="15" x2="16" y2="15"/>
	<line class="st3" x1="22" y1="11" x2="16" y2="11"/>
	<line class="st3" x1="30" y1="27" x2="16" y2="27"/>
	<line class="st3" x1="30" y1="31" x2="16" y2="31"/>
</g>
<g id="Layer_10" class="st0">
	<g class="st2">
		<polygon class="st4" points="13,16 31,16 22,5 		"/>
		<polyline class="st4" points="22,39 4,16 10,7 13,16 22,39 		"/>
		<polyline class="st4" points="22,39 40,16 34,7 31,16 22,39 		"/>
		<line class="st4" x1="13" y1="16" x2="4" y2="16"/>
		<line class="st4" x1="31" y1="16" x2="40" y2="16"/>
		<polyline class="st4" points="34,7 22,5 10,7 		"/>
	</g>
</g>
<g id="Layer_1_copy" class="st0">
	<g class="st2">
		<path class="st5" d="M8,26l-3.3,9c-0.4,1,0.4,2,1.4,2h31.7c1,0,1.8-1,1.4-2L36,26H8z"/>
		<path class="st5" d="M8,26V10c0-1.7,1.3-3,3-3h22c1.7,0,3,1.3,3,3v16H8z"/>
		<polygon points="26,33 18,33 19,30 25,30 		"/>
		<path class="st4" d="M18,18L18,18c0,1.1,0.9,2,2,2h4c1.1,0,2-0.9,2-2v0"/>
		<circle cx="18.5" cy="14.5" r="1.5"/>
		<circle cx="25.5" cy="14.5" r="1.5"/>
	</g>
</g>
<g id="Layer_1_copy_2" class="st0">
	<g class="st2">
		<path class="st5" d="M19.4,29.7l18.5-18.5c0.8-0.8,0.8-2.2,0-3l0,0c-0.8-0.8-2.2-0.8-3,0L16.4,26.7L19.4,29.7z"/>
		<line class="st5" x1="24.4" y1="24.7" x2="21.4" y2="21.7"/>
		<path class="st5" d="M16.4,26.7c-7,0-8.1,8-11,8c2.6,3.2,14,2,14-5"/>
	</g>
	<line class="st3" x1="14" y1="20" x2="10" y2="16"/>
	<line class="st3" x1="30" y1="36" x2="26" y2="32"/>
	<line class="st3" x1="19" y1="16" x2="19" y2="12"/>
	<line class="st3" x1="30" y1="27" x2="34" y2="27"/>
	<line class="st3" x1="9" y1="24" x2="7" y2="24"/>
	<line class="st3" x1="22" y1="36" x2="22" y2="38"/>
</g>
<g id="Layer_1_copy_3" class="st0">
	<circle class="st1" cx="22" cy="22" r="17"/>
	<line class="st3" x1="15" y1="15" x2="29" y2="29"/>
	<line class="st3" x1="29" y1="15" x2="15" y2="29"/>
</g>
<g id="Layer_1_copy_4" class="st0">
	<circle class="st1" cx="22" cy="22" r="17"/>
	<circle class="st3" cx="16.4" cy="16.6" r="2.6"/>
	<circle class="st3" cx="26.6" cy="16.6" r="2.6"/>
	<path class="st3" d="M31,23c0,5-4,9-9,9s-9-4-9-9H31z"/>
	<line class="st3" x1="14" y1="26" x2="30" y2="26"/>
</g>
<g id="Layer_1_copy_6" class="st0">
	<line class="st3" x1="15" y1="17" x2="15" y2="25"/>
	<line class="st3" x1="15" y1="21" x2="20" y2="21"/>
	<line class="st3" x1="20" y1="17" x2="20" y2="25"/>
	<path class="st3" d="M24,25v-8h2.5c1.4,0,2.5,1.1,2.5,2.5S27.9,22,26.5,22l2.5,3"/>
	<line class="st3" x1="24" y1="22" x2="26.5" y2="22"/>
	<path class="st3" d="M29.5,8c-3.2,0-6.1,1.8-7.5,4.5C20.6,9.8,17.7,8,14.5,8C9.8,8,6,11.8,6,16.5C6,28.7,22,37,22,37
		s16-8.3,16-20.5C38,11.8,34.2,8,29.5,8z"/>
</g>
</svg>
