<?xml version="1.0" encoding="iso-8859-1"?>
<!-- Generator: Adobe Illustrator 16.0.0, SVG Export Plug-In . SVG Version: 6.00 Build 0)  -->
<!DOCTYPE svg PUBLIC "-//W3C//DTD SVG 1.1//EN" "http://www.w3.org/Graphics/SVG/1.1/DTD/svg11.dtd">
<svg version="1.1" id="Capa_1" xmlns="http://www.w3.org/2000/svg" xmlns:xlink="http://www.w3.org/1999/xlink" x="0px" y="0px"
	 width="495.97px" height="495.97px" viewBox="0 0 495.97 495.97" style="enable-background:new 0 0 495.97 495.97;"
	 xml:space="preserve">
<g>
	<g id="Layer_8_42_">
		<path d="M495.97,151.65c0,25.024-20.277,45.304-45.303,45.304c-2.774,0-5.488-0.288-8.115-0.764L405.36,328.962v47.727H90.61
			v-49.581L53.745,196.14c-2.738,0.515-5.559,0.813-8.442,0.813C20.281,196.954,0,176.674,0,151.65
			c0-25.025,20.281-45.308,45.303-45.308c25.017,0,45.302,20.282,45.302,45.308c0,6.16-1.244,12.025-3.469,17.382
			c45.265,15.272,115.155,27.718,146.6-24.93c-18.038-5.973-31.059-22.944-31.059-42.982c0-25.024,20.285-45.309,45.302-45.309
			s45.304,20.285,45.304,45.309c0,20.019-12.997,36.982-31.021,42.971c18.358,33.91,59.267,69.336,148.455,28.941
			c-3.403-6.372-5.36-13.644-5.36-21.376c0-25.026,20.283-45.309,45.301-45.309S495.97,126.625,495.97,151.65z M90.615,440.159
			H405.37v-42.906H90.615V440.159z"/>
	</g>
</g>
<g>
</g>
<g>
</g>
<g>
</g>
<g>
</g>
<g>
</g>
<g>
</g>
<g>
</g>
<g>
</g>
<g>
</g>
<g>
</g>
<g>
</g>
<g>
</g>
<g>
</g>
<g>
</g>
<g>
</g>
</svg>
