<?xml version="1.0" encoding="iso-8859-1"?>
<!-- Generator: Adobe Illustrator 16.0.0, SVG Export Plug-In . SVG Version: 6.00 Build 0)  -->
<!DOCTYPE svg PUBLIC "-//W3C//DTD SVG 1.1//EN" "http://www.w3.org/Graphics/SVG/1.1/DTD/svg11.dtd">
<svg version="1.1" id="Capa_1" xmlns="http://www.w3.org/2000/svg" xmlns:xlink="http://www.w3.org/1999/xlink" x="0px" y="0px"
	 width="969.186px" height="969.187px" viewBox="0 0 969.186 969.187" style="enable-background:new 0 0 969.186 969.187;"
	 xml:space="preserve">
<g>
	<g>
		<path d="M604.69,233.843c-2.7-8.3-10.4-13.9-19-13.9h-133.3h-67.301c-8.699,0-16.399,5.6-19,13.9l-36,112.1
			c-4.1,12.9,5.5,26.1,19,26.1H452.39h169.3c6.1,0,11.3-2.6,14.899-6.7c-9.5-7.5-15.199-19-15.199-31.3c0-8.7,2.8-17,7.8-23.7
			L604.69,233.843z"/>
		<path d="M219.99,409.243c-8.7,0-16.4,5.6-19,13.9l-36,112.1c-4.2,12.9,5.5,26.1,19,26.1h103.3h169.3c13.601,0,23.2-13.199,19-26.1
			l-36-112.1c-2.699-8.301-10.399-13.9-19-13.9h-133.3H219.99z"/>
		<path d="M19.99,749.243h103.3h169.3c13.601,0,23.2-13.2,19-26.1l-36-112.101c-2.7-8.3-10.4-13.899-19-13.899h-133.3h-67.3
			c-8.7,0-16.4,5.6-19,13.899l-36,112.101C-3.21,736.043,6.49,749.243,19.99,749.243z"/>
		<path d="M932.089,611.043c-2.699-8.3-10.399-13.899-19-13.899H779.89h-67.301c-8.699,0-16.399,5.6-19,13.899l-36,112.101
			c-4.199,12.899,5.5,26.1,19,26.1H779.89h169.3c13.6,0,23.2-13.2,19-26.1L932.089,611.043z"/>
		<path d="M347.69,749.243h103.3h169.3c13.601,0,23.2-13.2,19-26.1l-36-112.101c-2.7-8.3-10.399-13.899-19-13.899h-133.3h-67.3
			c-8.7,0-16.4,5.6-19,13.899l-36,112.101C324.49,736.043,334.089,749.243,347.69,749.243z"/>
		<path d="M804.39,535.144l-24.7-76.9c-7,5.6-15.8,8.9-25.101,8.9c-14.6,0-28.1-8-35.1-20.801l-20.3-37.1h-83.101h-67.3
			c-8.7,0-16.399,5.6-19,13.9l-36,112.1c-4.2,12.9,5.5,26.1,19,26.1h103.3H785.39C798.99,561.343,808.589,548.144,804.39,535.144z"
			/>
		<path d="M852.589,342.743c6.9-3.8,6.9-13.8,0-17.5l-44.8-24.5c-8.399-4.6-15.3-11.5-19.899-19.9l-24.5-44.8
			c-1.9-3.5-5.301-5.2-8.801-5.2s-6.899,1.7-8.8,5.2l-24.5,44.8c-4.6,8.4-11.5,15.3-19.899,19.9l-44.801,24.5
			c-6.899,3.8-6.899,13.8,0,17.5l44.801,24.5c8.399,4.6,15.3,11.5,19.899,19.9l12.101,22.1l12.399,22.7c1.9,3.5,5.3,5.2,8.8,5.2
			s6.9-1.7,8.801-5.2l5-9.101l19.6-35.699c4.6-8.4,11.5-15.3,19.9-19.9L852.589,342.743z"/>
	</g>
</g>
<g>
</g>
<g>
</g>
<g>
</g>
<g>
</g>
<g>
</g>
<g>
</g>
<g>
</g>
<g>
</g>
<g>
</g>
<g>
</g>
<g>
</g>
<g>
</g>
<g>
</g>
<g>
</g>
<g>
</g>
</svg>
