<svg xmlns="http://www.w3.org/2000/svg" viewBox="0 0 456.828 456.828"><path d="M451.383 247.54c-3.606-3.617-7.898-5.427-12.847-5.427h-63.953v-83.94l49.396-49.393c3.61-3.615 5.42-7.898 5.42-12.85 0-4.947-1.82-9.23-5.43-12.847-3.62-3.616-7.9-5.424-12.85-5.424s-9.24 1.8-12.85 5.42l-49.4 49.39H107.92L58.53 83.08c-3.618-3.615-7.9-5.423-12.848-5.423-4.952 0-9.233 1.803-12.85 5.42-3.617 3.615-5.424 7.9-5.424 12.845 0 4.95 1.807 9.234 5.424 12.85l49.394 49.393v83.94H18.273c-4.95 0-9.23 1.81-12.847 5.426C1.81 251.16 0 255.44 0 260.39c0 4.95 1.81 9.237 5.426 12.848 3.616 3.617 7.898 5.43 12.847 5.43h63.953c0 30.448 5.522 56.53 16.56 78.225l-57.67 64.81c-3.237 3.81-4.712 8.23-4.425 13.27.29 5.037 2.24 9.273 5.86 12.703 3.62 3.045 7.71 4.57 12.28 4.57 5.33 0 9.9-1.99 13.71-5.994l52.247-59.1 4.287 4.003c2.664 2.48 6.8 5.564 12.42 9.274 5.616 3.71 11.896 7.42 18.84 11.14 6.95 3.71 15.23 6.85 24.84 9.42 9.615 2.57 19.274 3.86 28.98 3.86V169.03H246.7v255.82c9.135 0 18.364-1.24 27.69-3.717 9.33-2.47 17.135-5.232 23.42-8.278 6.273-3.05 12.47-6.52 18.553-10.42 6.09-3.9 10.09-6.612 11.99-8.138 1.91-1.526 3.334-2.762 4.285-3.71l56.536 56.243c3.435 3.617 7.71 5.424 12.85 5.424s9.422-1.807 12.854-5.424c3.607-3.617 5.42-7.902 5.42-12.85s-1.812-9.233-5.42-12.848l-59.39-59.67c12.756-22.65 19.13-50.25 19.13-82.795h63.954c4.948 0 9.235-1.81 12.846-5.427 3.614-3.614 5.43-7.898 5.43-12.847 0-4.948-1.815-9.235-5.443-12.853z"/><path d="M293.08 31.27c-17.794-17.795-39.35-26.696-64.666-26.696-25.32 0-46.87 8.9-64.668 26.696-17.795 17.797-26.69 39.353-26.69 64.667H319.77c0-25.31-8.894-46.87-26.69-64.667z"/></svg>