<?xml version="1.0" encoding="iso-8859-1"?>
<!-- Generator: Adobe Illustrator 16.0.0, SVG Export Plug-In . SVG Version: 6.00 Build 0)  -->
<!DOCTYPE svg PUBLIC "-//W3C//DTD SVG 1.1//EN" "http://www.w3.org/Graphics/SVG/1.1/DTD/svg11.dtd">
<svg version="1.1" id="Capa_1" xmlns="http://www.w3.org/2000/svg" xmlns:xlink="http://www.w3.org/1999/xlink" x="0px" y="0px"
	 width="79.536px" height="79.536px" viewBox="0 0 79.536 79.536" style="enable-background:new 0 0 79.536 79.536;"
	 xml:space="preserve">
<g>
	<path style="fill:#010002;" d="M13.155,31.416l18.271,18.75v25.486h-0.143v0.094H16.301V64.737L1.007,44.542
		C0.399,43.781,0,42.859,0,41.839V10.801c0-2.429,1.973-4.406,4.412-4.406c2.423,0,4.401,1.978,4.401,4.406v17.927
		c-1.067,0.233-2.079,0.678-2.895,1.473c-2.335,2.286-2.393,6.041-0.111,8.383l8.339,8.578l1.134-1.113l-8.35-8.558
		c-1.67-1.722-1.634-4.486,0.073-6.167c0.541-0.502,1.173-0.862,1.851-1.054c0.728-0.207,1.476-0.217,2.195-0.07
		C11.861,30.403,12.588,30.823,13.155,31.416z M66.384,31.416L48.095,50.17v25.492h0.145v0.083h14.996V64.742l15.286-20.2
		c0.616-0.761,1.015-1.683,1.015-2.702V10.801c0-2.429-1.973-4.406-4.412-4.406c-2.423,0-4.401,1.978-4.401,4.406v17.927
		c1.072,0.233,2.082,0.678,2.895,1.473c2.341,2.286,2.397,6.041,0.119,8.383l-8.347,8.578l-1.14-1.113l8.358-8.558
		c1.662-1.727,1.631-4.486-0.089-6.172c-0.528-0.502-1.175-0.865-1.849-1.054c-0.714-0.207-1.471-0.218-2.19-0.07
		C67.679,30.403,66.953,30.823,66.384,31.416z M39.763,38.398c4.779,0,8.834-1.722,12.236-5.09
		c3.387-3.381,5.074-7.438,5.074-12.238c0-4.767-1.688-8.86-5.074-12.236c-3.402-3.389-7.457-5.043-12.236-5.043
		c-4.771,0-8.87,1.654-12.217,5.043c-3.41,3.376-5.08,7.47-5.08,12.236c0,4.8,1.665,8.849,5.08,12.238
		C30.893,36.676,34.991,38.398,39.763,38.398z"/>
</g>
<g>
</g>
<g>
</g>
<g>
</g>
<g>
</g>
<g>
</g>
<g>
</g>
<g>
</g>
<g>
</g>
<g>
</g>
<g>
</g>
<g>
</g>
<g>
</g>
<g>
</g>
<g>
</g>
<g>
</g>
</svg>
