<svg xmlns="http://www.w3.org/2000/svg" viewBox="0 0 969.186 969.187"><path d="M604.69 233.843c-2.7-8.3-10.4-13.9-19-13.9h-200.6c-8.7 0-16.4 5.6-19 13.9l-36 112.1c-4.1 12.9 5.5 26.1 19 26.1h272.6c6.1 0 11.3-2.6 14.9-6.7-9.5-7.5-15.2-19-15.2-31.3 0-8.7 2.8-17 7.8-23.7l-24.5-76.5zm-384.7 175.4c-8.7 0-16.4 5.6-19 13.9l-36 112.1c-4.2 12.9 5.5 26.1 19 26.1h272.6c13.6 0 23.2-13.2 19-26.1l-36-112.1c-2.7-8.3-10.4-13.9-19-13.9h-200.6zm-200 340h272.6c13.6 0 23.2-13.2 19-26.1l-36-112.1c-2.7-8.3-10.4-13.9-19-13.9H55.99c-8.7 0-16.4 5.6-19 13.9l-36 112.1c-4.2 12.9 5.5 26.1 19 26.1zm912.1-138.2c-2.7-8.3-10.4-13.9-19-13.9h-200.5c-8.7 0-16.4 5.6-19 13.9l-36 112.1c-4.2 12.9 5.5 26.1 19 26.1h272.6c13.6 0 23.2-13.2 19-26.1l-36.1-112.1zm-584.4 138.2h272.6c13.6 0 23.2-13.2 19-26.1l-36-112.1c-2.7-8.3-10.4-13.9-19-13.9h-200.6c-8.7 0-16.4 5.6-19 13.9l-36 112.1c-4.2 12.9 5.4 26.1 19 26.1zm456.7-214.1l-24.7-76.9c-7 5.6-15.8 8.9-25.1 8.9-14.6 0-28.1-8-35.1-20.8l-20.3-37.1H548.787c-8.7 0-16.4 5.6-19 13.9l-36 112.1c-4.2 12.9 5.5 26.1 19 26.1H785.39c13.6 0 23.2-13.2 19-26.2zm48.2-192.4c6.9-3.8 6.9-13.8 0-17.5l-44.8-24.5c-8.4-4.6-15.3-11.5-19.9-19.9l-24.5-44.8c-1.9-3.5-5.3-5.2-8.8-5.2s-6.9 1.7-8.8 5.2l-24.5 44.8c-4.6 8.4-11.5 15.3-19.9 19.9l-44.8 24.5c-6.9 3.8-6.9 13.8 0 17.5l44.8 24.5c8.4 4.6 15.3 11.5 19.9 19.9l12.1 22.1 12.4 22.7c1.9 3.5 5.3 5.2 8.8 5.2s6.9-1.7 8.8-5.2l5-9.1 19.6-35.7c4.6-8.4 11.5-15.3 19.9-19.9l44.7-24.5z"/></svg>