<svg xmlns="http://www.w3.org/2000/svg" viewBox="0 0 195.296 195.296"><path d="M6.168 98.51h62.714l9.86-46.454c.5-2.36 2.6-4.034 5.025-3.96 2.41.064 4.432 1.84 4.806 4.223l8.212 52.34 5.126-16.34c.6-1.9 2.27-3.27 4.25-3.48 1.98-.21 3.9.78 4.88 2.514l7.2 12.765 70.35-.546c2.813-5.474 4.885-11.47 5.908-18.094 2.853-18.442-1.914-37-12.75-49.64-9.596-11.194-23.24-17.11-39.457-17.11-25.165 0-39.46 16.894-44.63 24.52-5.17-7.626-19.467-24.52-44.63-24.52-16.217 0-29.86 5.914-39.46 17.11C2.728 44.49-2.04 63.05.81 81.49c.96 6.19 2.824 11.838 5.36 17.018z"/><path d="M115.364 110.155c-1.798-.03-3.5-.96-4.394-2.544l-2.974-5.27-8.068 25.72c-.658 2.1-2.6 3.508-4.768 3.508-.124 0-.248-.004-.373-.014-2.316-.173-4.21-1.92-4.57-4.212l-7.322-46.68-5.072 23.896c-.49 2.31-2.53 3.963-4.89 3.963h-60.68c11.886 16.21 30.28 27.13 44.996 35.856 7.21 4.276 14.02 8.316 18.76 12.18 17.49 14.27 19.1 21.47 19.15 21.77.15 1.25 1.21 2.238 2.472 2.238 1.292 0 2.367-.94 2.484-2.225.012-.07 1.37-7.27 19.157-21.78 4.74-3.867 11.55-7.907 18.764-12.184 14.37-8.52 32.252-19.133 44.152-34.727l-66.84.515z"/></svg>