<?xml version="1.0" encoding="iso-8859-1"?>
<!-- Generator: Adobe Illustrator 16.0.0, SVG Export Plug-In . SVG Version: 6.00 Build 0)  -->
<!DOCTYPE svg PUBLIC "-//W3C//DTD SVG 1.1//EN" "http://www.w3.org/Graphics/SVG/1.1/DTD/svg11.dtd">
<svg version="1.1" id="Capa_1" xmlns="http://www.w3.org/2000/svg" xmlns:xlink="http://www.w3.org/1999/xlink" x="0px" y="0px"
	 width="357.507px" height="357.507px" viewBox="0 0 357.507 357.507" style="enable-background:new 0 0 357.507 357.507;"
	 xml:space="preserve">
<g>
	<g>
		<path d="M357.507,248.234v46.021h-150.9v-46.021H357.507z M190.172,76.672c0-4.513,3.675-8.19,8.185-8.19
			c4.533,0,8.208,3.672,8.208,8.19v9.617h-16.393V76.672z M186.197,76.672v10.385h-20.515V76.672
			c0-6.708-5.467-12.169-12.181-12.169c-6.71,0-12.174,5.461-12.174,12.169v10.385h-9.779V41.033h89.525v46.024h-10.532V76.672
			c0-6.708-5.477-12.169-12.178-12.169S186.197,69.964,186.197,76.672z M145.316,76.672c0-4.513,3.672-8.19,8.191-8.19
			c4.513,0,8.196,3.672,8.196,8.19v9.617h-16.381v-9.617H145.316z M200.855,117.931v20.933h-50.264v-20.933H200.855z
			 M200.855,144.637v20.138h-50.264v-20.138H200.855z M200.855,170.542v20.119h-50.264v-20.119H200.855z M200.855,196.426v17.6
			h-50.264v-17.6H200.855z M200.855,219.796v22.675h-50.264v-22.675H200.855z M200.855,248.234v20.285h-50.264v-20.285H200.855z
			 M200.855,274.283v19.973h-50.264v-19.973H200.855z M200.855,300.026v16.447h-50.264v-16.447H200.855z M150.591,112.175V92.837
			h50.264v19.338H150.591z M206.607,138.869V92.843h46.598v46.026H206.607z M206.607,190.661v-46.024h81.348v46.024H206.607z
			 M206.607,242.464v-46.038h114.626v46.038H206.607z M99.518,138.869V92.843h45.306v46.026H99.518z M64.672,190.661v-46.024h80.152
			v46.024H64.672z M36.278,242.464v-46.038h108.545v46.038H36.278z M0,294.256v-46.021h144.824v46.021H0z"/>
	</g>
</g>
<g>
</g>
<g>
</g>
<g>
</g>
<g>
</g>
<g>
</g>
<g>
</g>
<g>
</g>
<g>
</g>
<g>
</g>
<g>
</g>
<g>
</g>
<g>
</g>
<g>
</g>
<g>
</g>
<g>
</g>
</svg>
