<?xml version="1.0" encoding="UTF-8"?>
<svg width="58px" height="57px" viewBox="0 0 58 57" version="1.1" xmlns="http://www.w3.org/2000/svg" xmlns:xlink="http://www.w3.org/1999/xlink">
    <!-- Generator: Sketch 50.2 (55047) - http://www.bohemiancoding.com/sketch -->
    <title>Group 8</title>
    <desc>Created with Sketch.</desc>
    <defs>
        <path d="M38.9143693,3.93825927 C40.2967882,2.72731951 42.0684531,2 44,2 C48.418278,2 52,5.80557963 52,10.5 C52,13.0568837 50.9374488,15.3500846 49.2559096,16.9083165 C50.2113153,19.5928044 50.7317073,22.4853088 50.7317073,25.5 C50.7317073,39.5832611 39.3750278,51 25.3658537,51 C11.3566795,51 0,39.5832611 0,25.5 C0,11.4167389 11.3566795,0 25.3658537,0 C30.348006,0 34.9946808,1.44394618 38.9143693,3.93825927 Z" id="path-1"></path>
        <filter x="-9.6%" y="-5.9%" width="119.2%" height="119.6%" filterUnits="objectBoundingBox" id="filter-2">
            <feMorphology radius="1" operator="dilate" in="SourceAlpha" result="shadowSpreadOuter1"></feMorphology>
            <feOffset dx="0" dy="2" in="shadowSpreadOuter1" result="shadowOffsetOuter1"></feOffset>
            <feGaussianBlur stdDeviation="1" in="shadowOffsetOuter1" result="shadowBlurOuter1"></feGaussianBlur>
            <feComposite in="shadowBlurOuter1" in2="SourceAlpha" operator="out" result="shadowBlurOuter1"></feComposite>
            <feColorMatrix values="0 0 0 0 0.876302083   0 0 0 0 0.875558693   0 0 0 0 0.875558693  0 0 0 0.5 0" type="matrix" in="shadowBlurOuter1"></feColorMatrix>
        </filter>
    </defs>
    <g id="Symbols" stroke="none" stroke-width="1" fill="none" fill-rule="evenodd">
        <g id="Buttons/Wow/Buble-Default" transform="translate(3.000000, 1.000000)">
            <g id="Group-8">
                <g id="Group-2-Copy-4">
                    <g id="Combined-Shape">
                        <use fill="black" fill-opacity="1" filter="url(#filter-2)" xlink:href="#path-1"></use>
                        <path stroke="#E6E1FF" stroke-width="1" d="M38.8717944,3.32159229 C40.3335627,2.14882903 42.1197923,1.5 44,1.5 C48.7014245,1.5 52.5,5.5359865 52.5,10.5 C52.5,13.0126121 51.5214788,15.360066 49.8335734,17.0462396 C50.7554205,19.7425738 51.2317073,22.5888633 51.2317073,25.5 C51.2317073,39.8588149 39.6517623,51.5 25.3658537,51.5 C11.0799451,51.5 -0.5,39.8588149 -0.5,25.5 C-0.5,11.1411851 11.0799451,-0.5 25.3658537,-0.5 C30.2015701,-0.5 34.8419776,0.836635977 38.8717944,3.32159229 Z" fill="#FFFFFF" fill-rule="evenodd"></path>
                    </g>
                </g>
                <path d="M20.5062347,21.2330703 C20.5328492,21.4224426 20.5072944,21.6813776 20.436923,22.0694391 L18.9894377,29.5702705 C18.9756909,29.6705833 18.9482027,29.7792922 18.9078301,29.9010157 C18.8440428,30.0933346 18.7072828,30.2766141 18.4898685,30.4999178 C18.2409402,30.7555892 17.92353,30.9109967 17.5562971,30.9626079 C17.1890642,31.0142192 16.8411139,30.9523219 16.531356,30.7751688 C16.2547132,30.6169544 16.0463394,30.4356926 15.8902881,30.1765742 L14.4807962,27.3581401 C14.1246296,29.2739001 13.94116,30.2612938 13.9334797,30.3036681 C13.9139756,30.4112765 13.8728367,30.5263357 13.8096135,30.6668382 C13.7469485,30.8061 13.6705975,30.9362562 13.5807749,31.0566323 C13.3264584,31.3974559 12.9776723,31.6060917 12.5617568,31.6645448 C12.1808671,31.7180754 11.8325403,31.6685706 11.5311324,31.5052514 C11.2640464,31.3605296 11.060229,31.1909637 10.9261444,30.9829874 L10.7814543,30.7533812 L7.293797,23.9106959 C7.13586985,23.5907801 7.04171656,23.3394571 7.01221342,23.1295313 C6.9239301,22.5013629 7.31894239,22.0046305 8.04519498,21.6327782 C8.33122053,21.4858261 8.60559514,21.3919716 8.87024034,21.3547781 C9.22914976,21.3043367 9.55978248,21.4001679 9.81114252,21.6451456 C9.99301469,21.8223998 10.1526367,22.0733484 10.2981995,22.3900643 L11.5924227,25.0355471 L12.1009156,22.2008321 C12.1965657,21.6731089 12.4670529,21.2575093 12.8966134,20.9934251 C13.0953198,20.8700846 13.3376078,20.7929316 13.6238293,20.7527058 C13.9598691,20.7054785 14.2902695,20.771642 14.5986711,20.9435061 C14.8891958,21.1054079 15.1032497,21.2949268 15.2402235,21.5493307 L16.6174542,24.3513224 L17.1325451,21.4209205 C17.1759591,21.1978215 17.2141154,21.029123 17.2491604,20.9088179 C17.3057102,20.7146897 17.4181124,20.5378705 17.5771816,20.3723575 C17.767085,20.1747613 18.0145261,20.0564324 18.2997033,20.0163533 C18.5399935,19.9825827 18.808212,20.0017521 19.1080273,20.0679669 C19.9062701,20.2365209 20.4184945,20.6087669 20.5062347,21.2330703 Z M25.1819476,21.9620633 C26.4030566,21.9620633 27.4731378,22.4118077 28.3681325,23.2987109 C29.2669483,24.1894006 29.7205658,25.3047895 29.7205658,26.6167671 C29.7205658,27.921639 29.290951,29.0475607 28.4380598,29.9706285 C27.578497,30.9009168 26.5056573,31.3726194 25.2487466,31.3726194 C23.9946925,31.3726194 22.9152173,30.9089128 22.0375516,29.9938084 C21.1634917,29.0824635 20.7212615,27.9842202 20.7212615,26.7235349 C20.7212615,26.0410801 20.8442227,25.3976878 21.0905035,24.796866 C21.3364247,24.1969213 21.6679425,23.6886547 22.0851067,23.2759575 C22.4971457,22.8683306 22.971801,22.5475045 23.5065815,22.3149532 C24.0466089,22.0801203 24.6062894,21.9620633 25.1819476,21.9620633 Z M23.6195941,26.6673413 C23.6195941,27.2107447 23.7847154,27.6296361 24.118027,27.9544047 C24.4609996,28.2885867 24.8238854,28.4468056 25.2264802,28.4468056 C25.6312749,28.4468056 25.9933087,28.2926244 26.3324926,27.9682455 C26.6589609,27.6560271 26.8222332,27.2367473 26.8222332,26.6785801 C26.8222332,26.1200717 26.6569091,25.6963121 26.3253126,25.3761255 C25.9822914,25.0449072 25.6188579,24.8878771 25.2153471,24.8878771 C24.8133146,24.8878771 24.4529517,25.0456097 24.1139142,25.3788552 C23.7835207,25.7036044 23.6195941,26.123113 23.6195941,26.6673413 Z M42.9960225,24.691319 C42.9666942,24.8764907 42.8685163,25.1119264 42.6913095,25.4555767 L39.1842553,32.0729685 C39.1426143,32.163075 39.0856836,32.2571143 39.0129429,32.3596622 C38.8980151,32.5216842 38.7172639,32.6543152 38.4494243,32.801352 C38.1427615,32.9697016 37.8006336,33.0244213 37.4415465,32.9675475 C37.0824594,32.9106737 36.7739858,32.7529089 36.534355,32.4980348 C36.3203423,32.2704083 36.1769402,32.0407423 36.1049087,31.7530803 L35.5913177,28.7066938 C34.708279,30.400696 34.2532502,31.2738233 34.2339037,31.3113492 C34.1847739,31.4066453 34.1132249,31.5027256 34.0136783,31.6163296 C33.9150107,31.7289305 33.8061219,31.8290718 33.6874064,31.9161824 C33.3512845,32.1628208 32.9644835,32.2584504 32.5577938,32.1940371 C32.1853529,32.1350482 31.8729741,31.9887938 31.6372065,31.7492829 C31.4282862,31.5370456 31.2858035,31.3196509 31.2197075,31.0862328 L31.1498682,30.8294961 L29.8414088,23.4145638 C29.7850452,23.0693645 29.7688107,22.806753 29.8013221,22.6014838 C29.8986073,21.9872492 30.4113249,21.634769 31.1987971,21.4943126 C31.5090773,21.4385243 31.7932147,21.4291773 32.0519897,21.4701632 C32.4029378,21.525748 32.6854491,21.7103633 32.8508891,22.0120865 C32.9705936,22.230399 33.0483146,22.511425 33.0940035,22.8500802 L33.5490996,25.7012791 L34.8383525,23.1893866 C35.0792906,22.7220443 35.4520064,22.4099359 35.9304294,22.285474 C36.1520771,22.226794 36.401345,22.2239081 36.6812176,22.2682355 C37.0098035,22.3202784 37.3006006,22.4770126 37.5404759,22.7265393 C37.7664465,22.9616018 37.912807,23.2006373 37.9683041,23.4784111 L38.456362,26.5001351 L39.7792277,23.900424 C39.8838774,23.7037048 39.9680048,23.5564811 40.0353442,23.4537359 C40.1440051,23.287943 40.3000683,23.1543871 40.4966427,23.0448074 C40.7313213,22.9139867 40.9972228,22.8739741 41.2760743,22.9181398 C41.5110345,22.9553538 41.757004,23.0502061 42.0191119,23.1982217 C42.7191791,23.5850497 43.0927091,24.0808638 42.9960225,24.691319 Z" id="WOW-Copy-5" fill="#8473D4" fill-rule="nonzero"></path>
                <path d="M45.6666667,11.4732965 L45.6666667,13.6003683 C45.6666667,13.6949053 45.6322901,13.7765497 45.5635359,13.8453039 C45.4947817,13.914058 45.4131374,13.9484346 45.3186004,13.9484346 L43.694291,13.9484346 C43.599754,13.9484346 43.5181096,13.914058 43.4493554,13.8453039 C43.3806013,13.7765497 43.3462247,13.6949053 43.3462247,13.6003683 L43.3462247,11.4732965 L41.3480663,11.4732965 C41.2535293,11.4732965 41.1718849,11.4389199 41.1031308,11.3701657 C41.0343766,11.3014116 41,11.2197672 41,11.1252302 L41,9.82320442 C41,9.72866742 41.0343766,9.64702306 41.1031308,9.57826888 C41.1718849,9.5095147 41.2535293,9.47513812 41.3480663,9.47513812 L43.3462247,9.47513812 L43.3462247,7.3480663 C43.3462247,7.2535293 43.3806013,7.17188494 43.4493554,7.10313076 C43.5181096,7.03437657 43.599754,7 43.694291,7 L45.3186004,7 C45.4131374,7 45.4947817,7.03437657 45.5635359,7.10313076 C45.6322901,7.17188494 45.6666667,7.2535293 45.6666667,7.3480663 L45.6666667,9.47513812 L47.6519337,9.47513812 C47.7464707,9.47513812 47.8281151,9.5095147 47.8968692,9.57826888 C47.9656234,9.64702306 48,9.72866742 48,9.82320442 L48,11.1252302 C48,11.2197672 47.9656234,11.3014116 47.8968692,11.3701657 C47.8281151,11.4389199 47.7464707,11.4732965 47.6519337,11.4732965 L45.6666667,11.4732965 Z" id="+" fill="#8170D7"></path>
            </g>
        </g>
    </g>
</svg>