<?xml version="1.0" encoding="UTF-8"?>
<svg width="58px" height="57px" viewBox="0 0 58 57" version="1.1" xmlns="http://www.w3.org/2000/svg" xmlns:xlink="http://www.w3.org/1999/xlink">
    <!-- Generator: Sketch 50.2 (55047) - http://www.bohemiancoding.com/sketch -->
    <title>Group 8</title>
    <desc>Created with Sketch.</desc>
    <defs>
        <linearGradient x1="71.3003635%" y1="17.6028945%" x2="7.31488306%" y2="63.4090467%" id="linearGradient-1">
            <stop stop-color="#8C7CDB" offset="0%"></stop>
            <stop stop-color="#7562D2" offset="100%"></stop>
        </linearGradient>
        <path d="M38.9143693,3.93825927 C40.2967882,2.72731951 42.0684531,2 44,2 C48.418278,2 52,5.80557963 52,10.5 C52,13.0568837 50.9374488,15.3500846 49.2559096,16.9083165 C50.2113153,19.5928044 50.7317073,22.4853088 50.7317073,25.5 C50.7317073,39.5832611 39.3750278,51 25.3658537,51 C11.3566795,51 0,39.5832611 0,25.5 C0,11.4167389 11.3566795,0 25.3658537,0 C30.348006,0 34.9946808,1.44394618 38.9143693,3.93825927 Z" id="path-2"></path>
        <filter x="-7.7%" y="-3.9%" width="115.4%" height="115.7%" filterUnits="objectBoundingBox" id="filter-3">
            <feOffset dx="0" dy="2" in="SourceAlpha" result="shadowOffsetOuter1"></feOffset>
            <feGaussianBlur stdDeviation="1" in="shadowOffsetOuter1" result="shadowBlurOuter1"></feGaussianBlur>
            <feColorMatrix values="0 0 0 0 0.876302083   0 0 0 0 0.875558693   0 0 0 0 0.875558693  0 0 0 0.5 0" type="matrix" in="shadowBlurOuter1"></feColorMatrix>
        </filter>
    </defs>
    <g id="Symbols" stroke="none" stroke-width="1" fill="none" fill-rule="evenodd">
        <g id="Buttons/Wow/Buble-Default" transform="translate(3.000000, 1.000000)">
            <g id="Group-4">
                <g id="Group-2-Copy-4">
                    <g id="Combined-Shape">
                        <use fill="black" fill-opacity="1" filter="url(#filter-3)" xlink:href="#path-2"></use>
                        <use fill="url(#linearGradient-1)" fill-rule="evenodd" xlink:href="#path-2"></use>
                    </g>
                </g>
                <path d="M20.3428605,21.6012632 C20.369475,21.7906355 20.3439202,22.0495705 20.2735489,22.437632 L18.8260635,29.9384634 C18.8123167,30.0387763 18.7848285,30.1474852 18.7444559,30.2692086 C18.6806686,30.4615275 18.5439086,30.6448071 18.3264943,30.8681107 C18.077566,31.1237821 17.7601559,31.2791896 17.392923,31.3308009 C17.02569,31.3824121 16.6777397,31.3205149 16.3679819,31.1433617 C16.091339,30.9851473 15.8829652,30.8038856 15.726914,30.5447671 L14.317422,27.726333 C13.9612554,29.6420931 13.7777859,30.6294867 13.7701055,30.671861 C13.7506014,30.7794694 13.7094625,30.8945286 13.6462393,31.0350311 C13.5835743,31.1742929 13.5072233,31.3044491 13.4174008,31.4248253 C13.1630842,31.7656488 12.8142981,31.9742846 12.3983826,32.0327377 C12.0174929,32.0862683 11.6691661,32.0367635 11.3677582,31.8734443 C11.1006723,31.7287226 10.8968549,31.5591566 10.7627702,31.3511803 L10.6180802,31.1215741 L7.13042283,24.2788888 C6.97249568,23.958973 6.87834239,23.70765 6.84883925,23.4977242 C6.76055593,22.8695558 7.15556822,22.3728234 7.88182081,22.0009711 C8.16784636,21.854019 8.44222097,21.7601645 8.70686617,21.7229711 C9.06577559,21.6725296 9.39640831,21.7683608 9.64776835,22.0133385 C9.82964052,22.1905927 9.98926253,22.4415413 10.1348253,22.7582573 L11.4290485,25.40374 L11.9375415,22.5690251 C12.0331915,22.0413018 12.3036787,21.6257023 12.7332392,21.361618 C12.9319457,21.2382776 13.1742336,21.1611246 13.4604551,21.1208988 C13.7964949,21.0736715 14.1268953,21.1398349 14.4352969,21.311699 C14.7258216,21.4736008 14.9398755,21.6631197 15.0768493,21.9175237 L16.4540801,24.7195154 L16.9691709,21.7891134 C17.0125849,21.5660144 17.0507413,21.397316 17.0857863,21.2770109 C17.142336,21.0828826 17.2547382,20.9060634 17.4138074,20.7405505 C17.6037108,20.5429542 17.8511519,20.4246253 18.1363291,20.3845462 C18.3766193,20.3507757 18.6448378,20.3699451 18.9446531,20.4361598 C19.742896,20.6047138 20.2551204,20.9769598 20.3428605,21.6012632 Z M25.0991004,22.1040118 C26.3202094,22.1040118 27.3902906,22.5537563 28.2852853,23.4406594 C29.1841011,24.3313491 29.6377186,25.446738 29.6377186,26.7587156 C29.6377186,28.0635875 29.2081038,29.1895092 28.3552126,30.112577 C27.4956498,31.0428654 26.4228101,31.5145679 25.1658994,31.5145679 C23.9118453,31.5145679 22.8323701,31.0508613 21.9547044,30.1357569 C21.0806445,29.2244121 20.6384143,28.1261688 20.6384143,26.8654835 C20.6384143,26.1830286 20.7613755,25.5396363 21.0076563,24.9388145 C21.2535775,24.3388698 21.5850953,23.8306032 22.0022595,23.417906 C22.4142985,23.0102791 22.8889538,22.689453 23.4237343,22.4569017 C23.9637617,22.2220688 24.5234422,22.1040118 25.0991004,22.1040118 Z M23.6384143,26.883476 C23.6384143,27.4268794 23.8035355,27.8457708 24.1368472,28.1705394 C24.4798198,28.5047214 24.8427055,28.6629403 25.2453004,28.6629403 C25.6500951,28.6629403 26.0121288,28.5087591 26.3513127,28.1843802 C26.6777811,27.8721618 26.8410533,27.452882 26.8410533,26.8947147 C26.8410533,26.3362064 26.6757292,25.9124468 26.3441328,25.5922602 C26.0011116,25.2610419 25.637678,25.1040118 25.2341672,25.1040118 C24.8321347,25.1040118 24.4717718,25.2617444 24.1327343,25.5949899 C23.8023409,25.9197391 23.6384143,26.3392477 23.6384143,26.883476 Z M43.24779,25.6578868 C43.2184617,25.8430585 43.1202838,26.0784942 42.943077,26.4221445 L39.4360228,33.0395363 C39.3943818,33.1296428 39.3374511,33.2236821 39.2647104,33.32623 C39.1497826,33.488252 38.9690314,33.620883 38.7011918,33.7679198 C38.3945289,33.9362695 38.052401,33.9909891 37.693314,33.9341153 C37.3342269,33.8772415 37.0257533,33.7194767 36.7861225,33.4646026 C36.5721098,33.2369761 36.4287077,33.0073102 36.3566762,32.7196482 L35.8430852,29.6732617 C34.9600464,31.3672638 34.5050177,32.2403911 34.4856712,32.277917 C34.4365414,32.3732132 34.3649924,32.4692934 34.2654458,32.5828974 C34.1667782,32.6954983 34.0578894,32.7956396 33.9391739,32.8827502 C33.603052,33.1293886 33.216251,33.2250182 32.8095613,33.1606049 C32.4371204,33.1016161 32.1247416,32.9553616 31.888974,32.7158507 C31.6800537,32.5036134 31.537571,32.2862187 31.471475,32.0528006 L31.4016357,31.7960639 L30.0931763,24.3811316 C30.0368126,24.0359323 30.0205782,23.7733208 30.0530896,23.5680516 C30.1503748,22.953817 30.6630924,22.6013368 31.4505646,22.4608804 C31.7608447,22.4050921 32.0449822,22.3957451 32.3037571,22.4367311 C32.6547053,22.4923158 32.9372166,22.6769311 33.1026566,22.9786543 C33.2223611,23.1969669 33.3000821,23.4779928 33.3457709,23.816648 L33.8008671,26.6678469 L35.09012,24.1559544 C35.3310581,23.6886121 35.7037739,23.3765037 36.1821969,23.2520418 C36.4038446,23.1933618 36.6531125,23.1904759 36.9329851,23.2348034 C37.261571,23.2868463 37.5523681,23.4435804 37.7922434,23.6931071 C38.0182139,23.9281696 38.1645745,24.1672051 38.2200716,24.4449789 L38.7081295,27.466703 L40.0309952,24.8669918 C40.1356448,24.6702727 40.2197723,24.5230489 40.2871116,24.4203038 C40.3957726,24.2545109 40.5518358,24.1209549 40.7484101,24.0113753 C40.9830887,23.8805546 41.2489903,23.8405419 41.5278418,23.8847076 C41.7628019,23.9219217 42.0087715,24.016774 42.2708794,24.1647895 C42.9709465,24.5516176 43.3444766,25.0474316 43.24779,25.6578868 Z" id="WOW-Copy-5" fill="#FFFFFF" fill-rule="nonzero"></path>
                <path d="M45.9858738,11.0253024 L45.9858738,13.1523742 C45.9858738,13.2469112 45.9514972,13.3285556 45.8827431,13.3973098 C45.8139889,13.4660639 45.7323445,13.5004405 45.6378075,13.5004405 L44.0134981,13.5004405 C43.9189611,13.5004405 43.8373168,13.4660639 43.7685626,13.3973098 C43.6998084,13.3285556 43.6654318,13.2469112 43.6654318,13.1523742 L43.6654318,11.0253024 L41.6672734,11.0253024 C41.5727364,11.0253024 41.4910921,10.9909258 41.4223379,10.9221716 C41.3535837,10.8534175 41.3192071,10.7717731 41.3192071,10.6772361 L41.3192071,9.37521031 C41.3192071,9.28067332 41.3535837,9.19902895 41.4223379,9.13027477 C41.4910921,9.06152059 41.5727364,9.02714402 41.6672734,9.02714402 L43.6654318,9.02714402 L43.6654318,6.90007219 C43.6654318,6.80553519 43.6998084,6.72389083 43.7685626,6.65513665 C43.8373168,6.58638247 43.9189611,6.55200589 44.0134981,6.55200589 L45.6378075,6.55200589 C45.7323445,6.55200589 45.8139889,6.58638247 45.8827431,6.65513665 C45.9514972,6.72389083 45.9858738,6.80553519 45.9858738,6.90007219 L45.9858738,9.02714402 L47.9711408,9.02714402 C48.0656778,9.02714402 48.1473222,9.06152059 48.2160764,9.13027477 C48.2848306,9.19902895 48.3192071,9.28067332 48.3192071,9.37521031 L48.3192071,10.6772361 C48.3192071,10.7717731 48.2848306,10.8534175 48.2160764,10.9221716 C48.1473222,10.9909258 48.0656778,11.0253024 47.9711408,11.0253024 L45.9858738,11.0253024 Z" id="+" fill="#FCFCFC"></path>
            </g>
        </g>
    </g>
</svg>