<?xml version="1.0" encoding="utf-8"?>
<!-- Generator: Adobe Illustrator 19.2.0, SVG Export Plug-In . SVG Version: 6.00 Build 0)  -->
<svg width="600" height="350" version="1.1" id="Layer_1" xmlns="http://www.w3.org/2000/svg" xmlns:xlink="http://www.w3.org/1999/xlink" x="0px" y="0px"
     viewBox="180 107 600 350" style="enable-background:new 0 0 600 350;" xml:space="preserve">
<style type="text/css">
    .st0{display:none;}
    .st1{opacity:1.000000e-02;}
    .st2{opacity:6.210526e-02;fill:#010101;}
    .st3{opacity:0.1142;fill:#020202;}
    .st4{opacity:0.1663;fill:#030303;}
    .st5{opacity:0.2184;fill:#040404;}
    .st6{opacity:0.2705;fill:#050505;}
    .st7{opacity:0.3226;fill:#060606;}
    .st8{opacity:0.3747;fill:#070707;}
    .st9{opacity:0.4268;fill:#080808;}
    .st10{opacity:0.4789;fill:#090909;}
    .st11{opacity:0.5311;fill:#090909;}
    .st12{opacity:0.5832;fill:#0A0A0A;}
    .st13{opacity:0.6353;fill:#0B0B0B;}
    .st14{opacity:0.6874;fill:#0C0C0C;}
    .st15{opacity:0.7395;fill:#0D0D0D;}
    .st16{opacity:0.7916;fill:#0E0E0E;}
    .st17{opacity:0.8437;fill:#0F0F0F;}
    .st18{opacity:0.8958;fill:#101010;}
    .st19{opacity:0.9479;fill:#111111;}
    .st20{fill:#121212;}
    .st21{fill:#1A1A1A;}
    .st22{fill:#333333;}
    .st23{fill:#999999;}
    .st24{fill:#0B0B0B;}
    .st25{fill:url(#SVGID_1_);}
    .st26{fill:url(#SVGID_2_);}
    .st27{fill:url(#SVGID_3_);}
    .st28{fill:#FFFFFF;}
    .st29{fill:#111111;}
    .st30{fill:url(#SVGID_4_);}
    .st31{fill:url(#SVGID_5_);}
    .st32{fill:url(#SVGID_6_);}
    .st33{fill:url(#SVGID_7_);}
    .st34{fill:url(#SVGID_8_);}
    .st35{fill:url(#SVGID_9_);}
    .st36{opacity:0.1;fill:url(#SVGID_10_);}
    .st37{opacity:0.6;fill:url(#SVGID_11_);}
    .st38{opacity:0.3;fill:url(#SVGID_12_);}
    .st39{fill:#666666;}
    .st40{fill:url(#SVGID_13_);}
    .st41{fill:url(#SVGID_14_);}
    .st42{fill:url(#SVGID_15_);}
    .st43{fill:url(#SVGID_16_);}
</style>
<path class="st0" d="M-978.5-423h-1809.3c-41.6,0-75.3,33.7-75.3,75.3V879.9c0,41.6,33.7,75.3,75.3,75.3h1809.3
    c41.6,0,75.3-33.7,75.3-75.3V-347.7C-903.2-389.3-936.9-423-978.5-423z"/>
<g>
    <g>
        <path class="st1" d="M754,448.7c11.2,0,20.2,0.9,20.2,2.1s-9.1,2.1-20.2,2.1H205.8c-11.2,0-20.2-0.9-20.2-2.1s9.1-2.1,20.2-2.1
            H754z"/>
        <path class="st2" d="M752.8,448.8c11.1,0,20.1,0.9,20.1,2c0,1.1-9,2-20.1,2H207.1c-11.1,0-20.1-0.9-20.1-2c0-1.1,9-2,20.1-2H752.8
            z"/>
        <path class="st3" d="M751.5,448.8c11.1,0,20.1,0.9,20.1,2c0,1.1-9,2-20.1,2H208.3c-11.1,0-20.1-0.9-20.1-2c0-1.1,9-2,20.1-2H751.5
            z"/>
        <path class="st4" d="M750.2,448.9c11,0,20,0.8,20,1.9c0,1-8.9,1.9-20,1.9H209.6c-11,0-20-0.8-20-1.9c0-1,8.9-1.9,20-1.9H750.2z"/>
        <path class="st5" d="M749,448.9c11,0,19.9,0.8,19.9,1.8c0,1-8.9,1.8-19.9,1.8H210.8c-11,0-19.9-0.8-19.9-1.8c0-1,8.9-1.8,19.9-1.8
            H749z"/>
        <path class="st6" d="M747.7,449c10.9,0,19.8,0.8,19.8,1.8s-8.9,1.8-19.8,1.8H212.1c-10.9,0-19.8-0.8-19.8-1.8s8.9-1.8,19.8-1.8
            H747.7z"/>
        <path class="st7" d="M746.4,449c10.9,0,19.7,0.8,19.7,1.7c0,1-8.8,1.7-19.7,1.7H213.4c-10.9,0-19.7-0.8-19.7-1.7
            c0-1,8.8-1.7,19.7-1.7H746.4z"/>
        <path class="st8" d="M745.2,449.1c10.8,0,19.6,0.7,19.6,1.7c0,0.9-8.8,1.7-19.6,1.7H214.6c-10.8,0-19.6-0.7-19.6-1.7
            c0-0.9,8.8-1.7,19.6-1.7H745.2z"/>
        <path class="st9" d="M743.9,449.2c10.8,0,19.5,0.7,19.5,1.6s-8.7,1.6-19.5,1.6h-528c-10.8,0-19.5-0.7-19.5-1.6s8.7-1.6,19.5-1.6
            H743.9z"/>
        <path class="st10" d="M742.6,449.2c10.7,0,19.4,0.7,19.4,1.6s-8.7,1.6-19.4,1.6H217.2c-10.7,0-19.4-0.7-19.4-1.6s8.7-1.6,19.4-1.6
            H742.6z"/>
        <path class="st11" d="M741.4,449.3c10.7,0,19.3,0.7,19.3,1.5s-8.6,1.5-19.3,1.5h-523c-10.7,0-19.3-0.7-19.3-1.5s8.6-1.5,19.3-1.5
            H741.4z"/>
        <path class="st12" d="M740.1,449.3c10.6,0,19.2,0.6,19.2,1.4s-8.6,1.4-19.2,1.4H219.7c-10.6,0-19.2-0.6-19.2-1.4s8.6-1.4,19.2-1.4
            H740.1z"/>
        <path class="st13" d="M738.9,449.4c10.6,0,19.1,0.6,19.1,1.4s-8.6,1.4-19.1,1.4H220.9c-10.6,0-19.1-0.6-19.1-1.4s8.6-1.4,19.1-1.4
            H738.9z"/>
        <path class="st14" d="M737.6,449.4c10.5,0,19,0.6,19,1.3c0,0.7-8.5,1.3-19,1.3H222.2c-10.5,0-19-0.6-19-1.3c0-0.7,8.5-1.3,19-1.3
            H737.6z"/>
        <path class="st15" d="M736.3,449.5c10.5,0,18.9,0.6,18.9,1.3s-8.5,1.3-18.9,1.3H223.5c-10.5,0-18.9-0.6-18.9-1.3s8.5-1.3,18.9-1.3
            H736.3z"/>
        <path class="st16" d="M735.1,449.5c10.4,0,18.8,0.5,18.8,1.2c0,0.7-8.4,1.2-18.8,1.2H224.7c-10.4,0-18.8-0.5-18.8-1.2
            c0-0.7,8.4-1.2,18.8-1.2H735.1z"/>
        <path class="st17" d="M733.8,449.6c10.4,0,18.7,0.5,18.7,1.2c0,0.6-8.4,1.2-18.7,1.2H226c-10.4,0-18.7-0.5-18.7-1.2
            c0-0.6,8.4-1.2,18.7-1.2H733.8z"/>
        <path class="st18" d="M732.5,449.7c10.3,0,18.7,0.5,18.7,1.1s-8.4,1.1-18.7,1.1H227.3c-10.3,0-18.7-0.5-18.7-1.1s8.4-1.1,18.7-1.1
            H732.5z"/>
        <path class="st19" d="M731.3,449.7c10.3,0,18.6,0.5,18.6,1.1c0,0.6-8.3,1.1-18.6,1.1H228.5c-10.3,0-18.6-0.5-18.6-1.1
            c0-0.6,8.3-1.1,18.6-1.1H731.3z"/>
        <path class="st20" d="M730,449.8c10.2,0,18.5,0.4,18.5,1c0,0.6-8.3,1-18.5,1H229.8c-10.2,0-18.5-0.4-18.5-1c0-0.6,8.3-1,18.5-1
            H730z"/>
    </g>
    <g>
        <path d="M706.1,107.2H253.7c-10.4,0-18.8,8.4-18.8,18.8v306.9c0,10.4,8.4,18.8,18.8,18.8h452.3c10.4,0,18.8-8.4,18.8-18.8V126
            C724.9,115.6,716.5,107.2,706.1,107.2L706.1,107.2z"/>
        <path class="st21" d="M706.1,110.2c8.7,0,15.8,7.1,15.8,15.8v306.9c0,8.7-7.1,15.8-15.8,15.8H253.7c-8.7,0-15.8-7.1-15.8-15.8V126
            c0-8.7,7.1-15.8,15.8-15.8H706.1 M706.1,107.2H253.7c-10.4,0-18.8,8.4-18.8,18.8v306.9c0,10.4,8.4,18.8,18.8,18.8h452.3
            c10.4,0,18.8-8.4,18.8-18.8V126C724.9,115.6,716.5,107.2,706.1,107.2L706.1,107.2z"/>
        <path class="st22" d="M706.1,109.2c9.3,0,16.8,7.5,16.8,16.8v306.9c0,9.3-7.5,16.8-16.8,16.8H253.7c-9.3,0-16.8-7.5-16.8-16.8V126
            c0-9.3,7.5-16.8,16.8-16.8H706.1 M706.1,107.2H253.7c-10.4,0-18.8,8.4-18.8,18.8v306.9c0,10.4,8.4,18.8,18.8,18.8h452.3
            c10.4,0,18.8-8.4,18.8-18.8V126C724.9,115.6,716.5,107.2,706.1,107.2L706.1,107.2z"/>
        <path class="st23" d="M706.1,108.9c9.4,0,17.1,7.7,17.1,17.1v306.9c0,9.4-7.7,17.1-17.1,17.1H253.7c-9.4,0-17.1-7.7-17.1-17.1V126
            c0-9.4,7.7-17.1,17.1-17.1H706.1 M706.1,107.2H253.7c-10.4,0-18.8,8.4-18.8,18.8v306.9c0,10.4,8.4,18.6,18.8,18.6h452.3
            c10.4,0,18.8-8.2,18.8-18.6V126C724.9,115.6,716.5,107.2,706.1,107.2L706.1,107.2z"/>
        <g>
            <path d="M254.6,414.7c-0.3,0-0.5-0.2-0.5-0.5V132.4c0-0.3,0.2-0.5,0.5-0.5h450.6c0.3,0,0.5,0.2,0.5,0.5v281.8
                c0,0.3-0.2,0.5-0.5,0.5H254.6z"/>
            <path class="st24" d="M705.2,132.4v281.8H254.6V132.4H705.2 M705.2,131.4H254.6c-0.6,0-1,0.4-1,1v281.8c0,0.6,0.4,1,1,1h450.6
                c0.6,0,1-0.4,1-1V132.4C706.2,131.9,705.7,131.4,705.2,131.4L705.2,131.4z"/>
        </g>
        <g>
            <linearGradient id="SVGID_1_" gradientUnits="userSpaceOnUse" x1="480.7921" y1="121.8838" x2="479.6971" y2="120.7888">
                <stop  offset="0" style="stop-color:#666666"/>
                <stop  offset="1" style="stop-color:#333333"/>
            </linearGradient>
            <circle class="st25" cx="479.9" cy="121" r="1.9"/>
            <linearGradient id="SVGID_2_" gradientUnits="userSpaceOnUse" x1="480.4796" y1="121.5713" x2="479.6191" y2="120.7108">
                <stop  offset="0" style="stop-color:#333333"/>
                <stop  offset="1" style="stop-color:#000000"/>
            </linearGradient>
            <circle class="st26" cx="479.9" cy="121" r="0.9"/>
            <radialGradient id="SVGID_3_" cx="479.9015" cy="120.9931" r="0.615" gradientUnits="userSpaceOnUse">
                <stop  offset="0" style="stop-color:#000000"/>
                <stop  offset="1" style="stop-color:#1B1464"/>
            </radialGradient>
            <circle class="st27" cx="479.9" cy="121" r="0.6"/>
            <path class="st28" d="M479.6,122.1L479.6,122.1c-0.1,0-0.2-0.1-0.2-0.2v-0.6c0-0.1,0.1-0.2,0.2-0.2l0,0c0.1,0,0.2,0.1,0.2,0.2
                v0.6C479.7,122.1,479.7,122.1,479.6,122.1z"/>
        </g>
    </g>
    <path class="st29" d="M709.2,438.9H251c-6.5,0-11.7-5.2-11.7-11.7l0,0h481.7l0,0C720.9,433.7,715.6,438.9,709.2,438.9z"/>
    <g>
        <linearGradient id="SVGID_4_" gradientUnits="userSpaceOnUse" x1="180.3262" y1="441.7068" x2="422.6736" y2="441.7068">
            <stop  offset="0" style="stop-color:#6B6A6D"/>
            <stop  offset="5.000000e-03" style="stop-color:#2B2A2E"/>
            <stop  offset="1.194422e-02" style="stop-color:#4B4A4E"/>
            <stop  offset="2.148169e-02" style="stop-color:#6F6E73"/>
            <stop  offset="3.147892e-02" style="stop-color:#8E8D92"/>
            <stop  offset="4.190392e-02" style="stop-color:#A5A4AA"/>
            <stop  offset="5.293538e-02" style="stop-color:#B6B5BB"/>
            <stop  offset="6.499094e-02" style="stop-color:#C0BFC5"/>
            <stop  offset="8.000000e-02" style="stop-color:#C3C2C8"/>
        </linearGradient>
        <polygon class="st30" points="422.7,443.5 180.3,443.5 180.3,440 422.7,440       "/>

            <linearGradient id="SVGID_5_" gradientUnits="userSpaceOnUse" x1="-5197.0625" y1="441.7068" x2="-4954.7153" y2="441.7068" gradientTransform="matrix(-1 0 0 1 -4417.3887 0)">
            <stop  offset="0" style="stop-color:#6B6A6D"/>
            <stop  offset="5.000000e-03" style="stop-color:#2B2A2E"/>
            <stop  offset="1.194422e-02" style="stop-color:#4B4A4E"/>
            <stop  offset="2.148169e-02" style="stop-color:#6F6E73"/>
            <stop  offset="3.147892e-02" style="stop-color:#8E8D92"/>
            <stop  offset="4.190392e-02" style="stop-color:#A5A4AA"/>
            <stop  offset="5.293538e-02" style="stop-color:#B6B5BB"/>
            <stop  offset="6.499094e-02" style="stop-color:#C0BFC5"/>
            <stop  offset="8.000000e-02" style="stop-color:#C3C2C8"/>
        </linearGradient>
        <rect x="537.3" y="440" class="st31" width="242.3" height="3.5"/>
        <linearGradient id="SVGID_6_" gradientUnits="userSpaceOnUse" x1="480" y1="443.4569" x2="480" y2="451.7712">
            <stop  offset="0" style="stop-color:#6D6C71"/>
            <stop  offset="0.1814" style="stop-color:#656469"/>
            <stop  offset="0.4629" style="stop-color:#4F4F53"/>
            <stop  offset="0.8072" style="stop-color:#2C2C30"/>
            <stop  offset="0.9968" style="stop-color:#161619"/>
        </linearGradient>
        <path class="st32" d="M180.3,443.5c0,0,15.6,8.3,87.6,8.3H692c72,0,87.6-8.3,87.6-8.3H180.3z"/>

            <linearGradient id="SVGID_7_" gradientUnits="userSpaceOnUse" x1="-3954.1853" y1="444.7069" x2="-3954.1853" y2="443.4569" gradientTransform="matrix(-1 0 0 1 -3645.071 0)">
            <stop  offset="0" style="stop-color:#6A696D"/>
            <stop  offset="0.9968" style="stop-color:#575759"/>
        </linearGradient>
        <path class="st33" d="M437.9,443.5v1.2H183.7c-2.5-0.8-3.4-1.2-3.4-1.2H437.9z"/>
        <linearGradient id="SVGID_8_" gradientUnits="userSpaceOnUse" x1="650.8858" y1="444.7068" x2="650.8858" y2="443.4568">
            <stop  offset="0" style="stop-color:#6A696D"/>
            <stop  offset="0.9968" style="stop-color:#575759"/>
        </linearGradient>
        <path class="st34" d="M522.1,443.5v1.2h254.2c2.5-0.8,3.4-1.2,3.4-1.2H522.1z"/>
        <linearGradient id="SVGID_9_" gradientUnits="userSpaceOnUse" x1="422.6736" y1="442.3318" x2="537.3265" y2="442.3318">
            <stop  offset="0" style="stop-color:#555458"/>
            <stop  offset="1.667132e-02" style="stop-color:#706F74"/>
            <stop  offset="3.925239e-02" style="stop-color:#8E8D92"/>
            <stop  offset="6.303619e-02" style="stop-color:#A5A4AA"/>
            <stop  offset="8.821850e-02" style="stop-color:#B6B5BB"/>
            <stop  offset="0.1157" style="stop-color:#C0BFC5"/>
            <stop  offset="0.15" style="stop-color:#C3C2C8"/>
            <stop  offset="0.85" style="stop-color:#C3C2C8"/>
            <stop  offset="0.8843" style="stop-color:#C0BFC5"/>
            <stop  offset="0.9118" style="stop-color:#B6B5BB"/>
            <stop  offset="0.937" style="stop-color:#A5A4AA"/>
            <stop  offset="0.9607" style="stop-color:#8E8D92"/>
            <stop  offset="0.9833" style="stop-color:#706F74"/>
            <stop  offset="1" style="stop-color:#555458"/>
        </linearGradient>
        <path class="st35" d="M480.2,440H480h-57.3v3.5c0,0,3.9,1.2,15.2,1.2c10.8,0,39.4,0,42.1,0c0,0,0.1,0,0.2,0c2.7,0,31.1,0,41.9,0
            c11.3,0,15.2-1.2,15.2-1.2V440H480.2z"/>
        <linearGradient id="SVGID_10_" gradientUnits="userSpaceOnUse" x1="480" y1="445.1677" x2="480" y2="444.7068">
            <stop  offset="0" style="stop-color:#FFFFFF;stop-opacity:0"/>
            <stop  offset="0.9968" style="stop-color:#FFFFFF"/>
        </linearGradient>
        <path class="st36" d="M183.7,444.7c0.5,0.1,1,0.3,1.6,0.5h589.3c0.6-0.2,1.1-0.3,1.6-0.5H183.7z"/>
        <linearGradient id="SVGID_11_" gradientUnits="userSpaceOnUse" x1="692.0475" y1="447.614" x2="779.6738" y2="447.614">
            <stop  offset="0" style="stop-color:#000000;stop-opacity:0"/>
            <stop  offset="0.9039" style="stop-color:#000000;stop-opacity:0.9039"/>
            <stop  offset="1" style="stop-color:#000000"/>
        </linearGradient>
        <path class="st37" d="M692,443.5v8.3c72,0,87.6-8.3,87.6-8.3H692z"/>
        <linearGradient id="SVGID_12_" gradientUnits="userSpaceOnUse" x1="480" y1="440.3839" x2="480" y2="439.9568">
            <stop  offset="0" style="stop-color:#FFFFFF;stop-opacity:0"/>
            <stop  offset="0.9968" style="stop-color:#FFFFFF"/>
        </linearGradient>
        <rect x="180.3" y="440" class="st38" width="599.3" height="0.4"/>
    </g>
    <g>
        <g>
            <path class="st39" d="M241.5,448.8c0,0.2-1,0.4-2.3,0.4c-1.3,0-2.3-0.2-2.3-0.4c0,0,0-0.2,0-0.2s1.2-0.2,2.3-0.2
                c0.9,0,2.3,0.2,2.3,0.2S241.5,448.8,241.5,448.8z"/>

                <radialGradient id="SVGID_13_" cx="239.1453" cy="180.4764" r="3.0819" gradientTransform="matrix(1 0 0 0.4766 0 363.4544)" gradientUnits="userSpaceOnUse">
                <stop  offset="0" style="stop-color:#666666"/>
                <stop  offset="0.1941" style="stop-color:#5E5E5E"/>
                <stop  offset="0.4951" style="stop-color:#484849"/>
                <stop  offset="0.8635" style="stop-color:#252527"/>
                <stop  offset="0.9968" style="stop-color:#161619"/>
            </radialGradient>
            <ellipse class="st40" cx="239.2" cy="448.7" rx="2.3" ry="0.4"/>
        </g>
        <g>
            <path class="st39" d="M408.8,449c0,0.2-1,0.4-2.3,0.4c-1.3,0-2.3-0.2-2.3-0.4c0,0,0-0.2,0-0.2s1.2-0.2,2.3-0.2
                c0.9,0,2.3,0.2,2.3,0.2S408.8,449,408.8,449z"/>

                <radialGradient id="SVGID_14_" cx="406.3975" cy="180.796" r="3.0819" gradientTransform="matrix(1 0 0 0.4766 0 363.509)" gradientUnits="userSpaceOnUse">
                <stop  offset="0" style="stop-color:#666666"/>
                <stop  offset="0.1941" style="stop-color:#5E5E5E"/>
                <stop  offset="0.4951" style="stop-color:#484849"/>
                <stop  offset="0.8635" style="stop-color:#252527"/>
                <stop  offset="0.9968" style="stop-color:#161619"/>
            </radialGradient>
            <ellipse class="st41" cx="406.4" cy="448.9" rx="2.3" ry="0.4"/>
        </g>
        <g>
            <path class="st39" d="M718.3,448.8c0,0.2,1,0.4,2.3,0.4s2.3-0.2,2.3-0.4c0,0,0-0.2,0-0.2s-1.2-0.2-2.3-0.2
                c-0.9,0-2.3,0.2-2.3,0.2S718.3,448.8,718.3,448.8z"/>

                <radialGradient id="SVGID_15_" cx="-4486.8345" cy="180.4764" r="3.0819" gradientTransform="matrix(-1 0 0 0.4766 -3766.1768 363.4544)" gradientUnits="userSpaceOnUse">
                <stop  offset="0" style="stop-color:#666666"/>
                <stop  offset="0.1941" style="stop-color:#5E5E5E"/>
                <stop  offset="0.4951" style="stop-color:#484849"/>
                <stop  offset="0.8635" style="stop-color:#252527"/>
                <stop  offset="0.9968" style="stop-color:#161619"/>
            </radialGradient>
            <ellipse class="st42" cx="720.6" cy="448.7" rx="2.3" ry="0.4"/>
        </g>
        <g>
            <path class="st39" d="M551,449c0,0.2,1,0.4,2.3,0.4s2.3-0.2,2.3-0.4c0,0,0-0.2,0-0.2s-1.2-0.2-2.3-0.2c-0.9,0-2.3,0.2-2.3,0.2
                S551,449,551,449z"/>

                <radialGradient id="SVGID_16_" cx="-4319.5825" cy="180.796" r="3.0819" gradientTransform="matrix(-1 0 0 0.4766 -3766.1768 363.509)" gradientUnits="userSpaceOnUse">
                <stop  offset="0" style="stop-color:#666666"/>
                <stop  offset="0.1941" style="stop-color:#5E5E5E"/>
                <stop  offset="0.4951" style="stop-color:#484849"/>
                <stop  offset="0.8635" style="stop-color:#252527"/>
                <stop  offset="0.9968" style="stop-color:#161619"/>
            </radialGradient>
            <ellipse class="st43" cx="553.4" cy="448.9" rx="2.3" ry="0.4"/>
        </g>
    </g>
</g>
</svg>
