<?xml version="1.0" encoding="UTF-8"?>
<svg width="397px" height="172px" viewBox="0 0 397 172" version="1.1" xmlns="http://www.w3.org/2000/svg" xmlns:xlink="http://www.w3.org/1999/xlink" style="background: #FFFFFF;">
    <!-- Generator: Sketch 46.2 (44496) - http://www.bohemiancoding.com/sketch -->
    <title>beme-horiz-white-web</title>
    <desc>Created with Sketch.</desc>
    <defs></defs>
    <g id="Page-1" stroke="none" stroke-width="1" fill="none" fill-rule="evenodd">
        <g id="beme-horiz-white-web">
            <g id="Group-2">
                <g id="logo_white">
                    <path d="M102.279127,85.9505119 C92.362159,70.3148226 75.1757133,59.9649004 55.6192562,59.9649004 C36.0634171,59.9649004 18.8769714,70.3148226 8.96000296,85.9505119 C18.8769714,101.586201 36.0634171,111.936123 55.6192562,111.936123 C75.1757133,111.936123 92.362159,101.586201 102.279127,85.9505119 Z" id="Fill-7" fill="#00022C"></path>
                    <path d="M55.6192562,60.5837209 C75.1757133,60.5837209 92.362159,70.6964547 102.279127,85.9753755 C107.938727,77.2547281 111.238821,66.8580086 111.238821,55.683577 C111.238821,24.9302245 86.3373241,0.000123741007 55.6192562,0.000123741007 C24.9018063,0.000123741007 -0.000308997585,24.9302245 -0.000308997585,55.683577 C-0.000308997585,66.8580086 3.3004032,77.2547281 8.96000296,85.9753755 C18.8769714,70.6964547 36.0634171,60.5837209 55.6192562,60.5837209" id="Fill-1" fill="#FF0000"></path>
                    <path d="M55.6192562,111.366783 C36.0634171,111.366783 18.8769714,101.25343 8.96000296,85.9751281 C3.3004032,94.6957755 -0.000308997585,105.092495 -0.000308997585,116.266927 C-0.000308997585,147.01966 24.9018063,171.95038 55.6192562,171.95038 C86.3373241,171.95038 111.238821,147.01966 111.238821,116.266927 C111.238821,105.092495 107.938727,94.6957755 102.279127,85.9751281 C92.362159,101.25343 75.1757133,111.366783 55.6192562,111.366783" id="Fill-4" fill="#4BF6D7"></path>
                </g>
                <g id="logotype_white" transform="translate(145.000000, 46.000000)" fill="#00022C">
                    <path d="M46.4830427,46.4934855 C46.4830427,41.3386514 43.0211691,36.0429748 37.5650283,36.0429748 C31.4801395,36.0429748 26.7591869,42.3912009 26.7591869,48.4918616 C26.7591869,53.646299 30.2210606,59.0483017 35.6768056,59.0483017 C41.7616944,59.0483017 46.4830427,52.5953365 46.4830427,46.4934855 L46.4830427,46.4934855 Z M20.5615271,73.6328363 L0,73.6328363 L7.76339698,0 L28.3261111,0 L25.178018,29.13733 C27.6957802,24.8247735 34.095241,20.0912765 42.5942218,20.0912765 C54.7636038,20.0912765 63.5767608,29.6618194 63.5767608,44.6006422 C63.5767608,62.3773414 51.1968729,75 37.0340152,75 C28.4309684,75 22.9752234,70.2657096 21.4011768,65.8480171 L20.5615271,73.6328363 Z" id="Fill-1"></path>
                    <path d="M77.7453215,41.3096871 L95.4919738,41.3096871 C96.01405,35.8993695 92.8811993,32.5714827 87.4521584,32.5714827 C82.2345465,32.5714827 78.2662165,35.7957777 77.7453215,41.3096871 L77.7453215,41.3096871 Z M76.596439,51.1928949 C76.0739691,56.3948517 78.0579372,60.7637577 84.8437462,60.7637577 C89.2274536,60.7637577 92.4650345,58.8912573 93.7166786,55.5637628 L113.550061,55.5637628 C110.628245,66.2784518 99.6685831,74.1847826 83.8003813,74.1847826 C66.157278,74.1847826 56.2409807,64.4051666 56.2409807,49.5283629 C56.2409807,33.5053786 67.8286304,19.5652174 88.8105013,19.5652174 C106.764645,19.5652174 115.742308,29.8655391 115.742308,41.8300005 C115.742308,44.1180453 115.431267,47.0323497 114.281991,51.1928949 L76.596439,51.1928949 Z" id="Fill-4"></path>
                    <path d="M174.992507,73.3695652 L177.811381,46.4063806 C178.437622,40.4731529 176.871625,37.3504634 172.484391,37.3504634 C168.516226,37.3504634 165.489392,39.9525083 164.653222,47.5509349 L161.93951,73.3695652 L142.51421,73.3695652 L145.333872,46.4063806 C145.960113,40.4731529 144.498096,37.3504634 140.112043,37.3504634 C136.040292,37.3504634 132.90751,40.0557734 132.07134,48.1752372 L129.461213,73.3695652 L110.036701,73.3695652 L115.467672,21.6298247 L134.891001,21.6298247 L134.16078,29.2294291 C137.189977,24.0237688 142.827725,20.3804348 150.764842,20.3804348 C158.492031,20.3804348 163.190417,23.815668 164.757202,29.7504663 C168.412246,24.2330475 173.946802,20.3804348 182.719696,20.3804348 C196.921196,20.3804348 199.009849,30.5820841 197.756973,42.3468451 L194.519029,73.3695652 L174.992507,73.3695652 Z" id="Fill-6"></path>
                    <path d="M213.864621,41.3096871 L231.610016,41.3096871 C232.132472,35.8993695 229.002067,32.5714827 223.572776,32.5714827 C218.353727,32.5714827 214.386683,35.7957777 213.864621,41.3096871 L213.864621,41.3096871 Z M212.71695,51.1928949 C212.194494,56.3948517 214.177622,60.7637577 220.964039,60.7637577 C225.34763,60.7637577 228.583551,58.8912573 229.835162,55.5637628 L249.670381,55.5637628 C246.746675,66.2784518 235.786909,74.1847826 219.919127,74.1847826 C202.276491,74.1847826 192.360456,64.4051666 192.360456,49.5283629 C192.360456,33.5053786 203.948193,19.5652174 224.929114,19.5652174 C242.884752,19.5652174 251.861783,29.8655391 251.861783,41.8300005 C251.861783,44.1180453 251.549176,47.0323497 250.39993,51.1928949 L212.71695,51.1928949 Z" id="Fill-8"></path>
                </g>
            </g>
        </g>
    </g>
</svg>