<?xml version="1.0" encoding="utf-8"?>
<!-- Generator: Adobe Illustrator 21.1.0, SVG Export Plug-In . SVG Version: 6.00 Build 0)  -->
<svg version="1.1" id="Layer_1" xmlns="http://www.w3.org/2000/svg" xmlns:xlink="http://www.w3.org/1999/xlink" x="0px" y="0px"
	 viewBox="0 0 512 512" style="enable-background:new 0 0 512 512;" xml:space="preserve">
<style type="text/css">
	.st0{fill:#004F9D;}
</style>
<g>
	<path id="XMLID_48_" class="st0" d="M73.3,227.2c-5.1,0-6.6,2.3-6.6,7.3v8.3h13.6l-1.4,13.4H66.7v40.6H50.4v-40.6h-11v-13.4h11v-8
		c0-13.5,5.4-20.6,20.6-20.6c3.3,0,7.1,0.2,9.5,0.6v12.6"/>
	<path class="st0" d="M81.4,268c0-15.1,7.1-26.4,22.1-26.4c8.2,0,13.1,4.2,15.5,9.4v-8.3h15.6v54h-15.6v-8.2
		c-2.3,5.2-7.4,9.3-15.5,9.3c-15,0-22.1-11.3-22.1-26.4 M97.7,271.6c0,8.1,3,13.4,10.5,13.4c6.7,0,10.1-4.9,10.1-12.6V267
		c0-7.7-3.4-12.6-10.1-12.6c-7.6,0-10.5,5.3-10.5,13.4V271.6z"/>
	<path id="XMLID_45_" class="st0" d="M168.7,241.6c6.3,0,12.4,1.4,15.6,3.6l-3.6,11.6c-2.5-1.2-6.6-2.5-10.9-2.5
		c-8.8,0-12.7,5.1-12.7,13.8v3.2c0,8.7,3.9,13.8,12.7,13.8c4.3,0,8.4-1.2,10.9-2.5l3.6,11.6c-3.3,2.3-9.3,3.6-15.6,3.6
		c-19.2,0-27.9-10.3-27.9-26.9v-2.5C140.8,251.9,149.6,241.6,168.7,241.6"/>
	<path class="st0" d="M186.5,271.8V267c0-15.3,8.7-25.4,26.5-25.4c16.8,0,24.1,10.2,24.1,25.2v8.6h-34.3c0.3,7.4,3.6,10.7,12.7,10.7
		c6.1,0,12.6-1.2,17.3-3.3l2.9,11.2c-4.3,2.3-13.1,4-21,4C194.2,297.9,186.5,287.6,186.5,271.8 M202.8,264.7h19.7v-1.4
		c0-5.9-2.4-10.5-9.5-10.5C205.7,252.8,202.8,257.5,202.8,264.7"/>
	<path class="st0" d="M297.7,271.4c0,15.1-7.3,26.4-22.2,26.4c-8.2,0-13.8-4.1-16.1-9.3v8.2H244v-81.1l16.3-1.5v36.1
		c2.4-4.8,7.6-8.6,15.2-8.6c15,0,22.2,11.3,22.2,26.4 M281.4,267.7c0-7.6-3-13.3-10.8-13.3c-6.7,0-10.3,4.8-10.3,12.5v5.7
		c0,7.7,3.6,12.5,10.3,12.5c7.8,0,10.8-5.7,10.8-13.3V267.7z"/>
	<path class="st0" d="M303.2,271.1v-2.7c0-15.5,8.8-26.8,26.9-26.8c18,0,26.9,11.2,26.9,26.8v2.7c0,15.5-8.8,26.8-26.9,26.8
		C312,297.8,303.2,286.6,303.2,271.1 M340.6,267.2c0-7.1-3-12.8-10.5-12.8c-7.6,0-10.5,5.7-10.5,12.8v5c0,7.1,2.9,12.8,10.5,12.8
		c7.6,0,10.5-5.7,10.5-12.8V267.2z"/>
	<path class="st0" d="M362.3,271.1v-2.7c0-15.5,8.8-26.8,26.9-26.8c18,0,26.9,11.2,26.9,26.8v2.7c0,15.5-8.8,26.8-26.9,26.8
		C371.2,297.8,362.3,286.6,362.3,271.1 M399.7,267.2c0-7.1-3-12.8-10.5-12.8c-7.6,0-10.5,5.7-10.5,12.8v5c0,7.1,2.9,12.8,10.5,12.8
		c7.6,0,10.5-5.7,10.5-12.8V267.2z"/>
	<polyline id="XMLID_32_" class="st0" points="438.5,268.5 454.6,242.7 472,242.7 455.1,269.4 472.6,296.7 455.3,296.7 438.5,270.3 
		438.5,296.7 422.2,296.7 422.2,215.6 438.5,214.2 	"/>
</g>
</svg>
