<?xml version="1.0" encoding="UTF-8"?>
<svg width="142px" height="29px" viewBox="0 0 142 29" version="1.1" xmlns="http://www.w3.org/2000/svg" xmlns:xlink="http://www.w3.org/1999/xlink">
    <!-- Generator: Sketch 48.1 (47250) - http://www.bohemiancoding.com/sketch -->
    <title>Group 6svg</title>
    <desc>Created with Sketch.</desc>
    <defs></defs>
    <g id="Home-Nov-2017-v2" stroke="none" stroke-width="1" fill="none" fill-rule="evenodd" transform="translate(-568.000000, -1181.000000)">
        <g id="Group-6" transform="translate(540.000000, 1170.000000)">
            <rect id="Rectangle-5-Copy-7" transform="translate(99.000000, 27.000000) scale(-1, -1) translate(-99.000000, -27.000000) " x="0" y="0" width="198" height="54"></rect>
            <path d="M101.104792,24.6500923 C99.9322864,24.6500923 99.0870835,25.0345742 98.2300504,25.4262857 L98.2300504,34.289743 C99.0509356,34.3679538 99.5215152,34.3679538 100.300337,34.3679538 C103.114613,34.3679538 103.50041,33.079118 103.50041,31.2796114 L103.50041,27.0463674 C103.50041,25.7174403 103.059406,24.6500923 101.104792,24.6500923 Z M82.4143721,24.1663681 C80.46173,24.1663681 80.0161254,25.2383167 80.0161254,26.5659294 L80.0161254,27.3118899 L84.80999,27.3118899 L84.80999,26.5659294 C84.80999,25.2383167 84.3643853,24.1663681 82.4143721,24.1663681 Z M46.2073527,33.3919614 C46.2073527,34.4422213 46.7029071,34.9877255 47.7965444,34.9877255 C48.9697071,34.9877255 49.6644034,34.6052153 50.5207792,34.2121894 L50.5207792,32.1096979 L47.9555951,32.1096979 C46.7410267,32.1096979 46.2073527,32.3357864 46.2073527,33.3919614 Z M119.285855,24.6500923 C117.329927,24.6500923 116.652319,25.7174403 116.652319,27.0463674 L116.652319,31.8960969 C116.652319,33.2283101 117.329927,34.2989443 119.285855,34.2989443 C121.236526,34.2989443 121.919392,33.2283101 121.919392,31.8960969 L121.919392,27.0463674 C121.918734,25.7174403 121.235868,24.6500923 119.285855,24.6500923 Z M36.6222525,38.8299153 L30.8727697,38.8299153 L30.8727697,24.9136432 L28,24.9136432 L28,20.1184641 L30.8734269,20.1184641 L30.8734269,17.2384648 C30.8734269,13.325951 32.4948231,11 37.1033477,11 L40.9402796,11 L40.9402796,15.7964935 L38.5420329,15.7964935 C36.7477841,15.7964935 36.629482,16.4668722 36.629482,17.7175884 L36.6222525,20.1178069 L40.966569,20.1178069 L40.4585271,24.9129859 L36.6222525,24.9129859 L36.6222525,38.8299153 Z M56.2715765,38.8660631 L51.4796836,38.8660631 L51.2726549,37.6541237 C49.084723,38.8660631 47.1320809,39.0625761 45.8439023,39.0625761 C42.3296723,39.0625761 40.4591844,36.7149363 40.4591844,33.4682005 C40.4591844,29.6378409 42.6418584,28.2707943 46.5464854,28.2707943 L50.5207792,28.2707943 L50.5207792,27.4426795 C50.5207792,25.4874084 50.2966625,24.9136432 47.289817,24.9136432 L42.3737069,24.9136432 L42.854145,20.1184641 L48.2276899,20.1184641 C54.8250045,20.1184641 56.2715765,22.202553 56.2715765,27.4814563 L56.2715765,38.8660631 Z M72.5663783,25.2652633 C69.5845078,24.7539353 68.7281319,24.6415483 67.2933902,24.6415483 C64.7163758,24.6415483 63.9375535,25.2100557 63.9375535,27.3986448 L63.9375535,31.5385616 C63.9375535,33.7271507 64.7163758,34.298287 67.2933902,34.298287 C68.7281319,34.298287 69.5845078,34.1839283 72.5663783,33.6706286 L72.5663783,38.3481628 C69.9545305,38.9337582 68.2529518,39.087551 66.8149238,39.087551 C60.6421824,39.087551 58.188728,35.8414724 58.188728,31.152108 L58.188728,27.7929852 C58.188728,23.0996774 60.6421824,19.8476837 66.8149238,19.8476837 C68.2529518,19.8476837 69.9545305,20.0021337 72.5663783,20.5903581 L72.5663783,25.2652633 Z M90.5588155,31.152108 L80.0154681,31.152108 L80.0154681,31.5385616 C80.0154681,33.7271507 80.7949476,34.298287 83.3713048,34.298287 C85.6873973,34.298287 87.1011076,34.1839283 90.0777202,33.6706286 L90.0777202,38.3481628 C87.2069222,38.9337582 85.7110577,39.087551 82.8948102,39.087551 C76.7214115,39.087551 74.2666426,35.8414724 74.2666426,31.152108 L74.2666426,27.3112327 C74.2666426,23.208121 76.0878379,19.8476837 82.4137149,19.8476837 C88.7395919,19.8476837 90.5588155,23.1693442 90.5588155,27.3112327 L90.5588155,31.152108 Z M109.248578,31.2408346 C109.248578,35.7731201 107.95317,39.0790069 100.105796,39.0790069 C97.2718033,39.0790069 95.6096586,38.8299153 92.4818821,38.34882 L92.4818821,12.4406569 L98.2293932,11.4817525 L98.2293932,20.5443517 C99.4715654,20.0829735 101.07916,19.8483409 102.542162,19.8483409 C108.290331,19.8483409 109.247921,22.4253553 109.247921,26.5665866 L109.247921,31.2408346 L109.248578,31.2408346 Z M127.672818,31.3394197 C127.672818,35.2493046 126.058651,39.0415446 119.304915,39.0415446 C112.547892,39.0415446 110.903493,35.2493046 110.903493,31.3394197 L110.903493,27.5642678 C110.903493,23.6524112 112.547892,19.8595139 119.304915,19.8595139 C126.058651,19.8595139 127.672818,23.6524112 127.672818,27.5642678 L127.672818,31.3394197 Z M146.08457,31.3394197 C146.08457,35.2493046 144.468432,39.0415446 137.71601,39.0415446 C130.958988,39.0415446 129.314588,35.2493046 129.314588,31.3394197 L129.314588,27.5642678 C129.314588,23.6524112 130.958988,19.8595139 137.71601,19.8595139 C144.468432,19.8595139 146.08457,23.6524112 146.08457,27.5642678 L146.08457,31.3394197 Z M164.97939,38.8299153 L158.749469,38.8299153 L153.480424,30.034153 L153.480424,38.8299153 L147.730941,38.8299153 L147.730941,12.4399996 L153.480424,11.4810953 L153.480424,28.4699362 L158.749469,20.1184641 L164.97939,20.1184641 L159.227278,29.2323276 L164.97939,38.8299153 Z M137.696293,24.6500923 C135.743651,24.6500923 135.066043,25.7174403 135.066043,27.0463674 L135.066043,31.8960969 C135.066043,33.2283101 135.743651,34.2989443 137.696293,34.2989443 C139.646306,34.2989443 140.336402,33.2283101 140.336402,31.8960969 L140.336402,27.0463674 C140.336402,25.7174403 139.646306,24.6500923 137.696293,24.6500923 Z M168.260959,35.5476888 C169.229065,35.5476888 170,36.3370268 170,37.3228778 C170,38.3238451 169.228407,39.1046391 168.253729,39.1046391 C167.283652,39.1046391 166.496943,38.3238451 166.496943,37.3228778 C166.496943,36.3370268 167.283652,35.5476888 168.253729,35.5476888 L168.260959,35.5476888 Z M168.253729,35.8237271 C167.473593,35.8237271 166.835418,36.494763 166.835418,37.3228778 C166.835418,38.1661089 167.47425,38.8286008 168.260959,38.8286008 C169.048325,38.8364876 169.677298,38.1661089 169.677298,37.3307646 C169.677298,36.4954202 169.048325,35.8237271 168.260959,35.8237271 L168.253729,35.8237271 Z M167.923141,38.3560496 L167.607668,38.3560496 L167.607668,36.3751464 C167.773291,36.3521432 167.931027,36.32914 168.167632,36.32914 C168.46733,36.32914 168.663186,36.3922345 168.78346,36.4783321 C168.89979,36.5657442 168.962228,36.6991627 168.962228,36.8877889 C168.962228,37.149368 168.790032,37.3064469 168.577746,37.3701986 L168.577746,37.385315 C168.750598,37.4175195 168.868243,37.5739411 168.908334,37.8650958 C168.954341,38.1733385 169.002319,38.2909834 169.033209,38.3553923 L168.70262,38.3553923 C168.655957,38.2909834 168.607978,38.1102441 168.568544,37.8493222 C168.522538,37.5976016 168.395035,37.5029599 168.142657,37.5029599 L167.923798,37.5029599 L167.923798,38.3560496 L167.923141,38.3560496 Z M167.923141,37.2597833 L168.151858,37.2597833 C168.410808,37.2597833 168.630982,37.1644844 168.630982,36.9193361 C168.630982,36.7458263 168.506107,36.5729738 168.151858,36.5729738 C168.048672,36.5729738 167.977034,36.5808606 167.923141,36.5880902 L167.923141,37.2597833 Z" id="Shape" fill="#B3B3B3" fill-rule="nonzero"></path>
        </g>
    </g>
</svg>