<?xml version="1.0" encoding="UTF-8"?>
<svg width="120px" height="40px" viewBox="0 0 120 40" version="1.1" xmlns="http://www.w3.org/2000/svg" xmlns:xlink="http://www.w3.org/1999/xlink">
    <!-- Generator: Sketch 48.1 (47250) - http://www.bohemiancoding.com/sketch -->
    <title>Group 5svg</title>
    <desc>Created with Sketch.</desc>
    <defs></defs>
    <g id="Home-Nov-2017-v2" stroke="none" stroke-width="1" fill="none" fill-rule="evenodd" transform="translate(-345.000000, -1179.000000)">
        <g id="Group-5" transform="translate(306.000000, 1170.000000)">
            <rect id="Rectangle-5-Copy-6" transform="translate(99.000000, 27.000000) scale(-1, -1) translate(-99.000000, -27.000000) " x="0" y="0" width="198" height="54"></rect>
            <path d="M90.307016,29.769137 C90.307016,35.4471905 85.8650618,39.6312534 80.4137747,39.6312534 C74.9624877,39.6312534 70.5205335,35.4471905 70.5205335,29.769137 C70.5205335,24.0510659 74.9624877,19.9070206 80.4137747,19.9070206 C85.8650618,19.9070206 90.307016,24.0510659 90.307016,29.769137 Z M111.649739,29.769137 C111.649739,35.4471905 107.207784,39.6312534 101.756497,39.6312534 C96.3052103,39.6312534 91.8632562,35.4471905 91.8632562,29.769137 C91.8632562,24.0555123 96.3052103,19.9070206 101.756497,19.9070206 C107.207784,19.9070206 111.649739,24.0510659 111.649739,29.769137 Z M132.103181,20.5028382 L132.103181,38.2084052 C132.103181,45.4916093 127.807958,48.4662513 122.730169,48.4662513 C117.950288,48.4662513 115.073467,45.2692893 113.988545,42.6548058 L117.759093,41.0852264 C118.430499,42.690377 120.075668,44.5845436 122.725722,44.5845436 C125.976041,44.5845436 127.990261,42.579217 127.990261,38.8042229 L127.990261,37.3858211 L127.839083,37.3858211 C126.869768,38.5819029 125.002279,39.626807 122.645687,39.626807 C117.714629,39.626807 113.197086,35.3315841 113.197086,29.8047082 C113.197086,24.2378147 117.714629,19.9070206 122.645687,19.9070206 C124.997833,19.9070206 126.865321,20.9519247 127.839083,22.1124352 L127.990261,22.1124352 L127.990261,20.5072846 L132.103181,20.5072846 L132.103181,20.5028382 Z M138.883942,10.1249393 L138.883942,39.0265429 L134.659861,39.0265429 L134.659861,10.1249393 L138.883942,10.1249393 Z M155.344517,33.0150094 L158.705996,35.2559953 C157.621074,36.8611459 155.00659,39.626807 150.489047,39.626807 C144.886583,39.626807 140.70252,35.2960129 140.70252,29.7646906 C140.70252,23.8998882 144.922154,19.9025742 150.00439,19.9025742 C155.122197,19.9025742 157.62552,23.9754771 158.443658,26.1764453 L158.892744,27.2969383 L145.709167,32.7571181 C146.7185,34.7357664 148.288079,35.7450993 150.489047,35.7450993 C152.694462,35.7450993 154.224024,34.6601776 155.344517,33.0150094 Z M54.5312771,27.2035639 L54.5312771,23.0195009 L68.6308133,23.0195009 C68.7686517,23.7487106 68.8397941,24.6113123 68.8397941,25.5450565 C68.8397941,28.6842152 67.9816388,32.5659229 65.2159777,35.3315841 C62.5259053,38.1328164 59.0888377,39.626807 54.5357235,39.626807 C46.0964553,39.626807 39,32.7526717 39,24.3134035 C39,15.8741353 46.0964553,9 54.5357235,9 C59.2044441,9 62.5303517,10.831917 65.0292288,13.2196341 L62.0768189,16.1720441 C60.2849194,14.4913047 57.8571847,13.1840629 54.5312771,13.1840629 C48.368566,13.1840629 43.5486678,18.1506923 43.5486678,24.3134035 C43.5486678,30.4761147 48.368566,35.4427441 54.5312771,35.4427441 C58.5285912,35.4427441 60.8051483,33.8375935 62.2635677,32.3791741 C63.4463102,31.1964316 64.2244303,29.5067993 64.531232,27.1991175 L54.5312771,27.2035639 Z M85.9762218,29.769137 C85.9762218,26.2209093 83.4017559,23.7931746 80.4137747,23.7931746 C77.4257936,23.7931746 74.8513276,26.2209093 74.8513276,29.769137 C74.8513276,33.2817934 77.4257936,35.7450993 80.4137747,35.7450993 C83.4017559,35.7450993 85.9762218,33.277347 85.9762218,29.769137 Z M107.318944,29.769137 C107.318944,26.2209093 104.744479,23.7931746 101.756497,23.7931746 C98.7685162,23.7931746 96.1940503,26.2209093 96.1940503,29.769137 C96.1940503,33.2817934 98.7685162,35.7450993 101.756497,35.7450993 C104.744479,35.7450993 107.318944,33.277347 107.318944,29.769137 Z M128.297062,29.8047082 C128.297062,26.3320694 125.980488,23.7931746 123.032524,23.7931746 C120.044543,23.7931746 117.541219,26.3320694 117.541219,29.8047082 C117.541219,33.2417758 120.044543,35.7450993 123.032524,35.7450993 C125.980488,35.7450993 128.297062,33.2417758 128.297062,29.8047082 Z M144.997743,29.4667817 L153.810509,25.8073941 C153.325851,24.5757411 151.867432,23.7175858 150.151121,23.7175858 C147.950153,23.7175858 144.886583,25.6606629 144.997743,29.4667817 Z" id="Combined-Shape" fill="#B3B3B3"></path>
        </g>
    </g>
</svg>