<?xml version="1.0" encoding="UTF-8"?>
<svg width="155px" height="40px" viewBox="0 0 155 40" version="1.1" xmlns="http://www.w3.org/2000/svg" xmlns:xlink="http://www.w3.org/1999/xlink">
    <!-- Generator: Sketch 48.1 (47250) - http://www.bohemiancoding.com/sketch -->
    <title>Group 9svg</title>
    <desc>Created with Sketch.</desc>
    <defs></defs>
    <g id="Home-Nov-2017-v2" stroke="none" stroke-width="1" fill="none" fill-rule="evenodd" transform="translate(-1032.000000, -1177.000000)">
        <g id="Group-9" transform="translate(1010.000000, 1170.000000)">
            <rect id="Rectangle-5-Copy-9" transform="translate(99.000000, 27.000000) scale(-1, -1) translate(-99.000000, -27.000000) " x="0" y="0" width="198" height="54"></rect>
            <path d="M74.6590563,32.6012177 L74.6590563,21.1248097 C74.6590563,20.4185693 75.2328767,19.8447489 75.9391172,19.8447489 C76.6453577,19.8447489 77.2191781,20.4185693 77.2191781,21.1248097 L77.2191781,32.6012177 C77.2191781,33.3074581 76.6453577,33.8812785 75.9391172,33.8812785 C75.2770167,33.8812785 74.6590563,33.3074581 74.6590563,32.6012177 Z M89.3135464,33.086758 L83.7519026,24.2146119 L83.7519026,32.6012177 C83.7519026,33.3074581 83.1780822,33.8812785 82.4718417,33.8812785 C81.7656012,33.8812785 81.1917808,33.3074581 81.1917808,32.6012177 L81.1917808,21.47793 C81.1917808,20.5509893 81.9421613,19.7564688 82.913242,19.7564688 L83.0015221,19.7564688 C83.5753425,19.7564688 84.1491629,20.065449 84.4581431,20.5509893 L89.9756469,29.2907154 L89.9756469,21.0365297 C89.9756469,20.3302892 90.5494673,19.7564688 91.2557078,19.7564688 C91.9619482,19.7564688 92.5357686,20.3302892 92.5357686,21.0365297 L92.5357686,32.1598174 C92.5357686,33.086758 91.7853881,33.8812785 90.8143075,33.8812785 C90.196347,33.8812785 89.6225266,33.6164384 89.3135464,33.086758 Z M101.452055,22.2283105 L101.452055,32.7336377 C101.452055,33.3957382 100.922374,33.9254186 100.260274,33.9254186 L100.083714,33.9254186 C99.4216134,33.9254186 98.891933,33.3957382 98.891933,32.7336377 L98.891933,22.2283105 L95.934551,22.2283105 C95.2724505,22.2283105 94.7427702,21.6986301 94.7427702,21.0365297 C94.7427702,20.3744292 95.2724505,19.8447489 95.934551,19.8447489 L104.453577,19.8447489 C105.115677,19.8447489 105.645358,20.3744292 105.645358,21.0365297 C105.645358,21.6986301 105.115677,22.2283105 104.453577,22.2283105 L101.452055,22.2283105 Z M107.675799,32.7336377 L107.675799,20.9482496 C107.675799,20.3302892 108.205479,19.8006088 108.82344,19.8006088 L116.547945,19.8006088 C117.165906,19.8006088 117.695586,20.3302892 117.695586,20.9482496 C117.695586,21.56621 117.165906,22.0958904 116.547945,22.0958904 L110.235921,22.0958904 L110.235921,25.3622527 L115.665145,25.3622527 C116.283105,25.3622527 116.812785,25.891933 116.812785,26.5098935 C116.812785,27.1278539 116.283105,27.6575342 115.665145,27.6575342 L110.235921,27.6575342 L110.235921,31.4977169 L116.547945,31.4977169 C117.165906,31.4977169 117.695586,32.0273973 117.695586,32.6453577 C117.695586,33.2633181 117.165906,33.7929985 116.547945,33.7929985 L108.82344,33.7929985 C108.205479,33.8812785 107.675799,33.3957382 107.675799,32.7336377 Z M128.509893,33.130898 L126.479452,28.5844749 L123.34551,28.5844749 L123.34551,32.6453577 C123.34551,33.3515982 122.771689,33.9254186 122.065449,33.9254186 L122.021309,33.9254186 C121.315068,33.9254186 120.741248,33.3515982 120.741248,32.6453577 L120.741248,21.1248097 C120.741248,20.4185693 121.315068,19.8447489 122.021309,19.8447489 L126.700152,19.8447489 C130.054795,19.8447489 131.599696,21.9634703 131.599696,24.2146119 C131.599696,26.1126332 130.584475,27.5692542 129.039574,28.1430746 L130.805175,32.1156773 C131.158295,32.9543379 130.584475,33.8812785 129.657534,33.8812785 C129.171994,33.8812785 128.686454,33.6164384 128.509893,33.130898 Z M126.744292,22.0517504 L123.38965,22.0517504 L123.38965,26.2450533 L126.788432,26.2450533 C128.245053,26.2450533 129.083714,25.4946728 129.083714,24.1704718 C129.039574,23.0669711 128.200913,22.0517504 126.744292,22.0517504 Z M143.782344,32.4687976 C142.722983,33.5281583 141.266362,34.1461187 139.765601,34.1461187 C138.26484,34.1461187 136.852359,33.6605784 135.792998,32.5570776 C134.248097,31.0121766 134.027397,29.1582953 134.027397,26.8630137 C134.027397,24.5677321 134.248097,22.6697108 135.792998,21.1689498 C136.852359,20.109589 138.26484,19.5799087 139.765601,19.5799087 C141.266362,19.5799087 142.722983,20.1537291 143.782344,21.2130898 C144.135464,21.6103501 144.444444,22.0076104 144.665145,22.4931507 C145.062405,23.3318113 144.444444,24.2587519 143.517504,24.2587519 C142.987823,24.2587519 142.546423,23.9497717 142.325723,23.4642314 C142.237443,23.1993912 142.060883,22.978691 141.884323,22.7579909 C141.442922,22.1841705 140.648402,21.8751903 139.765601,21.8751903 C138.971081,21.8751903 138.17656,22.2283105 137.60274,22.8021309 C136.631659,23.8173516 136.631659,25.5388128 136.631659,26.8630137 C136.631659,28.1430746 136.631659,29.9086758 137.60274,30.9238965 C138.17656,31.4977169 138.971081,31.8508371 139.765601,31.8508371 C140.648402,31.8508371 141.442922,31.5418569 141.884323,30.9680365 C142.060883,30.7473364 142.237443,30.4824962 142.325723,30.217656 C142.502283,29.7321157 142.987823,29.4231355 143.517504,29.4231355 C144.444444,29.4231355 145.062405,30.3500761 144.665145,31.1887367 C144.444444,31.674277 144.135464,32.1156773 143.782344,32.4687976 Z M157.509893,32.5570776 C156.450533,33.6164384 154.949772,34.1461187 153.449011,34.1461187 C151.94825,34.1461187 150.491629,33.6164384 149.388128,32.5570776 C147.843227,31.0121766 147.622527,29.1582953 147.622527,26.8630137 C147.622527,24.5677321 147.887367,22.6697108 149.388128,21.1689498 C150.447489,20.109589 151.94825,19.5799087 153.449011,19.5799087 C154.949772,19.5799087 156.406393,20.109589 157.509893,21.1689498 C159.054795,22.7138508 159.275495,24.5677321 159.275495,26.8630137 C159.319635,29.1582953 159.054795,31.0563166 157.509893,32.5570776 Z M155.700152,22.8462709 C155.126332,22.2724505 154.287671,21.9193303 153.493151,21.9193303 C152.69863,21.9193303 151.81583,22.2724505 151.286149,22.8462709 C150.315068,23.8614916 150.270928,25.5829528 150.270928,26.9071537 C150.270928,28.1872146 150.315068,29.9086758 151.286149,30.9238965 C151.85997,31.4977169 152.69863,31.8508371 153.493151,31.8508371 C154.287671,31.8508371 155.170472,31.4977169 155.700152,30.9238965 C156.671233,29.9086758 156.715373,28.1872146 156.715373,26.9071537 C156.715373,25.5829528 156.671233,23.8173516 155.700152,22.8462709 Z M174.150685,32.6453577 L174.150685,23.8614916 L170.840183,32.8219178 C170.663623,33.3515982 170.133942,33.7047184 169.560122,33.7047184 C168.986301,33.7047184 168.500761,33.3515982 168.280061,32.8219178 L164.969559,23.7290715 L164.969559,32.6453577 C164.969559,33.3515982 164.395738,33.8812785 163.733638,33.8812785 C163.027397,33.8812785 162.497717,33.3074581 162.497717,32.6453577 L162.497717,21.7427702 C162.497717,20.6834094 163.380518,19.8006088 164.439878,19.8006088 L164.616438,19.8006088 C165.410959,19.8006088 166.161339,20.2861492 166.42618,21.0806697 L169.648402,29.8203957 L172.914764,21.0806697 C173.179604,20.3302892 173.929985,19.8006088 174.724505,19.8006088 C175.783866,19.8006088 176.666667,20.6834094 176.666667,21.7427702 L176.666667,32.6453577 C176.666667,33.3515982 176.092846,33.8812785 175.430746,33.8812785 C174.680365,33.8812785 174.150685,33.3515982 174.150685,32.6453577 Z M56.782344,7 L26.9878234,7 C24.2070015,7 22,9.20700152 22,11.9436834 L22,41.738204 C22,44.5190259 24.2070015,46.7260274 26.9878234,46.7260274 L56.782344,46.7260274 C59.5190259,46.7260274 61.7260274,44.5190259 61.7260274,41.782344 L61.7260274,11.9878234 C61.7260274,9.20700152 59.5190259,7 56.782344,7 Z M47.1598174,14.283105 C47.1598174,13.5327245 47.7336377,12.9589041 48.4840183,12.9589041 C49.2343988,12.9589041 49.8082192,13.5327245 49.8082192,14.283105 L49.8082192,31.9832572 C49.8082192,32.7336377 49.2343988,33.3074581 48.4840183,33.3074581 C47.7336377,33.3074581 47.1598174,32.7336377 47.1598174,31.9832572 L47.1598174,14.283105 Z M40.5388128,13.6210046 C40.5388128,12.870624 41.1126332,12.2968037 41.8630137,12.2968037 C42.6133942,12.2968037 43.1872146,12.870624 43.1872146,13.6210046 L43.1872146,32.8219178 C43.1872146,33.5722983 42.6133942,34.1461187 41.8630137,34.1461187 C41.1126332,34.1461187 40.5388128,33.5722983 40.5388128,32.8219178 L40.5388128,13.6210046 Z M33.9178082,14.283105 C33.9178082,13.5327245 34.4916286,12.9589041 35.2420091,12.9589041 C35.9923896,12.9589041 36.56621,13.5327245 36.56621,14.283105 L36.56621,31.9832572 C36.56621,32.7336377 35.9923896,33.3074581 35.2420091,33.3074581 C34.4916286,33.3074581 33.9178082,32.7336377 33.9178082,31.9832572 L33.9178082,14.283105 Z M27.2968037,16.9315068 C27.2968037,16.1811263 27.870624,15.6073059 28.6210046,15.6073059 C29.3713851,15.6073059 29.9452055,16.1811263 29.9452055,16.9315068 L29.9452055,28.8493151 C29.9452055,29.5996956 29.3713851,30.173516 28.6210046,30.173516 C27.870624,30.173516 27.2968037,29.5996956 27.2968037,28.8493151 L27.2968037,16.9315068 Z M55.9878234,37.1476408 C55.7671233,37.3242009 50.8675799,41.4292237 41.8630137,41.4292237 C32.8584475,41.4292237 27.9589041,37.3242009 27.738204,37.1476408 C27.1643836,36.6621005 27.1202435,35.8234399 27.6057839,35.2937595 C28.0913242,34.7199391 28.9299848,34.6757991 29.4596651,35.1613394 C29.5479452,35.1613394 33.9178082,38.7808219 41.8630137,38.7808219 C49.8964992,38.7808219 54.2222222,35.1613394 54.2222222,35.1171994 C54.7960426,34.6316591 55.6347032,34.7199391 56.0761035,35.2496195 C56.6057839,35.8234399 56.5175038,36.6621005 55.9878234,37.1476408 Z M56.4292237,28.8493151 C56.4292237,29.5996956 55.8554033,30.173516 55.1050228,30.173516 C54.3546423,30.173516 53.7808219,29.5996956 53.7808219,28.8493151 L53.7808219,16.9315068 C53.7808219,16.1811263 54.3546423,15.6073059 55.1050228,15.6073059 C55.8554033,15.6073059 56.4292237,16.1811263 56.4292237,16.9315068 L56.4292237,28.8493151 Z" id="Shape" fill="#B3B3B3" fill-rule="nonzero"></path>
        </g>
    </g>
</svg>