<?xml version="1.0" encoding="UTF-8"?>
<svg width="135px" height="41px" viewBox="0 0 135 41" version="1.1" xmlns="http://www.w3.org/2000/svg" xmlns:xlink="http://www.w3.org/1999/xlink">
    <!-- Generator: Sketch 48.1 (47250) - http://www.bohemiancoding.com/sketch -->
    <title>Group 7svg</title>
    <desc>Created with Sketch.</desc>
    <defs></defs>
    <g id="Home-Nov-2017-v2" stroke="none" stroke-width="1" fill="none" fill-rule="evenodd" transform="translate(-808.000000, -1177.000000)">
        <g id="Group-7" transform="translate(776.000000, 1170.000000)">
            <rect id="Rectangle-5-Copy-8" transform="translate(99.000000, 27.000000) scale(-1, -1) translate(-99.000000, -27.000000) " x="0" y="0" width="198" height="54"></rect>
            <path d="M164.629698,23.8499497 L164.057973,23.8499497 L164.057973,24.5796823 L164.629698,24.5796823 C164.914354,24.5796823 165.08563,24.4400079 165.08563,24.2144541 C165.08563,23.9770799 164.914354,23.8499497 164.629698,23.8499497 Z M165.001198,24.8908741 L165.623582,25.7612462 L165.097692,25.7612462 L164.538029,24.9627618 L164.057973,24.9627618 L164.057973,25.7612462 L163.618928,25.7612462 L163.618928,23.4540848 L164.646584,23.4540848 C165.184536,23.4540848 165.536738,23.7283677 165.536738,24.1900895 C165.53915,24.5683443 165.319627,24.7994465 165.003611,24.8908741 L165.001198,24.8908741 Z M164.513906,22.6864783 C163.387343,22.6864783 162.535787,23.5814563 162.535787,24.6773821 C162.535787,25.7728254 163.382518,26.6557416 164.501844,26.6557416 C165.628406,26.6557416 166.479962,25.7614874 166.479962,24.6648379 C166.479962,23.5693946 165.633231,22.6864783 164.513906,22.6864783 Z M164.501844,26.8755058 C163.266726,26.8755058 162.304203,25.8828281 162.304203,24.6773821 C162.304203,23.4719361 163.278788,22.4679204 164.513906,22.4679204 C165.749023,22.4679204 166.711547,23.4603568 166.711547,24.6648379 C166.711547,25.8702839 165.736962,26.8755058 164.501844,26.8755058 Z M137.14109,16.2901604 C135.90356,16.2901604 134.900027,17.2917637 134.900027,18.5290526 C134.900027,19.7670652 135.90356,20.7698747 137.14109,20.7698747 C138.37862,20.7698747 139.379741,19.7670652 139.379741,18.5290526 C139.379741,17.2920049 138.376208,16.2901604 137.14109,16.2901604 Z M138.684987,22.4944561 L135.561008,22.4944561 C135.435566,22.4944561 135.331836,22.5972218 135.331836,22.7233871 L135.331836,36.3485215 C135.331836,36.4763754 135.435566,36.5776937 135.561008,36.5776937 L138.684987,36.5776937 C138.810429,36.5776937 138.91416,36.4763754 138.91416,36.3485215 L138.91416,22.7243521 C138.91416,22.5981867 138.812841,22.4954211 138.684987,22.4954211 L138.684987,22.4944561 Z M145.6277,22.5082065 L145.6277,22.0766389 C145.6277,20.8070247 146.114993,20.2408486 147.20537,20.2408486 C147.856702,20.2408486 148.38018,20.37015 148.966378,20.5655495 C149.038748,20.5882255 149.113531,20.5768875 149.171427,20.5337066 C149.231735,20.4905258 149.265508,20.4212916 149.265508,20.3479565 L149.265508,17.7160942 C149.265508,17.6154996 149.202787,17.5264843 149.103881,17.4968125 C148.486322,17.312751 147.695075,17.1238649 146.508204,17.1238649 C143.625459,17.1238649 142.098448,18.7483342 142.098448,21.819966 L142.098448,22.480947 L140.597973,22.480947 C140.472531,22.480947 140.3688,22.5837127 140.3688,22.7096368 L140.3688,25.4075972 C140.3688,25.5335213 140.472531,25.6365282 140.597973,25.6365282 L142.098448,25.6365282 L142.098448,36.3485215 C142.098448,36.4763754 142.202178,36.5776937 142.32762,36.5776937 L145.449187,36.5776937 C145.577041,36.5776937 145.678359,36.4763754 145.678359,36.3485215 L145.678359,25.6372519 L148.594878,25.6372519 L153.06253,36.3485215 C152.555939,37.4726716 152.056585,37.6970192 151.376305,37.6970192 C150.826292,37.6970192 150.244918,37.5329801 149.653895,37.2073143 C149.598411,37.1783662 149.530865,37.1735415 149.472969,37.1904279 C149.412661,37.212139 149.362002,37.2555611 149.337878,37.3134572 L148.278861,39.6365401 C148.228202,39.7475077 148.271624,39.8753617 148.377767,39.9332578 C149.482619,40.531518 150.478915,40.787226 151.71162,40.787226 C154.017817,40.787226 155.293944,39.7113226 156.415682,36.82134 L161.833797,22.8208457 C161.862745,22.7504053 161.853095,22.6707981 161.809673,22.6083186 C161.768663,22.5463214 161.698706,22.5089302 161.623923,22.5089302 L158.372089,22.5089302 C158.273184,22.5089302 158.186339,22.5709273 158.154979,22.662355 L154.823538,32.1751742 L151.176081,22.6560829 C151.142308,22.56755 151.057876,22.5089302 150.963795,22.5089302 L145.6277,22.5089302 L145.6277,22.5082065 Z M133.652847,22.4944561 L130.215264,22.4944561 L130.215264,18.9806425 C130.215264,18.8547184 130.113945,18.7519527 129.988504,18.7519527 L126.864524,18.7519527 C126.739083,18.7519527 126.635352,18.8547184 126.635352,18.9806425 L126.635352,22.4944561 L125.134877,22.4944561 C125.009435,22.4944561 124.908117,22.5972218 124.908117,22.7233871 L124.908117,25.4075972 C124.908117,25.5335213 125.009435,25.6365282 125.134877,25.6365282 L126.635352,25.6365282 L126.635352,32.5828596 C126.635352,35.3884104 128.032096,36.8116906 130.7894,36.8116906 C131.908726,36.8116906 132.837477,36.580106 133.713156,36.0831641 C133.785526,36.0445667 133.828948,35.9673718 133.828948,35.8853523 L133.828948,33.3282725 C133.828948,33.2510776 133.787938,33.1762951 133.720393,33.1352853 C133.652847,33.0918632 133.568415,33.0894509 133.498458,33.125636 C132.897785,33.4271784 132.316411,33.5670941 131.66508,33.5670941 C130.663959,33.5670941 130.215264,33.1111619 130.215264,32.0931547 L130.215264,25.6377344 L133.652847,25.6377344 C133.778289,25.6377344 133.879607,25.5349687 133.879607,25.4088034 L133.879607,22.7248345 C133.884432,22.5986692 133.783114,22.4959035 133.65526,22.4959035 L133.652847,22.4944561 Z M117.183806,33.7190715 C114.945155,33.7190715 113.256518,31.9194663 113.256518,29.53511 C113.256518,27.1398982 114.887259,25.4018076 117.133147,25.4018076 C119.386272,25.4018076 121.084559,27.2006891 121.084559,29.5874577 C121.084559,31.9821871 119.444168,33.7190715 117.183806,33.7190715 Z M117.183806,22.2088351 C112.974274,22.2088351 109.676606,25.4500544 109.676606,29.5886639 C109.676606,33.6828864 112.952563,36.8888855 117.133147,36.8888855 C121.357153,36.8888855 124.664471,33.658763 124.664471,29.5363161 C124.664471,25.4278609 121.378864,22.2093176 117.183806,22.2093176 L117.183806,22.2088351 Z M105.07145,29.5363161 C105.07145,31.9845994 103.563738,33.6949481 101.402282,33.6949481 C99.2673612,33.6949481 97.6559184,31.9074046 97.6559184,29.5363161 C97.6559184,27.1649865 99.2673612,25.3779254 101.402282,25.3779254 C103.527553,25.3776842 105.07145,27.1261478 105.07145,29.5360749 L105.07145,29.5363161 Z M102.125983,22.2088351 C100.367388,22.2088351 98.924809,22.901659 97.7331133,24.3213208 L97.7331133,22.7233871 C97.7331133,22.5972218 97.6317951,22.4944561 97.5063534,22.4944561 L94.3823738,22.4944561 C94.2569322,22.4944561 94.1556139,22.5972218 94.1556139,22.7233871 L94.1556139,40.4784465 C94.1556139,40.6038882 94.2569322,40.7076188 94.3823738,40.7076188 L97.5063534,40.7076188 C97.6317951,40.7076188 97.7331133,40.6038882 97.7331133,40.4784465 L97.7331133,34.8745821 C98.924809,36.2086058 100.367388,36.8623497 102.125983,36.8623497 C105.394703,36.8623497 108.704433,34.3462797 108.704433,29.5363161 C108.709258,24.7253876 105.399528,22.2085939 102.128396,22.2085939 L102.125983,22.2088351 Z M86.9620178,25.6488312 C83.473775,24.8170565 82.8538037,24.2332704 82.8538037,23.0065958 C82.8538037,21.8477079 83.9441812,21.0677986 85.5676856,21.0677986 C87.1405309,21.0677986 88.6989022,21.6600279 90.3344683,22.8792243 C90.3827151,22.9161331 90.4454359,22.9308483 90.5057444,22.921199 C90.5684652,22.9120321 90.6215367,22.8785006 90.6577218,22.8280827 L92.3608334,20.4273225 C92.4307912,20.3284166 92.4114925,20.1921194 92.3174113,20.1166132 C90.3706534,18.5551058 88.1802492,17.7959426 85.6183447,17.7959426 C81.8526829,17.7959426 79.2208206,20.0560634 79.2208206,23.2898044 C79.2208206,26.7575424 81.490832,27.9854231 85.4132959,28.9332313 C88.7495613,29.7020439 89.3140487,30.3461385 89.3140487,31.4973069 C89.3140487,32.7734344 88.1754245,33.5670941 86.3420465,33.5670941 C84.3060321,33.5670941 82.6439302,32.8795774 80.7864288,31.2729593 C80.7405944,31.2319495 80.6778736,31.2150632 80.6199774,31.2174755 C80.5572566,31.2223002 80.5017728,31.2512482 80.4631754,31.2970827 L78.5526025,33.5695064 C78.4729953,33.666 78.4826447,33.8059157 78.5743136,33.8879352 C80.7357697,35.8178068 83.3941678,36.835814 86.2648517,36.835814 C90.3224066,36.835814 92.9446195,34.6188741 92.9446195,31.1861151 C92.9518566,28.2896191 91.2173845,26.6854134 86.9692548,25.6519672 C86.9692548,25.6519672 86.9620178,25.6488312 86.9620178,25.6488312 Z M64.1509362,24.9077605 C57.6400321,21.0405392 46.8978846,20.6849603 40.6815271,22.571651 C39.6833011,22.8743996 38.6276613,22.3108771 38.325154,21.312651 C38.0226466,20.3139425 38.5856866,19.2590265 39.5846364,18.9555542 C46.7205776,16.7892734 58.5832568,17.2078143 66.0793603,21.6578568 C66.9791629,22.1907426 67.2734683,23.3503542 66.7403413,24.2470207 C66.2096266,25.1448935 65.046879,25.4408875 64.1519011,24.9077605 L64.1509362,24.9077605 Z M63.9386503,30.6356192 C63.4827181,31.3766899 62.5129577,31.6106868 61.7723695,31.1547547 C56.3421934,27.8170418 48.0647332,26.8504174 41.6418795,28.8000702 C40.8088986,29.0516772 39.9291185,28.5822359 39.6763053,27.7507025 C39.425422,26.9177217 39.8951045,26.0396302 40.7266379,25.7863345 C48.0632858,23.5602277 57.1840999,24.6385434 63.4199973,28.4705446 C64.1605855,28.9264767 64.3945824,29.8962372 63.9386503,30.6358605 L63.9386503,30.6356192 Z M61.4660024,36.1362356 C61.1041515,36.7296711 60.3273782,36.9178336 59.7339427,36.5535703 C54.9908009,33.6563507 49.0197783,33.0001943 41.9878089,34.6068124 C41.3101828,34.7612021 40.6347277,34.3366304 40.480338,33.658763 C40.3252246,32.9808956 40.7481077,32.3054406 41.4274225,32.1510509 C49.1227852,30.3929379 55.7236696,31.14993 61.0486677,34.4041759 C61.6421032,34.7684391 61.8302656,35.5428001 61.4660024,36.1362356 Z M52.2016541,7 C41.0448254,7 32,16.0445842 32,27.2014128 C32,38.3587239 41.0448254,47.4025844 52.2016541,47.4025844 C63.3596888,47.4025844 72.4035493,38.3587239 72.4035493,27.2014128 C72.4035493,16.0453079 63.3596888,7.00096494 52.2014128,7.00096494 L52.2016541,7 Z" id="Page-1" fill="#B3B3B3"></path>
        </g>
    </g>
</svg>