<?xml version="1.0" encoding="UTF-8"?>
<svg width="158px" height="21px" viewBox="0 0 158 21" version="1.1" xmlns="http://www.w3.org/2000/svg" xmlns:xlink="http://www.w3.org/1999/xlink">
    <!-- Generator: Sketch 48.1 (47250) - http://www.bohemiancoding.com/sketch -->
    <title>Group 2svg</title>
    <desc>Created with Sketch.</desc>
    <defs></defs>
    <g id="Home-Nov-2017-v2" stroke="none" stroke-width="1" fill="none" fill-rule="evenodd" transform="translate(-92.000000, -1187.000000)">
        <g id="Group-2" transform="translate(72.000000, 1170.000000)">
            <rect id="Rectangle-5" transform="translate(99.000000, 27.000000) scale(-1, -1) translate(-99.000000, -27.000000) " x="0" y="0" width="198" height="54"></rect>
            <path d="M128.560528,37.5714145 L124.556416,37.5610209 L124.556416,17.0155903 L142.919203,17.0155903 C144.927755,17.8678606 146.003486,19.3411449 146.419228,21.0612758 L128.550134,21.0612758 L128.560528,37.5714145 Z M158.525104,33.4659661 L173.842584,33.4659661 C175.970661,33.8869045 177.555676,35.7655369 178,37.581808 L154.36509,37.581808 C154.806815,35.7655369 156.415215,33.8869045 158.525104,33.4659661 Z M108.919335,33.5231306 C111.047412,34.1415462 112.840298,35.7655369 113.276827,37.5662177 L90.800796,37.5662177 L90.800796,25.4265627 L109.197362,25.4265627 L109.197362,21.1652112 L94.7685299,21.1522193 C92.5053366,20.5234101 90.5929252,19.0059533 89.6341211,17 L90.800796,17.0207871 L113.152104,17.0207871 L113.152104,29.4618547 L94.7685299,29.4618547 L94.7685299,33.5231306 L108.919335,33.5231306 Z M154.983505,17.0207871 L158.966829,17.0207871 L158.966829,25.2914467 L173.468416,25.2914467 L173.468416,17.0207871 L177.449142,17.0207871 L177.449142,29.4254773 L154.983505,29.4462644 L154.983505,17.0207871 Z M59.8436364,33.478958 L75.1585179,33.478958 C77.2891937,33.9024948 78.8716102,35.7811272 79.315934,37.5973983 L55.683622,37.5973983 C56.1253474,35.7811272 57.7311494,33.9024948 59.8436364,33.478958 Z M20,37.5506274 C20.4599142,35.7525449 22.0163468,33.9206835 24.1496209,33.4581709 L30.5962143,33.4581709 L30.9236108,33.3282517 L30.9236108,17.0623612 L34.9511076,17.0623612 L34.9511076,33.3282517 L35.3148815,33.4581709 L41.76927,33.4581709 C43.9233312,34.0142253 45.4459848,35.7525449 45.9007022,37.5506274 L45.9007022,37.5896032 L20,37.5896032 L20,37.5506274 Z M59.8436364,17.0181887 L75.1585179,17.0181887 C77.2891937,17.4443238 78.8716102,19.3177595 79.315934,21.136629 L55.683622,21.136629 C56.1253474,19.3177595 57.7311494,17.4443238 59.8436364,17.0181887 Z M59.8436364,25.3590047 L75.1585179,25.3590047 C77.2891937,25.7799431 78.8716102,27.6585755 79.315934,29.4748466 L55.683622,29.4748466 C56.1253474,27.6585755 57.7311494,25.7799431 59.8436364,25.3590047 Z" id="path10484" fill="#B3B3B3" fill-rule="nonzero" transform="translate(99.000000, 27.298699) scale(-1, 1) rotate(-180.000000) translate(-99.000000, -27.298699) "></path>
        </g>
    </g>
</svg>