<svg xmlns="http://www.w3.org/2000/svg" viewBox="0 0 79.536 79.536"><path fill="#11dcfa" d="M13.155 31.416l18.27 18.75v25.486h-.142v.094H16.3v-11.01L1.008 44.543C.4 43.783 0 42.86 0 41.84V10.8c0-2.428 1.973-4.405 4.412-4.405 2.423 0 4.4 1.978 4.4 4.406v17.93c-1.066.238-2.078.68-2.894 1.478-2.335 2.287-2.393 6.042-.11 8.384l8.338 8.578 1.134-1.113-8.35-8.56c-1.67-1.72-1.634-4.485.073-6.166.54-.502 1.173-.862 1.85-1.054.73-.207 1.477-.217 2.196-.07.81.203 1.532.623 2.1 1.216zm53.23 0L48.095 50.17v25.492h.144v.083h14.99V64.742l15.285-20.2c.616-.76 1.015-1.683 1.015-2.702V10.8c0-2.428-1.972-4.405-4.41-4.405-2.423 0-4.4 1.978-4.4 4.406v17.93c1.07.238 2.08.68 2.894 1.478 2.34 2.287 2.396 6.042.118 8.384l-8.347 8.578-1.14-1.113 8.36-8.56c1.66-1.726 1.63-4.485-.09-6.17-.53-.503-1.177-.866-1.85-1.055-.715-.21-1.47-.22-2.19-.07-.8.206-1.53.626-2.098 1.22zm-26.622 6.982c4.78 0 8.834-1.722 12.236-5.09 3.38-3.38 5.07-7.438 5.07-12.238 0-4.767-1.69-8.86-5.077-12.236-3.4-3.39-7.456-5.044-12.236-5.044-4.77 0-8.87 1.656-12.217 5.045-3.41 3.376-5.08 7.47-5.08 12.236 0 4.8 1.666 8.85 5.08 12.24 3.347 3.37 7.447 5.09 12.217 5.09z" /></svg>
