<svg xmlns="http://www.w3.org/2000/svg" viewBox="0 0 495.97 495.97"><path fill="#11dcfa" d="M495.97 151.65c0 25.024-20.277 45.304-45.303 45.304-2.774 0-5.488-.288-8.115-.764L405.36 328.962v47.727H90.61v-49.583L53.745 196.14c-2.738.515-5.56.813-8.442.813C20.28 196.953 0 176.673 0 151.65c0-25.025 20.28-45.308 45.303-45.308 25.017 0 45.302 20.282 45.302 45.308 0 6.16-1.244 12.025-3.47 17.382 45.266 15.272 115.156 27.718 146.6-24.93-18.037-5.973-31.058-22.944-31.058-42.982 0-25.024 20.285-45.31 45.302-45.31s45.302 20.286 45.302 45.31c0 20.02-12.997 36.982-31.02 42.97 18.357 33.91 59.266 69.337 148.454 28.942-3.403-6.372-5.36-13.644-5.36-21.376 0-25.026 20.283-45.31 45.3-45.31s45.313 20.28 45.313 45.304zM90.615 440.16H405.37v-42.907H90.615v42.906z"/></svg>
