<svg xmlns="http://www.w3.org/2000/svg" viewBox="0 0 357.507 357.507"><path fill="#11dcfa" d="M357.507 248.234v46.02h-150.9v-46.02h150.9zM190.172 76.672c0-4.513 3.675-8.19 8.185-8.19 4.533 0 8.208 3.672 8.208 8.19v9.617h-16.393v-9.62zm-3.975 0v10.385h-20.515V76.672c0-6.708-5.467-12.17-12.18-12.17-6.71 0-12.175 5.462-12.175 12.17v10.385h-9.78V41.033h89.526v46.024H210.54V76.672c0-6.708-5.476-12.17-12.177-12.17s-12.166 5.462-12.166 12.17zm-40.88 0c0-4.513 3.67-8.19 8.19-8.19 4.513 0 8.196 3.672 8.196 8.19v9.617h-16.38v-9.62h-.007zm55.538 41.26v20.932H150.59V117.93h50.265zm0 26.705v20.138H150.59v-20.138h50.265zm0 25.905v20.12H150.59v-20.12h50.265zm0 25.884v17.6H150.59v-17.6h50.265zm0 23.37v22.675H150.59V219.8h50.265zm0 28.438v20.285H150.59v-20.29h50.265zm0 26.05v19.972H150.59v-19.973h50.265zm0 25.742v16.447H150.59v-16.447h50.265zm-50.264-187.85v-19.34h50.27v19.34h-50.27zm56.02 26.693V92.84h46.6v46.026h-46.6zm0 51.79v-46.03h81.35v46.023h-81.35zm0 51.8v-46.04h114.63v46.036H206.61zM99.52 138.87V92.842h45.306v46.026H99.518zm-34.85 51.79v-46.023h80.152v46.024h-80.15zm-28.394 51.804v-46.038H144.82v46.038H36.28zM0 294.256v-46.02h144.824v46.02H0z"/></svg>
