<?xml version="1.0" encoding="UTF-8"?>
<svg width="40px" height="40px" viewBox="0 0 40 40" version="1.1" xmlns="http://www.w3.org/2000/svg" xmlns:xlink="http://www.w3.org/1999/xlink">
    <!-- Generator: Sketch 48.2 (47327) - http://www.bohemiancoding.com/sketch -->
    <title>icon_branding@2x</title>
    <desc>Created with Sketch.</desc>
    <defs>
        <rect id="path-1" x="0" y="0" width="40" height="40"></rect>
    </defs>
    <g id="Page-1" stroke="none" stroke-width="1" fill="none" fill-rule="evenodd">
        <g id="icon_branding">
            <g>
                <mask id="mask-2" fill="white">
                    <use xlink:href="#path-1"></use>
                </mask>
                <g id="Mask"></g>
                <path d="M21.6786865,13.8472222 C21.8906419,14.0527778 22.0093369,14.3388889 22.0093369,14.6333333 C22.0093369,14.925 21.8906419,15.2111111 21.6786865,15.4194444 C21.4695572,15.625 21.1784719,15.7444444 20.8817343,15.7444444 C20.5821707,15.7444444 20.2910854,15.625 20.0819561,15.4194444 C19.8700007,15.2111111 19.7513057,14.925 19.7513057,14.6333333 C19.7513057,14.3388889 19.8700007,14.0527778 20.0819561,13.8472222 C20.2910854,13.6388889 20.5821707,13.5222222 20.8817343,13.5222222 C21.1784719,13.5222222 21.4695572,13.6388889 21.6786865,13.8472222 M21.7897511,17.8561111 C21.1547329,18.3275 20.3713458,18.5266667 19.5851327,18.4177778 C18.7963761,18.3080556 18.0983364,17.9013889 17.6190347,17.2725 C16.6293444,15.9727778 16.8944299,14.1208333 18.2099663,13.1436111 C18.8455498,12.6722222 19.629502,12.4725 20.4159977,12.5822222 C21.2044717,12.6922222 21.9025114,13.0986111 22.3809653,13.7269444 C23.3706556,15.0272222 23.1055701,16.8794444 21.7897511,17.8561111 M20.653953,10.9322222 C19.4164162,10.7597222 18.1862272,11.0730556 17.1877762,11.8136111 C17.1877762,11.8136111 17.1877762,11.8138889 17.1874935,11.8138889 C15.1295482,13.3427778 14.7141157,16.2391667 16.2616725,18.2713889 C17.0131249,19.2577778 18.1090755,19.8958333 19.3477427,20.0680556 C19.5690241,20.0986111 19.7903055,20.1138889 20.0098913,20.1138889 C21.0171032,20.1138889 21.9929457,19.7938889 22.8116586,19.1858333 C24.8701692,17.6580556 25.2861669,14.7613889 23.7383275,12.7283333 C22.9874403,11.7425 21.8920549,11.1044444 20.653953,10.9322222 M20,20.7777778 C14.5420079,20.7777778 10.8260064,17.0116667 9.55342634,15.4977778 C10.8200716,13.9830556 14.5177037,10.2222222 20,10.2222222 C25.4568616,10.2222222 29.1720154,13.9863889 30.444878,15.5 C29.1706023,17.015 25.4554486,20.7777778 20,20.7777778 M32.8086043,14.8813889 C32.6169966,14.6002778 28.0232173,8 20,8 C11.9767827,8 7.38300335,14.6002778 7.1913957,14.8813889 C6.93620143,15.2555556 6.93620143,15.7444444 7.1913957,16.1186111 C7.38300335,16.3997222 11.9767827,23 20,23 C28.0232173,23 32.6169966,16.3997222 32.8086043,16.1186111 C33.0637986,15.7444444 33.0637986,15.2555556 32.8086043,14.8813889" id="preview" fill="#ABABAB" mask="url(#mask-2)"></path>
            </g>
        </g>
    </g>
</svg>