<?xml version="1.0" encoding="UTF-8"?>
<svg width="40px" height="40px" viewBox="0 0 40 40" version="1.1" xmlns="http://www.w3.org/2000/svg" xmlns:xlink="http://www.w3.org/1999/xlink">
    <!-- Generator: Sketch 48.2 (47327) - http://www.bohemiancoding.com/sketch -->
    <title>icon_compact@2x</title>
    <desc>Created with Sketch.</desc>
    <defs>
        <rect id="path-1" x="0" y="0" width="40" height="40"></rect>
    </defs>
    <g id="Page-1" stroke="none" stroke-width="1" fill="none" fill-rule="evenodd">
        <g id="icon_compact">
            <g>
                <mask id="mask-2" fill="white">
                    <use xlink:href="#path-1"></use>
                </mask>
                <g id="Mask"></g>
                <path d="M14.5436765,13.9545455 C14.5436765,13.2516818 15.1231176,12.6818182 15.8377941,12.6818182 L24.3611765,12.6818182 C25.0758529,12.6818182 25.6552941,13.2516818 25.6552941,13.9545455 C25.6552941,14.6574091 25.0758529,15.2272727 24.3611765,15.2272727 L15.8377941,15.2272727 C15.1231176,15.2272727 14.5436765,14.6574091 14.5436765,13.9545455 L14.5436765,13.9545455 Z M14.5436765,20 C14.5436765,19.2971364 15.1231176,18.7272727 15.8377941,18.7272727 L24.3611765,18.7272727 C25.0758529,18.7272727 25.6552941,19.2971364 25.6552941,20 C25.6552941,20.7028636 25.0758529,21.2727273 24.3611765,21.2727273 L15.8377941,21.2727273 C15.1231176,21.2727273 14.5436765,20.7028636 14.5436765,20 L14.5436765,20 Z M14.3443824,26.0454545 C14.3443824,25.3425909 14.9238235,24.7727273 15.6385,24.7727273 L24.3611765,24.7727273 C25.0758529,24.7727273 25.6552941,25.3425909 25.6552941,26.0454545 C25.6552941,26.7483182 25.0758529,27.3181818 24.3611765,27.3181818 L15.6385,27.3181818 C14.9238235,27.3181818 14.3443824,26.7483182 14.3443824,26.0454545 L14.3443824,26.0454545 Z M11.5882353,31.4545455 L28.4117647,31.4545455 L28.4117647,8.54545455 L11.5882353,8.54545455 L11.5882353,31.4545455 Z M29.7058824,6 L10.2941176,6 C9.57944118,6 9,6.56986364 9,7.27272727 L9,32.7272727 C9,33.4301364 9.57944118,34 10.2941176,34 L29.7058824,34 C30.4205588,34 31,33.4301364 31,32.7272727 L31,7.27272727 C31,6.56986364 30.4205588,6 29.7058824,6 L29.7058824,6 Z" id="blog" fill="#575757" opacity="0.5" mask="url(#mask-2)"></path>
            </g>
        </g>
    </g>
</svg>