<?xml version="1.0" encoding="UTF-8"?>
<svg width="40px" height="40px" viewBox="0 0 40 40" version="1.1" xmlns="http://www.w3.org/2000/svg" xmlns:xlink="http://www.w3.org/1999/xlink">
    <!-- Generator: Sketch 48.2 (47327) - http://www.bohemiancoding.com/sketch -->
    <title>icon_sections@2x</title>
    <desc>Created with Sketch.</desc>
    <defs>
        <rect id="path-1" x="0" y="0" width="40" height="40"></rect>
    </defs>
    <g id="Page-1" stroke="none" stroke-width="1" fill="none" fill-rule="evenodd">
        <g id="icon_sections">
            <g>
                <mask id="mask-2" fill="white">
                    <use xlink:href="#path-1"></use>
                </mask>
                <g id="Mask"></g>
                <path d="M24.4545455,30.6799457 L20.7604545,26.927913 C20.5211818,26.6892935 20.196,26.4891304 19.8571364,26.4891304 L19.8412273,26.4891304 C19.4966364,26.4891304 19.1685909,26.7022174 18.9321818,26.9502935 L15.5454545,30.5683587 L15.5454545,8.52173913 L24.4545455,8.52173913 L24.4545455,30.6799457 Z M25.7272727,6 L14.2727273,6 C13.5698636,6 13,6.56455435 13,7.26086957 L13,33.7391304 C13,34.2554565 13.3181818,34.7197717 13.8024545,34.9104783 C13.9548636,34.9706848 14.1142727,35 14.2724091,35 C14.6160455,35 14.9526818,34.86225 15.198,34.6050326 L19.8800455,29.6948913 L24.8242727,34.627413 C25.1873182,34.9895978 25.7352273,35.0992935 26.2121818,34.9048043 C26.6888182,34.71 27,34.2497826 27,33.7391304 L27,7.26086957 C27,6.56455435 26.4301364,6 25.7272727,6 L25.7272727,6 Z" id="bookmark" fill="#2DC08D" mask="url(#mask-2)"></path>
            </g>
        </g>
    </g>
</svg>