<?xml version="1.0" encoding="UTF-8"?>
<svg width="40px" height="40px" viewBox="0 0 40 40" version="1.1" xmlns="http://www.w3.org/2000/svg" xmlns:xlink="http://www.w3.org/1999/xlink">
    <!-- Generator: Sketch 48.2 (47327) - http://www.bohemiancoding.com/sketch -->
    <title>icon_entries@2x</title>
    <desc>Created with Sketch.</desc>
    <defs>
        <rect id="path-1" x="0" y="0" width="40" height="40"></rect>
    </defs>
    <g id="Page-1" stroke="none" stroke-width="1" fill="none" fill-rule="evenodd">
        <g id="icon_entries">
            <g>
                <mask id="mask-2" fill="white">
                    <use xlink:href="#path-1"></use>
                </mask>
                <g id="Mask"></g>
                <path d="M31.831625,30.7222222 C31.831625,30.0165694 31.24955,29.4444444 30.531625,29.4444444 L8.387425,29.4444444 C7.6695,29.4444444 7.087425,30.0165694 7.087425,30.7222222 C7.087425,31.427875 7.6695,32 8.387425,32 L30.531625,32 C31.24955,32 31.831625,31.427875 31.831625,30.7222222 M27.02065,23.9145417 C27.02065,23.2088889 26.438575,22.6367639 25.72065,22.6367639 L8.3,22.6367639 C7.582075,22.6367639 7,23.2088889 7,23.9145417 C7,24.6201944 7.582075,25.1923194 8.3,25.1923194 L25.72065,25.1923194 C26.438575,25.1923194 27.02065,24.6201944 27.02065,23.9145417 M23.052075,17.1062222 C23.052075,16.4005694 22.47,15.8284444 21.752075,15.8284444 L8.3,15.8284444 C7.582075,15.8284444 7,16.4005694 7,17.1062222 C7,17.811875 7.582075,18.384 8.3,18.384 L21.752075,18.384 C22.47,18.384 23.052075,17.811875 23.052075,17.1062222 M31.7,11.5555556 L8.3,11.5555556 C7.582075,11.5555556 7,10.9834306 7,10.2777778 C7,9.572125 7.582075,9 8.3,9 L31.7,9 C32.417925,9 33,9.572125 33,10.2777778 C33,10.9834306 32.417925,11.5555556 31.7,11.5555556" id="align-left" fill="#2DC08D" mask="url(#mask-2)"></path>
            </g>
        </g>
    </g>
</svg>