<?xml version="1.0" encoding="UTF-8"?>
<svg width="40px" height="40px" viewBox="0 0 40 40" version="1.1" xmlns="http://www.w3.org/2000/svg" xmlns:xlink="http://www.w3.org/1999/xlink">
    <!-- Generator: Sketch 48.2 (47327) - http://www.bohemiancoding.com/sketch -->
    <title>icon_article@2x</title>
    <desc>Created with Sketch.</desc>
    <defs>
        <rect id="path-1" x="0" y="0" width="40" height="40"></rect>
    </defs>
    <g id="Page-1" stroke="none" stroke-width="1" fill="none" fill-rule="evenodd">
        <g id="icon_article">
            <g id="icon_article_2">
                <mask id="mask-2" fill="white">
                    <use xlink:href="#path-1"></use>
                </mask>
                <g id="Mask"></g>
                <g id="Group-13-Copy" mask="url(#mask-2)" fill="#2DC08D">
                    <g transform="translate(7.000000, 8.000000)">
                        <path d="M6.98529412,14.375 L11.7352941,14.375 L11.7352941,12.3863636 L6.98529412,12.3863636 L6.98529412,14.375 Z M13.6911765,11.3920455 C13.6911765,10.8428977 13.2533382,10.3977273 12.7132353,10.3977273 L6.00735294,10.3977273 C5.46725,10.3977273 5.02941176,10.8428977 5.02941176,11.3920455 L5.02941176,15.3693182 C5.02941176,15.9184659 5.46725,16.3636364 6.00735294,16.3636364 L12.7132353,16.3636364 C13.2533382,16.3636364 13.6911765,15.9184659 13.6911765,15.3693182 L13.6911765,11.3920455 Z M6.01377941,18.6363636 L12.6648971,18.6363636 C13.205,18.6363636 13.6428382,19.0815341 13.6428382,19.6306818 C13.6428382,20.1798295 13.205,20.625 12.6648971,20.625 L6.01377941,20.625 C5.47367647,20.625 5.03583824,20.1798295 5.03583824,19.6306818 C5.03583824,19.0815341 5.47367647,18.6363636 6.01377941,18.6363636 Z M6.01377941,22.6136364 L12.6648971,22.6136364 C13.205,22.6136364 13.6428382,23.0588068 13.6428382,23.6079545 C13.6428382,24.1571023 13.205,24.6022727 12.6648971,24.6022727 L6.01377941,24.6022727 C5.47367647,24.6022727 5.03583824,24.1571023 5.03583824,23.6079545 C5.03583824,23.0588068 5.47367647,22.6136364 6.01377941,22.6136364 Z M2.23529412,27.7272727 L16.7647059,27.7272727 L16.7647059,7.27272727 L2.23529412,7.27272727 L2.23529412,27.7272727 Z M1.11764706,5 C0.500426471,5 0,5.50880682 0,6.13636364 L0,28.8636364 C0,29.4911932 0.500426471,30 1.11764706,30 L17.8823529,30 C18.4995735,30 19,29.4911932 19,28.8636364 L19,6.13636364 C19,5.50880682 18.4995735,5 17.8823529,5 L1.11764706,5 Z" id="article-copy"></path>
                        <path d="M20,25 L20,22.4545455 L20.0465322,22.4545455 L21.5294118,22.4545455 L21.5294118,2 L7,2 L7,4 L5,4 L5,1.13636364 C5,0.508806818 5.50042647,0 6.11764706,0 L22.8823529,0 C23.4995735,0 24,0.508806818 24,1.13636364 L24,23.8636364 C24,24.4911932 23.4995735,25 22.8823529,25 L20.2778161,25 L20,25 Z" id="Combined-Shape"></path>
                    </g>
                </g>
            </g>
        </g>
    </g>
</svg>