<?xml version="1.0" encoding="UTF-8"?>
<svg width="40px" height="40px" viewBox="0 0 40 40" version="1.1" xmlns="http://www.w3.org/2000/svg" xmlns:xlink="http://www.w3.org/1999/xlink">
    <!-- Generator: Sketch 48.2 (47327) - http://www.bohemiancoding.com/sketch -->
    <title>icon_design@2x</title>
    <desc>Created with Sketch.</desc>
    <defs>
        <rect id="path-1" x="0" y="0" width="40" height="40"></rect>
    </defs>
    <g id="Page-1" stroke="none" stroke-width="1" fill="none" fill-rule="evenodd">
        <g id="icon_design">
            <g>
                <mask id="mask-2" fill="white">
                    <use xlink:href="#path-1"></use>
                </mask>
                <g id="Mask"></g>
                <path d="M11.9934766,8.82352941 L16.1401825,8.82352941 L13.8658295,12.3529412 L8.51488835,12.3529412 L11.9934766,8.82352941 Z M31.9558295,12.3529412 L26.6048883,12.3529412 L24.3305354,8.82352941 L28.4772413,8.82352941 L31.9558295,12.3529412 Z M26.799006,14.8235294 L31.8291236,14.8235294 L24.1985354,22.4601176 L26.799006,14.8235294 Z M20.2353589,26.5909412 L20.2307707,26.5044706 L16.2813589,14.8235294 L24.1893589,14.8235294 L20.2399472,26.5041176 L20.2353589,26.5909412 Z M21.429006,8.82352941 L23.7033589,12.3529412 L16.7673589,12.3529412 L19.0417119,8.82352941 L21.429006,8.82352941 Z M13.6713589,14.8235294 L16.2718295,22.4604706 L8.64159423,14.8235294 L13.6713589,14.8235294 Z M36.0866531,12.7838824 L30.1145354,6.44364706 C29.8477119,6.16058824 29.4760648,6 29.0871236,6 L11.3835942,6 C10.9946531,6 10.623006,6.16058824 10.3561825,6.44364706 L4.38406482,12.7838824 C3.861006,13.3394118 3.87371188,14.2101176 4.413006,14.7497647 L19.2365354,29.586 C19.5012413,29.8510588 19.8605354,30 20.2353589,30 C20.6098295,30 20.9691236,29.8510588 21.2338295,29.586 L36.0577119,14.7497647 C36.597006,14.2101176 36.6097119,13.3394118 36.0866531,12.7838824 L36.0866531,12.7838824 Z" id="jewel" fill="#2DC08D" mask="url(#mask-2)"></path>
            </g>
        </g>
    </g>
</svg>