<?xml version="1.0" encoding="UTF-8"?>
<svg width="40px" height="40px" viewBox="0 0 40 40" version="1.1" xmlns="http://www.w3.org/2000/svg" xmlns:xlink="http://www.w3.org/1999/xlink">
    <!-- Generator: Sketch 48.2 (47327) - http://www.bohemiancoding.com/sketch -->
    <title>icon_sections_2@2x</title>
    <desc>Created with Sketch.</desc>
    <defs>
        <rect id="path-1" x="0" y="0" width="40" height="40"></rect>
    </defs>
    <g id="Page-1" stroke="none" stroke-width="1" fill="none" fill-rule="evenodd">
        <g id="icon_sections_2">
            <g>
                <mask id="mask-2" fill="white">
                    <use xlink:href="#path-1"></use>
                </mask>
                <g id="Mask"></g>
                <path d="M27,6.94565122 L27,28.1515646 C27,28.7608792 26.5083922,29.2548244 25.9019608,29.2548244 C25.2955294,29.2548244 24.8039216,28.7608792 24.8039216,28.1515646 L24.8039216,8.20651951 L18.2156863,8.20651951 L18.2156863,8.61882344 C18.2156863,9.22813805 17.7240784,9.7220832 17.1176471,9.7220832 C16.5112157,9.7220832 16.0196078,9.22813805 16.0196078,8.61882344 L16.0196078,6.94565122 C16.0196078,6.33633662 16.3643922,6 16.9708235,6 L26.0588235,6 C26.6652549,6 27,6.33633662 27,6.94565122 L27,6.94565122 Z M20.0980392,30.6900077 L17.5788235,28.1392711 C17.3432157,27.9019127 17.0188235,27.749978 16.6856471,27.749978 L16.6699608,27.749978 C16.331451,27.749978 16.0086275,27.9148366 15.7755294,28.1616515 L13.5098039,30.5790513 L13.5098039,13.8804268 L20.0980392,13.8804268 L20.0980392,30.6900077 Z M21.342902,11.3586902 L12.254902,11.3586902 C11.5618824,11.3586902 11,11.8365593 11,12.5328738 L11,33.7387872 C11,34.2547976 11.3127843,34.7187971 11.7899608,34.9101339 C11.9408627,34.9703403 12.0983529,34.9996555 12.2545882,34.9996555 C12.5921569,34.9996555 12.923451,34.8628513 13.1650196,34.606895 L16.7079216,30.8564423 L20.4547451,34.6292755 C20.8136471,34.9908294 21.3582745,35.0995793 21.8276078,34.9038295 C22.2969412,34.7090254 22.6078431,34.2491237 22.6078431,33.7387872 L22.6078431,12.5328738 C22.6078431,11.8365593 22.0359216,11.3586902 21.342902,11.3586902 L21.342902,11.3586902 Z" id="bookmarks-copy" fill="#2DC08D" mask="url(#mask-2)"></path>
            </g>
        </g>
    </g>
</svg>