<?xml version="1.0" encoding="utf-8"?>
<svg
 version="1.1"
 xmlns="http://www.w3.org/2000/svg"
 width="40px"
 height="40px"
 fill="#07c1a3">
<g>
	<path d="M33.4,12.2C33.4,12.2,33.4,12.2,33.4,12.2c0.1-0.3,0.3-0.9-0.4-1.6l-1.4-1.4l-3.8-3.8L26.4,4c-0.4-0.4-0.8-0.5-1.1-0.5
		c-0.2,0-0.3,0-0.5,0.1C23.9,3.2,22.9,3,22,3H11C8.8,3,7,4.8,7,7v12c-1.1,0-2,0.9-2,2v9c0,1.1,0.9,2,2,2v1.5c0,1.9,1.8,3.5,4,3.5h19
		c2.2,0,4-1.8,4-4V15C34,14.1,33.8,13.1,33.4,12.2z M26,6.5c0.1,0.1,0.3,0.2,0.4,0.4l3.8,3.8c0.1,0.1,0.2,0.3,0.4,0.4H26V6.5z M7,21
		h20l0,9H7V21z M32,33c0,1.1-0.9,2-2,2H11c-1.1,0-2-0.7-2-1.5V32h18c1.1,0,2-0.9,2-2v-9c0-1.1-0.9-2-2-2H9V7c0-1.1,0.9-2,2-2h11
		c0.6,0,1.3,0.2,2,0.4v6.1c0,0.9,0.8,1.5,2,1.5h5.6c0.3,0.7,0.4,1.4,0.4,2V33z"/>
	<polygon points="10,26 13,26 13,25 10,25 10,24 13,24 13,23 10,23 9,23 9,28 10,28 	"/>
	<rect x="13" y="24" width="1" height="1"/>
	<polygon points="19,28 19,27 16,27 16,24 19,24 19,23 16,23 15,23 15,28 16,28 	"/>
	<rect x="19" y="24" width="1" height="3"/>
	<polygon points="22,26 24,26 24,25 22,25 22,24 25,24 25,23 22,23 21,23 21,24 21,28 22,28 	"/>
</g>
</svg>
