<?xml version="1.0" encoding="utf-8"?>
<svg
 version="1.1"
 xmlns="http://www.w3.org/2000/svg"
 width="40px"
 height="40px"
 fill="#07c1a3">
<g>
	<path d="M7,11.8c1.5,0,3-1.2,3-2.8V5c0-1.5-1.5-2.8-3-2.8S4,3.5,4,5v4C4,10.5,5.5,11.8,7,11.8z M6,5c0-0.7,0.3-1.2,1-1.2S8,4.3,8,5
		v4c0,0.7-0.3,1.2-1,1.2S6,9.7,6,9V5z"/>
	<path d="M18,10h-1V3c0-0.6-0.4-1-1-1s-1,0.4-1,1v0.9l-1.5,1.5c-0.3,0.3-0.3,0.8,0,1.1c0.1,0.1,0.3,0.2,0.5,0.2s0.4-0.1,0.5-0.2
		L15,6.1V10h-1c-0.6,0-1,0.4-1,1s0.4,1,1,1h4c0.6,0,1-0.4,1-1S18.6,10,18,10z"/>
	<path d="M25,11.8c1.5,0,3-1.2,3-2.8V5c0-1.5-1.5-2.8-3-2.8S22,3.5,22,5v4C22,10.5,23.5,11.8,25,11.8z M24,5c0-0.7,0.3-1.2,1-1.2
		s1,0.6,1,1.2v4c0,0.7-0.3,1.2-1,1.2S24,9.7,24,9V5z"/>
	<path d="M32,10c-0.6,0-1,0.4-1,1s0.4,1,1,1h4c0.6,0,1-0.4,1-1s-0.4-1-1-1h-1V3c0-0.6-0.4-1-1-1s-1,0.4-1,1v0.9l-1.5,1.5
		c-0.3,0.3-0.3,0.8,0,1.1c0.1,0.1,0.3,0.2,0.5,0.2s0.4-0.1,0.5-0.2L33,6.1V10H32z"/>
	<path d="M16,15.2c-1.5,0-3,1.2-3,2.8v4c0,1.5,1.5,2.8,3,2.8s3-1.2,3-2.8v-4C19,16.5,17.5,15.2,16,15.2z M17,22c0,0.7-0.3,1.2-1,1.2
		s-1-0.6-1-1.2v-4c0-0.7,0.3-1.2,1-1.2s1,0.6,1,1.2V22z"/>
	<path d="M7,24.8c1.5,0,3-1.2,3-2.8v-4c0-1.5-1.5-2.8-3-2.8S4,16.5,4,18v4C4,23.5,5.5,24.8,7,24.8z M6,18c0-0.7,0.3-1.2,1-1.2
		s1,0.6,1,1.2v4c0,0.7-0.3,1.2-1,1.2S6,22.7,6,22V18z"/>
	<path d="M27,23h-1v-7c0-0.6-0.4-1-1-1s-1,0.4-1,1v0.9l-1.5,1.5c-0.3,0.3-0.3,0.8,0,1.1c0.1,0.1,0.3,0.2,0.5,0.2s0.4-0.1,0.5-0.2
		l0.5-0.5V23h-1c-0.6,0-1,0.4-1,1s0.4,1,1,1h4c0.6,0,1-0.4,1-1S27.6,23,27,23z"/>
	<path d="M34,15.2c-1.5,0-3,1.2-3,2.8v4c0,1.5,1.5,2.8,3,2.8s3-1.2,3-2.8v-4C37,16.5,35.5,15.2,34,15.2z M35,22c0,0.7-0.3,1.2-1,1.2
		s-1-0.6-1-1.2v-4c0-0.7,0.3-1.2,1-1.2s1,0.6,1,1.2V22z"/>
	<path d="M9,36H8v-7c0-0.6-0.4-1-1-1s-1,0.4-1,1v0.9l-1.5,1.5c-0.3,0.3-0.3,0.8,0,1.1c0.1,0.1,0.3,0.2,0.5,0.2s0.4-0.1,0.5-0.2
		L6,32.1V36H5c-0.6,0-1,0.4-1,1s0.4,1,1,1h4c0.6,0,1-0.4,1-1S9.6,36,9,36z"/>
	<path d="M16,28.2c-1.5,0-3,1.2-3,2.8v4c0,1.5,1.5,2.8,3,2.8s3-1.2,3-2.8v-4C19,29.5,17.5,28.2,16,28.2z M17,35c0,0.7-0.3,1.2-1,1.2
		s-1-0.6-1-1.2v-4c0-0.7,0.3-1.2,1-1.2s1,0.6,1,1.2V35z"/>
	<path d="M27,36h-1v-7c0-0.6-0.4-1-1-1s-1,0.4-1,1v0.9l-1.5,1.5c-0.3,0.3-0.3,0.8,0,1.1c0.1,0.1,0.3,0.2,0.5,0.2s0.4-0.1,0.5-0.2
		l0.5-0.5V36h-1c-0.6,0-1,0.4-1,1s0.4,1,1,1h4c0.6,0,1-0.4,1-1S27.6,36,27,36z"/>
	<path d="M34,28.2c-1.5,0-3,1.2-3,2.8v4c0,1.5,1.5,2.8,3,2.8s3-1.2,3-2.8v-4C37,29.5,35.5,28.2,34,28.2z M35,35c0,0.7-0.3,1.2-1,1.2
		s-1-0.6-1-1.2v-4c0-0.7,0.3-1.2,1-1.2s1,0.6,1,1.2V35z"/>
</g>
</svg>
