<svg xmlns="http://www.w3.org/2000/svg" width="40" height="40" fill="#07c1a3"><path d="M7 11.8c1.5 0 3-1.2 3-2.8V5c0-1.5-1.5-2.8-3-2.8S4 3.5 4 5v4c0 1.5 1.5 2.8 3 2.8zM6 5c0-.7.3-1.2 1-1.2S8 4.3 8 5v4c0 .7-.3 1.2-1 1.2S6 9.7 6 9V5zm12 5h-1V3c0-.6-.4-1-1-1s-1 .4-1 1v.9l-1.5 1.5c-.3.3-.3.8 0 1.1.1.1.3.2.5.2s.4-.1.5-.2l.5-.4V10h-1c-.6 0-1 .4-1 1s.4 1 1 1h4c.6 0 1-.4 1-1s-.4-1-1-1zm7 1.8c1.5 0 3-1.2 3-2.8V5c0-1.5-1.5-2.8-3-2.8S22 3.5 22 5v4c0 1.5 1.5 2.8 3 2.8zM24 5c0-.7.3-1.2 1-1.2s1 .6 1 1.2v4c0 .7-.3 1.2-1 1.2s-1-.5-1-1.2V5zm8 5c-.6 0-1 .4-1 1s.4 1 1 1h4c.6 0 1-.4 1-1s-.4-1-1-1h-1V3c0-.6-.4-1-1-1s-1 .4-1 1v.9l-1.5 1.5c-.3.3-.3.8 0 1.1.1.1.3.2.5.2s.4-.1.5-.2l.5-.4V10h-1zm-16 5.2c-1.5 0-3 1.2-3 2.8v4c0 1.5 1.5 2.8 3 2.8s3-1.2 3-2.8v-4c0-1.5-1.5-2.8-3-2.8zm1 6.8c0 .7-.3 1.2-1 1.2s-1-.6-1-1.2v-4c0-.7.3-1.2 1-1.2s1 .6 1 1.2v4zM7 24.8c1.5 0 3-1.2 3-2.8v-4c0-1.5-1.5-2.8-3-2.8S4 16.5 4 18v4c0 1.5 1.5 2.8 3 2.8zM6 18c0-.7.3-1.2 1-1.2s1 .6 1 1.2v4c0 .7-.3 1.2-1 1.2s-1-.5-1-1.2v-4zm21 5h-1v-7c0-.6-.4-1-1-1s-1 .4-1 1v.9l-1.5 1.5c-.3.3-.3.8 0 1.1.1.1.3.2.5.2s.4-.1.5-.2l.5-.5v4h-1c-.6 0-1 .4-1 1s.4 1 1 1h4c.6 0 1-.4 1-1s-.4-1-1-1zm7-7.8c-1.5 0-3 1.2-3 2.8v4c0 1.5 1.5 2.8 3 2.8s3-1.2 3-2.8v-4c0-1.5-1.5-2.8-3-2.8zm1 6.8c0 .7-.3 1.2-1 1.2s-1-.6-1-1.2v-4c0-.7.3-1.2 1-1.2s1 .6 1 1.2v4zM9 36H8v-7c0-.6-.4-1-1-1s-1 .4-1 1v.9l-1.5 1.5c-.3.3-.3.8 0 1.1.1.1.3.2.5.2s.4-.1.5-.2l.5-.4V36H5c-.6 0-1 .4-1 1s.4 1 1 1h4c.6 0 1-.4 1-1s-.4-1-1-1zm7-7.8c-1.5 0-3 1.2-3 2.8v4c0 1.5 1.5 2.8 3 2.8s3-1.2 3-2.8v-4c0-1.5-1.5-2.8-3-2.8zm1 6.8c0 .7-.3 1.2-1 1.2s-1-.6-1-1.2v-4c0-.7.3-1.2 1-1.2s1 .6 1 1.2v4zm10 1h-1v-7c0-.6-.4-1-1-1s-1 .4-1 1v.9l-1.5 1.5c-.3.3-.3.8 0 1.1.1.1.3.2.5.2s.4-.1.5-.2l.5-.5v4h-1c-.6 0-1 .4-1 1s.4 1 1 1h4c.6 0 1-.4 1-1s-.4-1-1-1zm7-7.8c-1.5 0-3 1.2-3 2.8v4c0 1.5 1.5 2.8 3 2.8s3-1.2 3-2.8v-4c0-1.5-1.5-2.8-3-2.8zm1 6.8c0 .7-.3 1.2-1 1.2s-1-.6-1-1.2v-4c0-.7.3-1.2 1-1.2s1 .6 1 1.2v4z"/></svg>