<svg xmlns="http://www.w3.org/2000/svg" width="40" height="40" fill="#07c1a3"><path d="M21 31h-2c-2.2 0-4-1.3-4-3 0-.7-.8-2.3-1.9-3.2-.1-.1-3.1-2.9-3.1-6.8 0-5.5 4.5-10 10-10s10 4.5 10 10c0 3.9-3 6.7-3.1 6.8-1.1 1-1.9 2.5-1.9 3.2 0 1.7-1.8 3-4 3zm-1-21c-4.4 0-8 3.6-8 8 0 3.1 2.4 5.3 2.4 5.3 1.2 1.1 2.6 3.2 2.6 4.7 0 .4.8 1 2 1h2c1.2 0 2-.6 2-1 0-1.6 1.3-3.6 2.6-4.7 0 0 2.4-2.3 2.4-5.3 0-4.4-3.6-8-8-8zm2 28h-4c-1.7 0-3-1.3-3-3s1.3-3 3-3h4c1.7 0 3 1.3 3 3s-1.3 3-3 3zm-4-4c-.6 0-1 .4-1 1s.4 1 1 1h4c.6 0 1-.4 1-1s-.4-1-1-1h-4zM8 19H4c-.6 0-1-.4-1-1s.4-1 1-1h4c.6 0 1 .4 1 1s-.4 1-1 1zm28 0h-4c-.6 0-1-.4-1-1s.4-1 1-1h4c.6 0 1 .4 1 1s-.4 1-1 1zM20 7c-.6 0-1-.4-1-1V3c0-.6.4-1 1-1s1 .4 1 1v3c0 .6-.4 1-1 1zm9 3c-.3 0-.5-.1-.7-.3-.4-.4-.4-1 0-1.4l2-2c.4-.4 1-.4 1.4 0s.4 1 0 1.4l-2 2c-.2.2-.4.3-.7.3zm-19 0c-.3 0-.5-.1-.7-.3l-2-2c-.4-.4-.4-1 0-1.4s1-.4 1.4 0l2 2c.4.4.4 1 0 1.4-.2.2-.4.3-.7.3z"/></svg>