<svg xmlns="http://www.w3.org/2000/svg" width="40" height="40" fill="#07c1a3"><path d="M33.4 12.2c.1-.3.3-.9-.4-1.6l-1.4-1.4-3.8-3.8L26.4 4c-.4-.4-.8-.5-1.1-.5-.2 0-.3 0-.5.1-.9-.4-1.9-.6-2.8-.6H11C8.8 3 7 4.8 7 7v12c-1.1 0-2 .9-2 2v9c0 1.1.9 2 2 2v1.5c0 1.9 1.8 3.5 4 3.5h19c2.2 0 4-1.8 4-4V15c0-.9-.2-1.9-.6-2.8zM26 6.5c.1.1.3.2.4.4l3.8 3.8c.1.1.2.3.4.4H26V6.5zM7 21h20v9H7v-9zm25 12c0 1.1-.9 2-2 2H11c-1.1 0-2-.7-2-1.5V32h18c1.1 0 2-.9 2-2v-9c0-1.1-.9-2-2-2H9V7c0-1.1.9-2 2-2h11c.6 0 1.3.2 2 .4v6.1c0 .9.8 1.5 2 1.5h5.6c.3.7.4 1.4.4 2v18z"/><path d="M10 26h3v-1h-3v-1h3v-1H9v5h1m3-4h1v1h-1zm6 4v-1h-3v-3h3v-1h-4v5h1m3-4h1v3h-1zm3 2h2v-1h-2v-1h3v-1h-4v5h1"/></svg>