<?xml version="1.0" encoding="utf-8"?>
<!-- Generator: Adobe Illustrator 18.0.0, SVG Export Plug-In . SVG Version: 6.00 Build 0)  -->
<!DOCTYPE svg PUBLIC "-//W3C//DTD SVG 1.1//EN" "http://www.w3.org/Graphics/SVG/1.1/DTD/svg11.dtd">
<svg version="1.1" id="Layer_1" xmlns="http://www.w3.org/2000/svg" xmlns:xlink="http://www.w3.org/1999/xlink" x="0px" y="0px"
	 viewBox="0 0 40 40" enable-background="new 0 0 40 40" xml:space="preserve">
<path d="M35,5h-1c-0.8,0-1.8,0.4-2.4,1L15,22.6c-0.1,0.1-0.2,0.3-0.3,0.4c-4.5,0.1-6.6,3.2-8.1,5.5C5.6,30,4.9,31,4,31
	c-0.4,0-0.8,0.2-0.9,0.6C2.9,32,3,32.4,3.3,32.7c1.6,1.6,4,2.5,6.5,2.5c1.3,0,2.7-0.3,4-0.8c3.2-1.3,5.1-4,5.2-7.1
	c0.2-0.1,0.3-0.2,0.4-0.3L36,10.4c0.6-0.6,1-1.6,1-2.4V7C37,5.9,36.1,5,35,5z M13,32.6c-2.3,1-5,0.8-7-0.3c0.9-0.7,1.6-1.7,2.3-2.7
	c1.5-2.2,3-4.4,6.4-4.5c0.1,0.1,0.2,0.3,0.3,0.4l1.6,1.6c0.1,0.1,0.3,0.2,0.4,0.3C16.9,29.7,15.4,31.6,13,32.6z M18,26
	C18,26,18,26,18,26l0-0.4L16.4,24l3.1-3.1l1.8,1.8L18,26z M35,8c0,0.3-0.2,1-0.4,1.2L22.7,21.3l-1.8-1.8L33,7.4
	C33.2,7.2,33.7,7,34,7h1V8z"/>
</svg>
