<svg xmlns="http://www.w3.org/2000/svg" width="40" height="40" fill="#07c1a3"><path d="M35 5h-1c-.8 0-1.8.4-2.4 1L15 22.6c-.1.1-.2.3-.3.4-4.5.1-6.6 3.2-8.1 5.5C5.6 30 4.9 31 4 31c-.4 0-.8.2-.9.6-.2.4-.1.8.2 1.1 1.6 1.6 4 2.5 6.5 2.5 1.3 0 2.7-.3 4-.8 3.2-1.3 5.1-4 5.2-7.1.2-.1.3-.2.4-.3L36 10.4c.6-.6 1-1.6 1-2.4V7c0-1.1-.9-2-2-2zM13 32.6c-2.3 1-5 .8-7-.3.9-.7 1.6-1.7 2.3-2.7 1.5-2.2 3-4.4 6.4-4.5.1.1.2.3.3.4l1.6 1.6c.1.1.3.2.4.3-.1 2.3-1.6 4.2-4 5.2zm5-6.6v-.4L16.4 24l3.1-3.1 1.8 1.8L18 26zM35 8c0 .3-.2 1-.4 1.2L22.7 21.3l-1.8-1.8L33 7.4c.2-.2.7-.4 1-.4h1v1z"/></svg>