<?xml version="1.0" encoding="utf-8"?>
<!-- Generator: Adobe Illustrator 21.1.0, SVG Export Plug-In . SVG Version: 6.00 Build 0)  -->
<svg version="1.1" id="Layer_1" xmlns="http://www.w3.org/2000/svg" xmlns:xlink="http://www.w3.org/1999/xlink" x="0px" y="0px"
	 viewBox="0 0 1200 360" style="enable-background:new 0 0 1200 360;" xml:space="preserve">
<style type="text/css">
	.st0{fill:#1ED760;}
</style>
<path class="st0" d="M197.5,7.5C102.2,7.5,25,84.8,25,180c0,95.2,77.2,172.5,172.5,172.5c95.3,0,172.5-77.2,172.5-172.5
	C369.9,84.8,292.7,7.6,197.5,7.5L197.5,7.5z M276.5,256.3c-3.1,5.1-9.7,6.7-14.8,3.6c-40.5-24.7-91.5-30.3-151.5-16.6
	c-5.8,1.3-11.6-2.3-12.9-8.1c-1.3-5.8,2.3-11.6,8.1-12.9c65.7-15,122-8.5,167.5,19.2C278,244.6,279.7,251.2,276.5,256.3z
	 M297.7,209.3c-3.9,6.3-12.2,8.3-18.5,4.4c-46.4-28.5-117-36.7-171.8-20.1c-7.1,2.1-14.6-1.9-16.8-9c-2.1-7.1,1.9-14.6,9-16.8
	c62.6-19,140.5-9.8,193.7,22.9C299.5,194.7,301.5,203,297.7,209.3L297.7,209.3z M299.5,160.4c-55.6-33-147.3-36-200.4-19.9
	c-8.5,2.6-17.5-2.2-20.1-10.7c-2.6-8.5,2.2-17.5,10.8-20.1c60.9-18.5,162.2-14.9,226.2,23.1c7.7,4.5,10.2,14.4,5.6,22.1
	C317,162.4,307.1,165,299.5,160.4L299.5,160.4z M494.2,166.7c-29.8-7.1-35.1-12.1-35.1-22.6c0-9.9,9.3-16.6,23.2-16.6
	c13.4,0,26.7,5.1,40.7,15.5c0.4,0.3,0.9,0.4,1.5,0.4c0.5-0.1,1-0.4,1.3-0.8l14.5-20.5c0.6-0.8,0.4-2-0.4-2.7
	c-16.6-13.3-35.3-19.8-57.2-19.8c-32.1,0-54.6,19.3-54.6,46.9c0,29.6,19.4,40.1,52.9,48.2c28.5,6.6,33.3,12.1,33.3,21.9
	c0,10.9-9.7,17.7-25.4,17.7c-17.4,0-31.6-5.9-47.4-19.6c-0.4-0.4-0.9-0.5-1.4-0.5c-0.5,0-1,0.3-1.3,0.7l-16.3,19.4
	c-0.7,0.8-0.6,2,0.2,2.7c18.5,16.5,41.1,25.2,65.7,25.2c34.6,0,57-18.9,57-48.2C545.3,189.3,530.5,175.6,494.2,166.7L494.2,166.7z
	 M623.6,137.4c-15,0-27.3,5.9-37.5,18v-13.6c0-1.1-0.9-2-1.9-2h-26.7c-1.1,0-1.9,0.9-1.9,2v151.6c0,1.1,0.9,2,1.9,2h26.7
	c1.1,0,1.9-0.9,1.9-2v-47.8c10.2,11.4,22.5,17,37.5,17c27.9,0,56.2-21.5,56.2-62.5C679.8,158.9,651.6,137.4,623.6,137.4L623.6,137.4
	L623.6,137.4z M648.8,199.9c0,20.9-12.9,35.5-31.3,35.5c-18.2,0-32-15.3-32-35.5c0-20.2,13.8-35.5,32-35.5
	C635.6,164.4,648.8,179.4,648.8,199.9L648.8,199.9z M752.2,137.4c-35.9,0-64.1,27.7-64.1,63c0,35,28,62.3,63.7,62.3
	c36.1,0,64.3-27.6,64.3-62.8C816.1,164.9,788,137.4,752.2,137.4L752.2,137.4z M752.2,235.6c-19.1,0-33.5-15.4-33.5-35.7
	c0-20.4,13.9-35.3,33.1-35.3c19.2,0,33.7,15.4,33.7,35.7C785.5,220.8,771.5,235.6,752.2,235.6z M892.8,139.8h-29.3v-30
	c0-1.1-0.9-2-1.9-2h-26.7c-1.1,0-2,0.9-2,2v30h-12.8c-1.1,0-1.9,0.9-1.9,2v22.9c0,1.1,0.9,2,1.9,2h12.8v59.3
	c0,24,11.9,36.1,35.5,36.1c9.6,0,17.5-2,25-6.2c0.6-0.3,1-1,1-1.7v-21.8c0-0.7-0.4-1.3-0.9-1.6c-0.6-0.4-1.3-0.4-1.9-0.1
	c-5.1,2.6-10.1,3.8-15.7,3.8c-8.5,0-12.4-3.9-12.4-12.6v-55.1h29.3c1.1,0,1.9-0.9,1.9-2v-22.9C894.8,140.7,893.9,139.8,892.8,139.8
	L892.8,139.8L892.8,139.8z M995,139.9v-3.7c0-10.8,4.2-15.7,13.5-15.7c5.6,0,10,1.1,15,2.8c0.6,0.2,1.3,0.1,1.8-0.3
	c0.5-0.4,0.8-1,0.8-1.6V99c0-0.9-0.5-1.6-1.4-1.9c-5.3-1.6-12-3.2-22.2-3.2c-24.6,0-37.6,13.9-37.6,40.1v5.6h-12.8c-1.1,0-2,0.9-2,2
	v23c0,1.1,0.9,2,2,2h12.8v91.4c0,1.1,0.9,2,2,2h26.6c1.1,0,2-0.9,2-2v-91.4h24.9l38.1,91.4c-4.3,9.6-8.6,11.5-14.4,11.5
	c-4.7,0-9.7-1.4-14.7-4.2c-0.5-0.2-1-0.3-1.5-0.1c-0.5,0.2-0.9,0.6-1.2,1l-9,19.8c-0.4,0.9-0.1,2,0.8,2.5c9.4,5.1,17.9,7.3,28.5,7.3
	c19.7,0,30.6-9.2,40.2-33.9l46.3-119.5c0.2-0.6,0.2-1.3-0.2-1.8c-0.4-0.5-0.9-0.8-1.6-0.8h-27.8c-0.8,0-1.6,0.5-1.9,1.3l-28.4,81.2
	l-31.1-81.3c-0.3-0.8-1-1.3-1.8-1.3L995,139.9L995,139.9L995,139.9z M935.7,139.8h-26.7c-1.1,0-2,0.9-2,2v116.3c0,1.1,0.9,2,2,2
	h26.7c1.1,0,2-0.9,2-2V141.8C937.7,140.7,936.8,139.8,935.7,139.8L935.7,139.8z M922.6,86.9c-10.6,0-19.1,8.6-19.1,19.1
	c0,10.6,8.6,19.1,19.1,19.1c10.6,0,19.1-8.6,19.1-19.1C941.7,95.4,933.1,86.9,922.6,86.9z M1156.1,177.2c-10.5,0-18.8-8.5-18.8-18.8
	c0-10.3,8.3-18.9,18.9-18.9c10.5,0,18.8,8.5,18.8,18.8C1175,168.6,1166.7,177.2,1156.1,177.2z M1156.2,141.5
	c-9.6,0-16.9,7.6-16.9,17c0,9.4,7.2,16.9,16.8,16.9c9.6,0,16.9-7.6,16.9-17C1173,149,1165.8,141.5,1156.2,141.5z M1160.4,160.3
	l5.3,7.4h-4.5l-4.8-6.8h-4.1v6.8h-3.8V148h8.8c4.6,0,7.6,2.3,7.6,6.3C1165,157.5,1163.1,159.5,1160.4,160.3L1160.4,160.3z
	 M1157.2,151.4h-4.9v6.2h4.9c2.4,0,3.9-1.2,3.9-3.1C1161.1,152.5,1159.7,151.4,1157.2,151.4z"/>
</svg>
