<?xml version="1.0" encoding="utf-8"?>
<!-- Generator: Adobe Illustrator 18.0.0, SVG Export Plug-In . SVG Version: 6.00 Build 0)  -->
<!DOCTYPE svg PUBLIC "-//W3C//DTD SVG 1.1//EN" "http://www.w3.org/Graphics/SVG/1.1/DTD/svg11.dtd">
<svg version="1.1" id="Layer_1" xmlns="http://www.w3.org/2000/svg" xmlns:xlink="http://www.w3.org/1999/xlink" x="0px" y="0px"
	 viewBox="0 0 40 40" enable-background="new 0 0 40 40" xml:space="preserve">
<g>
	<path d="M38.9,32.6L35,23.8V7.5c0-0.2-0.1-0.4-0.2-0.6l-2-2.5C32.6,4.1,32.3,4,32,4H8C7.7,4,7.5,4.1,7.3,4.3l-2,2
		C5.1,6.5,5,6.7,5,7v16.8l-3.9,8.8C0.9,33,1,33.4,1.3,33.7l1,1C2.5,34.9,2.7,35,3,35h34c0.3,0,0.5-0.1,0.7-0.3l1-1
		C39,33.4,39.1,33,38.9,32.6z M7,7.4L8.4,6h23.1L33,7.9V23H7V7.4z M36.6,33H3.4l-0.2-0.2L6.7,25h26.7l3.5,7.8L36.6,33z"/>
	<path d="M16,13h1c0.6,0,1-0.4,1-1v-1c0-0.6-0.4-1-1-1h-1c-0.6,0-1,0.4-1,1v1C15,12.6,15.4,13,16,13z"/>
	<path d="M24,10h-1c-0.6,0-1,0.4-1,1v1c0,0.6,0.4,1,1,1h1c0.6,0,1-0.4,1-1v-1C25,10.4,24.6,10,24,10z"/>
	<path d="M24,15c-0.6,0-1,0.4-1,1v0.6L22.6,17h-5.2L17,16.6V16c0-0.6-0.4-1-1-1s-1,0.4-1,1v1c0,0.3,0.1,0.5,0.3,0.7l1,1
		c0.2,0.2,0.4,0.3,0.7,0.3h6c0.3,0,0.5-0.1,0.7-0.3l1-1c0.2-0.2,0.3-0.4,0.3-0.7v-1C25,15.4,24.6,15,24,15z"/>
	<polygon points="17,28 16,31 24,31 23,28 	"/>
</g>
</svg>
