<?xml version="1.0" encoding="utf-8"?>
<!-- Generator: Adobe Illustrator 18.0.0, SVG Export Plug-In . SVG Version: 6.00 Build 0)  -->
<!DOCTYPE svg PUBLIC "-//W3C//DTD SVG 1.1//EN" "http://www.w3.org/Graphics/SVG/1.1/DTD/svg11.dtd">
<svg version="1.1" id="Layer_1" xmlns="http://www.w3.org/2000/svg" xmlns:xlink="http://www.w3.org/1999/xlink" x="0px" y="0px"
	 viewBox="0 0 40 40" enable-background="new 0 0 40 40" xml:space="preserve">
<g>
	<path d="M21,31h-2c-2.2,0-4-1.3-4-3c0-0.7-0.8-2.3-1.9-3.2C13,24.7,10,21.9,10,18c0-5.5,4.5-10,10-10s10,4.5,10,10
		c0,3.9-3,6.7-3.1,6.8c-1.1,1-1.9,2.5-1.9,3.2C25,29.7,23.2,31,21,31z M20,10c-4.4,0-8,3.6-8,8c0,3.1,2.4,5.3,2.4,5.3
		c1.2,1.1,2.6,3.2,2.6,4.7c0,0.4,0.8,1,2,1h2c1.2,0,2-0.6,2-1c0-1.6,1.3-3.6,2.6-4.7c0,0,2.4-2.3,2.4-5.3C28,13.6,24.4,10,20,10z"/>
	<path d="M22,38h-4c-1.7,0-3-1.3-3-3s1.3-3,3-3h4c1.7,0,3,1.3,3,3S23.7,38,22,38z M18,34c-0.6,0-1,0.4-1,1s0.4,1,1,1h4
		c0.6,0,1-0.4,1-1s-0.4-1-1-1H18z"/>
	<path d="M8,19H4c-0.6,0-1-0.4-1-1s0.4-1,1-1h4c0.6,0,1,0.4,1,1S8.6,19,8,19z"/>
	<path d="M36,19h-4c-0.6,0-1-0.4-1-1s0.4-1,1-1h4c0.6,0,1,0.4,1,1S36.6,19,36,19z"/>
	<path d="M20,7c-0.6,0-1-0.4-1-1V3c0-0.6,0.4-1,1-1s1,0.4,1,1v3C21,6.6,20.6,7,20,7z"/>
	<path d="M29,10c-0.3,0-0.5-0.1-0.7-0.3c-0.4-0.4-0.4-1,0-1.4l2-2c0.4-0.4,1-0.4,1.4,0s0.4,1,0,1.4l-2,2C29.5,9.9,29.3,10,29,10z"/>
	<path d="M10,10c-0.3,0-0.5-0.1-0.7-0.3l-2-2c-0.4-0.4-0.4-1,0-1.4s1-0.4,1.4,0l2,2c0.4,0.4,0.4,1,0,1.4C10.5,9.9,10.3,10,10,10z"/>
</g>
</svg>
