<?xml version="1.0" encoding="utf-8"?>
<!-- Generator: Adobe Illustrator 18.0.0, SVG Export Plug-In . SVG Version: 6.00 Build 0)  -->
<!DOCTYPE svg PUBLIC "-//W3C//DTD SVG 1.1//EN" "http://www.w3.org/Graphics/SVG/1.1/DTD/svg11.dtd">
<svg version="1.1" id="Layer_1" xmlns="http://www.w3.org/2000/svg" xmlns:xlink="http://www.w3.org/1999/xlink" x="0px" y="0px"
	 viewBox="0 0 40 40" enable-background="new 0 0 40 40" xml:space="preserve">
<g>
	<path d="M36,13c-0.6,0-1-0.4-1-1V7c0-1.1-0.9-2-2-2h-5c-0.6,0-1-0.4-1-1s0.4-1,1-1h5c2.2,0,4,1.8,4,4v5C37,12.6,36.6,13,36,13z"/>
	<path d="M4,13c-0.6,0-1-0.4-1-1V7c0-2.2,1.8-4,4-4h5c0.6,0,1,0.4,1,1s-0.4,1-1,1H7C5.9,5,5,5.9,5,7v5C5,12.6,4.6,13,4,13z"/>
	<path d="M12,37H7c-2.2,0-4-1.8-4-4v-5c0-0.6,0.4-1,1-1s1,0.4,1,1v5c0,1.1,0.9,2,2,2h5c0.6,0,1,0.4,1,1S12.6,37,12,37z"/>
	<path d="M33,37h-5c-0.6,0-1-0.4-1-1s0.4-1,1-1h5c1.1,0,2-0.9,2-2v-5c0-0.6,0.4-1,1-1s1,0.4,1,1v5C37,35.2,35.2,37,33,37z"/>
	<path d="M25.3,20.5c1-1.2,1.7-2.8,1.7-4.5c0-3.9-3.1-7-7-7s-7,3.1-7,7c0,1.7,0.6,3.3,1.7,4.5c-2.9,1.8-4.7,5-4.7,8.5v1
		c0,0.6,0.4,1,1,1h18c0.6,0,1-0.4,1-1v-1C30,25.5,28.2,22.4,25.3,20.5z M20,11c2.8,0,5,2.2,5,5c0,1.7-0.8,3.1-2.1,4
		c-0.1,0.1-0.3,0.2-0.4,0.3c-0.1,0.1-0.2,0.1-0.3,0.2c-0.2,0.1-0.3,0.2-0.5,0.2c-0.1,0-0.2,0.1-0.3,0.1c-0.9,0.3-1.9,0.3-2.9,0
		c-0.1,0-0.2,0-0.3-0.1c-0.2-0.1-0.3-0.1-0.5-0.2c-0.1-0.1-0.2-0.1-0.3-0.2c-0.1-0.1-0.3-0.2-0.4-0.3c-1.3-0.9-2.1-2.4-2.1-4
		C15,13.2,17.2,11,20,11z M12,29c0-3,1.7-5.7,4.3-7.1c0,0,0,0,0.1,0c0.3,0.2,0.5,0.3,0.8,0.4c0,0,0,0,0,0C18,22.8,19,23,20,23
		s2-0.2,2.9-0.6c0,0,0,0,0,0c0.3-0.1,0.5-0.3,0.8-0.4c0,0,0,0,0.1,0C26.3,23.3,28,26,28,29H12z"/>
</g>
</svg>
