<?xml version="1.0" encoding="UTF-8"?>
<svg width="74px" height="58px" viewBox="0 0 74 58" version="1.1" xmlns="http://www.w3.org/2000/svg" xmlns:xlink="http://www.w3.org/1999/xlink">
    <!-- Generator: Sketch 50.2 (55047) - http://www.bohemiancoding.com/sketch -->
    <title>grow@1x</title>
    <desc>Created with Sketch.</desc>
    <defs>
        <rect id="path-1" x="0" y="0" width="176" height="80"></rect>
    </defs>
    <g id="Page-1" stroke="none" stroke-width="1" fill="none" fill-rule="evenodd">
        <g id="About-Facelift" transform="translate(-951.000000, -1775.000000)">
            <g id="grow" transform="translate(900.000000, 1765.000000)">
                <mask id="mask-2" fill="white">
                    <use xlink:href="#path-1"></use>
                </mask>
                <g id="Mask"></g>
                <g id="Group" mask="url(#mask-2)" fill="#2DC08D" fill-rule="nonzero">
                    <g transform="translate(51.000000, 10.000000)" id="Shape">
                        <path d="M33.5097163,28.4153848 C33.586574,28.6826866 33.6462945,28.903929 33.7234637,29.1349507 C33.7430935,29.2535905 33.7919085,29.3458704 33.8368807,29.4520244 C34.52673,31.2565531 35.8362183,32.8392457 37.550871,34.0131381 C38.1287839,34.3158042 38.2973786,34.5709056 39.0994489,34.9034097 C40.8138938,35.4528332 46.0618175,36.817654 50.606286,35.0131153 C56.7878224,32.5591966 61.6661024,24.2394683 54.6851424,0 C54.214649,14.9482959 28.5011938,11.0631133 33.5097163,28.4153848 Z M16.4507446,29.4520244 C12.0353762,29.6331031 5.18548977,32.8722158 1.59509486,34.7204697 C0.228586542,35.4260306 -0.357297276,37.0232614 0.222770287,38.4157099 L5.53560754,51.1233108 C6.21237034,52.7467808 8.19270127,53.4353587 9.7782539,52.611158 L12.1452619,51.3916287 C13.9757204,50.4425303 16.1613859,50.395515 18.0371281,51.2696688 L28.9522652,56.391746 C34.1218771,58.8144452 40.2193895,58.479342 45.0668225,55.5258724 L72.109188,39.0620313 C74.107487,37.8631674 74.6099699,35.2149901 73.1919462,33.3667462 C72.3796439,32.3364753 71.1691358,31.7813773 69.918641,31.7813773 C69.1386397,31.7813773 68.3610272,31.984379 67.6777211,32.4276988 L51.4245084,41.1596482 C51.5213075,41.5467971 51.5503888,41.9486553 51.5503888,42.3670036 C51.5503888,43.8905574 50.9088351,45.3844614 49.8130942,46.4646855 C48.7171456,47.5511473 47.2197716,48.1776787 45.6080458,48.1964124 L44.2737346,48.1964124 C37.7245277,48.1964124 29.6052436,47.8644784 25.3768263,46.4158491 L23.57628,45.5865777 C23.2154645,45.5116431 22.9721165,45.1867015 22.9721165,44.8183064 C22.9721165,44.3562529 23.34498,43.9768007 23.8155773,43.9768007 C23.8929543,43.9768007 24.1361984,44.0499747 24.1555167,44.0499747 C24.8324872,44.2685206 25.4467253,44.4783739 25.9559591,44.6719383 C30.3842064,46.207988 39.8129787,46.3983127 45.3563889,46.3670732 C47.4899158,46.354507 49.4048139,44.8725052 49.6368409,42.8182011 C49.9010651,40.4517028 48.0493149,38.448046 45.683761,38.3668635 C40.8494145,38.2045185 33.0979047,37.5443329 30.7903056,34.9155835 C27.3416819,31.0505029 22.6451599,29.1772775 16.4507446,29.4520244 Z"></path>
                    </g>
                </g>
            </g>
        </g>
    </g>
</svg>