<?xml version="1.0" encoding="UTF-8"?>
<svg width="103px" height="58px" viewBox="0 0 103 58" version="1.1" xmlns="http://www.w3.org/2000/svg" xmlns:xlink="http://www.w3.org/1999/xlink">
    <!-- Generator: Sketch 50.2 (55047) - http://www.bohemiancoding.com/sketch -->
    <title>iterate@1x</title>
    <desc>Created with Sketch.</desc>
    <defs>
        <rect id="path-1" x="0" y="0" width="176" height="80"></rect>
        <path d="M49.1755508,25.6147832 L45.188344,25.6147832 L45.188344,15.3688699 C45.188344,12.5512438 42.7960199,10.2459133 39.8720682,10.2459133 L29.2395167,10.2459133 L29.2395167,6.40369581 C29.2395167,2.86885572 26.2624023,0 22.594172,0 C18.9259417,0 15.9488273,2.86885572 15.9488273,6.40369581 L15.9488273,10.2459133 L5.31627576,10.2459133 C2.39232409,10.2459133 0.0265813788,12.5512438 0.0265813788,15.3688699 L0.0265813788,25.1024876 L3.98720682,25.1024876 C7.94783227,25.1024876 11.1641791,28.2018763 11.1641791,32.018479 C11.1641791,35.8350817 7.94783227,38.9344705 3.98720682,38.9344705 L-1.13686838e-13,38.9344705 L-1.13686838e-13,48.6680881 C-1.13686838e-13,51.4857143 2.39232409,53.7910448 5.31627576,53.7910448 L15.4171997,53.7910448 L15.4171997,49.9488273 C15.4171997,46.1322246 18.6335466,43.0328358 22.594172,43.0328358 C26.5547974,43.0328358 29.7711443,46.1322246 29.7711443,49.9488273 L29.7711443,53.7910448 L39.8720682,53.7910448 C42.7960199,53.7910448 45.188344,51.4857143 45.188344,48.6680881 L45.188344,38.4221748 L49.1755508,38.4221748 C52.8437811,38.4221748 55.8208955,35.5533191 55.8208955,32.018479 C55.8208955,28.4836389 52.8437811,25.6147832 49.1755508,25.6147832 L49.1755508,25.6147832 Z" id="path-3"></path>
        <path d="M37.7002488,19.9179104 L34.7189055,19.9179104 L34.7189055,12.3059701 C34.7189055,10.2126866 32.9300995,8.5 30.7437811,8.5 L22.7935323,8.5 L22.7935323,5.64552239 C22.7935323,3.01940299 20.5674627,0.888059701 17.8246269,0.888059701 C15.081791,0.888059701 12.8557214,3.01940299 12.8557214,5.64552239 L12.8557214,8.5 L4.90547264,8.5 C2.71915423,8.5 0.950223881,10.2126866 0.950223881,12.3059701 L0.950223881,19.5373134 L3.91169154,19.5373134 C6.8731592,19.5373134 9.27810945,21.8399254 9.27810945,24.6753731 C9.27810945,27.5108209 6.8731592,29.8134328 3.91169154,29.8134328 L0.930348259,29.8134328 L0.930348259,37.0447761 C0.930348259,39.1380597 2.71915423,40.8507463 4.90547264,40.8507463 L12.458209,40.8507463 L12.458209,37.9962687 C12.458209,35.1608209 14.8631592,32.858209 17.8246269,32.858209 C20.7860945,32.858209 23.1910448,35.1608209 23.1910448,37.9962687 L23.1910448,40.8507463 L30.7437811,40.8507463 C32.9300995,40.8507463 34.7189055,39.1380597 34.7189055,37.0447761 L34.7189055,29.4328358 L37.7002488,29.4328358 C40.4430846,29.4328358 42.6691542,27.3014925 42.6691542,24.6753731 C42.6691542,22.0492537 40.4430846,19.9179104 37.7002488,19.9179104 L37.7002488,19.9179104 Z" id="path-5"></path>
    </defs>
    <g id="Page-1" stroke="none" stroke-width="1" fill="none" fill-rule="evenodd">
        <g id="About-Facelift" transform="translate(-934.000000, -2063.000000)">
            <g id="iterate" transform="translate(900.000000, 2051.000000)">
                <mask id="mask-2" fill="white">
                    <use xlink:href="#path-1"></use>
                </mask>
                <g id="Mask"></g>
                <g id="Group" mask="url(#mask-2)">
                    <g transform="translate(31.000000, 6.000000)">
                        <g id="ic_extension" transform="translate(79.688933, 33.868659) rotate(-345.000000) translate(-79.688933, -33.868659) translate(51.778485, 6.973137)">
                            <mask id="mask-4" fill="white">
                                <use xlink:href="#path-3"></use>
                            </mask>
                            <g id="Mask"></g>
                            <g id="Colors/Green" mask="url(#mask-4)" fill="#2DC08D">
                                <g transform="translate(-39.582090, -35.522388)" id="Rectangle-6-Copy-2">
                                    <rect x="0" y="0" width="134" height="128"></rect>
                                </g>
                            </g>
                        </g>
                        <g id="ic_extension-copy" transform="translate(25.744687, 32.551900) rotate(-255.000000) translate(-25.744687, -32.551900) translate(3.923792, 11.745930)">
                            <mask id="mask-6" fill="white">
                                <use xlink:href="#path-5"></use>
                            </mask>
                            <g id="Mask"></g>
                            <g id="Colors/Green" mask="url(#mask-6)" fill="#2DC08D">
                                <g transform="translate(-28.883085, -25.753731)" id="Rectangle-6-Copy-2">
                                    <rect x="0" y="0" width="99" height="95"></rect>
                                </g>
                            </g>
                        </g>
                    </g>
                </g>
            </g>
        </g>
    </g>
</svg>