<?xml version="1.0" encoding="UTF-8"?>
<svg width="52px" height="55px" viewBox="0 0 52 55" version="1.1" xmlns="http://www.w3.org/2000/svg" xmlns:xlink="http://www.w3.org/1999/xlink">
    <!-- Generator: Sketch 50.2 (55047) - http://www.bohemiancoding.com/sketch -->
    <title>key@1x</title>
    <desc>Created with Sketch.</desc>
    <defs>
        <rect id="path-1" x="0" y="0" width="176" height="80"></rect>
    </defs>
    <g id="Page-1" stroke="none" stroke-width="1" fill="none" fill-rule="evenodd">
        <g id="About-Facelift" transform="translate(-674.000000, -2380.000000)">
            <g id="key" transform="translate(612.000000, 2363.000000)">
                <mask id="mask-2" fill="white">
                    <use xlink:href="#path-1"></use>
                </mask>
                <g id="Mask"></g>
                <g id="Group" mask="url(#mask-2)" fill="#2DC08D" fill-rule="nonzero">
                    <g transform="translate(62.000000, 17.000000)" id="Shape">
                        <path d="M1.01175662,47.2051784 L7.93085344,54.0777375 C9.29396051,55.3393508 11.4181231,55.3021245 12.7355748,53.993534 C14.0530266,52.6849434 14.0905049,50.5750679 12.8203485,49.2211291 L8.34599925,44.7768742 L12.1053752,41.0427838 L16.5797245,45.4870387 C17.9428315,46.748652 20.0669941,46.7114257 21.3844459,45.4028352 C22.7018976,44.0942446 22.739376,41.9843691 21.4692196,40.6304303 L16.9948703,36.1861754 L23.118271,30.1096878 C29.7690195,35.9865118 39.818445,35.9103697 46.3781602,29.9334533 C52.9378753,23.9565369 53.8793042,14.0183084 48.5571436,6.93093509 C43.234983,-0.156438207 33.3762321,-2.09315949 25.7385801,2.4482985 C18.1009282,6.98975649 15.1627331,16.5357264 18.9379833,24.542915 L1.01175662,42.34857 C-0.337252206,43.690174 -0.337252206,45.8635745 1.01175662,47.2051784 Z M38.9168754,8.69593921 C41.3051952,8.69593921 43.2413109,10.6190326 43.2413109,12.9912886 C43.2413109,15.3635446 41.3051952,17.286638 38.9168754,17.286638 C36.5285556,17.286638 34.5924399,15.3635446 34.5924399,12.9912886 C34.5956162,10.6203407 36.5298725,8.69909417 38.9168754,8.69593921 Z"></path>
                    </g>
                </g>
            </g>
        </g>
    </g>
</svg>