<svg id="Layer_1" xmlns="http://www.w3.org/2000/svg" viewBox="0 0 870 298.3"><style>.st0{opacity:0.65;} .st1{fill:#2CB88F;} .st2{fill:#FFFFFF;} .st3{opacity:0.8;} .st4{opacity:0.75;} .st5{opacity:0.35;} .st6{opacity:0.45;} .st7{fill:#454545;} .st8{fill:#333333;}</style><g id="XMLID_13_"><g id="pie-chart_3_"><g id="XMLID_333_" class="st0"><g id="XMLID_49_"><path id="XMLID_838_" class="st1" d="M433 10.3v125L514.1 40c-21.8-18.5-50.1-29.7-80.9-29.7h-.2z"/></g><g id="XMLID_48_"><path id="XMLID_843_" class="st2" d="M433 136.7V9.8h.6c29.7 0 58.5 10.6 81.1 29.8l.4.3-.3.4-81.8 96.4zm1-125.9V134l79.7-93.9c-22.3-18.8-50.6-29.2-79.7-29.3z"/></g></g><g id="XMLID_329_" class="st3"><g id="XMLID_47_"><path id="XMLID_834_" class="st1" d="M514.2 40h-.1l-80.8 95.4 124.5 12.2.1-.1c.4-4 .6-8.1.6-12.2 0-38.2-17.2-72.4-44.3-95.3z"/></g><g id="XMLID_46_"><path id="XMLID_839_" class="st2" d="M557.7 148.1l-125.4-12.3 81.6-96.3h.5l.2.1c28.2 23.9 44.4 58.8 44.4 95.8 0 4-.2 8.2-.6 12.2v.2l-.4.2-.3.1zm-123.4-13.2L557.4 147c.4-3.9.5-7.8.5-11.7 0-36.5-15.9-71-43.7-94.7l-79.9 94.3z"/></g></g><g id="XMLID_323_" class="st0"><g id="XMLID_41_"><path id="XMLID_830_" class="st1" d="M557.7 148l-124.4-12.7 86.7 90.1c20.8-20 34.7-47 37.8-77.3l-.1-.1z"/></g><g id="XMLID_40_"><path id="XMLID_835_" class="st2" d="M520.2 226.4h-.4l-.2-.2-87.6-91.3 126 12.6.3.8v.1c-3 29.6-16.5 57.3-38 77.9l-.1.1zm-85.6-90.2l85.4 89c21.1-20.4 34.3-47.6 37.3-76.8l-122.7-12.2z"/></g></g><g id="XMLID_319_" class="st4"><g id="XMLID_36_"><path id="XMLID_826_" class="st1" d="M440.6 260.1c30.6-1.7 58.2-14.4 79-34.3v-.1l-86.3-90.4 7.3 124.8z"/></g><g id="XMLID_35_"><path id="XMLID_831_" class="st2" d="M440.1 260.7v-.5L432.7 134l.9 1 86.5 90.5v.6l-.1.1c-21.5 20.5-49.7 32.7-79.4 34.4l-.5.1zm-6.2-124l7.2 122.9c29.1-1.8 56.7-13.8 77.9-33.8l-85.1-89.1z"/></g></g><g id="XMLID_314_" class="st5"><g id="XMLID_34_"><path id="XMLID_822_" class="st1" d="M396.4 254.7c11.7 3.6 24.2 5.6 37.1 5.6 2.3 0 4.5-.1 6.8-.2l-6.9-124.8-37 119.4z"/></g><g id="XMLID_33_"><path id="XMLID_827_" class="st2" d="M433.5 260.8c-12.7 0-25.2-1.9-37.2-5.6l-.5-.1.1-.5 37.8-122.1 7.1 127.8-.3.3h-.2c-2.3.2-4.6.2-6.8.2zm-36.5-6.4c11.8 3.6 24 5.4 36.5 5.4 2 0 4.1-.1 6.2-.2L433 138.2l-36 116.2z"/></g></g><g id="XMLID_310_" class="st6"><g id="XMLID_32_"><path id="XMLID_818_" class="st1" d="M396.4 254.7l36.9-119.4-95.1 81c15.2 17.9 35.3 31.4 58.2 38.4z"/></g><g id="XMLID_31_"><path id="XMLID_823_" class="st2" d="M396.7 255.4l-.5-.1c-22.7-7-42.8-20.4-58.3-38.6l-.3-.4 96.7-82.5-37.6 121.6zm-57.7-39c15.2 17.7 34.9 30.7 57.1 37.7l36.3-117.3-93.4 79.6z"/></g></g><g id="XMLID_304_" class="st0"><g id="XMLID_20_"><path id="XMLID_814_" class="st1" d="M308.5 135.3c0 4 .2 7.9.6 11.8l124.3-11.8-102.5-71.4c-14.1 20.2-22.4 44.9-22.4 71.4z"/></g><g id="XMLID_19_"><path id="XMLID_819_" class="st2" d="M308.6 147.7v-.5c-.4-4-.6-8-.6-11.9 0-25.8 7.8-50.6 22.5-71.8l.3-.4 103.9 72.5-126.1 12.1zM331 64.6c-14.4 20.9-22.1 45.3-22.1 70.8 0 3.7.2 7.5.5 11.3L431.9 135 331 64.6z"/></g></g><g id="XMLID_291_" class="st4"><g id="XMLID_45_"><path id="XMLID_813_" class="st1" d="M338.3 216.4l95.1-81L309 147.2c2.5 26.2 13.1 50.1 29.3 69.2z"/></g><g id="XMLID_44_"><path id="XMLID_815_" class="st2" d="M338.2 217.1l-.3-.4c-16.8-19.7-27-43.7-29.4-69.5v-.5h.5l125.9-12-96.7 82.4zm-28.6-69.5c2.5 25.2 12.4 48.7 28.8 68l93.5-79.7-122.3 11.7z"/></g></g><g id="XMLID_290_"><path id="XMLID_11_" class="st1" d="M433.4 10.3c-42.5 0-80.1 21.3-102.6 53.7l102.5 71.3.1-125z"/><path id="XMLID_43_" class="st2" d="M433.9 136.3L330.1 64.2l.3-.6c23.5-33.7 62-54.1 103-54.1h.6v.9l-.1 125.9zM331.5 63.9l101.3 70.5.1-123.5c-40.4.1-78.2 19.9-101.4 53z"/></g><circle class="st2" cx="433.5" cy="135.3" r="72.9" id="XMLID_289_"/></g><g id="XMLID_285_"><path id="XMLID_42_" class="st7" d="M621.9 13.2V1.8h3.7c1.2 0 2.1.3 2.8.8.7.5 1 1.3 1 2.3 0 .5-.2.9-.5 1.3s-.7.7-1.2.9c.7.1 1.3.4 1.8 1 .4.5.7 1.2.7 1.9 0 1-.3 1.8-1 2.4-.7.5-1.6.8-2.8.8h-4.5zm1.5-6.6h2.5c.6 0 1-.2 1.4-.5.4-.3.5-.8.5-1.3 0-.6-.2-1.1-.6-1.4-.4-.3-.9-.5-1.7-.5h-2.2v3.7zm0 1.3V12h3c.7 0 1.2-.2 1.6-.5.4-.3.6-.8.6-1.5 0-.6-.2-1.1-.6-1.5-.4-.4-.9-.6-1.6-.6h-3z"/><path id="XMLID_760_" class="st7" d="M635.8 6.1L635 6c-.4 0-.7.1-1 .3-.3.2-.5.5-.6.8v6h-1.5V4.7h1.4l.1 1.2c.2-.4.5-.8.9-1 .4-.2.8-.4 1.2-.4h.3c.1 0 .2 0 .3.1l-.3 1.5z"/><path id="XMLID_762_" class="st7" d="M642.6 13.2c-.1-.3-.1-.5-.1-.7 0-.2 0-.4-.1-.6-.3.4-.7.7-1.1 1s-1 .4-1.5.4c-.9 0-1.6-.2-2-.7-.5-.5-.7-1.1-.7-1.9 0-.8.3-1.4 1-1.9s1.5-.7 2.7-.7h1.7v-.7c0-.5-.2-.9-.5-1.2-.3-.3-.7-.4-1.3-.4-.5 0-.9.1-1.2.4-.3.3-.5.5-.5.9h-1.5c0-.6.3-1.2.9-1.7.6-.5 1.4-.8 2.4-.8s1.7.2 2.3.7c.6.5.9 1.2.9 2.1v5s.1.6.2.8h-1.6zm-2.5-1.1c.6 0 1.1-.1 1.5-.4.4-.3.7-.6.9-1V9.3h-1.7c-.6 0-1.1.2-1.5.5-.4.3-.6.7-.6 1.1 0 .4.1.7.4.9s.5.3 1 .3z"/><path id="XMLID_765_" class="st7" d="M647.9 2.6h-1.5V1h1.5v1.6zm0 10.6h-1.5V4.7h1.5v8.5z"/><path id="XMLID_768_" class="st7" d="M651.6 4.7l.1 1.3c.3-.4.6-.8 1.1-1 .4-.2.9-.4 1.4-.4.9 0 1.6.3 2.1.8s.8 1.4.8 2.5v5.3h-1.5V7.9c0-.7-.1-1.3-.4-1.6-.3-.3-.7-.5-1.3-.5-.5 0-.9.1-1.2.3-.3.2-.6.5-.8.8v6.3h-1.5V4.7h1.2z"/><path id="XMLID_770_" class="st7" d="M664.3 10.9c0-.3-.1-.6-.4-.8-.3-.2-.7-.4-1.5-.6-1-.2-1.8-.5-2.3-.9-.5-.4-.8-.9-.8-1.5 0-.7.3-1.3.9-1.8.6-.5 1.3-.7 2.3-.7 1 0 1.7.3 2.3.8.6.5.9 1.1.9 1.8h-1.5c0-.4-.2-.7-.5-1s-.7-.4-1.2-.4-.9.1-1.2.4c-.3.2-.4.5-.4.9 0 .3.1.6.3.8.2.2.7.3 1.4.5 1 .2 1.8.5 2.4.9.5.4.8.9.8 1.6 0 .8-.3 1.4-.9 1.8-.6.5-1.4.7-2.4.7-1.1 0-1.9-.3-2.5-.8-.6-.5-.9-1.2-.9-1.9h1.5c0 .5.2.9.6 1.2.4.3.8.4 1.3.4s1-.1 1.3-.3c.3-.4.5-.7.5-1.1z"/><path id="XMLID_772_" class="st7" d="M669.9 2.7v2h1.6v1.1h-1.6V11c0 .4.1.7.2.8.2.2.4.2.7.2h.3s.2 0 .3-.1l.2 1.1c-.1.1-.3.2-.5.2-.2.1-.4.1-.7.1-.6 0-1.1-.2-1.5-.6-.4-.4-.6-1-.6-1.8v-5H667V4.7h1.3v-2h1.6z"/><path id="XMLID_774_" class="st7" d="M672.8 8.9c0-1.3.3-2.3 1-3.1.7-.8 1.6-1.2 2.8-1.2 1.2 0 2.1.4 2.8 1.2.7.8 1 1.8 1 3.1v.2c0 1.3-.3 2.3-1 3.1-.7.8-1.6 1.2-2.8 1.2-1.2 0-2.1-.4-2.8-1.2s-1-1.8-1-3.1v-.2zm1.5.2c0 .9.2 1.6.6 2.2.4.6.9.9 1.7.9.7 0 1.3-.3 1.7-.9.4-.6.6-1.3.6-2.2v-.2c0-.9-.2-1.6-.6-2.2-.4-.6-.9-.9-1.7-.9-.7 0-1.3.3-1.7.9-.4.6-.6 1.3-.6 2.2v.2z"/><path id="XMLID_777_" class="st7" d="M686.2 6.1h-.8c-.4 0-.7.1-1 .3-.3.2-.5.5-.6.8v6h-1.5V4.7h1.4l.1 1.2c.2-.4.5-.8.9-1 .4-.2.8-.4 1.2-.4h.3c.1 0 .2 0 .3.1l-.3 1.5z"/><path id="XMLID_779_" class="st7" d="M689.2 4.7l.1 1.1c.3-.4.6-.7 1.1-.9.4-.2.9-.3 1.5-.3s1 .1 1.4.4c.4.3.7.7.9 1.2.3-.5.6-.9 1.1-1.1.4-.3.9-.4 1.5-.4.9 0 1.5.3 2 .9.5.6.8 1.5.8 2.7v5.1H698V8.1c0-.8-.1-1.4-.4-1.8-.3-.3-.7-.5-1.3-.5-.5 0-1 .2-1.3.5-.3.4-.5.8-.6 1.4v5.5h-1.5V8.1c0-.8-.1-1.4-.4-1.7-.3-.4-.7-.6-1.3-.6-.5 0-.9.1-1.2.3-.3.2-.5.5-.7.8v6.3h-1.5V4.7h1.4z"/><path id="XMLID_781_" class="st7" d="M703.5 2.6H702V1h1.5v1.6zm0 10.6H702V4.7h1.5v8.5z"/><path id="XMLID_784_" class="st7" d="M707.2 4.7l.1 1.3c.3-.4.6-.8 1.1-1 .4-.2.9-.4 1.4-.4.9 0 1.6.3 2.1.8s.8 1.4.8 2.5v5.3h-1.5V7.9c0-.7-.1-1.3-.4-1.6-.3-.3-.7-.5-1.3-.5-.5 0-.9.1-1.2.3-.3.2-.6.5-.8.8v6.3H706V4.7h1.2z"/><path id="XMLID_786_" class="st7" d="M714.6 9.1c0-1.4.3-2.5.9-3.3.6-.8 1.4-1.3 2.4-1.3.5 0 1 .1 1.4.3.4.2.7.5 1 .9l.2-1.1h1.2v8.5c0 1.1-.3 1.9-.9 2.5-.6.6-1.5.9-2.7.9-.4 0-.8-.1-1.3-.2s-.9-.3-1.2-.5l.2-1.2c.3.2.7.3 1.1.4.4.1.8.1 1.2.1.8 0 1.3-.2 1.6-.5.3-.3.5-.9.5-1.6v-1c-.3.4-.6.6-1 .8-.4.2-.8.3-1.3.3-1 0-1.8-.4-2.4-1.1-.6-.7-.9-1.7-.9-2.9zm1.6.2c0 .8.2 1.5.5 2s.9.8 1.6.8c.5 0 .9-.1 1.2-.3s.6-.5.8-.9V7c-.2-.4-.5-.6-.8-.9-.3-.2-.7-.3-1.1-.3-.7 0-1.3.3-1.6.9s-.5 1.4-.5 2.4v.2z"/><path id="XMLID_789_" class="st7" d="M725.7 13.2h-1.5v-1.6h1.5v1.6z"/><path id="XMLID_791_" class="st7" d="M734.8 9.2l.2 1.5.3-1.5 2-7.4h1.5l2 7.4.3 1.5.2-1.5 1.6-7.4h1.7l-2.8 11.4h-1.4l-2.3-7.9-.2-1-.2 1-2.3 7.9H734l-2.7-11.4h1.7l1.8 7.4z"/><path id="XMLID_793_" class="st7" d="M747.7 2.6h-1.5V1h1.5v1.6zm0 10.6h-1.5V4.7h1.5v8.5z"/><path id="XMLID_796_" class="st7" d="M752.2 2.7v2h1.6v1.1h-1.6V11c0 .4.1.7.2.8.2.2.4.2.7.2h.3s.2 0 .3-.1l.2 1.1c-.1.1-.3.2-.5.2-.2.1-.4.1-.7.1-.6 0-1.1-.2-1.5-.6-.4-.4-.6-1-.6-1.8v-5h-1.3V4.7h1.3v-2h1.6z"/><path id="XMLID_798_" class="st7" d="M757 5.9c.3-.4.6-.7 1.1-.9.4-.2.9-.3 1.4-.3.9 0 1.6.3 2.1.8s.8 1.4.8 2.5v5.3h-1.5V7.9c0-.7-.2-1.2-.4-1.5-.3-.3-.7-.5-1.3-.5-.5 0-.9.1-1.2.3-.3.2-.6.4-.8.8v6.3h-1.5V1h1.5v4.9z"/><path id="XMLID_800_" class="st7" d="M775.8 9.3c0 1.2-.3 2.2-.9 2.9-.6.7-1.4 1.1-2.4 1.1-.6 0-1.1-.1-1.5-.3s-.8-.5-1-1l-.3 1.1h-1.2V1h1.5v4.7c.3-.4.6-.7 1-.9.4-.2.9-.3 1.4-.3 1 0 1.9.4 2.4 1.3.6.8.9 1.9.9 3.3v.2zm-1.6-.2c0-1-.2-1.8-.5-2.4-.4-.6-.9-.9-1.6-.9-.5 0-.9.1-1.2.3-.3.2-.6.5-.8.9v3.7c.2.4.5.7.8 1s.7.4 1.2.4c.7 0 1.3-.3 1.6-.8.4-.5.5-1.2.5-2v-.2z"/><path id="XMLID_803_" class="st7" d="M781.1 13.4c-1.2 0-2.2-.4-2.8-1.2-.7-.8-1-1.8-1-3.1v-.3c0-1.2.3-2.2 1.1-3 .7-.8 1.6-1.2 2.6-1.2 1.1 0 2 .4 2.5 1.1.6.7.8 1.6.8 2.8v.8h-5.4c0 .8.2 1.5.6 2.1.4.5.9.8 1.7.8.5 0 1-.1 1.4-.2.4-.1.7-.4 1-.6l.6 1c-.3.3-.7.5-1.2.7-.6.2-1.2.3-1.9.3zm-.2-7.6c-.5 0-1 .2-1.3.6s-.6 1-.7 1.6h3.8v-.1c0-.6-.2-1.1-.5-1.5-.2-.4-.7-.6-1.3-.6z"/><path id="XMLID_806_" class="st7" d="M789.5 13.4c-1.2 0-2.2-.4-2.8-1.2-.7-.8-1-1.8-1-3.1v-.3c0-1.2.3-2.2 1.1-3 .7-.8 1.6-1.2 2.6-1.2 1.1 0 2 .4 2.5 1.1.6.7.8 1.6.8 2.8v.8h-5.4c0 .8.2 1.5.6 2.1.4.5.9.8 1.7.8.5 0 1-.1 1.4-.2.4-.1.7-.4 1-.6l.6 1c-.3.3-.7.5-1.2.7-.6.2-1.2.3-1.9.3zm-.2-7.6c-.5 0-1 .2-1.3.6s-.6.9-.6 1.6h3.8v-.1c0-.6-.2-1.1-.5-1.5-.3-.4-.8-.6-1.4-.6z"/><path id="XMLID_809_" class="st7" d="M798.4 6.1h-.8c-.4 0-.7.1-1 .3-.3.2-.5.5-.6.8v6h-1.5V4.7h1.4l.1 1.2c.2-.4.5-.8.9-1 .4-.2.8-.4 1.2-.4h.3c.1 0 .2 0 .3.1l-.3 1.5z"/></g><g id="XMLID_279_"><path id="XMLID_18_" class="st7" d="M627.9 71.5c0-.5-.2-.9-.6-1.3-.4-.3-1-.6-2-.9-1.2-.3-2.1-.7-2.7-1.3-.6-.6-1-1.3-1-2.1 0-.9.3-1.6 1-2.2.7-.6 1.6-.9 2.7-.9 1.2 0 2.2.3 2.9 1s1.1 1.5 1 2.4h-1.5c0-.6-.2-1.2-.7-1.6-.5-.4-1-.6-1.7-.6s-1.3.2-1.7.5c-.4.3-.6.8-.6 1.4 0 .5.2.9.6 1.2.4.3 1.1.6 2 .9 1.1.3 2 .7 2.6 1.3.6.6.9 1.3.9 2.1 0 .9-.4 1.7-1.1 2.2-.7.6-1.7.8-2.8.8-1.1 0-2.1-.3-2.9-.9-.8-.6-1.2-1.4-1.2-2.5h1.5c0 .7.3 1.3.8 1.7.5.4 1.2.6 1.8.6.7 0 1.3-.2 1.7-.5.8-.3 1-.7 1-1.3z"/><path id="XMLID_700_" class="st7" d="M631.1 70.1c0-1.3.3-2.3 1-3.1.7-.8 1.6-1.2 2.8-1.2 1.2 0 2.1.4 2.8 1.2.7.8 1 1.8 1 3.1v.2c0 1.3-.3 2.3-1 3.1-.7.8-1.6 1.2-2.8 1.2-1.2 0-2.1-.4-2.8-1.2s-1-1.8-1-3.1v-.2zm1.5.1c0 .9.2 1.6.6 2.2.4.6.9.9 1.7.9.7 0 1.3-.3 1.7-.9.4-.6.6-1.3.6-2.2V70c0-.9-.2-1.6-.6-2.2-.4-.6-.9-.9-1.7-.9-.7 0-1.3.3-1.7.9-.4.6-.6 1.3-.6 2.2v.2z"/><path id="XMLID_703_" class="st7" d="M642.2 74.4h-1.5V62.2h1.5v12.2z"/><path id="XMLID_705_" class="st7" d="M647.4 71.9l.1.6.1-.6 1.9-6h1.6l-3.1 8.5h-1l-3.1-8.5h1.6l1.9 6z"/><path id="XMLID_707_" class="st7" d="M654.3 63.8h-1.5v-1.6h1.5v1.6zm0 10.6h-1.5v-8.5h1.5v8.5z"/><path id="XMLID_710_" class="st7" d="M658 65.9l.1 1.3c.3-.4.6-.8 1.1-1 .4-.2.9-.4 1.4-.4.9 0 1.6.3 2.1.8s.8 1.4.8 2.5v5.3H662v-5.3c0-.7-.1-1.3-.4-1.6-.3-.3-.7-.5-1.3-.5-.5 0-.9.1-1.2.3-.3.2-.6.5-.8.8v6.3h-1.5v-8.5h1.2z"/><path id="XMLID_712_" class="st7" d="M665.5 70.3c0-1.4.3-2.5.9-3.3.6-.8 1.4-1.3 2.4-1.3.5 0 1 .1 1.4.3.4.2.7.5 1 .9l.2-1.1h1.2v8.5c0 1.1-.3 1.9-.9 2.5-.6.6-1.5.9-2.7.9-.4 0-.8-.1-1.3-.2s-.9-.3-1.2-.5l.2-1.2c.3.2.7.3 1.1.4.4.1.8.1 1.2.1.8 0 1.3-.2 1.6-.5.3-.3.5-.9.5-1.6v-1c-.3.4-.6.6-1 .8-.4.2-.8.3-1.3.3-1 0-1.8-.4-2.4-1.1-.6-.7-.9-1.7-.9-2.9zm1.5.2c0 .8.2 1.5.5 2s.9.8 1.6.8c.5 0 .9-.1 1.2-.3s.6-.5.8-.9v-3.9c-.2-.4-.5-.6-.8-.9-.3-.2-.7-.3-1.1-.3-.7 0-1.3.3-1.6.9s-.5 1.4-.5 2.4v.2z"/><path id="XMLID_715_" class="st7" d="M687.1 70.7c0 1.1-.3 2-1.1 2.7-.8.7-1.8 1.1-3.1 1.1s-2.3-.5-3.1-1.4c-.8-.9-1.2-2.1-1.2-3.5v-2c0-1.4.4-2.6 1.2-3.5.8-.9 1.9-1.4 3.1-1.4 1.3 0 2.3.3 3.1 1 .8.7 1.1 1.6 1.1 2.7h-1.5c0-.8-.2-1.4-.7-1.9-.5-.5-1.1-.7-2-.7-.9 0-1.5.3-2.1 1-.5.7-.8 1.6-.8 2.6v2c0 1 .3 1.9.8 2.6.5.7 1.2 1 2.1 1 .9 0 1.5-.2 2-.7s.7-1.1.7-1.9h1.5z"/><path id="XMLID_717_" class="st7" d="M694.3 73.1c-.3.5-.6.8-1 1-.4.2-.9.4-1.4.4-.9 0-1.6-.3-2.2-.9-.5-.6-.8-1.5-.8-2.8v-5h1.5v5c0 .9.1 1.5.4 1.9.3.3.7.5 1.2.5s1-.1 1.4-.3c.4-.2.6-.5.8-.9v-6.1h1.5v8.5h-1.4v-1.3z"/><path id="XMLID_719_" class="st7" d="M702.9 72.1c0-.3-.1-.6-.4-.8-.3-.2-.7-.4-1.5-.6-1-.2-1.8-.5-2.3-.9-.5-.4-.8-.9-.8-1.5 0-.7.3-1.3.9-1.8.6-.5 1.3-.7 2.3-.7 1 0 1.7.3 2.3.8.6.5.9 1.1.9 1.8h-1.5c0-.4-.2-.7-.5-1s-.7-.4-1.2-.4-.9.1-1.2.4c-.3.2-.4.5-.4.9 0 .3.1.6.3.8.2.2.7.3 1.4.5 1 .2 1.8.5 2.4.9.5.4.8.9.8 1.6 0 .8-.3 1.4-.9 1.8-.6.5-1.4.7-2.4.7-1.1 0-1.9-.3-2.5-.8-.6-.5-.9-1.2-.9-1.9h1.5c0 .5.2.9.6 1.2.4.3.8.4 1.3.4s1-.1 1.3-.3c.4-.4.5-.7.5-1.1z"/><path id="XMLID_721_" class="st7" d="M708.5 63.9v2h1.6V67h-1.6v5.1c0 .4.1.7.2.8.2.2.4.2.7.2h.3s.2 0 .3-.1l.2 1.1c-.1.1-.3.2-.5.2-.2.1-.4.1-.7.1-.6 0-1.1-.2-1.5-.6-.4-.4-.6-1-.6-1.8v-5.1h-1.3v-1.1h1.3v-2h1.6z"/><path id="XMLID_723_" class="st7" d="M711.4 70.1c0-1.3.3-2.3 1-3.1.7-.8 1.6-1.2 2.8-1.2 1.2 0 2.1.4 2.8 1.2.7.8 1 1.8 1 3.1v.2c0 1.3-.3 2.3-1 3.1-.7.8-1.6 1.2-2.8 1.2-1.2 0-2.1-.4-2.8-1.2s-1-1.8-1-3.1v-.2zm1.6.1c0 .9.2 1.6.6 2.2.4.6.9.9 1.7.9.7 0 1.3-.3 1.7-.9.4-.6.6-1.3.6-2.2V70c0-.9-.2-1.6-.6-2.2-.4-.6-.9-.9-1.7-.9-.7 0-1.3.3-1.7.9-.4.6-.6 1.3-.6 2.2v.2z"/><path id="XMLID_726_" class="st7" d="M722.3 65.9l.1 1.1c.3-.4.6-.7 1.1-.9.4-.2.9-.3 1.5-.3s1 .1 1.4.4c.4.3.7.7.9 1.2.3-.5.6-.9 1.1-1.1.4-.3.9-.4 1.5-.4.9 0 1.5.3 2 .9.5.6.8 1.5.8 2.7v5.1h-1.5v-5.1c0-.8-.1-1.4-.4-1.8-.3-.3-.7-.5-1.3-.5-.5 0-1 .2-1.3.5-.3.4-.5.8-.6 1.4V69v5.4H726v-5.1c0-.8-.1-1.4-.4-1.7-.3-.4-.7-.6-1.3-.6-.5 0-.9.1-1.2.3-.3.2-.5.5-.7.8v6.3h-1.5v-8.5h1.4z"/><path id="XMLID_728_" class="st7" d="M738.4 74.5c-1.2 0-2.2-.4-2.8-1.2-.7-.8-1-1.8-1-3.1V70c0-1.2.3-2.2 1.1-3 .7-.8 1.6-1.2 2.6-1.2 1.1 0 2 .4 2.5 1.1.6.7.8 1.6.8 2.8v.8h-5.4c0 .8.2 1.5.6 2.1.4.5.9.8 1.7.8.5 0 1-.1 1.4-.2.4-.1.7-.4 1-.6l.6 1c-.3.3-.7.5-1.2.7-.6.1-1.2.2-1.9.2zm-.3-7.5c-.5 0-1 .2-1.3.6s-.6.9-.6 1.6h3.8v-.1c0-.6-.2-1.1-.5-1.5-.3-.4-.7-.6-1.4-.6z"/><path id="XMLID_731_" class="st7" d="M747.2 67.3h-.8c-.4 0-.7.1-1 .3-.3.2-.5.5-.6.8v6h-1.5v-8.5h1.4l.1 1.2c.2-.4.5-.8.9-1 .4-.2.8-.4 1.2-.4h.3c.1 0 .2 0 .3.1l-.3 1.5z"/><path id="XMLID_733_" class="st7" d="M750.7 64.5l-.8 2.7h-.8V63h1.5v1.5z"/><path id="XMLID_735_" class="st7" d="M757.6 72.1c0-.3-.1-.6-.4-.8-.3-.2-.7-.4-1.5-.6-1-.2-1.8-.5-2.3-.9-.5-.4-.8-.9-.8-1.5 0-.7.3-1.3.9-1.8.6-.5 1.3-.7 2.3-.7 1 0 1.7.3 2.3.8.6.5.9 1.1.9 1.8h-1.5c0-.4-.2-.7-.5-1s-.7-.4-1.2-.4-.9.1-1.2.4c-.3.2-.4.5-.4.9 0 .3.1.6.3.8.2.2.7.3 1.4.5 1 .2 1.8.5 2.4.9.5.4.8.9.8 1.6 0 .8-.3 1.4-.9 1.8-.6.5-1.4.7-2.4.7-1.1 0-1.9-.3-2.5-.8-.6-.5-.9-1.2-.9-1.9h1.5c0 .5.2.9.6 1.2.4.3.8.4 1.3.4s1-.1 1.3-.3c.3-.4.5-.7.5-1.1z"/><path id="XMLID_737_" class="st7" d="M766.8 69.8v4.6h-1.5V63h4.4c1.2 0 2.2.3 2.8.9.7.6 1 1.4 1 2.5 0 1-.3 1.9-1 2.5-.7.6-1.6.9-2.8.9h-2.9zm0-1.2h2.8c.8 0 1.3-.2 1.7-.6.4-.4.6-.9.6-1.6 0-.6-.2-1.2-.6-1.6s-1-.6-1.7-.6h-2.8v4.4z"/><path id="XMLID_740_" class="st7" d="M779.2 67.3h-.8c-.4 0-.7.1-1 .3-.3.2-.5.5-.6.8v6h-1.5v-8.5h1.4l.1 1.2c.2-.4.5-.8.9-1 .4-.2.8-.4 1.2-.4h.3c.1 0 .2 0 .3.1l-.3 1.5z"/><path id="XMLID_742_" class="st7" d="M780.3 70.1c0-1.3.3-2.3 1-3.1.7-.8 1.6-1.2 2.8-1.2 1.2 0 2.1.4 2.8 1.2.7.8 1 1.8 1 3.1v.2c0 1.3-.3 2.3-1 3.1-.7.8-1.6 1.2-2.8 1.2-1.2 0-2.1-.4-2.8-1.2s-1-1.8-1-3.1v-.2zm1.5.1c0 .9.2 1.6.6 2.2.4.6.9.9 1.7.9.7 0 1.3-.3 1.7-.9.4-.6.6-1.3.6-2.2V70c0-.9-.2-1.6-.6-2.2-.4-.6-.9-.9-1.7-.9-.7 0-1.3.3-1.7.9-.4.6-.6 1.3-.6 2.2v.2z"/><path id="XMLID_745_" class="st7" d="M796.9 70.5c0 1.2-.3 2.2-.9 2.9-.6.7-1.4 1.1-2.4 1.1-.6 0-1.1-.1-1.5-.3s-.8-.5-1-1l-.3 1.1h-1.2V62.2h1.5v4.7c.3-.4.6-.7 1-.9.4-.2.9-.3 1.4-.3 1 0 1.9.4 2.4 1.3.6.8.9 1.9.9 3.3v.2zm-1.5-.2c0-1-.2-1.8-.5-2.4-.4-.6-.9-.9-1.6-.9-.5 0-.9.1-1.2.3-.3.2-.6.5-.8.9V72c.2.4.5.7.8 1s.7.4 1.2.4c.7 0 1.3-.3 1.6-.8.4-.5.5-1.2.5-2v-.3z"/><path id="XMLID_748_" class="st7" d="M800.5 74.4H799V62.2h1.5v12.2z"/><path id="XMLID_750_" class="st7" d="M806.4 74.5c-1.2 0-2.2-.4-2.8-1.2-.7-.8-1-1.8-1-3.1V70c0-1.2.3-2.2 1.1-3 .7-.8 1.6-1.2 2.6-1.2 1.1 0 2 .4 2.5 1.1.6.7.8 1.6.8 2.8v.8h-5.4c0 .8.2 1.5.6 2.1.4.5.9.8 1.7.8.5 0 1-.1 1.4-.2.4-.1.7-.4 1-.6l.6 1c-.3.3-.7.5-1.2.7-.7.1-1.2.2-1.9.2zm-.3-7.5c-.5 0-1 .2-1.3.6s-.6.9-.6 1.6h3.8v-.1c0-.6-.2-1.1-.5-1.5-.3-.4-.8-.6-1.4-.6z"/><path id="XMLID_753_" class="st7" d="M812.6 65.9l.1 1.1c.3-.4.6-.7 1.1-.9.4-.2.9-.3 1.5-.3s1 .1 1.4.4c.4.3.7.7.9 1.2.3-.5.6-.9 1.1-1.1.4-.3.9-.4 1.5-.4.9 0 1.5.3 2 .9.5.6.8 1.5.8 2.7v5.1h-1.5v-5.1c0-.8-.1-1.4-.4-1.8-.3-.3-.7-.5-1.3-.5-.5 0-1 .2-1.3.5-.3.4-.5.8-.6 1.4V69v5.4h-1.5v-5.1c0-.8-.1-1.4-.4-1.7-.3-.4-.7-.6-1.3-.6-.5 0-.9.1-1.2.3-.3.2-.5.5-.7.8v6.3h-1.5v-8.5h1.3z"/><path id="XMLID_755_" class="st7" d="M830.1 72.1c0-.3-.1-.6-.4-.8-.3-.2-.7-.4-1.5-.6-1-.2-1.8-.5-2.3-.9-.5-.4-.8-.9-.8-1.5 0-.7.3-1.3.9-1.8.6-.5 1.3-.7 2.3-.7 1 0 1.7.3 2.3.8.6.5.9 1.1.9 1.8H830c0-.4-.2-.7-.5-1s-.7-.4-1.2-.4-.9.1-1.2.4c-.3.2-.4.5-.4.9 0 .3.1.6.3.8.2.2.7.3 1.4.5 1 .2 1.8.5 2.4.9.5.4.8.9.8 1.6 0 .8-.3 1.4-.9 1.8-.6.5-1.4.7-2.4.7-1.1 0-1.9-.3-2.5-.8-.6-.5-.9-1.2-.9-1.9h1.5c0 .5.2.9.6 1.2.4.3.8.4 1.3.4s1-.1 1.3-.3c.4-.4.5-.7.5-1.1z"/></g><g id="XMLID_267_"><path id="XMLID_17_" class="st7" d="M627.5 202.9l3.7-9.2h1.9V205h-1.5v-8.5l-3.4 8.5H627l-3.5-8.8v8.8H622v-11.4h2l3.5 9.3z"/><path id="XMLID_649_" class="st7" d="M635.2 200.7c0-1.3.3-2.3 1-3.1.7-.8 1.6-1.2 2.8-1.2 1.2 0 2.1.4 2.8 1.2.7.8 1 1.8 1 3.1v.2c0 1.3-.3 2.3-1 3.1-.7.8-1.6 1.2-2.8 1.2-1.2 0-2.1-.4-2.8-1.2s-1-1.8-1-3.1v-.2zm1.5.2c0 .9.2 1.6.6 2.2.4.6.9.9 1.7.9.7 0 1.3-.3 1.7-.9.4-.6.6-1.3.6-2.2v-.2c0-.9-.2-1.6-.6-2.2-.4-.6-.9-.9-1.7-.9-.7 0-1.3.3-1.7.9-.4.6-.6 1.3-.6 2.2v.2z"/><path id="XMLID_652_" class="st7" d="M648.7 197.9h-.8c-.4 0-.7.1-1 .3-.3.2-.5.5-.6.8v6h-1.5v-8.5h1.4l.1 1.2c.2-.4.5-.8.9-1 .4-.2.8-.4 1.2-.4h.3c.1 0 .2 0 .3.1l-.3 1.5z"/><path id="XMLID_654_" class="st7" d="M651.6 196.6l.1 1.3c.3-.4.6-.8 1.1-1 .4-.2.9-.4 1.4-.4.9 0 1.6.3 2.1.8s.8 1.4.8 2.5v5.3h-1.5v-5.3c0-.7-.1-1.3-.4-1.6-.3-.3-.7-.5-1.3-.5-.5 0-.9.1-1.2.3-.3.2-.6.5-.8.8v6.3h-1.5v-8.5h1.2z"/><path id="XMLID_656_" class="st7" d="M661 194.4h-1.5v-1.6h1.5v1.6zm0 10.6h-1.5v-8.5h1.5v8.5z"/><path id="XMLID_659_" class="st7" d="M664.8 196.6l.1 1.3c.3-.4.6-.8 1.1-1 .4-.2.9-.4 1.4-.4.9 0 1.6.3 2.1.8s.8 1.4.8 2.5v5.3h-1.5v-5.3c0-.7-.1-1.3-.4-1.6-.3-.3-.7-.5-1.3-.5-.5 0-.9.1-1.2.3-.3.2-.6.5-.8.8v6.3h-1.5v-8.5h1.2z"/><path id="XMLID_661_" class="st7" d="M672.2 200.9c0-1.4.3-2.5.9-3.3.6-.8 1.4-1.3 2.4-1.3.5 0 1 .1 1.4.3.4.2.7.5 1 .9l.2-1.1h1.2v8.5c0 1.1-.3 1.9-.9 2.5-.6.6-1.5.9-2.7.9-.4 0-.8-.1-1.3-.2s-.9-.3-1.2-.5l.2-1.2c.3.2.7.3 1.1.4.4.1.8.1 1.2.1.8 0 1.3-.2 1.6-.5.3-.3.5-.9.5-1.6v-1c-.3.4-.6.6-1 .8-.4.2-.8.3-1.3.3-1 0-1.8-.4-2.4-1.1-.6-.7-.9-1.7-.9-2.9zm1.5.2c0 .8.2 1.5.5 2s.9.8 1.6.8c.5 0 .9-.1 1.2-.3s.6-.5.8-.9v-3.9c-.2-.4-.5-.6-.8-.9-.3-.2-.7-.3-1.1-.3-.7 0-1.3.3-1.6.9s-.5 1.4-.5 2.4v.2z"/><path id="XMLID_664_" class="st7" d="M690.5 202.7c0-.3-.1-.6-.4-.8-.3-.2-.7-.4-1.5-.6-1-.2-1.8-.5-2.3-.9-.5-.4-.8-.9-.8-1.5 0-.7.3-1.3.9-1.8.6-.5 1.3-.7 2.3-.7 1 0 1.7.3 2.3.8.6.5.9 1.1.9 1.8h-1.5c0-.4-.2-.7-.5-1s-.7-.4-1.2-.4-.9.1-1.2.4c-.3.2-.4.5-.4.9 0 .3.1.6.3.8.2.2.7.3 1.4.5 1 .2 1.8.5 2.4.9.5.4.8.9.8 1.6 0 .8-.3 1.4-.9 1.8-.6.5-1.4.7-2.4.7-1.1 0-1.9-.3-2.5-.8-.6-.5-.9-1.2-.9-1.9h1.5c0 .5.2.9.6 1.2.4.3.8.4 1.3.4s1-.1 1.3-.3c.3-.4.5-.7.5-1.1z"/><path id="XMLID_666_" class="st7" d="M696 194.5v2h1.6v1.1H696v5.1c0 .4.1.7.2.8.2.2.4.2.7.2h.3s.2 0 .3-.1l.2 1.1c-.1.1-.3.2-.5.2-.2.1-.4.1-.7.1-.6 0-1.1-.2-1.5-.6-.4-.4-.6-1-.6-1.8v-5.1h-1.3v-1.1h1.3v-2h1.6z"/><path id="XMLID_668_" class="st7" d="M704.5 205c-.1-.3-.1-.5-.1-.7 0-.2 0-.4-.1-.6-.3.4-.7.7-1.1 1s-1 .4-1.5.4c-.9 0-1.6-.2-2-.7-.5-.5-.7-1.1-.7-1.9 0-.8.3-1.4 1-1.9s1.5-.7 2.7-.7h1.7v-.8c0-.5-.2-.9-.5-1.2-.3-.3-.7-.4-1.3-.4-.5 0-.9.1-1.2.4-.3.3-.5.5-.5.9h-1.5c0-.6.3-1.2.9-1.7.6-.5 1.4-.8 2.4-.8s1.7.2 2.3.7c.6.5.9 1.2.9 2.1v5s.1.6.2.8h-1.6zm-2.6-1.1c.6 0 1.1-.1 1.5-.4.4-.3.7-.6.9-1v-1.4h-1.7c-.6 0-1.1.2-1.5.5-.4.3-.6.7-.6 1.1 0 .4.1.7.4.9s.6.3 1 .3z"/><path id="XMLID_671_" class="st7" d="M709.5 196.6l.1 1.3c.3-.4.6-.8 1.1-1 .4-.2.9-.4 1.4-.4.9 0 1.6.3 2.1.8s.8 1.4.8 2.5v5.3h-1.5v-5.3c0-.7-.1-1.3-.4-1.6-.3-.3-.7-.5-1.3-.5-.5 0-.9.1-1.2.3-.3.2-.6.5-.8.8v6.3h-1.5v-8.5h1.2z"/><path id="XMLID_673_" class="st7" d="M716.8 200.9c0-1.4.3-2.5.9-3.3.6-.8 1.4-1.3 2.4-1.3.5 0 .9.1 1.3.3.4.2.7.4 1 .8v-4.6h1.5V205h-1.2l-.2-1.1c-.3.4-.6.7-1 .9s-.9.3-1.4.3c-1 0-1.8-.4-2.4-1.1-.6-.7-.9-1.7-.9-2.9v-.2zm1.6.2c0 .9.2 1.5.5 2.1.3.5.9.8 1.6.8.5 0 .8-.1 1.2-.3.3-.2.6-.5.8-.9v-3.9c-.2-.3-.5-.6-.8-.8-.3-.2-.7-.3-1.1-.3-.7 0-1.3.3-1.6.9s-.5 1.4-.5 2.4z"/><path id="XMLID_676_" class="st7" d="M731.7 203.8c-.3.5-.6.8-1 1-.4.2-.9.4-1.4.4-.9 0-1.6-.3-2.2-.9-.5-.6-.8-1.5-.8-2.8v-5h1.5v5c0 .9.1 1.5.4 1.9.3.3.7.5 1.2.5s1-.1 1.4-.3c.4-.2.6-.5.8-.9v-6.1h1.5v8.5h-1.4v-1.3z"/><path id="XMLID_678_" class="st7" d="M742.6 201.1c0 1.2-.3 2.2-.9 2.9-.6.7-1.4 1.1-2.4 1.1-.5 0-1-.1-1.4-.3-.4-.2-.7-.4-1-.8v4.1h-1.5v-11.7h1.2l.2 1.1c.3-.4.6-.7 1-.9.4-.2.9-.3 1.4-.3 1 0 1.9.4 2.4 1.2.6.8.9 1.9.9 3.3v.3zm-1.6-.2c0-1-.2-1.7-.6-2.4-.4-.6-.9-.9-1.7-.9-.4 0-.8.1-1.1.3-.3.2-.6.5-.8.8v4.1c.2.3.4.6.8.8s.7.3 1.1.3c.7 0 1.3-.3 1.7-.8.4-.5.6-1.2.6-2.1v-.1z"/><path id="XMLID_681_" class="st7" d="M749.8 196.6l.1 1.1c.3-.4.6-.7 1.1-.9.4-.2.9-.3 1.5-.3s1 .1 1.4.4c.4.3.7.7.9 1.2.3-.5.6-.9 1.1-1.1.4-.3.9-.4 1.5-.4.9 0 1.5.3 2 .9.5.6.8 1.5.8 2.7v5.1h-1.5v-5.1c0-.8-.1-1.4-.4-1.8-.3-.3-.7-.5-1.3-.5-.5 0-1 .2-1.3.5-.3.4-.5.8-.6 1.4v5.5h-1.5v-5.1c0-.8-.1-1.4-.4-1.7-.3-.4-.7-.6-1.3-.6-.5 0-.9.1-1.2.3-.3.2-.5.5-.7.8v6.3h-1.5v-8.5h1.3z"/><path id="XMLID_683_" class="st7" d="M765.9 205.2c-1.2 0-2.2-.4-2.8-1.2-.7-.8-1-1.8-1-3.1v-.3c0-1.2.3-2.2 1.1-3 .7-.8 1.6-1.2 2.6-1.2 1.1 0 2 .4 2.5 1.1.6.7.8 1.6.8 2.8v.8h-5.4c0 .8.2 1.5.6 2.1.4.5.9.8 1.7.8.5 0 1-.1 1.4-.2.4-.1.7-.4 1-.6l.6 1c-.3.3-.7.5-1.2.7-.6.2-1.2.3-1.9.3zm-.2-7.6c-.5 0-1 .2-1.3.6s-.6.9-.6 1.6h3.8v-.1c0-.6-.2-1.1-.5-1.5-.3-.4-.8-.6-1.4-.6z"/><path id="XMLID_686_" class="st7" d="M774.3 205.2c-1.2 0-2.2-.4-2.8-1.2-.7-.8-1-1.8-1-3.1v-.3c0-1.2.3-2.2 1.1-3 .7-.8 1.6-1.2 2.6-1.2 1.1 0 2 .4 2.5 1.1.6.7.8 1.6.8 2.8v.8H772c0 .8.2 1.5.6 2.1.4.5.9.8 1.7.8.5 0 1-.1 1.4-.2.4-.1.7-.4 1-.6l.6 1c-.3.3-.7.5-1.2.7-.5.2-1.1.3-1.8.3zm-.2-7.6c-.5 0-1 .2-1.3.6s-.6.9-.6 1.6h3.8v-.1c0-.6-.2-1.1-.5-1.5-.3-.4-.8-.6-1.4-.6z"/><path id="XMLID_689_" class="st7" d="M781.3 194.5v2h1.6v1.1h-1.6v5.1c0 .4.1.7.2.8.2.2.4.2.7.2h.3s.2 0 .3-.1l.2 1.1c-.1.1-.3.2-.5.2-.2.1-.4.1-.7.1-.6 0-1.1-.2-1.5-.6-.4-.4-.6-1-.6-1.8v-5.1h-1.3v-1.1h1.3v-2h1.6z"/><path id="XMLID_691_" class="st7" d="M786.2 194.4h-1.5v-1.6h1.5v1.6zm0 10.6h-1.5v-8.5h1.5v8.5z"/><path id="XMLID_694_" class="st7" d="M790 196.6l.1 1.3c.3-.4.6-.8 1.1-1 .4-.2.9-.4 1.4-.4.9 0 1.6.3 2.1.8s.8 1.4.8 2.5v5.3H794v-5.3c0-.7-.1-1.3-.4-1.6-.3-.3-.7-.5-1.3-.5-.5 0-.9.1-1.2.3-.3.2-.6.5-.8.8v6.3h-1.5v-8.5h1.2z"/><path id="XMLID_696_" class="st7" d="M797.4 200.9c0-1.4.3-2.5.9-3.3.6-.8 1.4-1.3 2.4-1.3.5 0 1 .1 1.4.3.4.2.7.5 1 .9l.2-1.1h1.2v8.5c0 1.1-.3 1.9-.9 2.5-.6.6-1.5.9-2.7.9-.4 0-.8-.1-1.3-.2s-.9-.3-1.2-.5l.2-1.2c.3.2.7.3 1.1.4.4.1.8.1 1.2.1.8 0 1.3-.2 1.6-.5.3-.3.5-.9.5-1.6v-1c-.3.4-.6.6-1 .8-.4.2-.8.3-1.3.3-1 0-1.8-.4-2.4-1.1-.6-.7-.9-1.7-.9-2.9zm1.6.2c0 .8.2 1.5.5 2s.9.8 1.6.8c.5 0 .9-.1 1.2-.3s.6-.5.8-.9v-3.9c-.2-.4-.5-.6-.8-.9-.3-.2-.7-.3-1.1-.3-.7 0-1.3.3-1.6.9s-.5 1.4-.5 2.4v.2z"/></g><g id="XMLID_263_"><path id="XMLID_16_" class="st7" d="M630.6 276.2c0 1.4-.4 2.5-1.3 3.5-.9.9-2 1.4-3.4 1.4-1.3 0-2.4-.5-3.2-1.4-.8-.9-1.2-2.1-1.2-3.5v-2c0-1.4.4-2.5 1.2-3.5.8-.9 1.9-1.4 3.2-1.4 1.4 0 2.5.5 3.4 1.4.9.9 1.3 2.1 1.3 3.5v2zm-1.6-2.1c0-1-.3-1.9-.8-2.6-.6-.7-1.3-1-2.3-1-.9 0-1.6.3-2.1 1s-.8 1.5-.8 2.6v2c0 1.1.3 1.9.8 2.6.5.7 1.2 1 2.1 1 1 0 1.7-.3 2.3-1 .6-.7.8-1.5.8-2.6v-2z"/><path id="XMLID_581_" class="st7" d="M635.4 278.3l.1.6.1-.6 1.9-6h1.6l-3.1 8.5h-1l-3.1-8.5h1.6l1.9 6z"/><path id="XMLID_583_" class="st7" d="M644 281c-1.2 0-2.2-.4-2.8-1.2-.7-.8-1-1.8-1-3.1v-.3c0-1.2.3-2.2 1.1-3 .7-.8 1.6-1.2 2.6-1.2 1.1 0 2 .4 2.5 1.1.6.7.8 1.6.8 2.8v.8h-5.4c0 .8.2 1.5.6 2.1.4.5.9.8 1.7.8.5 0 1-.1 1.4-.2.4-.1.7-.4 1-.6l.6 1c-.3.3-.7.5-1.2.7-.6.2-1.2.3-1.9.3zm-.2-7.6c-.5 0-1 .2-1.3.6s-.6.9-.6 1.6h3.8v-.1c0-.6-.2-1.1-.5-1.5-.3-.4-.8-.6-1.4-.6z"/><path id="XMLID_586_" class="st7" d="M652.9 273.7h-.8c-.4 0-.7.1-1 .3-.3.2-.5.5-.6.8v6H649v-8.5h1.4l.1 1.2c.2-.4.5-.8.9-1 .4-.2.8-.4 1.2-.4h.3c.1 0 .2 0 .3.1l-.3 1.5z"/><path id="XMLID_588_" class="st7" d="M654 276.8c0-1.4.3-2.5.9-3.3.6-.8 1.4-1.3 2.4-1.3.5 0 .9.1 1.3.3.4.2.7.4 1 .8v-4.6h1.5v12.2H660l-.2-1.1c-.3.4-.6.7-1 .9-.4.2-.9.3-1.4.3-1 0-1.8-.4-2.4-1.1-.6-.7-.9-1.7-.9-2.9v-.2zm1.5.1c0 .9.2 1.5.5 2.1.3.5.9.8 1.6.8.5 0 .8-.1 1.2-.3.3-.2.6-.5.8-.9v-3.9c-.2-.3-.5-.6-.8-.8-.3-.2-.7-.3-1.1-.3-.7 0-1.3.3-1.6.9s-.5 1.4-.5 2.4z"/><path id="XMLID_591_" class="st7" d="M663.1 276.5c0-1.3.3-2.3 1-3.1.7-.8 1.6-1.2 2.8-1.2 1.2 0 2.1.4 2.8 1.2.7.8 1 1.8 1 3.1v.2c0 1.3-.3 2.3-1 3.1-.7.8-1.6 1.2-2.8 1.2-1.2 0-2.1-.4-2.8-1.2s-1-1.8-1-3.1v-.2zm1.5.2c0 .9.2 1.6.6 2.2.4.6.9.9 1.7.9.7 0 1.3-.3 1.7-.9.4-.6.6-1.3.6-2.2v-.2c0-.9-.2-1.6-.6-2.2-.4-.6-.9-.9-1.7-.9-.7 0-1.3.3-1.7.9-.4.6-.6 1.3-.6 2.2v.2z"/><path id="XMLID_594_" class="st7" d="M677.4 278.6c0-.3-.1-.6-.4-.8-.3-.2-.7-.4-1.5-.6-1-.2-1.8-.5-2.3-.9-.5-.4-.8-.9-.8-1.5 0-.7.3-1.3.9-1.8.6-.5 1.3-.7 2.3-.7 1 0 1.7.3 2.3.8.6.5.9 1.1.9 1.8h-1.5c0-.4-.2-.7-.5-1s-.7-.4-1.2-.4-.9.1-1.2.4c-.3.2-.4.5-.4.9 0 .3.1.6.3.8.2.2.7.3 1.4.5 1 .2 1.8.5 2.4.9.5.4.8.9.8 1.6 0 .8-.3 1.4-.9 1.8-.6.5-1.4.7-2.4.7-1.1 0-1.9-.3-2.5-.8-.6-.5-.9-1.2-.9-1.9h1.5c0 .5.2.9.6 1.2.4.3.8.4 1.3.4s1-.1 1.3-.3c.4-.5.5-.8.5-1.1z"/><path id="XMLID_596_" class="st7" d="M682.6 270.2H681v-1.6h1.5v1.6zm0 10.6H681v-8.5h1.5v8.5z"/><path id="XMLID_599_" class="st7" d="M686.3 272.4l.1 1.3c.3-.4.6-.8 1.1-1 .4-.2.9-.4 1.4-.4.9 0 1.6.3 2.1.8s.8 1.4.8 2.5v5.3h-1.5v-5.3c0-.7-.1-1.3-.4-1.6-.3-.3-.7-.5-1.3-.5-.5 0-.9.1-1.2.3-.3.2-.6.5-.8.8v6.3h-1.5v-8.5h1.2z"/><path id="XMLID_601_" class="st7" d="M693.7 276.8c0-1.4.3-2.5.9-3.3.6-.8 1.4-1.3 2.4-1.3.5 0 1 .1 1.4.3.4.2.7.5 1 .9l.2-1.1h1.2v8.5c0 1.1-.3 1.9-.9 2.5-.6.6-1.5.9-2.7.9-.4 0-.8-.1-1.3-.2s-.9-.3-1.2-.5l.2-1.2c.3.2.7.3 1.1.4.4.1.8.1 1.2.1.8 0 1.3-.2 1.6-.5.3-.3.5-.9.5-1.6v-1c-.3.4-.6.6-1 .8-.4.2-.8.3-1.3.3-1 0-1.8-.4-2.4-1.1-.6-.7-.9-1.7-.9-2.9zm1.6.1c0 .8.2 1.5.5 2s.9.8 1.6.8c.5 0 .9-.1 1.2-.3s.6-.5.8-.9v-3.9c-.2-.4-.5-.6-.8-.9-.3-.2-.7-.3-1.1-.3-.7 0-1.3.3-1.6.9s-.5 1.4-.5 2.4v.2z"/><path id="XMLID_604_" class="st7" d="M706.7 276.5c0-1.3.3-2.3 1-3.1.7-.8 1.6-1.2 2.8-1.2 1.2 0 2.1.4 2.8 1.2.7.8 1 1.8 1 3.1v.2c0 1.3-.3 2.3-1 3.1-.7.8-1.6 1.2-2.8 1.2-1.2 0-2.1-.4-2.8-1.2s-1-1.8-1-3.1v-.2zm1.6.2c0 .9.2 1.6.6 2.2.4.6.9.9 1.7.9.7 0 1.3-.3 1.7-.9.4-.6.6-1.3.6-2.2v-.2c0-.9-.2-1.6-.6-2.2-.4-.6-.9-.9-1.7-.9-.7 0-1.3.3-1.7.9-.4.6-.6 1.3-.6 2.2v.2z"/><path id="XMLID_607_" class="st7" d="M717.6 272.4l.1 1.3c.3-.4.6-.8 1.1-1 .4-.2.9-.4 1.4-.4.9 0 1.6.3 2.1.8s.8 1.4.8 2.5v5.3h-1.5v-5.3c0-.7-.1-1.3-.4-1.6-.3-.3-.7-.5-1.3-.5-.5 0-.9.1-1.2.3-.3.2-.6.5-.8.8v6.3h-1.5v-8.5h1.2z"/><path id="XMLID_609_" class="st7" d="M737.6 277.2c0 1.1-.3 2-1.1 2.7-.8.7-1.8 1.1-3.1 1.1s-2.3-.5-3.1-1.4c-.8-.9-1.2-2.1-1.2-3.5v-2c0-1.4.4-2.6 1.2-3.5.8-.9 1.9-1.4 3.1-1.4 1.3 0 2.3.3 3.1 1 .8.7 1.1 1.6 1.1 2.7h-1.5c0-.8-.2-1.4-.7-1.9-.5-.5-1.1-.7-2-.7-.9 0-1.5.3-2.1 1-.5.7-.8 1.6-.8 2.6v2c0 1 .3 1.9.8 2.6.5.7 1.2 1 2.1 1 .9 0 1.5-.2 2-.7s.7-1.1.7-1.9h1.5z"/><path id="XMLID_611_" class="st7" d="M741 280.8h-1.5v-12.2h1.5v12.2z"/><path id="XMLID_613_" class="st7" d="M748.8 279.6c-.3.5-.6.8-1 1-.4.2-.9.4-1.4.4-.9 0-1.6-.3-2.2-.9-.5-.6-.8-1.5-.8-2.8v-5h1.5v5c0 .9.1 1.5.4 1.9.3.3.7.5 1.2.5s1-.1 1.4-.3c.4-.2.6-.5.8-.9v-6.1h1.5v8.5h-1.4v-1.3z"/><path id="XMLID_615_" class="st7" d="M759.7 276.9c0 1.2-.3 2.2-.9 2.9-.6.7-1.4 1.1-2.4 1.1-.6 0-1.1-.1-1.5-.3-.4-.2-.8-.5-1-1l-.3 1.1h-1.2v-12.2h1.5v4.7c.3-.4.6-.7 1-.9.4-.2.9-.3 1.4-.3 1 0 1.9.4 2.4 1.3.6.8.9 1.9.9 3.3v.3zm-1.5-.1c0-1-.2-1.8-.5-2.4-.4-.6-.9-.9-1.6-.9-.5 0-.9.1-1.2.3-.3.2-.6.5-.8.9v3.7c.2.4.5.7.8 1s.7.4 1.2.4c.7 0 1.3-.3 1.6-.8.4-.5.5-1.2.5-2v-.2z"/><path id="XMLID_618_" class="st7" d="M771.4 278.7l3.7-9.2h1.9v11.4h-1.5v-8.5l-3.4 8.5H771l-3.5-8.8v8.8H766v-11.4h2l3.4 9.2z"/><path id="XMLID_620_" class="st7" d="M784.7 280.8c-.1-.3-.1-.5-.1-.7 0-.2 0-.4-.1-.6-.3.4-.7.7-1.1 1s-1 .4-1.5.4c-.9 0-1.6-.2-2-.7-.5-.5-.7-1.1-.7-1.9 0-.8.3-1.4 1-1.9s1.5-.7 2.7-.7h1.7v-.7c0-.5-.2-.9-.5-1.2-.3-.3-.7-.4-1.3-.4-.5 0-.9.1-1.2.4-.3.3-.5.5-.5.9h-1.5c0-.6.3-1.2.9-1.7.6-.5 1.4-.8 2.4-.8s1.7.2 2.3.7c.6.5.9 1.2.9 2.1v5s.1.6.2.8h-1.6zm-2.6-1.1c.6 0 1.1-.1 1.5-.4.4-.3.7-.6.9-1v-1.4h-1.7c-.6 0-1.1.2-1.5.5-.4.3-.6.7-.6 1.1 0 .4.1.7.4.9s.6.3 1 .3z"/><path id="XMLID_623_" class="st7" d="M790.4 270.3v2h1.6v1.1h-1.6v5.1c0 .4.1.7.2.8.2.2.4.2.7.2h.3s.2 0 .3-.1l.2 1.1c-.1.1-.3.2-.5.2-.2.1-.4.1-.7.1-.6 0-1.1-.2-1.5-.6-.4-.4-.6-1-.6-1.8v-5.1h-1.3v-1.1h1.3v-2h1.6z"/><path id="XMLID_625_" class="st7" d="M797.2 281c-1.2 0-2.2-.4-2.8-1.2-.7-.8-1-1.8-1-3.1v-.3c0-1.2.3-2.2 1.1-3 .7-.8 1.6-1.2 2.6-1.2 1.1 0 2 .4 2.5 1.1.6.7.8 1.6.8 2.8v.8H795c0 .8.2 1.5.6 2.1.4.5.9.8 1.7.8.5 0 1-.1 1.4-.2.4-.1.7-.4 1-.6l.6 1c-.3.3-.7.5-1.2.7-.6.2-1.2.3-1.9.3zm-.3-7.6c-.5 0-1 .2-1.3.6s-.6.9-.6 1.6h3.8v-.1c0-.6-.2-1.1-.5-1.5-.3-.4-.7-.6-1.4-.6z"/><path id="XMLID_628_" class="st7" d="M805.7 276.5c0-1.3.3-2.3 1-3.1.7-.8 1.6-1.2 2.8-1.2 1.2 0 2.1.4 2.8 1.2.7.8 1 1.8 1 3.1v.2c0 1.3-.3 2.3-1 3.1-.7.8-1.6 1.2-2.8 1.2-1.2 0-2.1-.4-2.8-1.2s-1-1.8-1-3.1v-.2zm1.5.2c0 .9.2 1.6.6 2.2.4.6.9.9 1.7.9.7 0 1.3-.3 1.7-.9.4-.6.6-1.3.6-2.2v-.2c0-.9-.2-1.6-.6-2.2-.4-.6-.9-.9-1.7-.9-.7 0-1.3.3-1.7.9-.4.6-.6 1.3-.6 2.2v.2z"/><path id="XMLID_631_" class="st7" d="M819.1 273.7h-.8c-.4 0-.7.1-1 .3-.3.2-.5.5-.6.8v6h-1.5v-8.5h1.4l.1 1.2c.2-.4.5-.8.9-1 .4-.2.8-.4 1.2-.4h.3c.1 0 .2 0 .3.1l-.3 1.5z"/><path id="XMLID_633_" class="st7" d="M828 279.8c.5 0 .9-.2 1.2-.5.4-.3.5-.7.5-1.2h1.4c0 .7-.3 1.4-.9 1.9-.6.6-1.4.8-2.3.8-1.2 0-2.1-.4-2.8-1.2-.6-.8-1-1.8-1-3v-.3c0-1.2.3-2.2 1-3 .6-.8 1.6-1.2 2.7-1.2.9 0 1.7.3 2.3.9.6.6.9 1.3.9 2.1h-1.4c0-.5-.2-1-.5-1.3-.3-.4-.8-.5-1.3-.5-.8 0-1.3.3-1.7.9-.3.6-.5 1.3-.5 2.1v.3c0 .8.2 1.6.5 2.1.6.8 1.2 1.1 1.9 1.1z"/><path id="XMLID_635_" class="st7" d="M832.7 276.5c0-1.3.3-2.3 1-3.1.7-.8 1.6-1.2 2.8-1.2 1.2 0 2.1.4 2.8 1.2.7.8 1 1.8 1 3.1v.2c0 1.3-.3 2.3-1 3.1-.7.8-1.6 1.2-2.8 1.2-1.2 0-2.1-.4-2.8-1.2s-1-1.8-1-3.1v-.2zm1.5.2c0 .9.2 1.6.6 2.2.4.6.9.9 1.7.9.7 0 1.3-.3 1.7-.9.4-.6.6-1.3.6-2.2v-.2c0-.9-.2-1.6-.6-2.2-.4-.6-.9-.9-1.7-.9-.7 0-1.3.3-1.7.9-.4.6-.6 1.3-.6 2.2v.2z"/><path id="XMLID_638_" class="st7" d="M842.8 280.8v-7.3h-1.3v-1.1h1.3v-1.1c0-.9.2-1.6.7-2.1.5-.5 1.1-.7 2-.7h.5c.2 0 .4.1.6.1l-.2 1.2c-.1 0-.2 0-.3-.1s-.3 0-.4 0c-.4 0-.8.1-1 .4-.2.3-.3.7-.3 1.2v1.1h1.5v1.1h-1.5v7.3h-1.6z"/><path id="XMLID_640_" class="st7" d="M848.1 280.8v-7.3h-1.3v-1.1h1.3v-1.1c0-.9.2-1.6.7-2.1.5-.5 1.1-.7 2-.7h.5c.2 0 .4.1.6.1l-.2 1.2c-.1 0-.2 0-.3-.1s-.3 0-.4 0c-.4 0-.8.1-1 .4-.2.3-.3.7-.3 1.2v1.1h1.5v1.1h-1.5v7.3h-1.6z"/><path id="XMLID_642_" class="st7" d="M856 281c-1.2 0-2.2-.4-2.8-1.2-.7-.8-1-1.8-1-3.1v-.3c0-1.2.3-2.2 1.1-3 .7-.8 1.6-1.2 2.6-1.2 1.1 0 2 .4 2.5 1.1.6.7.8 1.6.8 2.8v.8h-5.4c0 .8.2 1.5.6 2.1.4.5.9.8 1.7.8.5 0 1-.1 1.4-.2.4-.1.7-.4 1-.6l.6 1c-.3.3-.7.5-1.2.7-.6.2-1.2.3-1.9.3zm-.2-7.6c-.5 0-1 .2-1.3.6s-.6.9-.6 1.6h3.8v-.1c0-.6-.2-1.1-.5-1.5-.3-.4-.8-.6-1.4-.6z"/><path id="XMLID_645_" class="st7" d="M864.4 281c-1.2 0-2.2-.4-2.8-1.2-.7-.8-1-1.8-1-3.1v-.3c0-1.2.3-2.2 1.1-3 .7-.8 1.6-1.2 2.6-1.2 1.1 0 2 .4 2.5 1.1.6.7.8 1.6.8 2.8v.8h-5.4c0 .8.2 1.5.6 2.1.4.5.9.8 1.7.8.5 0 1-.1 1.4-.2.4-.1.7-.4 1-.6l.6 1c-.3.3-.7.5-1.2.7-.6.2-1.2.3-1.9.3zm-.3-7.6c-.5 0-1 .2-1.3.6s-.6.9-.6 1.6h3.8v-.1c0-.6-.2-1.1-.5-1.5-.3-.4-.7-.6-1.4-.6z"/></g><g id="XMLID_261_"><path id="XMLID_15_" class="st7" d="M18.7 10.7c-.3.4-.7.8-1.4 1.2-.7.4-1.5.5-2.6.5-1.3 0-2.4-.4-3.3-1.3-.9-.9-1.3-2-1.3-3.4V5.3c0-1.4.4-2.5 1.2-3.4.8-.9 1.9-1.3 3.2-1.3 1.3 0 2.3.3 3 1 .7.7 1.1 1.5 1.1 2.6h-1.5c0-.7-.2-1.3-.7-1.7-.4-.5-1.1-.7-1.9-.7-.9 0-1.6.3-2.1 1s-.8 1.5-.8 2.5v2.4c0 1 .3 1.8.8 2.5.6.7 1.3 1 2.2 1 .7 0 1.2-.1 1.6-.3.4-.2.7-.4.9-.6V7.7h-2.6V6.5h4.1v4.2z"/><path id="XMLID_515_" class="st7" d="M25.1 5.1h-.8c-.4 0-.7.1-1 .3-.3.2-.5.5-.6.8v6h-1.5V3.7h1.4l.1 1.3c.2-.4.5-.8.9-1 .4-.2.8-.4 1.2-.4h.3c.1 0 .2 0 .3.1l-.3 1.4z"/><path id="XMLID_517_" class="st7" d="M26.2 7.9c0-1.3.3-2.3 1-3.1.7-.8 1.6-1.2 2.8-1.2 1.2 0 2.1.4 2.8 1.2.7.8 1 1.8 1 3.1v.2c0 1.3-.3 2.3-1 3.1-.7.8-1.6 1.2-2.8 1.2-1.2 0-2.1-.4-2.8-1.2s-1-1.8-1-3.1v-.2zm1.6.2c0 .9.2 1.6.6 2.2.4.6.9.9 1.7.9.7 0 1.3-.3 1.7-.9.4-.6.6-1.3.6-2.2v-.2c0-.9-.2-1.6-.6-2.2-.4-.6-.9-.9-1.7-.9-.7 0-1.3.3-1.7.9-.4.6-.6 1.3-.6 2.2v.2z"/><path id="XMLID_520_" class="st7" d="M37.8 9.1l.2 1.1.2-1.1L40 3.7h1.2l1.7 5.4.2 1.2.3-1.2 1.3-5.4h1.6l-2.5 8.5h-1.2L40.9 7l-.3-1.3-.3 1.3-1.6 5.1h-1.2L35 3.6h1.6l1.2 5.5z"/><path id="XMLID_522_" class="st7" d="M49.9 1.7v2h1.6v1.1h-1.6V10c0 .4.1.7.2.8.2.2.4.2.7.2h.3s.2 0 .3-.1l.2 1.1c-.1.1-.3.2-.5.2-.2.1-.4.1-.7.1-.6 0-1.1-.2-1.5-.6-.4-.4-.6-1-.6-1.8v-5H47V3.7h1.3v-2h1.6z"/><path id="XMLID_524_" class="st7" d="M54.7 4.9c.3-.4.6-.7 1.1-.9.4-.2.9-.3 1.4-.3.9 0 1.6.3 2.1.8s.8 1.4.8 2.5v5.3h-1.5V6.9c0-.7-.1-1.2-.4-1.5-.3-.3-.7-.5-1.3-.5-.5 0-.9.1-1.2.3-.3.2-.6.4-.8.8v6.3h-1.5V0h1.5v4.9z"/><path id="XMLID_526_" class="st7" d="M75.1 12.2h-1.5v-5H68v5h-1.5V.8H68V6h5.5V.8H75v11.4z"/><path id="XMLID_528_" class="st7" d="M82.7 12.2c-.1-.3-.1-.5-.1-.7 0-.2 0-.4-.1-.6-.3.4-.7.7-1.1 1s-1 .4-1.5.4c-.9 0-1.6-.2-2-.7-.5-.5-.7-1.1-.7-1.9 0-.8.3-1.4 1-1.9s1.5-.7 2.7-.7h1.7v-.7c0-.5-.2-.9-.5-1.2-.3-.3-.7-.4-1.3-.4-.5 0-.9.1-1.2.4-.3.3-.5.5-.5.9h-1.5c0-.6.3-1.2.9-1.7.6-.5 1.4-.8 2.4-.8s1.7.2 2.3.7c.6.5.9 1.2.9 2.1v5s.1.6.2.8h-1.6zm-2.5-1.1c.6 0 1.1-.1 1.5-.4.4-.3.7-.6.9-1V8.3h-1.7c-.6 0-1.1.2-1.5.5-.4.3-.6.7-.6 1.1 0 .4.1.7.4.9s.5.3 1 .3z"/><path id="XMLID_531_" class="st7" d="M89.7 11.1c.5 0 .9-.2 1.2-.5.4-.3.5-.7.5-1.2h1.4c0 .7-.3 1.4-.9 1.9-.6.6-1.4.8-2.3.8-1.2 0-2.1-.4-2.8-1.2-.6-.8-1-1.8-1-3v-.1c0-1.2.3-2.2 1-3 .6-.8 1.6-1.2 2.7-1.2.9 0 1.7.3 2.3.9.6.6.9 1.3.9 2.1h-1.4c0-.5-.2-1-.5-1.3-.3-.4-.8-.5-1.3-.5-.8 0-1.3.3-1.7.9-.3.6-.5 1.3-.5 2.1v.3c0 .8.2 1.6.5 2.1.5.7 1.1.9 1.9.9z"/><path id="XMLID_533_" class="st7" d="M97 8.3h-.8v3.9h-1.5V0h1.5v7.1h.8l2.5-3.3h1.8l-3.1 3.9 3.3 4.6h-1.8l-2.7-4z"/><path id="XMLID_535_" class="st7" d="M104.6 1.6H103V0h1.5v1.6zm0 10.6H103V3.7h1.5v8.5z"/><path id="XMLID_538_" class="st7" d="M108.3 3.7l.1 1.3c.3-.4.6-.8 1.1-1 .4-.2.9-.4 1.4-.4.9 0 1.6.3 2.1.8s.8 1.4.8 2.5v5.3h-1.5V6.9c0-.7-.1-1.3-.4-1.6-.3-.3-.7-.5-1.3-.5-.5 0-.9.1-1.2.3-.3.2-.6.5-.8.8v6.3h-1.5V3.7h1.2z"/><path id="XMLID_540_" class="st7" d="M115.7 8.1c0-1.4.3-2.5.9-3.3.6-.8 1.4-1.3 2.4-1.3.5 0 1 .1 1.4.3.4.2.7.5 1 .9l.2-1.1h1.2v8.5c0 1.1-.3 1.9-.9 2.5-.6.6-1.5.9-2.7.9-.4 0-.8-.1-1.3-.2s-.9-.3-1.2-.5l.2-1.2c.3.2.7.3 1.1.4.4.1.8.1 1.2.1.8 0 1.3-.2 1.6-.5.3-.3.5-.9.5-1.6v-1c-.3.4-.6.6-1 .8-.4.2-.8.3-1.3.3-1 0-1.8-.4-2.4-1.1-.6-.7-.9-1.7-.9-2.9zm1.6.2c0 .8.2 1.5.5 2s.9.8 1.6.8c.5 0 .9-.1 1.2-.3s.6-.5.8-.9V6c-.2-.4-.5-.6-.8-.9-.3-.2-.7-.3-1.1-.3-.7 0-1.3.3-1.6.9s-.5 1.4-.5 2.4v.2z"/><path id="XMLID_543_" class="st7" d="M128.5 9.1c0-.6.2-1.2.6-1.7s.9-1 1.6-1.4c-.4-.5-.7-1-.9-1.4-.2-.4-.3-.8-.3-1.2 0-.9.3-1.6.8-2s1.2-.7 2.1-.7c.8 0 1.5.2 2 .7.5.5.8 1 .8 1.7 0 .5-.1 1-.4 1.3-.3.4-.7.8-1.2 1.1l-.9.6 2.7 3.2c.2-.3.4-.7.5-1.1.1-.4.2-.8.2-1.3h1.4c0 .7-.1 1.3-.3 1.9-.2.6-.5 1.1-.9 1.6l1.4 1.7h-1.8l-.7-.8c-.4.3-.9.6-1.4.7-.5.2-1 .2-1.6.2-1.1 0-2-.3-2.7-.9-.7-.4-1-1.2-1-2.2zm3.7 2c.4 0 .7-.1 1.1-.2.4-.1.7-.3 1-.6L131.5 7l-.3.2c-.5.4-.8.7-.9 1-.2.3-.2.6-.2.9 0 .6.2 1.1.6 1.5.2.4.8.5 1.5.5zM131 3.4c0 .3.1.6.2.9.1.3.4.6.6 1l1.1-.7c.3-.2.5-.4.6-.6.1-.2.2-.5.2-.8 0-.3-.1-.6-.4-.8-.3-.2-.6-.4-1-.4s-.7.1-1 .4c-.2.2-.3.6-.3 1z"/><path id="XMLID_547_" class="st7" d="M149.4 6.9h-4.7V11h5.5v1.2h-7V.8h6.9V2h-5.4v3.7h4.7v1.2z"/><path id="XMLID_549_" class="st7" d="M154.7 6.9l1.8-3.1h1.8L155.6 8l2.8 4.3h-1.8L154.8 9l-1.9 3.2h-1.8l2.8-4.3-2.7-4.2h1.8l1.7 3.2z"/><path id="XMLID_551_" class="st7" d="M167.1 8.3c0 1.2-.3 2.2-.9 2.9-.6.7-1.4 1.1-2.4 1.1-.5 0-1-.1-1.4-.3-.4-.2-.7-.4-1-.8v4.1h-1.5V3.7h1.2l.2 1.1c.3-.4.6-.7 1-.9.4-.2.9-.3 1.4-.3 1 0 1.9.4 2.4 1.2.6.8.9 1.9.9 3.3v.2zm-1.5-.2c0-1-.2-1.7-.6-2.4-.4-.6-.9-.9-1.7-.9-.4 0-.8.1-1.1.3-.3.2-.6.5-.8.8V10c.2.3.4.6.8.8s.7.3 1.1.3c.7 0 1.3-.3 1.7-.8.4-.5.6-1.2.6-2.1v-.1z"/><path id="XMLID_554_" class="st7" d="M172.5 12.4c-1.2 0-2.2-.4-2.8-1.2-.7-.8-1-1.8-1-3.1v-.3c0-1.2.4-2.2 1.1-3 .7-.8 1.6-1.2 2.6-1.2 1.1 0 2 .4 2.5 1.1.6.7.8 1.6.8 2.8v.8h-5.4c0 .8.2 1.5.6 2.1.4.5.9.8 1.7.8.5 0 1-.1 1.4-.2.4-.1.7-.4 1-.6l.6 1c-.3.3-.7.5-1.2.7-.6.2-1.2.3-1.9.3zm-.2-7.6c-.5 0-1 .2-1.3.6s-.6.9-.6 1.6h3.8v-.1c0-.6-.2-1.1-.5-1.5-.3-.4-.8-.6-1.4-.6z"/><path id="XMLID_557_" class="st7" d="M181.4 5.1h-.8c-.4 0-.7.1-1 .3-.3.2-.5.5-.6.8v6h-1.5V3.7h1.4l.1 1.2c.2-.4.5-.8.9-1 .4-.2.8-.4 1.2-.4h.3c.1 0 .2 0 .3.1l-.3 1.5z"/><path id="XMLID_559_" class="st7" d="M184.6 1.6h-1.5V0h1.5v1.6zm0 10.6h-1.5V3.7h1.5v8.5z"/><path id="XMLID_562_" class="st7" d="M188.4 3.7l.1 1.1c.3-.4.6-.7 1.1-.9.4-.2.9-.3 1.5-.3s1 .1 1.4.4c.4.3.7.7.9 1.2.3-.5.6-.9 1.1-1.1.4-.3.9-.4 1.5-.4.9 0 1.5.3 2 .9.5.6.8 1.5.8 2.7v5.1h-1.5V7.1c0-.8-.1-1.4-.4-1.8-.3-.3-.7-.5-1.3-.5-.5 0-1 .2-1.3.5-.3.4-.5.8-.6 1.4v5.5h-1.5V7.1c0-.8-.1-1.4-.4-1.7-.3-.4-.7-.6-1.3-.6-.5 0-.9.1-1.2.3-.3.2-.5.5-.7.8v6.3H187V3.7h1.4z"/><path id="XMLID_564_" class="st7" d="M204.5 12.4c-1.2 0-2.2-.4-2.8-1.2-.7-.8-1-1.8-1-3.1v-.3c0-1.2.4-2.2 1.1-3 .7-.8 1.6-1.2 2.6-1.2 1.1 0 2 .4 2.5 1.1.6.7.8 1.6.8 2.8v.8h-5.4c0 .8.2 1.5.6 2.1.4.5.9.8 1.7.8.5 0 1-.1 1.4-.2.4-.1.7-.4 1-.6l.6 1c-.3.3-.7.5-1.2.7-.6.2-1.2.3-1.9.3zm-.3-7.6c-.5 0-1 .2-1.3.6s-.6.9-.6 1.6h3.8v-.1c0-.6-.2-1.1-.5-1.5-.3-.4-.7-.6-1.4-.6z"/><path id="XMLID_567_" class="st7" d="M210.7 3.7l.1 1.3c.3-.4.6-.8 1.1-1 .4-.2.9-.4 1.4-.4.9 0 1.6.3 2.1.8s.8 1.4.8 2.5v5.3h-1.5V6.9c0-.7-.1-1.3-.4-1.6-.3-.3-.7-.5-1.3-.5-.5 0-.9.1-1.2.3-.3.2-.6.5-.8.8v6.3h-1.5V3.7h1.2z"/><path id="XMLID_569_" class="st7" d="M220.6 1.7v2h1.6v1.1h-1.6V10c0 .4.1.7.2.8.2.2.4.2.7.2h.3s.2 0 .3-.1l.2 1.1c-.1.1-.3.2-.5.2-.2.1-.4.1-.7.1-.6 0-1.1-.2-1.5-.6-.4-.4-.6-1-.6-1.8v-5h-1.3V3.7h1.3v-2h1.6z"/><path id="XMLID_571_" class="st7" d="M225.5 1.6H224V0h1.5v1.6zm0 10.6H224V3.7h1.5v8.5z"/><path id="XMLID_574_" class="st7" d="M229.3 3.7l.1 1.3c.3-.4.6-.8 1.1-1 .4-.2.9-.4 1.4-.4.9 0 1.6.3 2.1.8s.8 1.4.8 2.5v5.3h-1.5V6.9c0-.7-.1-1.3-.4-1.6-.3-.3-.7-.5-1.3-.5-.5 0-.9.1-1.2.3-.3.2-.6.5-.8.8v6.3h-1.5V3.7h1.2z"/><path id="XMLID_576_" class="st7" d="M236.7 8.1c0-1.4.3-2.5.9-3.3.6-.8 1.4-1.3 2.4-1.3.5 0 1 .1 1.4.3.4.2.7.5 1 .9l.2-1.1h1.2v8.5c0 1.1-.3 1.9-.9 2.5-.6.6-1.5.9-2.7.9-.4 0-.8-.1-1.3-.2s-.9-.3-1.2-.5l.2-1.2c.3.2.7.3 1.1.4.4.1.8.1 1.2.1.8 0 1.3-.2 1.6-.5.3-.3.5-.9.5-1.6v-1c-.3.4-.6.6-1 .8-.4.2-.8.3-1.3.3-1 0-1.8-.4-2.4-1.1-.6-.7-.9-1.7-.9-2.9zm1.5.2c0 .8.2 1.5.5 2s.9.8 1.6.8c.5 0 .9-.1 1.2-.3s.6-.5.8-.9V6c-.2-.4-.5-.6-.8-.9-.3-.2-.7-.3-1.1-.3-.7 0-1.3.3-1.6.9s-.5 1.4-.5 2.4v.2z"/></g><g id="XMLID_256_"><path id="XMLID_14_" class="st7" d="M68.3 94.3V82.9h3.6c1.5 0 2.7.5 3.6 1.4.9.9 1.4 2.1 1.4 3.5v1.6c0 1.5-.5 2.6-1.4 3.5-.9.9-2.1 1.4-3.6 1.4h-3.6zm1.6-10.2v9h2c1.1 0 1.9-.3 2.5-1 .6-.7.9-1.6.9-2.7v-1.6c0-1.1-.3-2-.9-2.6-.6-.7-1.4-1-2.5-1h-2z"/><path id="XMLID_435_" class="st7" d="M82.5 94.4c-1.2 0-2.2-.4-2.8-1.2-.7-.8-1-1.8-1-3.1v-.3c0-1.2.4-2.2 1.1-3 .7-.8 1.6-1.2 2.6-1.2 1.1 0 2 .4 2.5 1.1.6.7.8 1.6.8 2.8v.8h-5.4c0 .8.2 1.5.6 2.1.4.5.9.8 1.7.8.5 0 1-.1 1.4-.2.4-.1.7-.4 1-.6l.6 1c-.3.3-.7.5-1.2.7-.6.2-1.2.3-1.9.3zm-.3-7.5c-.5 0-1 .2-1.3.6s-.6.9-.6 1.6h3.8V89c0-.6-.2-1.1-.5-1.5-.3-.4-.7-.6-1.4-.6z"/><path id="XMLID_438_" class="st7" d="M90.1 91.8l.1.6.1-.6 1.9-6h1.6l-3.1 8.5h-1.2l-3.1-8.5H88l2.1 6z"/><path id="XMLID_440_" class="st7" d="M98.7 94.4c-1.2 0-2.2-.4-2.8-1.2-.7-.8-1-1.8-1-3.1v-.3c0-1.2.4-2.2 1.1-3 .7-.8 1.6-1.2 2.6-1.2 1.1 0 2 .4 2.5 1.1.6.7.8 1.6.8 2.8v.8h-5.4c0 .8.2 1.5.6 2.1.4.5.9.8 1.7.8.5 0 1-.1 1.4-.2.4-.1.7-.4 1-.6l.6 1c-.3.3-.7.5-1.2.7-.6.2-1.2.3-1.9.3zm-.3-7.5c-.5 0-1 .2-1.3.6s-.6.9-.6 1.6h3.8V89c0-.6-.2-1.1-.5-1.5-.3-.4-.7-.6-1.4-.6z"/><path id="XMLID_443_" class="st7" d="M105.2 94.3h-1.5V82.1h1.5v12.2z"/><path id="XMLID_445_" class="st7" d="M107.2 90c0-1.3.3-2.3 1-3.1.7-.8 1.6-1.2 2.8-1.2 1.2 0 2.1.4 2.8 1.2.7.8 1 1.8 1 3.1v.2c0 1.3-.3 2.3-1 3.1-.7.8-1.6 1.2-2.8 1.2-1.2 0-2.1-.4-2.8-1.2s-1-1.8-1-3.1V90zm1.6.2c0 .9.2 1.6.6 2.2.4.6.9.9 1.7.9.7 0 1.3-.3 1.7-.9.4-.6.6-1.3.6-2.2V90c0-.9-.2-1.6-.6-2.2-.4-.6-.9-.9-1.7-.9-.7 0-1.3.3-1.7.9-.4.6-.6 1.3-.6 2.2v.2z"/><path id="XMLID_448_" class="st7" d="M123.9 90.4c0 1.2-.3 2.2-.9 2.9-.6.7-1.4 1.1-2.4 1.1-.5 0-1-.1-1.4-.3-.4-.2-.7-.4-1-.8v4.1h-1.5V85.8h1.2l.2 1.1c.3-.4.6-.7 1-.9.4-.2.9-.3 1.4-.3 1 0 1.9.4 2.4 1.2.6.8.9 1.9.9 3.3v.2zm-1.6-.2c0-1-.2-1.7-.6-2.4-.4-.6-.9-.9-1.7-.9-.4 0-.8.1-1.1.3-.3.2-.6.5-.8.8v4.1c.2.3.4.6.8.8s.7.3 1.1.3c.7 0 1.3-.3 1.7-.8.4-.5.6-1.2.6-2.1v-.1z"/><path id="XMLID_451_" class="st7" d="M127.4 83.7h-1.5v-1.6h1.5v1.6zm0 10.6h-1.5v-8.5h1.5v8.5z"/><path id="XMLID_454_" class="st7" d="M131.2 85.8l.1 1.3c.3-.4.6-.8 1.1-1 .4-.2.9-.4 1.4-.4.9 0 1.6.3 2.1.8s.8 1.4.8 2.5v5.3h-1.5V89c0-.7-.1-1.3-.4-1.6-.3-.3-.7-.5-1.3-.5-.5 0-.9.1-1.2.3-.3.2-.6.5-.8.8v6.3H130v-8.5h1.2z"/><path id="XMLID_456_" class="st7" d="M138.6 90.2c0-1.4.3-2.5.9-3.3.6-.8 1.4-1.3 2.4-1.3.5 0 1 .1 1.4.3.4.2.7.5 1 .9l.2-1.1h1.2v8.5c0 1.1-.3 1.9-.9 2.5-.6.6-1.5.9-2.7.9-.4 0-.8-.1-1.3-.2s-.9-.3-1.2-.5l.2-1.2c.3.2.7.3 1.1.4.4.1.8.1 1.2.1.8 0 1.3-.2 1.6-.5.3-.3.5-.9.5-1.6v-1c-.3.4-.6.6-1 .8-.4.2-.8.3-1.3.3-1 0-1.8-.4-2.4-1.1-.6-.7-.9-1.7-.9-2.9zm1.6.2c0 .8.2 1.5.5 2s.9.8 1.6.8c.5 0 .9-.1 1.2-.3s.6-.5.8-.9v-3.9c-.2-.4-.5-.6-.8-.9-.3-.2-.7-.3-1.1-.3-.7 0-1.3.3-1.6.9s-.5 1.4-.5 2.4v.2z"/><path id="XMLID_459_" class="st7" d="M154.1 83.8v2h1.6V87h-1.6v5.1c0 .4.1.7.2.8.2.2.4.2.7.2h.3s.2 0 .3-.1l.2 1.1c-.1.1-.3.2-.5.2-.2.1-.4.1-.7.1-.6 0-1.1-.2-1.5-.6-.4-.4-.6-1-.6-1.8v-5h-1.3v-1.1h1.3v-2h1.6z"/><path id="XMLID_461_" class="st7" d="M158.9 87c.3-.4.6-.7 1.1-.9.4-.2.9-.3 1.4-.3.9 0 1.6.3 2.1.8s.8 1.4.8 2.5v5.3h-1.5V89c0-.7-.1-1.2-.4-1.5-.3-.3-.7-.5-1.3-.5-.5 0-.9.1-1.2.3-.3.2-.6.4-.8.8v6.3h-1.5V82.1h1.5V87z"/><path id="XMLID_463_" class="st7" d="M170 94.4c-1.2 0-2.2-.4-2.8-1.2-.7-.8-1-1.8-1-3.1v-.3c0-1.2.4-2.2 1.1-3 .7-.8 1.6-1.2 2.6-1.2 1.1 0 2 .4 2.5 1.1.6.7.8 1.6.8 2.8v.8h-5.4c0 .8.2 1.5.6 2.1.4.5.9.8 1.7.8.5 0 1-.1 1.4-.2.4-.1.7-.4 1-.6l.6 1c-.3.3-.7.5-1.2.7-.6.2-1.2.3-1.9.3zm-.3-7.5c-.5 0-1 .2-1.3.6s-.6.9-.6 1.6h3.8V89c0-.6-.2-1.1-.5-1.5-.3-.4-.8-.6-1.4-.6z"/><path id="XMLID_466_" class="st7" d="M185.2 89h-4.7v4.1h5.5v1.2h-7V82.9h6.9v1.2h-5.4v3.7h4.7V89z"/><path id="XMLID_468_" class="st7" d="M189 85.8l.1 1.3c.3-.4.6-.8 1.1-1 .4-.2.9-.4 1.4-.4.9 0 1.6.3 2.1.8s.8 1.4.8 2.5v5.3H193V89c0-.7-.1-1.3-.4-1.6-.3-.3-.7-.5-1.3-.5-.5 0-.9.1-1.2.3-.3.2-.6.5-.8.8v6.3h-1.5v-8.5h1.2z"/><path id="XMLID_470_" class="st7" d="M198.3 87c.3-.4.6-.7 1.1-.9.4-.2.9-.3 1.4-.3.9 0 1.6.3 2.1.8s.8 1.4.8 2.5v5.3h-1.5V89c0-.7-.1-1.2-.4-1.5-.3-.3-.7-.5-1.3-.5-.5 0-.9.1-1.2.3-.3.2-.6.4-.8.8v6.3H197V82.1h1.5V87z"/><path id="XMLID_472_" class="st7" d="M211 94.3c-.1-.3-.1-.5-.1-.7 0-.2 0-.4-.1-.6-.3.4-.7.7-1.1 1s-1 .4-1.5.4c-.9 0-1.6-.2-2-.7-.5-.5-.7-1.1-.7-1.9 0-.8.3-1.4 1-1.9s1.5-.7 2.7-.7h1.7v-.8c0-.5-.2-.9-.5-1.2-.3-.3-.7-.4-1.3-.4-.5 0-.9.1-1.2.4-.3.3-.5.5-.5.9h-1.5c0-.6.3-1.2.9-1.7.6-.5 1.4-.8 2.4-.8s1.7.2 2.3.7c.6.5.9 1.2.9 2.1v5s.1.6.2.8H211zm-2.5-1.1c.6 0 1.1-.1 1.5-.4.4-.3.7-.6.9-1v-1.4h-1.7c-.6 0-1.1.2-1.5.5-.4.3-.6.7-.6 1.1 0 .4.1.7.4.9s.5.3 1 .3z"/><path id="XMLID_475_" class="st7" d="M216 85.8l.1 1.3c.3-.4.6-.8 1.1-1 .4-.2.9-.4 1.4-.4.9 0 1.6.3 2.1.8s.8 1.4.8 2.5v5.3H220V89c0-.7-.1-1.3-.4-1.6-.3-.3-.7-.5-1.3-.5-.5 0-.9.1-1.2.3-.3.2-.6.5-.8.8v6.3h-1.5v-8.5h1.2z"/><path id="XMLID_477_" class="st7" d="M227.1 93.2c.5 0 .9-.2 1.2-.5.4-.3.5-.7.5-1.2h1.4c0 .7-.3 1.4-.9 1.9-.6.6-1.4.8-2.3.8-1.2 0-2.1-.4-2.8-1.2-.6-.8-1-1.8-1-3v-.3c0-1.2.3-2.2 1-3 .6-.8 1.6-1.2 2.7-1.2.9 0 1.7.3 2.3.9.6.6.9 1.3.9 2.1h-1.4c0-.5-.2-1-.5-1.3-.3-.4-.8-.5-1.3-.5-.8 0-1.3.3-1.7.9-.3.6-.5 1.3-.5 2.1v.3c0 .8.2 1.6.5 2.1.6.9 1.1 1.1 1.9 1.1z"/><path id="XMLID_479_" class="st7" d="M235.6 94.4c-1.2 0-2.2-.4-2.8-1.2-.7-.8-1-1.8-1-3.1v-.3c0-1.2.4-2.2 1.1-3 .7-.8 1.6-1.2 2.6-1.2 1.1 0 2 .4 2.5 1.1.6.7.8 1.6.8 2.8v.8h-5.4c0 .8.2 1.5.6 2.1.4.5.9.8 1.7.8.5 0 1-.1 1.4-.2.4-.1.7-.4 1-.6l.6 1c-.3.3-.7.5-1.2.7-.6.2-1.2.3-1.9.3zm-.3-7.5c-.5 0-1 .2-1.3.6s-.6.9-.6 1.6h3.8V89c0-.6-.2-1.1-.5-1.5-.3-.4-.7-.6-1.4-.6z"/><path id="XMLID_482_" class="st7" d="M244.5 87.2h-.8c-.4 0-.7.1-1 .3-.3.2-.5.5-.6.8v6h-1.5v-8.5h1.4l.1 1.2c.2-.4.5-.8.9-1 .4-.2.8-.4 1.2-.4h.3c.1 0 .2 0 .3.1l-.3 1.5z"/><path id="XMLID_484_" class="st7" d="M157.1 103v2h1.6v1.1h-1.6v5.1c0 .4.1.7.2.8.2.2.4.2.7.2h.3s.2 0 .3-.1l.2 1.1c-.1.1-.3.2-.5.2-.2.1-.4.1-.7.1-.6 0-1.1-.2-1.5-.6-.4-.4-.6-1-.6-1.8V106h-1.3v-1h1.3v-2h1.6z"/><path id="XMLID_486_" class="st7" d="M160 109.2c0-1.3.3-2.3 1-3.1.7-.8 1.6-1.2 2.8-1.2 1.2 0 2.1.4 2.8 1.2.7.8 1 1.8 1 3.1v.2c0 1.3-.3 2.3-1 3.1-.7.8-1.6 1.2-2.8 1.2-1.2 0-2.1-.4-2.8-1.2s-1-1.8-1-3.1v-.2zm1.6.2c0 .9.2 1.6.6 2.2.4.6.9.9 1.7.9.7 0 1.3-.3 1.7-.9.4-.6.6-1.3.6-2.2v-.2c0-.9-.2-1.6-.6-2.2-.4-.6-.9-.9-1.7-.9-.7 0-1.3.3-1.7.9-.4.6-.6 1.3-.6 2.2v.2z"/><path id="XMLID_489_" class="st7" d="M180.6 109.6c0 1.2-.3 2.2-.9 2.9-.6.7-1.4 1.1-2.4 1.1-.5 0-1-.1-1.4-.3-.4-.2-.7-.4-1-.8v4.1h-1.5V105h1.2l.2 1.1c.3-.4.6-.7 1-.9.4-.2.9-.3 1.4-.3 1 0 1.9.4 2.4 1.2.6.8.9 1.9.9 3.3v.2zm-1.5-.2c0-1-.2-1.7-.6-2.4-.4-.6-.9-.9-1.7-.9-.4 0-.8.1-1.1.3-.3.2-.6.5-.8.8v4.1c.2.3.4.6.8.8s.7.3 1.1.3c.7 0 1.3-.3 1.7-.8.4-.5.6-1.2.6-2.1v-.1z"/><path id="XMLID_492_" class="st7" d="M186 113.6c-1.2 0-2.2-.4-2.8-1.2-.7-.8-1-1.8-1-3.1v-.3c0-1.2.4-2.2 1.1-3 .7-.8 1.6-1.2 2.6-1.2 1.1 0 2 .4 2.5 1.1.6.7.8 1.6.8 2.8v.8h-5.4c0 .8.2 1.5.6 2.1.4.5.9.8 1.7.8.5 0 1-.1 1.4-.2.4-.1.7-.4 1-.6l.6 1c-.3.3-.7.5-1.2.7-.6.2-1.2.3-1.9.3zm-.2-7.5c-.5 0-1 .2-1.3.6s-.6.9-.6 1.6h3.8v-.1c0-.6-.2-1.1-.5-1.5-.3-.4-.8-.6-1.4-.6z"/><path id="XMLID_495_" class="st7" d="M194.9 106.4h-.8c-.4 0-.7.1-1 .3-.3.2-.5.5-.6.8v6H191V105h1.4l.1 1.2c.2-.4.5-.8.9-1 .4-.2.8-.4 1.2-.4h.3c.1 0 .2 0 .3.1l-.3 1.5z"/><path id="XMLID_497_" class="st7" d="M197.3 113.5v-7.3H196V105h1.3v-1c0-.9.2-1.6.7-2.1.5-.5 1.1-.7 2-.7h.5c.2 0 .4.1.6.1l-.2 1.2c-.1 0-.2 0-.3-.1s-.3 0-.4 0c-.4 0-.8.1-1 .4-.2.3-.3.7-.3 1.2v1.1h1.5v1.1h-1.5v7.3h-1.6z"/><path id="XMLID_499_" class="st7" d="M205.2 113.6c-1.2 0-2.2-.4-2.8-1.2-.7-.8-1-1.8-1-3.1v-.3c0-1.2.4-2.2 1.1-3 .7-.8 1.6-1.2 2.6-1.2 1.1 0 2 .4 2.5 1.1.6.7.8 1.6.8 2.8v.8H203c0 .8.2 1.5.6 2.1.4.5.9.8 1.7.8.5 0 1-.1 1.4-.2.4-.1.7-.4 1-.6l.6 1c-.3.3-.7.5-1.2.7-.6.2-1.2.3-1.9.3zm-.2-7.5c-.5 0-1 .2-1.3.6s-.6.9-.6 1.6h3.8v-.1c0-.6-.2-1.1-.5-1.5-.3-.4-.8-.6-1.4-.6z"/><path id="XMLID_502_" class="st7" d="M213.4 112.4c.5 0 .9-.2 1.2-.5.4-.3.5-.7.5-1.2h1.4c0 .7-.3 1.4-.9 1.9-.6.6-1.4.8-2.3.8-1.2 0-2.1-.4-2.8-1.2-.6-.8-1-1.8-1-3v-.3c0-1.2.3-2.2 1-3 .6-.8 1.6-1.2 2.7-1.2.9 0 1.7.3 2.3.9.6.6.9 1.3.9 2.1H215c0-.5-.2-1-.5-1.3-.3-.4-.8-.5-1.3-.5-.8 0-1.3.3-1.7.9-.3.6-.5 1.3-.5 2.1v.3c0 .8.2 1.6.5 2.1.6.9 1.2 1.1 1.9 1.1z"/><path id="XMLID_504_" class="st7" d="M220.6 103v2h1.6v1.1h-1.6v5.1c0 .4.1.7.2.8.2.2.4.2.7.2h.3s.2 0 .3-.1l.2 1.1c-.1.1-.3.2-.5.2-.2.1-.4.1-.7.1-.6 0-1.1-.2-1.5-.6-.4-.4-.6-1-.6-1.8V106h-1.3v-1h1.3v-2h1.6z"/><path id="XMLID_506_" class="st7" d="M225.5 102.9H224v-1.6h1.5v1.6zm0 10.6H224V105h1.5v8.5z"/><path id="XMLID_509_" class="st7" d="M227.5 109.2c0-1.3.3-2.3 1-3.1.7-.8 1.6-1.2 2.8-1.2 1.2 0 2.1.4 2.8 1.2.7.8 1 1.8 1 3.1v.2c0 1.3-.3 2.3-1 3.1-.7.8-1.6 1.2-2.8 1.2-1.2 0-2.1-.4-2.8-1.2s-1-1.8-1-3.1v-.2zm1.6.2c0 .9.2 1.6.6 2.2.4.6.9.9 1.7.9.7 0 1.3-.3 1.7-.9.4-.6.6-1.3.6-2.2v-.2c0-.9-.2-1.6-.6-2.2-.4-.6-.9-.9-1.7-.9-.7 0-1.3.3-1.7.9-.4.6-.6 1.3-.6 2.2v.2z"/><path id="XMLID_512_" class="st7" d="M238.3 105l.1 1.3c.3-.4.6-.8 1.1-1 .4-.2.9-.4 1.4-.4.9 0 1.6.3 2.1.8s.8 1.4.8 2.5v5.3h-1.5v-5.3c0-.7-.1-1.3-.4-1.6-.3-.3-.7-.5-1.3-.5-.5 0-.9.1-1.2.3-.3.2-.6.5-.8.8v6.3H237V105h1.3z"/></g><g id="XMLID_248_"><path id="XMLID_12_" class="st7" d="M10.7 183.8H7V194H5.5v-10.2H1.8v-1.2h9v1.2z"/><path id="XMLID_364_" class="st7" d="M15.6 186.9h-.8c-.4 0-.7.1-1 .3-.3.2-.5.5-.6.8v6h-1.5v-8.5h1.4l.1 1.2c.2-.4.5-.8.9-1s.8-.4 1.2-.4h.3c.1 0 .2 0 .3.1l-.3 1.5z"/><path id="XMLID_366_" class="st7" d="M22.4 194c-.1-.3-.1-.5-.1-.7 0-.2 0-.4-.1-.6-.3.4-.7.7-1.1 1s-1 .4-1.5.4c-.9 0-1.6-.2-2-.7s-.7-1.1-.7-1.9c0-.8.3-1.4 1-1.9s1.5-.7 2.7-.7h1.7v-.8c0-.5-.2-.9-.5-1.2-.3-.3-.7-.4-1.3-.4-.5 0-.9.1-1.2.4-.3.3-.5.5-.5.9h-1.5c0-.6.3-1.2.9-1.7.6-.5 1.4-.8 2.4-.8s1.7.2 2.3.7c.6.5.9 1.2.9 2.1v5s.1.6.2.8h-1.6zm-2.6-1.1c.6 0 1.1-.1 1.5-.4.4-.3.7-.6.9-1v-1.4h-1.7c-.6 0-1.1.2-1.5.5-.4.3-.6.7-.6 1.1 0 .4.1.7.4.9s.6.3 1 .3z"/><path id="XMLID_369_" class="st7" d="M29.3 193c.5 0 .9-.2 1.2-.5.4-.3.5-.7.5-1.2h1.4c0 .7-.3 1.4-.9 1.9-.6.6-1.4.8-2.3.8-1.2 0-2.1-.4-2.8-1.2-.6-.8-1-1.8-1-3v-.3c0-1.2.3-2.2 1-3s1.6-1.2 2.7-1.2c.9 0 1.7.3 2.3.9s.9 1.3.9 2.1h-1.4c0-.5-.2-1-.5-1.3s-.8-.5-1.3-.5c-.8 0-1.3.3-1.7.9-.3.6-.5 1.3-.5 2.1v.3c0 .8.2 1.6.5 2.1.6.8 1.2 1.1 1.9 1.1z"/><path id="XMLID_371_" class="st7" d="M36.7 190.1h-.8v3.9h-1.5v-12.2h1.5v7.1h.8l2.5-3.3H41l-3.1 3.9 3.3 4.6h-1.8l-2.7-4z"/><path id="XMLID_373_" class="st7" d="M44.2 183.4h-1.5v-1.6h1.5v1.6zm0 10.6h-1.5v-8.5h1.5v8.5z"/><path id="XMLID_376_" class="st7" d="M47.9 185.6l.1 1.3c.3-.4.6-.8 1.1-1 .4-.2.9-.4 1.4-.4.9 0 1.6.3 2.1.8s.8 1.4.8 2.5v5.3h-1.5v-5.3c0-.7-.1-1.3-.4-1.6-.3-.3-.7-.5-1.3-.5-.5 0-.9.1-1.2.3-.3.2-.6.5-.8.8v6.3h-1.5v-8.5h1.2z"/><path id="XMLID_378_" class="st7" d="M55.4 189.9c0-1.4.3-2.5.9-3.3.6-.8 1.4-1.3 2.4-1.3.5 0 1 .1 1.4.3s.7.5 1 .9l.2-1.1h1.2v8.5c0 1.1-.3 1.9-.9 2.5-.6.6-1.5.9-2.7.9-.4 0-.8-.1-1.3-.2s-.9-.3-1.2-.5l.2-1.2c.3.2.7.3 1.1.4.4.1.8.1 1.2.1.8 0 1.3-.2 1.6-.5.3-.3.5-.9.5-1.6v-1c-.3.4-.6.6-1 .8-.4.2-.8.3-1.3.3-1 0-1.8-.4-2.4-1.1-.6-.7-.9-1.7-.9-2.9zm1.5.2c0 .8.2 1.5.5 2s.9.8 1.6.8c.5 0 .9-.1 1.2-.3s.6-.5.8-.9v-3.9c-.2-.4-.5-.6-.8-.9-.3-.2-.7-.3-1.1-.3-.7 0-1.3.3-1.6.9s-.5 1.4-.5 2.4v.2z"/><path id="XMLID_381_" class="st7" d="M66.1 193.6l-1.2 2.4H64l.5-2.5v-1.3H66v1.4z"/><path id="XMLID_383_" class="st7" d="M77.7 191.9l3.7-9.2h1.9V194h-1.5v-8.5l-3.4 8.5h-1.1l-3.5-8.8v8.8h-1.5v-11.4h2l3.4 9.3z"/><path id="XMLID_385_" class="st7" d="M89.3 194.2c-1.2 0-2.2-.4-2.8-1.2s-1-1.8-1-3.1v-.3c0-1.2.4-2.2 1.1-3 .7-.8 1.6-1.2 2.6-1.2 1.1 0 2 .4 2.5 1.1.6.7.8 1.6.8 2.8v.8H87c0 .8.2 1.5.6 2.1s.9.8 1.7.8c.5 0 1-.1 1.4-.2.4-.1.7-.4 1-.6l.6 1c-.3.3-.7.5-1.2.7-.5.2-1.1.3-1.8.3zm-.2-7.6c-.5 0-1 .2-1.3.6s-.6.9-.6 1.6H91v-.1c0-.6-.2-1.1-.5-1.5-.4-.4-.8-.6-1.4-.6z"/><path id="XMLID_388_" class="st7" d="M99.4 194c-.1-.3-.1-.5-.1-.7 0-.2 0-.4-.1-.6-.3.4-.7.7-1.1 1s-1 .4-1.5.4c-.9 0-1.6-.2-2-.7s-.7-1.1-.7-1.9c0-.8.3-1.4 1-1.9s1.5-.7 2.7-.7h1.7v-.8c0-.5-.2-.9-.5-1.2-.3-.3-.7-.4-1.3-.4-.5 0-.9.1-1.2.4-.3.3-.5.5-.5.9h-1.5c0-.6.3-1.2.9-1.7.6-.5 1.4-.8 2.4-.8s1.7.2 2.3.7c.6.5.9 1.2.9 2.1v5s.1.6.2.8h-1.6zm-2.6-1.1c.6 0 1.1-.1 1.5-.4.4-.3.7-.6.9-1v-1.4h-1.7c-.6 0-1.1.2-1.5.5-.4.3-.6.7-.6 1.1 0 .4.1.7.4.9s.6.3 1 .3z"/><path id="XMLID_391_" class="st7" d="M107.9 191.7c0-.3-.1-.6-.4-.8s-.7-.4-1.5-.6c-1-.2-1.8-.5-2.3-.9-.5-.4-.8-.9-.8-1.5 0-.7.3-1.3.9-1.8s1.3-.7 2.3-.7c1 0 1.7.3 2.3.8s.9 1.1.9 1.8h-1.5c0-.4-.2-.7-.5-1s-.7-.4-1.2-.4-.9.1-1.2.4c-.3.2-.4.5-.4.9 0 .3.1.6.3.8.2.2.7.3 1.4.5 1 .2 1.8.5 2.4.9.5.4.8.9.8 1.6 0 .8-.3 1.4-.9 1.8-.6.5-1.4.7-2.4.7-1.1 0-1.9-.3-2.5-.8-.6-.5-.9-1.2-.9-1.9h1.5c0 .5.2.9.6 1.2.4.3.8.4 1.3.4s1-.1 1.3-.3c.3-.4.5-.7.5-1.1z"/><path id="XMLID_393_" class="st7" d="M116.7 192.8c-.3.5-.6.8-1 1-.4.2-.9.4-1.4.4-.9 0-1.6-.3-2.2-.9s-.8-1.5-.8-2.8v-5h1.5v5c0 .9.1 1.5.4 1.9s.7.5 1.2.5 1-.1 1.4-.3c.4-.2.6-.5.8-.9v-6.1h1.5v8.5h-1.4v-1.3z"/><path id="XMLID_395_" class="st7" d="M124.4 186.9h-.8c-.4 0-.7.1-1 .3-.3.2-.5.5-.6.8v6h-1.5v-8.5h1.4l.1 1.2c.2-.4.5-.8.9-1s.8-.4 1.2-.4h.3c.1 0 .2 0 .3.1l-.3 1.5z"/><path id="XMLID_397_" class="st7" d="M127.7 183.4h-1.5v-1.6h1.5v1.6zm0 10.6h-1.5v-8.5h1.5v8.5z"/><path id="XMLID_400_" class="st7" d="M131.4 185.6l.1 1.3c.3-.4.6-.8 1.1-1 .4-.2.9-.4 1.4-.4.9 0 1.6.3 2.1.8s.8 1.4.8 2.5v5.3h-1.5v-5.3c0-.7-.1-1.3-.4-1.6-.3-.3-.7-.5-1.3-.5-.5 0-.9.1-1.2.3-.3.2-.6.5-.8.8v6.3h-1.5v-8.5h1.2z"/><path id="XMLID_402_" class="st7" d="M138.9 189.9c0-1.4.3-2.5.9-3.3.6-.8 1.4-1.3 2.4-1.3.5 0 1 .1 1.4.3s.7.5 1 .9l.2-1.1h1.2v8.5c0 1.1-.3 1.9-.9 2.5-.6.6-1.5.9-2.7.9-.4 0-.8-.1-1.3-.2s-.9-.3-1.2-.5l.2-1.2c.3.2.7.3 1.1.4.4.1.8.1 1.2.1.8 0 1.3-.2 1.6-.5.3-.3.5-.9.5-1.6v-1c-.3.4-.6.6-1 .8-.4.2-.8.3-1.3.3-1 0-1.8-.4-2.4-1.1-.6-.7-.9-1.7-.9-2.9zm1.5.2c0 .8.2 1.5.5 2s.9.8 1.6.8c.5 0 .9-.1 1.2-.3s.6-.5.8-.9v-3.9c-.2-.4-.5-.6-.8-.9-.3-.2-.7-.3-1.1-.3-.7 0-1.3.3-1.6.9s-.5 1.4-.5 2.4v.2z"/><path id="XMLID_405_" class="st7" d="M157.4 194c-.1-.3-.1-.5-.1-.7 0-.2 0-.4-.1-.6-.3.4-.7.7-1.1 1s-1 .4-1.5.4c-.9 0-1.6-.2-2-.7s-.7-1.1-.7-1.9c0-.8.3-1.4 1-1.9s1.5-.7 2.7-.7h1.7v-.8c0-.5-.2-.9-.5-1.2-.3-.3-.7-.4-1.3-.4-.5 0-.9.1-1.2.4-.3.3-.5.5-.5.9h-1.5c0-.6.3-1.2.9-1.7.6-.5 1.4-.8 2.4-.8s1.7.2 2.3.7c.6.5.9 1.2.9 2.1v5s.1.6.2.8h-1.6zm-2.5-1.1c.6 0 1.1-.1 1.5-.4.4-.3.7-.6.9-1v-1.4h-1.7c-.6 0-1.1.2-1.5.5-.4.3-.6.7-.6 1.1 0 .4.1.7.4.9s.5.3 1 .3z"/><path id="XMLID_408_" class="st7" d="M162.4 185.6l.1 1.3c.3-.4.6-.8 1.1-1 .4-.2.9-.4 1.4-.4.9 0 1.6.3 2.1.8s.8 1.4.8 2.5v5.3h-1.5v-5.3c0-.7-.1-1.3-.4-1.6-.3-.3-.7-.5-1.3-.5-.5 0-.9.1-1.2.3-.3.2-.6.5-.8.8v6.3H161v-8.5h1.4z"/><path id="XMLID_410_" class="st7" d="M169.8 189.9c0-1.4.3-2.5.9-3.3.6-.8 1.4-1.3 2.4-1.3.5 0 .9.1 1.3.3s.7.4 1 .8v-4.6h1.5V194h-1.2l-.2-1.1c-.3.4-.6.7-1 .9s-.9.3-1.4.3c-1 0-1.8-.4-2.4-1.1-.6-.7-.9-1.7-.9-2.9v-.2zm1.5.2c0 .9.2 1.5.5 2.1.3.5.9.8 1.6.8.5 0 .8-.1 1.2-.3s.6-.5.8-.9v-3.9c-.2-.3-.5-.6-.8-.8-.3-.2-.7-.3-1.1-.3-.7 0-1.3.3-1.6.9s-.5 1.4-.5 2.4z"/><path id="XMLID_413_" class="st7" d="M184.9 192.8h5.5v1.2h-7.1v-11.4h1.5v10.2z"/><path id="XMLID_415_" class="st7" d="M195.5 194.2c-1.2 0-2.2-.4-2.8-1.2s-1-1.8-1-3.1v-.3c0-1.2.4-2.2 1.1-3 .7-.8 1.6-1.2 2.6-1.2 1.1 0 2 .4 2.5 1.1.6.7.8 1.6.8 2.8v.8h-5.4c0 .8.2 1.5.6 2.1s.9.8 1.7.8c.5 0 1-.1 1.4-.2.4-.1.7-.4 1-.6l.6 1c-.3.3-.7.5-1.2.7-.6.2-1.2.3-1.9.3zm-.3-7.6c-.5 0-1 .2-1.3.6s-.6.9-.6 1.6h3.8v-.1c0-.6-.2-1.1-.5-1.5-.3-.4-.7-.6-1.4-.6z"/><path id="XMLID_418_" class="st7" d="M205.6 194c-.1-.3-.1-.5-.1-.7 0-.2 0-.4-.1-.6-.3.4-.7.7-1.1 1s-1 .4-1.5.4c-.9 0-1.6-.2-2-.7s-.7-1.1-.7-1.9c0-.8.3-1.4 1-1.9s1.5-.7 2.7-.7h1.7v-.8c0-.5-.2-.9-.5-1.2-.3-.3-.7-.4-1.3-.4-.5 0-.9.1-1.2.4-.3.3-.5.5-.5.9h-1.5c0-.6.3-1.2.9-1.7.6-.5 1.4-.8 2.4-.8s1.7.2 2.3.7c.6.5.9 1.2.9 2.1v5s.1.6.2.8h-1.6zm-2.6-1.1c.6 0 1.1-.1 1.5-.4.4-.3.7-.6.9-1v-1.4h-1.7c-.6 0-1.1.2-1.5.5-.4.3-.6.7-.6 1.1 0 .4.1.7.4.9s.5.3 1 .3z"/><path id="XMLID_421_" class="st7" d="M213.2 186.9h-.8c-.4 0-.7.1-1 .3-.3.2-.5.5-.6.8v6h-1.5v-8.5h1.4l.1 1.2c.2-.4.5-.8.9-1s.8-.4 1.2-.4h.3c.1 0 .2 0 .3.1l-.3 1.5z"/><path id="XMLID_423_" class="st7" d="M216.1 185.6l.1 1.3c.3-.4.6-.8 1.1-1 .4-.2.9-.4 1.4-.4.9 0 1.6.3 2.1.8s.8 1.4.8 2.5v5.3h-1.5v-5.3c0-.7-.1-1.3-.4-1.6-.3-.3-.7-.5-1.3-.5-.5 0-.9.1-1.2.3-.3.2-.6.5-.8.8v6.3h-1.5v-8.5h1.2z"/><path id="XMLID_425_" class="st7" d="M225.5 183.4H224v-1.6h1.5v1.6zm0 10.6H224v-8.5h1.5v8.5z"/><path id="XMLID_428_" class="st7" d="M229.3 185.6l.1 1.3c.3-.4.6-.8 1.1-1 .4-.2.9-.4 1.4-.4.9 0 1.6.3 2.1.8s.8 1.4.8 2.5v5.3h-1.5v-5.3c0-.7-.1-1.3-.4-1.6-.3-.3-.7-.5-1.3-.5-.5 0-.9.1-1.2.3-.3.2-.6.5-.8.8v6.3h-1.5v-8.5h1.2z"/><path id="XMLID_430_" class="st7" d="M236.7 189.9c0-1.4.3-2.5.9-3.3.6-.8 1.4-1.3 2.4-1.3.5 0 1 .1 1.4.3s.7.5 1 .9l.2-1.1h1.2v8.5c0 1.1-.3 1.9-.9 2.5-.6.6-1.5.9-2.7.9-.4 0-.8-.1-1.3-.2s-.9-.3-1.2-.5l.2-1.2c.3.2.7.3 1.1.4.4.1.8.1 1.2.1.8 0 1.3-.2 1.6-.5.3-.3.5-.9.5-1.6v-1c-.3.4-.6.6-1 .8-.4.2-.8.3-1.3.3-1 0-1.8-.4-2.4-1.1-.6-.7-.9-1.7-.9-2.9zm1.5.2c0 .8.2 1.5.5 2s.9.8 1.6.8c.5 0 .9-.1 1.2-.3s.6-.5.8-.9v-3.9c-.2-.4-.5-.6-.8-.9-.3-.2-.7-.3-1.1-.3-.7 0-1.3.3-1.6.9s-.5 1.4-.5 2.4v.2z"/></g><g id="XMLID_241_"><path id="XMLID_124_" class="st7" d="M36 235.6v-11.4h3.6c1.5 0 2.7.5 3.6 1.4.9.9 1.4 2.1 1.4 3.5v1.6c0 1.5-.5 2.6-1.4 3.5-.9.9-2.1 1.4-3.6 1.4H36zm1.5-10.1v9h2c1.1 0 1.9-.3 2.5-1 .6-.7.9-1.6.9-2.7v-1.6c0-1.1-.3-2-.9-2.6-.6-.7-1.4-1-2.5-1h-2z"/><path id="XMLID_197_" class="st7" d="M48.3 225h-1.5v-1.6h1.5v1.6zm0 10.6h-1.5v-8.5h1.5v8.5z"/><path id="XMLID_200_" class="st7" d="M55.6 233.4c0-.3-.1-.6-.4-.8-.3-.2-.7-.4-1.5-.6-1-.2-1.8-.5-2.3-.9-.5-.4-.8-.9-.8-1.5 0-.7.3-1.3.9-1.8.6-.5 1.3-.7 2.3-.7 1 0 1.7.3 2.3.8.6.5.9 1.1.9 1.8h-1.5c0-.4-.2-.7-.5-1s-.7-.4-1.2-.4-.9.1-1.2.4c-.3.2-.4.5-.4.9 0 .3.1.6.3.8.2.2.7.3 1.4.5 1 .2 1.8.5 2.4.9.5.4.8.9.8 1.6 0 .8-.3 1.4-.9 1.8-.6.5-1.4.7-2.4.7-1.1 0-1.9-.3-2.5-.8-.6-.5-.9-1.2-.9-1.9h1.5c0 .5.2.9.6 1.2.4.3.8.4 1.3.4s1-.1 1.3-.3c.3-.5.5-.8.5-1.1z"/><path id="XMLID_202_" class="st7" d="M62.4 234.6c.5 0 .9-.2 1.2-.5.4-.3.5-.7.5-1.2h1.4c0 .7-.3 1.4-.9 1.9-.6.6-1.4.8-2.3.8-1.2 0-2.1-.4-2.8-1.2-.6-.8-1-1.8-1-3v-.3c0-1.2.3-2.2 1-3 .6-.8 1.6-1.2 2.7-1.2.9 0 1.7.3 2.3.9.6.6.9 1.3.9 2.1H64c0-.5-.2-1-.5-1.3-.3-.4-.8-.5-1.3-.5-.8 0-1.3.3-1.7.9-.3.6-.5 1.3-.5 2.1v.3c0 .8.2 1.6.5 2.1.6.8 1.1 1.1 1.9 1.1z"/><path id="XMLID_204_" class="st7" d="M72.8 234.4c-.3.5-.6.8-1 1-.4.2-.9.4-1.4.4-.9 0-1.6-.3-2.2-.9-.5-.6-.8-1.5-.8-2.8v-5h1.5v5c0 .9.1 1.5.4 1.9.3.3.7.5 1.2.5s1-.1 1.4-.3c.4-.2.6-.5.8-.9v-6.1h1.5v8.5h-1.4v-1.3z"/><path id="XMLID_206_" class="st7" d="M81.4 233.4c0-.3-.1-.6-.4-.8-.3-.2-.7-.4-1.5-.6-1-.2-1.8-.5-2.3-.9-.5-.4-.8-.9-.8-1.5 0-.7.3-1.3.9-1.8.6-.5 1.3-.7 2.3-.7 1 0 1.7.3 2.3.8.6.5.9 1.1.9 1.8h-1.5c0-.4-.2-.7-.5-1s-.7-.4-1.2-.4-.9.1-1.2.4c-.3.2-.4.5-.4.9 0 .3.1.6.3.8.2.2.7.3 1.4.5 1 .2 1.8.5 2.4.9.5.4.8.9.8 1.6 0 .8-.3 1.4-.9 1.8-.6.5-1.4.7-2.4.7-1.1 0-1.9-.3-2.5-.8-.6-.5-.9-1.2-.9-1.9h1.5c0 .5.2.9.6 1.2.4.3.8.4 1.3.4s1-.1 1.3-.3c.3-.5.5-.8.5-1.1z"/><path id="XMLID_208_" class="st7" d="M89.8 233.4c0-.3-.1-.6-.4-.8-.3-.2-.7-.4-1.5-.6-1-.2-1.8-.5-2.3-.9-.5-.4-.8-.9-.8-1.5 0-.7.3-1.3.9-1.8.6-.5 1.3-.7 2.3-.7 1 0 1.7.3 2.3.8.6.5.9 1.1.9 1.8h-1.5c0-.4-.2-.7-.5-1s-.7-.4-1.2-.4-.9.1-1.2.4c-.3.2-.4.5-.4.9 0 .3.1.6.3.8.2.2.7.3 1.4.5 1 .2 1.8.5 2.4.9.5.4.8.9.8 1.6 0 .8-.3 1.4-.9 1.8-.6.5-1.4.7-2.4.7-1.1 0-1.9-.3-2.5-.8-.6-.5-.9-1.2-.9-1.9h1.5c0 .5.2.9.6 1.2.4.3.8.4 1.3.4s1-.1 1.3-.3c.3-.5.5-.8.5-1.1z"/><path id="XMLID_210_" class="st7" d="M94.9 225h-1.5v-1.6h1.5v1.6zm0 10.6h-1.5v-8.5h1.5v8.5z"/><path id="XMLID_218_" class="st7" d="M98.6 227.2l.1 1.3c.3-.4.6-.8 1.1-1 .4-.2.9-.4 1.4-.4.9 0 1.6.3 2.1.8s.8 1.4.8 2.5v5.3h-1.5v-5.3c0-.7-.1-1.3-.4-1.6-.3-.3-.7-.5-1.3-.5-.5 0-.9.1-1.2.3-.3.2-.6.5-.8.8v6.3h-1.5v-8.5h1.2z"/><path id="XMLID_221_" class="st7" d="M106.1 231.6c0-1.4.3-2.5.9-3.3.6-.8 1.4-1.3 2.4-1.3.5 0 1 .1 1.4.3.4.2.7.5 1 .9l.2-1.1h1.2v8.5c0 1.1-.3 1.9-.9 2.5-.6.6-1.5.9-2.7.9-.4 0-.8-.1-1.3-.2s-.9-.3-1.2-.5l.2-1.2c.3.2.7.3 1.1.4.4.1.8.1 1.2.1.8 0 1.3-.2 1.6-.5.3-.3.5-.9.5-1.6v-1c-.3.4-.6.6-1 .8-.4.2-.8.3-1.3.3-1 0-1.8-.4-2.4-1.1-.6-.7-.9-1.7-.9-2.9zm1.5.1c0 .8.2 1.5.5 2s.9.8 1.6.8c.5 0 .9-.1 1.2-.3s.6-.5.8-.9v-3.9c-.2-.4-.5-.6-.8-.9-.3-.2-.7-.3-1.1-.3-.7 0-1.3.3-1.6.9s-.5 1.4-.5 2.4v.2z"/><path id="XMLID_231_" class="st7" d="M117.1 235.6h-1.5V234h1.5v1.6z"/><path id="XMLID_238_" class="st7" d="M132.1 234.1c-.3.4-.7.8-1.4 1.2-.7.4-1.5.5-2.6.5-1.3 0-2.4-.4-3.3-1.3-.9-.9-1.3-2-1.3-3.4v-2.3c0-1.4.4-2.5 1.2-3.4.8-.9 1.9-1.3 3.2-1.3 1.3 0 2.3.3 3 1 .7.7 1.1 1.5 1.1 2.6h-1.5c0-.7-.2-1.3-.7-1.7-.4-.5-1.1-.7-1.9-.7-.9 0-1.6.3-2.1 1s-.8 1.5-.8 2.5v2.4c0 1 .3 1.8.8 2.5.6.7 1.3 1 2.2 1 .7 0 1.2-.1 1.6-.3.4-.2.7-.4.9-.6v-2.6H128V230h4.1v4.1z"/><path id="XMLID_242_" class="st7" d="M136.2 225h-1.5v-1.6h1.5v1.6zm0 10.6h-1.5v-8.5h1.5v8.5z"/><path id="XMLID_245_" class="st7" d="M141.4 233.1l.1.6.1-.6 1.9-6h1.6l-3.1 8.5h-1l-3.1-8.5h1.6l1.9 6z"/><path id="XMLID_247_" class="st7" d="M148.3 225h-1.5v-1.6h1.5v1.6zm0 10.6h-1.5v-8.5h1.5v8.5z"/><path id="XMLID_251_" class="st7" d="M152 227.2l.1 1.3c.3-.4.6-.8 1.1-1 .4-.2.9-.4 1.4-.4.9 0 1.6.3 2.1.8s.8 1.4.8 2.5v5.3H156v-5.3c0-.7-.1-1.3-.4-1.6-.3-.3-.7-.5-1.3-.5-.5 0-.9.1-1.2.3-.3.2-.6.5-.8.8v6.3h-1.5v-8.5h1.2z"/><path id="XMLID_253_" class="st7" d="M159.5 231.6c0-1.4.3-2.5.9-3.3.6-.8 1.4-1.3 2.4-1.3.5 0 1 .1 1.4.3.4.2.7.5 1 .9l.2-1.1h1.2v8.5c0 1.1-.3 1.9-.9 2.5-.6.6-1.5.9-2.7.9-.4 0-.8-.1-1.3-.2s-.9-.3-1.2-.5l.2-1.2c.3.2.7.3 1.1.4.4.1.8.1 1.2.1.8 0 1.3-.2 1.6-.5.3-.3.5-.9.5-1.6v-1c-.3.4-.6.6-1 .8-.4.2-.8.3-1.3.3-1 0-1.8-.4-2.4-1.1-.6-.7-.9-1.7-.9-2.9zm1.5.1c0 .8.2 1.5.5 2s.9.8 1.6.8c.5 0 .9-.1 1.2-.3s.6-.5.8-.9v-3.9c-.2-.4-.5-.6-.8-.9-.3-.2-.7-.3-1.1-.3-.7 0-1.3.3-1.6.9s-.5 1.4-.5 2.4v.2z"/><path id="XMLID_257_" class="st7" d="M179.4 230.6h-4.8v5H173v-11.4h7.1v1.2h-5.6v3.9h4.8v1.3z"/><path id="XMLID_259_" class="st7" d="M185 235.8c-1.2 0-2.2-.4-2.8-1.2-.7-.8-1-1.8-1-3.1v-.3c0-1.2.4-2.2 1.1-3 .7-.8 1.6-1.2 2.6-1.2 1.1 0 2 .4 2.5 1.1.6.7.8 1.6.8 2.8v.8h-5.4c0 .8.2 1.5.6 2.1.4.5.9.8 1.7.8.5 0 1-.1 1.4-.2.4-.1.7-.4 1-.6l.6 1c-.3.3-.7.5-1.2.7-.6.2-1.2.3-1.9.3zm-.3-7.6c-.5 0-1 .2-1.3.6s-.6.9-.6 1.6h3.8v-.1c0-.6-.2-1.1-.5-1.5-.3-.4-.7-.6-1.4-.6z"/><path id="XMLID_264_" class="st7" d="M193.3 235.8c-1.2 0-2.2-.4-2.8-1.2-.7-.8-1-1.8-1-3.1v-.3c0-1.2.4-2.2 1.1-3 .7-.8 1.6-1.2 2.6-1.2 1.1 0 2 .4 2.5 1.1.6.7.8 1.6.8 2.8v.8h-5.4c0 .8.2 1.5.6 2.1.4.5.9.8 1.7.8.5 0 1-.1 1.4-.2.4-.1.7-.4 1-.6l.6 1c-.3.3-.7.5-1.2.7-.6.2-1.2.3-1.9.3zm-.2-7.6c-.5 0-1 .2-1.3.6s-.6.9-.6 1.6h3.8v-.1c0-.6-.2-1.1-.5-1.5-.3-.4-.8-.6-1.4-.6z"/><path id="XMLID_268_" class="st7" d="M197.9 231.6c0-1.4.3-2.5.9-3.3.6-.8 1.4-1.3 2.4-1.3.5 0 .9.1 1.3.3.4.2.7.4 1 .8v-4.6h1.5v12.2h-1.2l-.2-1.1c-.3.4-.6.7-1 .9s-.9.3-1.4.3c-1 0-1.8-.4-2.4-1.1-.6-.7-.9-1.7-.9-2.9v-.2zm1.5.1c0 .9.2 1.5.5 2.1.3.5.9.8 1.6.8.5 0 .8-.1 1.2-.3.3-.2.6-.5.8-.9v-3.9c-.2-.3-.5-.6-.8-.8-.3-.2-.7-.3-1.1-.3-.7 0-1.3.3-1.6.9s-.5 1.4-.5 2.4z"/><path id="XMLID_271_" class="st7" d="M214.5 231.7c0 1.2-.3 2.2-.9 2.9-.6.7-1.4 1.1-2.4 1.1-.6 0-1.1-.1-1.5-.3-.4-.2-.8-.5-1-1l-.3 1.1h-1.2v-12.2h1.5v4.7c.3-.4.6-.7 1-.9.4-.2.9-.3 1.4-.3 1 0 1.9.4 2.4 1.3.6.8.9 1.9.9 3.3v.3zm-1.5-.1c0-1-.2-1.8-.5-2.4-.4-.6-.9-.9-1.6-.9-.5 0-.9.1-1.2.3-.3.2-.6.5-.8.9v3.7c.2.4.5.7.8 1s.7.4 1.2.4c.7 0 1.3-.3 1.6-.8.4-.5.5-1.2.5-2v-.2z"/><path id="XMLID_274_" class="st7" d="M221.6 235.6c-.1-.3-.1-.5-.1-.7 0-.2 0-.4-.1-.6-.3.4-.7.7-1.1 1s-1 .4-1.5.4c-.9 0-1.6-.2-2-.7-.5-.5-.7-1.1-.7-1.9 0-.8.3-1.4 1-1.9s1.5-.7 2.7-.7h1.7v-.8c0-.5-.2-.9-.5-1.2-.3-.3-.7-.4-1.3-.4-.5 0-.9.1-1.2.4-.3.3-.5.5-.5.9h-1.5c0-.6.3-1.2.9-1.7.6-.5 1.4-.8 2.4-.8s1.7.2 2.3.7c.6.5.9 1.2.9 2.1v5s.1.6.2.8h-1.6zm-2.5-1.1c.6 0 1.1-.1 1.5-.4.4-.3.7-.6.9-1v-1.4h-1.7c-.6 0-1.1.2-1.5.5-.4.3-.6.7-.6 1.1 0 .4.1.7.4.9s.5.3 1 .3z"/><path id="XMLID_277_" class="st7" d="M228.6 234.6c.5 0 .9-.2 1.2-.5.4-.3.5-.7.5-1.2h1.4c0 .7-.3 1.4-.9 1.9-.6.6-1.4.8-2.3.8-1.2 0-2.1-.4-2.8-1.2-.6-.8-1-1.8-1-3v-.3c0-1.2.3-2.2 1-3 .6-.8 1.6-1.2 2.7-1.2.9 0 1.7.3 2.3.9.6.6.9 1.3.9 2.1h-1.4c0-.5-.2-1-.5-1.3-.3-.4-.8-.5-1.3-.5-.8 0-1.3.3-1.7.9-.3.6-.5 1.3-.5 2.1v.3c0 .8.2 1.6.5 2.1.5.8 1.1 1.1 1.9 1.1z"/><path id="XMLID_280_" class="st7" d="M235.9 231.7h-.8v3.9h-1.5v-12.2h1.5v7.1h.8l2.5-3.3h1.8l-3.1 3.9 3.3 4.6h-1.8l-2.7-4z"/><path id="XMLID_282_" class="st7" d="M243.5 235.6H242V234h1.5v1.6z"/><path id="XMLID_284_" class="st7" d="M15.4 254.8h-1.5v-11.4h1.5v11.4z"/><path id="XMLID_287_" class="st7" d="M19.4 246.4l.1 1.1c.3-.4.6-.7 1.1-.9.4-.2.9-.3 1.5-.3s1 .1 1.4.4c.4.3.7.7.9 1.2.3-.5.6-.9 1.1-1.1.4-.3.9-.4 1.5-.4.9 0 1.5.3 2 .9.5.6.8 1.5.8 2.7v5.1h-1.5V250c0-.8-.1-1.4-.4-1.8-.3-.3-.7-.5-1.3-.5-.5 0-1 .2-1.3.5-.3.4-.5.8-.6 1.4v5.5h-1.5V250c0-.8-.1-1.4-.4-1.7-.3-.4-.7-.6-1.3-.6-.5 0-.9.1-1.2.3-.3.2-.5.5-.7.8v6.3H18v-8.5h1.4z"/><path id="XMLID_292_" class="st7" d="M39.2 250.9c0 1.2-.3 2.2-.9 2.9-.6.7-1.4 1.1-2.4 1.1-.5 0-1-.1-1.4-.3-.4-.2-.7-.4-1-.8v4.1H32v-11.7h1.2l.2 1.1c.3-.4.6-.7 1-.9.4-.2.9-.3 1.4-.3 1 0 1.9.4 2.4 1.2.6.8.9 1.9.9 3.3v.3zm-1.6-.1c0-1-.2-1.7-.6-2.4-.4-.6-.9-.9-1.7-.9-.4 0-.8.1-1.1.3-.3.2-.6.5-.8.8v4.1c.2.3.4.6.8.8s.7.3 1.1.3c.7 0 1.3-.3 1.7-.8.4-.5.6-1.2.6-2.1v-.1z"/><path id="XMLID_295_" class="st7" d="M45.1 247.7h-.8c-.4 0-.7.1-1 .3-.3.2-.5.5-.6.8v6h-1.5v-8.5h1.4l.1 1.2c.2-.4.5-.8.9-1 .4-.2.8-.4 1.2-.4h.3c.1 0 .2 0 .3.1l-.3 1.5z"/><path id="XMLID_297_" class="st7" d="M46.1 250.5c0-1.3.3-2.3 1-3.1.7-.8 1.6-1.2 2.8-1.2 1.2 0 2.1.4 2.8 1.2.7.8 1 1.8 1 3.1v.2c0 1.3-.3 2.3-1 3.1-.7.8-1.6 1.2-2.8 1.2-1.2 0-2.1-.4-2.8-1.2s-1-1.8-1-3.1v-.2zm1.6.2c0 .9.2 1.6.6 2.2.4.6.9.9 1.7.9.7 0 1.3-.3 1.7-.9.4-.6.6-1.3.6-2.2v-.2c0-.9-.2-1.6-.6-2.2-.4-.6-.9-.9-1.7-.9-.7 0-1.3.3-1.7.9-.4.6-.6 1.3-.6 2.2v.2z"/><path id="XMLID_300_" class="st7" d="M58.3 252.3l.1.6.1-.6 1.9-6H62l-3.1 8.5h-1.2l-3.1-8.5h1.6l2.1 6z"/><path id="XMLID_302_" class="st7" d="M65.2 244.2h-1.5v-1.6h1.5v1.6zm0 10.6h-1.5v-8.5h1.5v8.5z"/><path id="XMLID_306_" class="st7" d="M68.9 246.4l.1 1.3c.3-.4.6-.8 1.1-1 .4-.2.9-.4 1.4-.4.9 0 1.6.3 2.1.8s.8 1.4.8 2.5v5.3h-1.5v-5.3c0-.7-.1-1.3-.4-1.6-.3-.3-.7-.5-1.3-.5-.5 0-.9.1-1.2.3-.3.2-.6.5-.8.8v6.3h-1.5v-8.5h1.2z"/><path id="XMLID_308_" class="st7" d="M76.4 250.8c0-1.4.3-2.5.9-3.3.6-.8 1.4-1.3 2.4-1.3.5 0 1 .1 1.4.3.4.2.7.5 1 .9l.2-1.1h1.2v8.5c0 1.1-.3 1.9-.9 2.5-.6.6-1.5.9-2.7.9-.4 0-.8-.1-1.3-.2s-.9-.3-1.2-.5l.2-1.2c.3.2.7.3 1.1.4.4.1.8.1 1.2.1.8 0 1.3-.2 1.6-.5.3-.3.5-.9.5-1.6v-1c-.3.4-.6.6-1 .8-.4.2-.8.3-1.3.3-1 0-1.8-.4-2.4-1.1-.6-.7-.9-1.7-.9-2.9zm1.5.1c0 .8.2 1.5.5 2s.9.8 1.6.8c.5 0 .9-.1 1.2-.3s.6-.5.8-.9v-3.9c-.2-.4-.5-.6-.8-.9-.3-.2-.7-.3-1.1-.3-.7 0-1.3.3-1.6.9s-.5 1.4-.5 2.4v.2z"/><path id="XMLID_312_" class="st7" d="M89.4 250.5c0-1.3.3-2.3 1-3.1.7-.8 1.6-1.2 2.8-1.2 1.2 0 2.1.4 2.8 1.2.7.8 1 1.8 1 3.1v.2c0 1.3-.3 2.3-1 3.1-.7.8-1.6 1.2-2.8 1.2-1.2 0-2.1-.4-2.8-1.2s-1-1.8-1-3.1v-.2zm1.5.2c0 .9.2 1.6.6 2.2.4.6.9.9 1.7.9.7 0 1.3-.3 1.7-.9.4-.6.6-1.3.6-2.2v-.2c0-.9-.2-1.6-.6-2.2-.4-.6-.9-.9-1.7-.9-.7 0-1.3.3-1.7.9-.4.6-.6 1.3-.6 2.2v.2z"/><path id="XMLID_316_" class="st7" d="M104.2 253.6c-.3.5-.6.8-1 1-.4.2-.9.4-1.4.4-.9 0-1.6-.3-2.2-.9-.5-.6-.8-1.5-.8-2.8v-5h1.5v5c0 .9.1 1.5.4 1.9.3.3.7.5 1.2.5s1-.1 1.4-.3c.4-.2.6-.5.8-.9v-6.1h1.5v8.5h-1.4v-1.3z"/><path id="XMLID_318_" class="st7" d="M111.9 247.7h-.8c-.4 0-.7.1-1 .3-.3.2-.5.5-.6.8v6H108v-8.5h1.4l.1 1.2c.2-.4.5-.8.9-1 .4-.2.8-.4 1.2-.4h.3c.1 0 .2 0 .3.1l-.3 1.5z"/><path id="XMLID_321_" class="st7" d="M118.4 252.6c0-.3-.1-.6-.4-.8-.3-.2-.7-.4-1.5-.6-1-.2-1.8-.5-2.3-.9-.5-.4-.8-.9-.8-1.5 0-.7.3-1.3.9-1.8.6-.5 1.3-.7 2.3-.7 1 0 1.7.3 2.3.8.6.5.9 1.1.9 1.8h-1.5c0-.4-.2-.7-.5-1s-.7-.4-1.2-.4-.9.1-1.2.4c-.3.2-.4.5-.4.9 0 .3.1.6.3.8.2.2.7.3 1.4.5 1 .2 1.8.5 2.4.9.5.4.8.9.8 1.6 0 .8-.3 1.4-.9 1.8-.6.5-1.4.7-2.4.7-1.1 0-1.9-.3-2.5-.8-.6-.5-.9-1.2-.9-1.9h1.5c0 .5.2.9.6 1.2.4.3.8.4 1.3.4s1-.1 1.3-.3c.4-.5.5-.8.5-1.1z"/><path id="XMLID_324_" class="st7" d="M125.4 255c-1.2 0-2.2-.4-2.8-1.2-.7-.8-1-1.8-1-3.1v-.3c0-1.2.4-2.2 1.1-3 .7-.8 1.6-1.2 2.6-1.2 1.1 0 2 .4 2.5 1.1.6.7.8 1.6.8 2.8v.8h-5.4c0 .8.2 1.5.6 2.1.4.5.9.8 1.7.8.5 0 1-.1 1.4-.2.4-.1.7-.4 1-.6l.6 1c-.3.3-.7.5-1.2.7-.6.2-1.2.3-1.9.3zm-.3-7.6c-.5 0-1 .2-1.3.6s-.6.9-.6 1.6h3.8v-.1c0-.6-.2-1.1-.5-1.5-.3-.4-.7-.6-1.4-.6z"/><path id="XMLID_327_" class="st7" d="M131.9 254.8h-1.5v-12.2h1.5v12.2z"/><path id="XMLID_330_" class="st7" d="M137.1 252.3l.1.6.1-.6 1.9-6h1.6l-3.1 8.5h-1.2l-3.1-8.5h1.6l2.1 6z"/><path id="XMLID_332_" class="st7" d="M145.7 255c-1.2 0-2.2-.4-2.8-1.2-.7-.8-1-1.8-1-3.1v-.3c0-1.2.4-2.2 1.1-3 .7-.8 1.6-1.2 2.6-1.2 1.1 0 2 .4 2.5 1.1.6.7.8 1.6.8 2.8v.8h-5.4c0 .8.2 1.5.6 2.1.4.5.9.8 1.7.8.5 0 1-.1 1.4-.2.4-.1.7-.4 1-.6l.6 1c-.3.3-.7.5-1.2.7-.6.2-1.2.3-1.9.3zm-.2-7.6c-.5 0-1 .2-1.3.6s-.6.9-.6 1.6h3.8v-.1c0-.6-.2-1.1-.5-1.5-.3-.4-.8-.6-1.4-.6z"/><path id="XMLID_336_" class="st7" d="M155.5 252.6c0-.3-.1-.6-.4-.8-.3-.2-.7-.4-1.5-.6-1-.2-1.8-.5-2.3-.9-.5-.4-.8-.9-.8-1.5 0-.7.3-1.3.9-1.8.6-.5 1.3-.7 2.3-.7 1 0 1.7.3 2.3.8.6.5.9 1.1.9 1.8h-1.5c0-.4-.2-.7-.5-1s-.7-.4-1.2-.4-.9.1-1.2.4c-.3.2-.4.5-.4.9 0 .3.1.6.3.8.2.2.7.3 1.4.5 1 .2 1.8.5 2.4.9.5.4.8.9.8 1.6 0 .8-.3 1.4-.9 1.8-.6.5-1.4.7-2.4.7-1.1 0-1.9-.3-2.5-.8-.6-.5-.9-1.2-.9-1.9h1.5c0 .5.2.9.6 1.2.4.3.8.4 1.3.4s1-.1 1.3-.3c.4-.5.5-.8.5-1.1z"/><path id="XMLID_338_" class="st7" d="M162.6 250.8c0-1.4.3-2.5.9-3.3.6-.8 1.4-1.3 2.4-1.3.5 0 .9.1 1.3.3.4.2.7.4 1 .8v-4.6h1.5v12.2h-1.2l-.2-1.1c-.3.4-.6.7-1 .9s-.9.3-1.4.3c-1 0-1.8-.4-2.4-1.1-.6-.7-.9-1.7-.9-2.9v-.2zm1.5.1c0 .9.2 1.5.5 2.1.3.5.9.8 1.6.8.5 0 .8-.1 1.2-.3.3-.2.6-.5.8-.9v-3.9c-.2-.3-.5-.6-.8-.8-.3-.2-.7-.3-1.1-.3-.7 0-1.3.3-1.6.9s-.5 1.4-.5 2.4z"/><path id="XMLID_341_" class="st7" d="M177.2 254.8c-.1-.3-.1-.5-.1-.7 0-.2 0-.4-.1-.6-.3.4-.7.7-1.1 1s-1 .4-1.5.4c-.9 0-1.6-.2-2-.7-.5-.5-.7-1.1-.7-1.9 0-.8.3-1.4 1-1.9s1.5-.7 2.7-.7h1.7v-.7c0-.5-.2-.9-.5-1.2-.3-.3-.7-.4-1.3-.4-.5 0-.9.1-1.2.4-.3.3-.5.5-.5.9h-1.5c0-.6.3-1.2.9-1.7.6-.5 1.4-.8 2.4-.8s1.7.2 2.3.7c.6.5.9 1.2.9 2.1v5s.1.6.2.8h-1.6zm-2.5-1.1c.6 0 1.1-.1 1.5-.4.4-.3.7-.6.9-1v-1.4h-1.7c-.6 0-1.1.2-1.5.5-.4.3-.6.7-.6 1.1 0 .4.1.7.4.9s.5.3 1 .3z"/><path id="XMLID_344_" class="st7" d="M183.3 251.7l.3 1.1 2.1-6.4h1.7l-3.6 9.7c-.2.6-.5 1.1-.9 1.5s-.9.6-1.6.6h-.5c-.2 0-.3-.1-.4-.1l.2-1.2h.7c.3 0 .6-.1.8-.4.2-.3.4-.6.5-1l.4-.9-3.1-8.3h1.7l1.7 5.4z"/><path id="XMLID_346_" class="st7" d="M193.6 250.6H189v-1.2h4.6v1.2z"/><path id="XMLID_348_" class="st7" d="M203.2 250.9c0 1.2-.3 2.2-.9 2.9-.6.7-1.4 1.1-2.4 1.1-.6 0-1.1-.1-1.5-.3-.4-.2-.8-.5-1-1l-.3 1.1H196v-12.2h1.5v4.7c.3-.4.6-.7 1-.9.4-.2.9-.3 1.4-.3 1 0 1.9.4 2.4 1.3.6.8.9 1.9.9 3.3v.3zm-1.5-.1c0-1-.2-1.8-.5-2.4-.4-.6-.9-.9-1.6-.9-.5 0-.9.1-1.2.3-.3.2-.6.5-.8.9v3.7c.2.4.5.7.8 1s.7.4 1.2.4c.7 0 1.3-.3 1.6-.8.4-.5.5-1.2.5-2v-.2z"/><path id="XMLID_351_" class="st7" d="M207.6 251.7l.3 1.1 2.1-6.4h1.7l-3.6 9.7c-.2.6-.5 1.1-.9 1.5s-.9.6-1.6.6h-.5c-.2 0-.3-.1-.4-.1l.2-1.2h.7c.3 0 .6-.1.8-.4.2-.3.4-.6.5-1l.4-.9-3.1-8.3h1.7l1.7 5.4z"/><path id="XMLID_353_" class="st7" d="M217.8 250.6h-4.6v-1.2h4.6v1.2z"/><path id="XMLID_355_" class="st7" d="M219.9 250.8c0-1.4.3-2.5.9-3.3.6-.8 1.4-1.3 2.4-1.3.5 0 .9.1 1.3.3.4.2.7.4 1 .8v-4.6h1.5v12.2h-1.2l-.2-1.1c-.3.4-.6.7-1 .9s-.9.3-1.4.3c-1 0-1.8-.4-2.4-1.1-.6-.7-.9-1.7-.9-2.9v-.2zm1.5.1c0 .9.2 1.5.5 2.1.3.5.9.8 1.6.8.5 0 .8-.1 1.2-.3.3-.2.6-.5.8-.9v-3.9c-.2-.3-.5-.6-.8-.8-.3-.2-.7-.3-1.1-.3-.7 0-1.3.3-1.6.9s-.5 1.4-.5 2.4z"/><path id="XMLID_358_" class="st7" d="M234.5 254.8c-.1-.3-.1-.5-.1-.7 0-.2 0-.4-.1-.6-.3.4-.7.7-1.1 1s-1 .4-1.5.4c-.9 0-1.6-.2-2-.7-.5-.5-.7-1.1-.7-1.9 0-.8.3-1.4 1-1.9s1.5-.7 2.7-.7h1.7v-.7c0-.5-.2-.9-.5-1.2-.3-.3-.7-.4-1.3-.4-.5 0-.9.1-1.2.4-.3.3-.5.5-.5.9h-1.5c0-.6.3-1.2.9-1.7.6-.5 1.4-.8 2.4-.8s1.7.2 2.3.7c.6.5.9 1.2.9 2.1v5s.1.6.2.8h-1.6zm-2.5-1.1c.6 0 1.1-.1 1.5-.4.4-.3.7-.6.9-1v-1.4h-1.7c-.6 0-1.1.2-1.5.5-.4.3-.6.7-.6 1.1 0 .4.1.7.4.9s.5.3 1 .3z"/><path id="XMLID_361_" class="st7" d="M240.6 251.7l.3 1.1 2.1-6.4h1.7l-3.6 9.7c-.2.6-.5 1.1-.9 1.5s-.9.6-1.6.6h-.5c-.2 0-.3-.1-.4-.1l.2-1.2h.7c.3 0 .6-.1.8-.4.2-.3.4-.6.5-1l.4-.9-3.1-8.3h1.7l1.7 5.4z"/></g><g id="XMLID_213_"><path id="XMLID_126_" class="st7" d="M9.6 290.7v4.6H8.1v-11.4h4.4c1.2 0 2.2.3 2.8.9.7.6 1 1.4 1 2.5 0 1-.3 1.9-1 2.5-.7.6-1.6.9-2.8.9H9.6zm0-1.2h2.8c.8 0 1.3-.2 1.7-.6.4-.4.6-.9.6-1.6 0-.6-.2-1.2-.6-1.6s-1-.6-1.7-.6H9.6v4.4z"/><path id="XMLID_129_" class="st7" d="M17.6 290.9c0-1.3.3-2.3 1-3.1.7-.8 1.6-1.2 2.8-1.2 1.2 0 2.1.4 2.8 1.2.7.8 1 1.8 1 3.1v.2c0 1.3-.3 2.3-1 3.1-.7.8-1.6 1.2-2.8 1.2-1.2 0-2.1-.4-2.8-1.2s-1-1.8-1-3.1v-.2zm1.5.2c0 .9.2 1.6.6 2.2.4.6.9.9 1.7.9.7 0 1.3-.3 1.7-.9.4-.6.6-1.3.6-2.2v-.2c0-.9-.2-1.6-.6-2.2-.4-.6-.9-.9-1.7-.9-.7 0-1.3.3-1.7.9-.4.6-.6 1.3-.6 2.2v.2z"/><path id="XMLID_132_" class="st7" d="M32 293c0-.3-.1-.6-.4-.8-.3-.2-.7-.4-1.5-.6-1-.2-1.8-.5-2.3-.9-.5-.4-.8-.9-.8-1.5 0-.7.3-1.3.9-1.8.6-.5 1.3-.7 2.3-.7 1 0 1.7.3 2.3.8.6.5.9 1.1.9 1.8h-1.5c0-.4-.2-.7-.5-1s-.7-.4-1.2-.4-.9.1-1.2.4c-.3.2-.4.5-.4.9 0 .3.1.6.3.8.2.2.7.3 1.4.5 1 .2 1.8.5 2.4.9.5.4.8.9.8 1.6 0 .8-.3 1.4-.9 1.8-.6.5-1.4.7-2.4.7-1.1 0-1.9-.3-2.5-.8-.6-.5-.9-1.2-.9-1.9h1.5c0 .5.2.9.6 1.2.4.3.8.4 1.3.4s1-.1 1.3-.3c.3-.5.5-.8.5-1.1z"/><path id="XMLID_134_" class="st7" d="M37.6 284.8v2h1.6v1.1h-1.6v5.1c0 .4.1.7.2.8.2.2.4.2.7.2h.3s.2 0 .3-.1l.2 1.1c-.1.1-.3.2-.5.2-.2.1-.4.1-.7.1-.6 0-1.1-.2-1.5-.6-.4-.4-.6-1-.6-1.8v-5.1h-1.3v-1.1H36v-2h1.6z"/><path id="XMLID_136_" class="st7" d="M45.6 291H41v-1.2h4.6v1.2z"/><path id="XMLID_138_" class="st7" d="M50.2 292.2l.2 1.1.2-1.1 1.7-5.4h1.2l1.7 5.4.2 1.2.3-1.2 1.3-5.4h1.6l-2.5 8.5h-1.2l-1.7-5.1-.3-1.3-.3 1.3-1.6 5.1h-1.2l-2.5-8.5h1.6l1.3 5.4z"/><path id="XMLID_140_" class="st7" d="M59.8 290.9c0-1.3.3-2.3 1-3.1.7-.8 1.6-1.2 2.8-1.2 1.2 0 2.1.4 2.8 1.2.7.8 1 1.8 1 3.1v.2c0 1.3-.3 2.3-1 3.1-.7.8-1.6 1.2-2.8 1.2-1.2 0-2.1-.4-2.8-1.2s-1-1.8-1-3.1v-.2zm1.5.2c0 .9.2 1.6.6 2.2.4.6.9.9 1.7.9.7 0 1.3-.3 1.7-.9.4-.6.6-1.3.6-2.2v-.2c0-.9-.2-1.6-.6-2.2-.4-.6-.9-.9-1.7-.9-.7 0-1.3.3-1.7.9-.4.6-.6 1.3-.6 2.2v.2z"/><path id="XMLID_143_" class="st7" d="M73.2 288.1h-.8c-.4 0-.7.1-1 .3-.3.2-.5.5-.6.8v6h-1.5v-8.5h1.4l.1 1.2c.2-.4.5-.8.9-1 .4-.2.8-.4 1.2-.4h.3c.1 0 .2 0 .3.1l-.3 1.5z"/><path id="XMLID_145_" class="st7" d="M77.2 291.3h-.8v3.9h-1.5V283h1.5v7.1h.8l2.5-3.3h1.8l-3.1 3.9 3.3 4.6H80l-2.8-4z"/><path id="XMLID_147_" class="st7" d="M94.2 291.3c0 1.2-.3 2.2-.9 2.9-.6.7-1.4 1.1-2.4 1.1-.6 0-1.1-.1-1.5-.3-.4-.2-.8-.5-1-1l-.3 1.1H87v-12.2h1.5v4.7c.3-.4.6-.7 1-.9.4-.2.9-.3 1.4-.3 1 0 1.9.4 2.4 1.3.6.8.9 1.9.9 3.3v.3zm-1.5-.1c0-1-.2-1.8-.5-2.4-.4-.6-.9-.9-1.6-.9-.5 0-.9.1-1.2.3-.3.2-.6.5-.8.9v3.7c.2.4.5.7.8 1s.7.4 1.2.4c.7 0 1.3-.3 1.6-.8.4-.5.5-1.2.5-2v-.2z"/><path id="XMLID_150_" class="st7" d="M99.6 295.4c-1.2 0-2.2-.4-2.8-1.2-.7-.8-1-1.8-1-3.1v-.3c0-1.2.4-2.2 1.1-3 .7-.8 1.6-1.2 2.6-1.2 1.1 0 2 .4 2.5 1.1.6.7.8 1.6.8 2.8v.8h-5.4c0 .8.2 1.5.6 2.1.4.5.9.8 1.7.8.5 0 1-.1 1.4-.2.4-.1.7-.4 1-.6l.6 1c-.3.3-.7.5-1.2.7-.6.2-1.2.3-1.9.3zm-.2-7.6c-.5 0-1 .2-1.3.6s-.6.9-.6 1.6h3.8c0-.6-.2-1.1-.5-1.5-.3-.5-.8-.7-1.4-.7z"/><path id="XMLID_153_" class="st7" d="M108 295.4c-1.2 0-2.2-.4-2.8-1.2-.7-.8-1-1.8-1-3.1v-.3c0-1.2.4-2.2 1.1-3 .7-.8 1.6-1.2 2.6-1.2 1.1 0 2 .4 2.5 1.1.6.7.8 1.6.8 2.8v.8h-5.4c0 .8.2 1.5.6 2.1.4.5.9.8 1.7.8.5 0 1-.1 1.4-.2.4-.1.7-.4 1-.6l.6 1c-.3.3-.7.5-1.2.7-.6.2-1.2.3-1.9.3zm-.3-7.6c-.5 0-1 .2-1.3.6s-.6.9-.6 1.6h3.8c0-.6-.2-1.1-.5-1.5-.3-.5-.7-.7-1.4-.7z"/><path id="XMLID_156_" class="st7" d="M116.9 288.1h-.8c-.4 0-.7.1-1 .3-.3.2-.5.5-.6.8v6H113v-8.5h1.4l.1 1.2c.2-.4.5-.8.9-1 .4-.2.8-.4 1.2-.4h.3c.1 0 .2 0 .3.1l-.3 1.5z"/><path id="XMLID_158_" class="st7" d="M118.8 294.9l-1.2 2.4h-.9l.5-2.5v-1.3h1.5v1.4z"/><path id="XMLID_160_" class="st7" d="M126.4 286.8v9.1c0 .9-.2 1.5-.7 2-.4.5-1.1.7-1.9.7h-.4s-.3-.1-.4-.1l.1-1.2c.1 0 .2 0 .3.1s.2 0 .3 0c.3 0 .6-.1.8-.3.2-.2.3-.6.3-1.1v-9.1h1.6zm0-2.2h-1.5v-1.5h1.5v1.5z"/><path id="XMLID_163_" class="st7" d="M128.4 290.9c0-1.3.3-2.3 1-3.1.7-.8 1.6-1.2 2.8-1.2 1.2 0 2.1.4 2.8 1.2.7.8 1 1.8 1 3.1v.2c0 1.3-.3 2.3-1 3.1-.7.8-1.6 1.2-2.8 1.2-1.2 0-2.1-.4-2.8-1.2s-1-1.8-1-3.1v-.2zm1.5.2c0 .9.2 1.6.6 2.2.4.6.9.9 1.7.9.7 0 1.3-.3 1.7-.9.4-.6.6-1.3.6-2.2v-.2c0-.9-.2-1.6-.6-2.2-.4-.6-.9-.9-1.7-.9-.7 0-1.3.3-1.7.9-.4.6-.6 1.3-.6 2.2v.2z"/><path id="XMLID_166_" class="st7" d="M140.2 291.3h-.8v3.9h-1.5V283h1.5v7.1h.8l2.5-3.3h1.8l-3.1 3.9 3.3 4.6H143l-2.8-4z"/><path id="XMLID_168_" class="st7" d="M149.4 295.4c-1.2 0-2.2-.4-2.8-1.2-.7-.8-1-1.8-1-3.1v-.3c0-1.2.4-2.2 1.1-3 .7-.8 1.6-1.2 2.6-1.2 1.1 0 2 .4 2.5 1.1.6.7.8 1.6.8 2.8v.8h-5.4c0 .8.2 1.5.6 2.1.4.5.9.8 1.7.8.5 0 1-.1 1.4-.2.4-.1.7-.4 1-.6l.6 1c-.3.3-.7.5-1.2.7-.6.2-1.2.3-1.9.3zm-.2-7.6c-.5 0-1 .2-1.3.6s-.6.9-.6 1.6h3.8c0-.6-.2-1.1-.5-1.5-.3-.5-.8-.7-1.4-.7z"/><path id="XMLID_171_" class="st7" d="M159.2 293c0-.3-.1-.6-.4-.8-.3-.2-.7-.4-1.5-.6-1-.2-1.8-.5-2.3-.9-.5-.4-.8-.9-.8-1.5 0-.7.3-1.3.9-1.8.6-.5 1.3-.7 2.3-.7 1 0 1.7.3 2.3.8.6.5.9 1.1.9 1.8h-1.5c0-.4-.2-.7-.5-1s-.7-.4-1.2-.4-.9.1-1.2.4c-.3.2-.4.5-.4.9 0 .3.1.6.3.8.2.2.7.3 1.4.5 1 .2 1.8.5 2.4.9.5.4.8.9.8 1.6 0 .8-.3 1.4-.9 1.8-.6.5-1.4.7-2.4.7-1.1 0-1.9-.3-2.5-.8-.6-.5-.9-1.2-.9-1.9h1.5c0 .5.2.9.6 1.2.4.3.8.4 1.3.4s1-.1 1.3-.3c.3-.5.5-.8.5-1.1z"/><path id="XMLID_173_" class="st7" d="M171.8 295.2c-.1-.3-.1-.5-.1-.7 0-.2 0-.4-.1-.6-.3.4-.7.7-1.1 1s-1 .4-1.5.4c-.9 0-1.6-.2-2-.7-.5-.5-.7-1.1-.7-1.9 0-.8.3-1.4 1-1.9s1.5-.7 2.7-.7h1.7v-.8c0-.5-.2-.9-.5-1.2-.3-.3-.7-.4-1.3-.4-.5 0-.9.1-1.2.4-.3.3-.5.5-.5.9h-1.5c0-.6.3-1.2.9-1.7.6-.5 1.4-.8 2.4-.8s1.7.2 2.3.7c.6.5.9 1.2.9 2.1v5s.1.6.2.8h-1.6zm-2.5-1.1c.6 0 1.1-.1 1.5-.4.4-.3.7-.6.9-1v-1.4H170c-.6 0-1.1.2-1.5.5-.4.3-.6.7-.6 1.1 0 .4.1.7.4.9s.5.3 1 .3z"/><path id="XMLID_176_" class="st7" d="M176.8 286.8l.1 1.3c.3-.4.6-.8 1.1-1 .4-.2.9-.4 1.4-.4.9 0 1.6.3 2.1.8s.8 1.4.8 2.5v5.3h-1.5V290c0-.7-.1-1.3-.4-1.6-.3-.3-.7-.5-1.3-.5-.5 0-.9.1-1.2.3-.3.2-.6.5-.8.8v6.3h-1.5v-8.5h1.2z"/><path id="XMLID_178_" class="st7" d="M184.2 291.2c0-1.4.3-2.5.9-3.3.6-.8 1.4-1.3 2.4-1.3.5 0 .9.1 1.3.3.4.2.7.4 1 .8v-4.6h1.5v12.2h-1.2l-.2-1.1c-.3.4-.6.7-1 .9s-.9.3-1.4.3c-1 0-1.8-.4-2.4-1.1-.6-.7-.9-1.7-.9-2.9v-.2zm1.5.1c0 .9.2 1.5.5 2.1.3.5.9.8 1.6.8.5 0 .8-.1 1.2-.3.3-.2.6-.5.8-.9v-4c-.2-.3-.5-.6-.8-.8-.3-.2-.7-.3-1.1-.3-.7 0-1.3.3-1.6.9s-.5 1.4-.5 2.4v.1z"/><path id="XMLID_181_" class="st7" d="M199.3 295.2h-1.5V283h1.5v12.2z"/><path id="XMLID_183_" class="st7" d="M206.8 295.2c-.1-.3-.1-.5-.1-.7 0-.2 0-.4-.1-.6-.3.4-.7.7-1.1 1s-1 .4-1.5.4c-.9 0-1.6-.2-2-.7-.5-.5-.7-1.1-.7-1.9 0-.8.3-1.4 1-1.9s1.5-.7 2.7-.7h1.7v-.8c0-.5-.2-.9-.5-1.2-.3-.3-.7-.4-1.3-.4-.5 0-.9.1-1.2.4-.3.3-.5.5-.5.9h-1.5c0-.6.3-1.2.9-1.7.6-.5 1.4-.8 2.4-.8s1.7.2 2.3.7c.6.5.9 1.2.9 2.1v5s.1.6.2.8h-1.6zm-2.5-1.1c.6 0 1.1-.1 1.5-.4.4-.3.7-.6.9-1v-1.4H205c-.6 0-1.1.2-1.5.5-.4.3-.6.7-.6 1.1 0 .4.1.7.4.9s.5.3 1 .3z"/><path id="XMLID_186_" class="st7" d="M215.8 294c-.3.5-.6.8-1 1-.4.2-.9.4-1.4.4-.9 0-1.6-.3-2.2-.9-.5-.6-.8-1.5-.8-2.8v-5h1.5v5c0 .9.1 1.5.4 1.9.3.3.7.5 1.2.5s1-.1 1.4-.3c.4-.2.6-.5.8-.9v-6.1h1.5v8.5h-1.4V294z"/><path id="XMLID_188_" class="st7" d="M219.2 291.2c0-1.4.3-2.5.9-3.3.6-.8 1.4-1.3 2.4-1.3.5 0 1 .1 1.4.3.4.2.7.5 1 .9l.2-1.1h1.2v8.5c0 1.1-.3 1.9-.9 2.5-.6.6-1.5.9-2.7.9-.4 0-.8-.1-1.3-.2s-.9-.3-1.2-.5l.2-1.2c.3.2.7.3 1.1.4.4.1.8.1 1.2.1.8 0 1.3-.2 1.6-.5.3-.3.5-.9.5-1.6v-1c-.3.4-.6.6-1 .8-.4.2-.8.3-1.3.3-1 0-1.8-.4-2.4-1.1-.6-.7-.9-1.7-.9-2.9zm1.6.1c0 .8.2 1.5.5 2s.9.8 1.6.8c.5 0 .9-.1 1.2-.3s.6-.5.8-.9V289c-.2-.4-.5-.6-.8-.9-.3-.2-.7-.3-1.1-.3-.7 0-1.3.3-1.6.9s-.5 1.4-.5 2.4v.2z"/><path id="XMLID_191_" class="st7" d="M230.1 287.9c.3-.4.6-.7 1.1-.9.4-.2.9-.3 1.4-.3.9 0 1.6.3 2.1.8s.8 1.4.8 2.5v5.3H234V290c0-.7-.1-1.2-.4-1.5-.3-.3-.7-.5-1.3-.5-.5 0-.9.1-1.2.3-.3.2-.6.4-.8.8v6.3h-1.5v-12.2h1.5v4.7z"/><path id="XMLID_193_" class="st7" d="M242.6 293c0-.3-.1-.6-.4-.8-.3-.2-.7-.4-1.5-.6-1-.2-1.8-.5-2.3-.9-.5-.4-.8-.9-.8-1.5 0-.7.3-1.3.9-1.8.6-.5 1.3-.7 2.3-.7 1 0 1.7.3 2.3.8.6.5.9 1.1.9 1.8h-1.5c0-.4-.2-.7-.5-1s-.7-.4-1.2-.4-.9.1-1.2.4c-.3.2-.4.5-.4.9 0 .3.1.6.3.8.2.2.7.3 1.4.5 1 .2 1.8.5 2.4.9.5.4.8.9.8 1.6 0 .8-.3 1.4-.9 1.8-.6.5-1.4.7-2.4.7-1.1 0-1.9-.3-2.5-.8-.6-.5-.9-1.2-.9-1.9h1.5c0 .5.2.9.6 1.2.4.3.8.4 1.3.4s1-.1 1.3-.3c.4-.5.5-.8.5-1.1z"/></g><g id="XMLID_7_"><g id="XMLID_240_"><path id="XMLID_125_" class="st8" d="M464.7 44.1l-.4-.2 16.3-36.7h112.9v.5H480.9z"/></g><g id="XMLID_237_"><circle id="XMLID_119_" class="st8" cx="464.5" cy="44" r="2.5"/><path id="XMLID_121_" class="st8" d="M464.5 47c-1.7 0-3-1.3-3-3s1.3-3 3-3 3 1.3 3 3-1.3 3-3 3zm0-5c-1.1 0-2 .9-2 2s.9 2 2 2 2-.9 2-2-.9-2-2-2z"/></g><g id="XMLID_236_"><path id="XMLID_120_" class="st8" d="M523.1 98.7l-.2-.5 52-28.6h18.6v.5h-18.4z"/></g><g id="XMLID_235_"><circle id="XMLID_93_" class="st8" cx="523" cy="98.5" r="2.5"/><path id="XMLID_116_" class="st8" d="M523 101.5c-1.7 0-3-1.3-3-3s1.3-3 3-3 3 1.3 3 3-1.3 3-3 3zm0-5c-1.1 0-2 .9-2 2s.9 2 2 2 2-.9 2-2-.9-2-2-2z"/></g><g id="XMLID_234_"><path id="XMLID_115_" class="st8" d="M593.5 201.5h-31.8L521 178.4l.3-.5 40.6 23.1h31.6z"/></g><g id="XMLID_233_"><circle id="XMLID_78_" class="st8" cx="521.2" cy="178.1" r="2.5"/><path id="XMLID_80_" class="st8" d="M521.2 181.1c-1.7 0-3-1.3-3-3s1.3-3 3-3 3 1.3 3 3-1.4 3-3 3zm0-5c-1.1 0-2 .9-2 2s.9 2 2 2 2-.9 2-2-.9-2-2-2z"/></g><g id="XMLID_230_"><path id="XMLID_79_" class="st8" d="M593.5 277.3h-94.8L474 226l.5-.2 24.5 51h94.5z"/></g><g id="XMLID_229_"><circle id="XMLID_73_" class="st8" cx="474.2" cy="225.9" r="2.5"/><path id="XMLID_75_" class="st8" d="M474.2 228.9c-1.7 0-3-1.3-3-3s1.3-3 3-3 3 1.3 3 3-1.3 3-3 3zm0-5c-1.1 0-2 .9-2 2s.9 2 2 2 2-.9 2-2-.9-2-2-2z"/></g><g id="XMLID_228_"><path id="XMLID_74_" class="st8" d="M387.6 48.8L358.8 7.7h-89v-.5H359l.1.1L388 48.5z"/></g><g id="XMLID_226_"><circle id="XMLID_68_" class="st8" cx="387.8" cy="48.7" r="2.5"/><path id="XMLID_70_" class="st8" d="M387.8 51.7c-1.7 0-3-1.3-3-3s1.3-3 3-3 3 1.3 3 3-1.4 3-3 3zm0-5c-1.1 0-2 .9-2 2s.9 2 2 2 2-.9 2-2-.9-2-2-2z"/></g><g id="XMLID_225_"><path id="XMLID_69_" class="st8" d="M338.1 112.6l-48-13.6h-20.3v-.5h20.4l48 13.6z"/></g><g id="XMLID_224_"><circle id="XMLID_63_" class="st8" cx="338.1" cy="112.3" r="2.5"/><path id="XMLID_65_" class="st8" d="M338.1 115.3c-1.7 0-3-1.3-3-3s1.3-3 3-3 3 1.3 3 3-1.3 3-3 3zm0-5c-1.1 0-2 .9-2 2s.9 2 2 2 2-.9 2-2-.9-2-2-2z"/></g><g id="XMLID_223_"><path id="XMLID_64_" class="st8" d="M303.5 189.5h-33.7v-.5h33.6l38.6-15.1.2.5z"/></g><g id="XMLID_220_"><circle id="XMLID_58_" class="st8" cx="342.1" cy="174.1" r="2.5"/><path id="XMLID_60_" class="st8" d="M342.1 177.1c-1.7 0-3-1.3-3-3s1.3-3 3-3 3 1.3 3 3-1.3 3-3 3zm0-5c-1.1 0-2 .9-2 2s.9 2 2 2 2-.9 2-2-.9-2-2-2z"/></g><g id="XMLID_217_"><path id="XMLID_59_" class="st8" d="M358.4 243h-88.6v-.5h88.4l19.7-22.7.3.3z"/></g><g id="XMLID_215_"><circle id="XMLID_53_" class="st8" cx="378.1" cy="219.9" r="2.5"/><path id="XMLID_55_" class="st8" d="M378.1 222.9c-1.7 0-3-1.3-3-3s1.3-3 3-3 3 1.3 3 3-1.4 3-3 3zm0-5c-1.1 0-2 .9-2 2s.9 2 2 2 2-.9 2-2-.9-2-2-2z"/></g><g id="XMLID_212_"><path id="XMLID_54_" class="st8" d="M412 289.9H269.8v-.5h141.8l9.7-54h.5z"/></g><g id="XMLID_211_"><circle id="XMLID_10_" class="st8" cx="421.6" cy="235.4" r="2.5"/><path id="XMLID_50_" class="st8" d="M421.6 238.4c-1.7 0-3-1.3-3-3s1.3-3 3-3 3 1.3 3 3-1.4 3-3 3zm0-5c-1.1 0-2 .9-2 2s.9 2 2 2 2-.9 2-2-.9-2-2-2z"/></g></g></g></svg>