<?xml version="1.0" encoding="UTF-8" standalone="no"?>
<!-- Created with Inkscape (http://www.inkscape.org/) -->
<svg
   xmlns:svg="http://www.w3.org/2000/svg"
   xmlns="http://www.w3.org/2000/svg"
   version="1.0"
   width="744.09448"
   height="526.5354"
   id="svg2367">
  <defs
     id="defs2369" />
  <g
     transform="translate(-593.32638,-244.47955)"
     id="layer1">
    <g
       transform="matrix(2.8072397,0,0,2.8072397,-1054.5664,-1311.3148)"
       id="g2504">
      <path
         d="M 829.65558,723.91382 L 607.93512,723.91382 L 607.93512,572.06531 L 829.65558,572.06531 L 829.65558,723.91382 z "
         style="fill:#ffffff;fill-rule:nonzero;stroke:none"
         id="path94" />
      <path
         d="M 628.05363,591.26554 L 672.46452,591.26554 C 700.1795,591.26554 716.45792,609.13001 716.45792,647.69737 C 716.45792,688.76906 699.42822,705.21447 672.46452,705.21447 L 628.05363,705.21447 L 628.05363,591.26554 z M 728.89635,591.26554 L 778.56638,591.26554 C 799.35267,591.26554 809.78756,603.78737 809.78756,618.22924 C 809.78756,637.17898 798.68479,643.60689 790.08654,645.44344 L 790.08654,645.94432 C 802.94226,647.61387 814.54582,656.71311 814.54582,674.16029 C 814.46242,692.94303 800.85532,705.21447 775.47767,705.21447 L 728.89635,705.21447 L 728.89635,591.26554 z M 655.51822,609.13001 L 665.28523,609.13001 C 681.06286,609.13001 689.41072,620.48318 689.41072,647.19649 C 689.41072,677.83328 679.6437,687.01601 665.78612,687.01601 L 655.51822,687.01601 L 655.51822,609.13001 z M 756.11055,608.96311 L 766.62884,608.96311 C 777.39772,608.96311 781.82209,614.97354 781.82209,621.98583 C 781.82209,630.50068 777.23072,636.4277 766.46194,636.4277 L 756.11055,636.4277 L 756.11055,608.96311 z M 756.11055,657.88187 L 769.04977,657.88187 C 781.82209,657.88187 785.24469,664.05929 785.24469,672.15675 C 785.24469,681.58987 778.39939,687.01601 769.21676,687.01601 L 756.11055,687.01601 L 756.11055,657.88187 z M 619.12139,560.54524 L 819.88856,560.54524 C 834.16344,560.54524 845.767,572.06531 845.767,586.34028 L 845.767,709.55535 C 845.767,723.83032 834.16344,735.43388 819.88856,735.43388 L 619.12139,735.43388 C 604.84642,735.43388 593.32635,723.83032 593.32635,709.55535 L 593.32635,586.34028 C 593.32635,572.06531 604.84642,560.54524 619.12139,560.54524 z M 619.45528,578.15932 L 819.63807,578.15932 C 824.06244,578.15932 827.65204,581.74892 827.65204,586.17329 L 827.65204,709.72234 C 827.65204,714.14671 824.06244,717.7363 819.63807,717.7363 L 619.45528,717.7363 C 615.03091,717.7363 611.44132,714.14671 611.44132,709.72234 L 611.44132,586.17329 C 611.44132,581.74892 615.03091,578.15932 619.45528,578.15932"
         style="fill:#ec1b2d;fill-rule:evenodd;stroke:none"
         id="path96" />
    </g>
  </g>
</svg>
