<?xml version="1.0" encoding="UTF-8"?>
<svg width="12px" height="12px" viewBox="0 0 12 12" version="1.1" xmlns="http://www.w3.org/2000/svg" xmlns:xlink="http://www.w3.org/1999/xlink">
    <!-- Generator: Sketch 50.2 (55047) - http://www.bohemiancoding.com/sketch -->
    <title>Icons/Arrows/Down@2x</title>
    <desc>Created with Sketch.</desc>
    <defs>
        <path d="M12.5376268,11.1097994 C12.9318274,11.504 12.9318274,12.1434262 12.5376268,12.5376268 C12.3404143,12.7348393 12.0821759,12.8333333 11.8237131,12.8333333 C11.5652503,12.8333333 11.3070119,12.7348393 11.1097994,12.5376268 L6.99997195,8.42779933 L2.8901445,12.5376268 C2.69293202,12.7348393 2.4346936,12.8333333 2.17623082,12.8333333 C1.91776803,12.8333333 1.65952961,12.7348393 1.46231713,12.5376268 C1.06811651,12.1434262 1.06811651,11.504 1.46231713,11.1097994 L5.57214458,6.99997195 L1.46231713,2.8901445 C1.06811651,2.49594389 1.06811651,1.85651774 1.46231713,1.46231713 C1.8567421,1.06811651 2.49571953,1.06811651 2.8901445,1.46231713 L6.99997195,5.57214458 L11.1097994,1.46231713 C11.5042244,1.06811651 12.1432018,1.06811651 12.5376268,1.46231713 C12.9318274,1.85651774 12.9318274,2.49594389 12.5376268,2.8901445 L8.42779933,6.99997195 L12.5376268,11.1097994 Z" id="path-1"></path>
    </defs>
    <g id="Resumes" stroke="none" stroke-width="1" fill="none" fill-rule="evenodd">
        <g id="Resume-Preview" transform="translate(-1379.000000, -1614.000000)">
            <g id="Icons/Close" transform="translate(1378.000000, 1613.000000)">
                <mask id="mask-2" fill="white">
                    <use xlink:href="#path-1"></use>
                </mask>
                <use id="cross" fill="#000000" fill-rule="evenodd" xlink:href="#path-1"></use>
                <g id="Colors/Black" mask="url(#mask-2)" fill="#384347" fill-rule="evenodd">
                    <g transform="translate(7.000000, 7.000000) rotate(180.000000) translate(-7.000000, -7.000000) " id="Rectangle-6-Copy-2">
                        <rect x="0" y="0" width="14" height="14"></rect>
                    </g>
                </g>
            </g>
        </g>
    </g>
</svg>