<?xml version="1.0" encoding="UTF-8"?>
<svg width="45px" height="16px" viewBox="0 0 45 16" version="1.1" xmlns="http://www.w3.org/2000/svg" xmlns:xlink="http://www.w3.org/1999/xlink">
    <!-- Generator: Sketch 50.2 (55047) - http://www.bohemiancoding.com/sketch -->
    <title>Group 3</title>
    <desc>Created with Sketch.</desc>
    <defs></defs>
    <g id="Resumes" stroke="none" stroke-width="1" fill="none" fill-rule="evenodd">
        <g id="Appreciate-Behaviour-on-&lt;-1366" transform="translate(-896.000000, -1644.000000)" fill="#FFFFFF" fill-rule="nonzero">
            <g id="Group-3" transform="translate(896.000000, 1644.000000)">
                <path d="M16.8576867,1.51052648 C16.8903926,1.7432405 16.8578163,2.06160284 16.7689744,2.53881242 L14.9428444,11.7630171 C14.9254243,11.8863627 14.8908353,12.0200656 14.8401344,12.1698009 C14.7600289,12.4063774 14.588892,12.6320366 14.3170081,12.9071098 C14.0057149,13.2220547 13.6092367,13.4139329 13.1508658,13.4783528 C12.6924949,13.5427726 12.2584868,13.4676116 11.8724419,13.2506712 C11.5276677,13.0569231 11.2681409,12.8346625 11.0741093,12.5165578 L9.32284241,9.05576404 C8.87332037,11.4116486 8.64175989,12.6258846 8.6320636,12.6779934 C8.6074401,12.8103224 8.55580083,12.9518677 8.47653698,13.1247477 C8.39797303,13.2961012 8.30235591,13.4562981 8.18995497,13.6045088 C7.87171175,14.0241408 7.43594102,14.2815331 6.91680571,14.3544928 C6.44138873,14.4213083 6.0068779,14.3613816 5.63121532,14.1614243 C5.29833024,13.9842365 5.04445781,13.7763409 4.87770021,13.5210439 L4.69776666,13.2391868 L0.364069473,4.83713448 C0.167858969,4.44429996 0.0510430483,4.13561313 0.0147875139,3.8776416 C-0.0937012309,3.10570407 0.400517088,2.49404772 1.30772515,2.03501817 C1.66501909,1.85361715 2.00763372,1.7375171 2.33795722,1.69109316 C2.78593897,1.62813343 3.19824785,1.74505368 3.51124339,2.04552235 C3.73771209,2.2629272 3.93622094,2.57097967 4.11701165,2.95991358 L5.72490636,6.20841465 L6.36694623,2.72250479 C6.48770244,2.0735496 6.82632243,1.56195658 7.36303102,1.23618969 C7.6113053,1.08404551 7.91383776,0.988561005 8.27109221,0.938352166 C8.69052873,0.879404207 9.1026266,0.95985619 9.48699319,1.17029864 C9.84907949,1.36854253 10.1156719,1.60093809 10.2859112,1.91329825 L11.9969663,5.35396615 L12.6474937,1.75041604 C12.7022592,1.47605744 12.7503196,1.2685843 12.7943688,1.12060672 C12.8654482,0.881825263 13.0061742,0.664172234 13.2051013,0.460293145 C13.4425886,0.216893884 13.7516607,0.0707803941 14.1076117,0.0207547342 C14.4075359,-0.0213968594 14.7421683,0.00145342643 15.116102,0.0820498143 C16.1117018,0.287120089 16.7498655,0.743338583 16.8576867,1.51052648 Z M22.6834341,2.42466955 C24.2075919,2.42466955 25.5432404,2.97734718 26.6603503,4.06723611 C27.7822297,5.16177826 28.3484237,6.5324465 28.3484237,8.14469683 C28.3484237,9.74821519 27.8121892,11.1318269 26.7476318,12.2661575 C25.6747471,13.4093612 24.3356554,13.9890225 22.7668109,13.9890225 C21.201532,13.9890225 19.8541582,13.4191873 18.7586779,12.2946426 C17.6676982,11.174718 17.1157175,9.82511941 17.1157175,8.27590067 C17.1157175,7.43725221 17.2691947,6.64660654 17.5765961,5.90827447 C17.8835488,5.17102023 18.297341,4.54642652 18.818035,4.03927509 C19.3323317,3.53835451 19.9247845,3.14410086 20.5922841,2.85832553 C21.2663329,2.56974633 21.964912,2.42466955 22.6834341,2.42466955 Z M20.7333437,8.20684602 C20.7333437,8.8746183 20.9394439,9.3893815 21.3554752,9.78848003 C21.783565,10.1991463 22.2365098,10.3935768 22.7390187,10.3935768 C23.2442733,10.3935768 23.6961547,10.2041081 24.1195156,9.80548852 C24.5270052,9.42181264 24.7307975,8.90657214 24.7307975,8.22065695 C24.7307975,7.53432267 24.5244441,7.01357708 24.1105537,6.62010922 C23.6824032,6.21308493 23.2287747,6.02011527 22.7251225,6.02011527 C22.2233156,6.02011527 21.7735197,6.2139482 21.3503416,6.62346374 C20.9379528,7.02253834 20.7333437,7.53805994 20.7333437,8.20684602 Z M44.9070994,5.79874263 C44.8710587,6.02629465 44.7492642,6.31543293 44.5291878,6.7373684 L40.1731654,14.8619502 C40.1214785,14.9725978 40.0507264,15.0880345 39.9602735,15.213884 C39.8173611,15.4127218 39.5922329,15.5752316 39.2584874,15.7551913 C38.8763655,15.9612361 38.4496549,16.0274849 38.0014514,15.9564964 C37.553248,15.8855079 37.167894,15.6906408 36.8681459,15.3765984 C36.6004427,15.0961292 36.4208346,14.8133632 36.3301026,14.4595132 L35.6802073,10.7129282 C34.5834904,12.7928036 34.0183542,13.864819 33.9943275,13.9108935 C33.9333122,14.0278986 33.844327,14.1458007 33.7204613,14.2851621 C33.5976893,14.4232929 33.4621272,14.546076 33.3142654,14.6528108 C32.8956209,14.9550113 32.4132936,15.0714192 31.9056736,14.99102 C31.4408022,14.9173916 31.0506103,14.7366631 30.755728,14.4415189 C30.4944246,14.1799833 30.3160002,13.9123057 30.2328357,13.6251577 L30.1449313,13.309332 L28.4902465,4.1899362 C28.4188917,3.76539982 28.3978526,3.44251193 28.437805,3.19026265 C28.5573559,2.43544804 29.1960236,2.00365838 30.1781356,1.83333814 C30.5651066,1.76568068 30.9195978,1.75503755 31.2425941,1.80619514 C31.6806389,1.87557461 32.0336795,2.10337277 32.2409994,2.47478743 C32.3910062,2.74352542 32.4888171,3.08923447 32.5468333,3.50569408 L33.1231623,7.01215208 L34.724274,3.92802083 C35.0234992,3.35421561 35.4876067,2.97163914 36.0841651,2.82005985 C36.3605404,2.74858305 36.6715441,2.74577883 37.020874,2.80110725 C37.4310067,2.86606589 37.7943025,3.0596133 38.0943397,3.36708256 C38.3769849,3.65672898 38.5603123,3.95102208 38.6303847,4.29266673 L39.2483488,8.00885698 L40.8911374,4.81686673 C41.0211223,4.57534366 41.1256492,4.39460611 41.2093622,4.26849798 C41.3444442,4.06500579 41.5387662,3.90128528 41.7837057,3.76716066 C42.0761246,3.60703716 42.4077714,3.55864099 42.7558268,3.61376756 C43.0490981,3.66021718 43.3562779,3.77755682 43.6837521,3.96030049 C44.5583814,4.43793282 45.0259147,5.0485723 44.9070994,5.79874263 Z" id="WOW-Copy-6"></path>
            </g>
        </g>
    </g>
</svg>