<?xml version="1.0" encoding="utf-8"?>
<!-- Generator: Adobe Illustrator 17.1.0, SVG Export Plug-In . SVG Version: 6.00 Build 0)  -->
<!DOCTYPE svg PUBLIC "-//W3C//DTD SVG 1.1//EN" "http://www.w3.org/Graphics/SVG/1.1/DTD/svg11.dtd">
<svg version="1.1" id="Layer_1" xmlns="http://www.w3.org/2000/svg" xmlns:xlink="http://www.w3.org/1999/xlink" x="0px" y="0px"
	 viewBox="0 0 286.3 57" style="enable-background:new 0 0 286.3 57;" xml:space="preserve">
<g>
	<g>
		<path style="fill:#ED2B2F;" d="M18.9,23.7v14.5c0,1.2,0.1,2,0.3,2.4c0.1,0.2,0.4,0.4,0.9,0.5c0.5,0.2,1.5,0.4,3,0.5
			c1.5,0.1,3.6,0.2,6.2,0.2v0.6H1.5v-0.6c2.2,0,4-0.1,5.4-0.2c1.4-0.1,2.4-0.3,2.9-0.5c0.5-0.2,0.8-0.4,0.9-0.5
			c0.2-0.3,0.3-1.1,0.3-2.4V5.1c0-1.2-0.1-1.9-0.3-2.3c-0.1-0.2-0.3-0.3-0.8-0.5C8.7,1.8,5.8,1.6,1.5,1.6V1h25
			c5.1,0,9.1,1.2,12.1,3.5c2.8,2.2,4.2,5.1,4.2,8.7c0,2.4-1.1,4.7-3.2,6.7c-2.7,2.5-6.3,3.7-10.8,3.7H18.9z M18.9,23.1h6.5
			c3.6,0,6.1-0.9,7.5-2.8c1.2-1.6,1.8-4.1,1.8-7.6c0-3.7-0.8-6.4-2.4-8.3c-1.6-1.9-4-2.8-7.4-2.8h-3.1c-0.9,0-1.6,0.1-2,0.2
			c-0.4,0.1-0.7,0.4-0.8,0.8C19,3,18.9,3.8,18.9,5.1V23.1z"/>
		<path style="fill:#ED2B2F;" d="M50.1,29.2c0,4.6,0.5,8,1.6,10c1.1,2.1,2.8,3.1,5,3.1c2.4,0,4.4-0.8,6.2-2.4
			c2.2-1.9,3.3-4.6,3.3-7.9h0.5c0,3.2-1,5.9-3.1,7.9c-2.1,2.1-4.8,3.1-8.2,3.1c-2.9,0-5.5-1.1-7.8-3.3c-2.8-2.6-4.2-5.9-4.2-10.1
			c0-4.5,1.4-8.2,4.1-11c2.4-2.4,5.1-3.7,8.1-3.7c2.8,0,5.1,0.8,6.9,2.4c2.7,2.4,4.1,6.3,4.1,11.8H50.1z M61.1,28.5
			c0-4.2-0.4-7.3-1.1-9.5c-0.7-2.2-1.9-3.3-3.6-3.3c-2.3,0-4,1-4.9,3.1c-1,2.1-1.4,5.3-1.4,9.7H61.1z"/>
		<path style="fill:#ED2B2F;" d="M80.4,26.7v12.7c0,0.9,0.1,1.4,0.2,1.7c0.1,0.1,0.3,0.3,0.6,0.4c0.3,0.1,0.9,0.2,1.7,0.3
			c0.8,0.1,1.6,0.1,2.2,0.1v0.6H68.7v-0.6c0.9,0,1.9,0,2.8-0.1c0.9-0.1,1.7-0.3,2.5-0.5c0.3-0.2,0.4-0.8,0.4-1.9V19.8
			c0-0.4,0-0.8,0-1.2c0-0.4-0.1-0.7-0.3-0.9l-0.4-0.6c-0.4-0.3-2.1-0.5-4.9-0.5v-0.6l11.6-1v8.2c0.3-1.8,0.8-3.5,1.7-4.9
			c1.2-2,2.5-3,3.8-3.2c1.3-0.1,2.2-0.2,2.6-0.2c2.7,0,4.8,0.8,6.4,2.5c1.3,1.4,2,3,2,4.9v17.1c0,0.9,0.1,1.4,0.2,1.7
			c0.1,0.1,0.3,0.3,0.6,0.4c0.3,0.1,1,0.2,1.9,0.3c0.9,0.1,1.8,0.1,2.6,0.1v0.6H85.7v-0.6c0.7,0,1.5,0,2.4-0.1
			c0.9-0.1,1.7-0.3,2.4-0.5c0.3-0.2,0.4-0.8,0.4-1.9V23c0-2.1-0.2-3.6-0.5-4.7c-0.6-1.8-1.6-2.7-3.1-2.7c-2,0-3.6,1.2-4.8,3.7
			C81.5,21.2,80.8,23.7,80.4,26.7z"/>
		<path style="fill:#ED2B2F;" d="M121.7,28.8v3c0,1,0,1.9,0.1,2.8c0,3-0.3,5.1-1,6.2c-0.9,1.5-2.8,2.3-5.5,2.3
			c-2.6,0-4.5-0.6-5.7-1.9c-1.2-1.2-1.8-3-1.8-5.3V17.6h-5.1V17c3.5-0.9,6.2-2.9,8-6.1c1.4-2.6,2.2-5.5,2.2-8.7h1.1v13.6h7.4v1.9
			h-7.4v17.5c0,2.3,0.1,3.8,0.3,4.5c0.4,1.6,1.4,2.4,2.8,2.4c1.7,0,2.9-0.9,3.4-2.8c0.4-1.3,0.6-3.7,0.6-7.3v-3.1H121.7z"/>
		<path style="fill:#ED2B2F;" d="M139.9,23.8v-3.8c0-1.7-0.3-2.9-0.8-3.5c-0.5-0.6-1.7-0.9-3.5-0.9c-1.5,0-2.8,0.3-3.9,0.9
			c-1.1,0.6-1.8,1.3-2.2,2.3c0.2,0,0.4-0.1,0.6-0.1c0.8,0,1.5,0.3,2,1c0.5,0.6,0.8,1.4,0.8,2.2c0,0.9-0.3,1.7-1,2.3
			c-0.6,0.6-1.4,0.9-2.3,0.9c-0.6,0-1.1-0.2-1.5-0.4c-1.3-0.8-1.9-1.8-1.9-3.1c0-0.6,0.1-1.3,0.4-2.1c0.6-1.7,2.1-2.9,4.5-3.7
			c1.7-0.6,3.5-0.8,5.2-0.8c3.2,0,5.6,0.6,7.2,1.8c1.5,1.1,2.2,2.4,2.2,4V35c0,2.6,0.1,4.2,0.2,4.8c0.3,1.5,1.1,2.2,2.3,2.2
			c1.1,0,1.9-0.6,2.3-1.7c0.4-1.2,0.6-2.8,0.6-5c0-0.6,0-1.2,0-1.8c0-0.6,0-1.2,0-1.9V31h0.8v2.8c0,0.9,0,1.8,0.1,2.6
			c0,2.5-0.3,4.2-0.9,5c-0.8,1.1-2.4,1.6-4.7,1.6c-1.9,0-3.2-0.3-4.1-1c-1.1-0.8-1.8-2.1-2.1-3.9c-0.9,2.1-2.3,3.5-4.1,4.2
			c-1.1,0.4-2.5,0.6-4.3,0.6c-1.8,0-3.4-0.4-4.7-1.3c-1.8-1.2-2.8-2.9-2.8-5.3c0-2.3,0.9-4.3,2.7-5.9c1.8-1.5,4-2.4,6.5-2.6
			c2.6-0.2,4.3-0.6,5.2-1C139.5,26.5,139.9,25.4,139.9,23.8z M139.8,35.5v-8.6c-0.5,0.7-1.3,1.1-2.3,1.3c-1,0.2-2,0.3-2.9,0.4
			c-1.2,0.3-2.2,1-3,2.1c-0.9,1.3-1.3,3.1-1.3,5.4c0,2.5,0.2,4.2,0.7,5.1c0.5,0.9,1.3,1.3,2.3,1.3c1.6,0,3.1-0.7,4.4-2
			C139.1,39,139.8,37.4,139.8,35.5z"/>
		<path style="fill:#ED2B2F;" d="M159.2,31.6c-1.4-0.7-2.4-1.6-3.2-2.7c-0.8-1.1-1.2-2.5-1.2-4.1c0-2.7,1.2-5.1,3.7-7
			c2.3-1.8,4.8-2.6,7.5-2.6c0.8,0,1.7,0.1,2.6,0.3c0.9,0.2,1.7,0.5,2.5,0.8v-1.5c0-2,0.4-3.3,1.1-4c0.7-0.6,1.8-0.9,3.2-0.9
			c0.6,0,1.2,0.2,1.7,0.7c0.5,0.4,0.7,1,0.7,1.7c0,1.5-0.7,2.3-2.1,2.3c-1.5,0-2.2-0.7-2.2-2.1c0-0.3,0-0.5,0.1-0.7
			c0.1-0.2,0.2-0.4,0.3-0.7c-0.9,0.1-1.4,0.5-1.7,1.1c-0.3,0.6-0.4,1.5-0.4,2.5c0,0.9,0.1,1.6,0.1,2c1.7,0.8,3,1.9,4,3.2
			c1,1.3,1.4,2.9,1.4,4.6c0,2.6-1.2,4.8-3.7,6.4c-2.2,1.5-4.7,2.3-7.5,2.3c-2,0-3.8-0.3-5.6-1c-1.5,0-2.7,0.2-3.6,0.7
			c-1.2,0.6-1.8,1.7-1.8,3.2c0,0.6,0.5,1.1,1.6,1.5c1,0.4,3,0.6,6,0.6h3.7c3.8,0,6.7,0.5,8.7,1.5c2.5,1.3,3.7,3.4,3.7,6.4
			c0,3.2-1.1,5.6-3.4,7.3c-2.3,1.7-5.2,2.6-8.8,2.6c-4.3,0-7.8-0.7-10.4-2.2c-2.6-1.4-3.9-3.1-3.9-4.9c0-1.2,0.7-2.2,2.1-3
			c1-0.6,2.5-1.1,4.6-1.7c-1.9-0.7-3.3-1.4-4.2-2.2c-1.2-1.1-1.9-2.5-1.9-4.2c0-1.8,0.5-3.3,1.6-4.4
			C155.7,32.1,157.2,31.6,159.2,31.6z M166.9,55.4c2.9,0,5.1-0.6,6.7-1.8c1.6-1.2,2.4-2.7,2.4-4.4c0-2.1-0.7-3.5-2-4.2
			c-1.3-0.7-3.7-1.1-7.2-1.1c-4,0-6.8,0.5-8.3,1.4c-1.2,0.8-1.9,2.1-1.9,4c0,1.8,0.5,3.2,1.5,4.1C159.8,54.7,162.7,55.4,166.9,55.4z
			 M171.5,24.2c0-2.7-0.4-4.8-1.1-6.1c-0.8-1.6-2.3-2.4-4.4-2.4c-1.9,0-3.3,0.8-4.2,2.3c-0.9,1.5-1.3,3.6-1.3,6.2
			c0,3,0.4,5.2,1.1,6.5c0.7,1.3,2.2,1.9,4.4,1.9c2,0,3.3-0.7,4.2-2C171.1,29.2,171.5,27.1,171.5,24.2z"/>
		<path style="fill:#ED2B2F;" d="M187.4,19.3c0-0.9-0.1-1.4-0.3-1.6c-0.3-0.4-0.6-0.7-0.8-0.8c-0.8-0.2-2.5-0.3-5.3-0.3V16l12.4-1
			v8.2c0.2-1.8,0.8-3.4,1.8-5c1.4-2.1,3.2-3.2,5.3-3.2c0.8,0,1.7,0.3,2.6,0.8c0.9,0.5,1.6,1.2,1.9,2c0.3,0.8,0.5,1.5,0.5,2.2
			c0,1.7-0.7,2.9-2.1,3.5c-0.3,0.2-0.8,0.3-1.4,0.3c-0.9,0-1.6-0.3-2.2-0.9c-0.6-0.6-0.9-1.5-0.9-2.7c0-0.8,0.3-1.5,0.9-2.3
			c0.6-0.8,1.3-1.1,2-0.9c-0.3-0.9-1-1.4-2.3-1.4c-1.2,0-2.5,0.9-3.7,2.7c-1.6,2.3-2.4,5.3-2.4,9v12c0,0.9,0.1,1.4,0.2,1.7
			c0.1,0.1,0.3,0.3,0.6,0.4c0.9,0.3,2.8,0.5,5.6,0.5v0.6H181v-0.6c1.2,0,2.4,0,3.4-0.1c1-0.1,1.9-0.3,2.6-0.5
			c0.3-0.2,0.4-0.8,0.4-1.9V19.3z"/>
		<path style="fill:#ED2B2F;" d="M223,23.8v-3.8c0-1.7-0.3-2.9-0.8-3.5c-0.5-0.6-1.7-0.9-3.5-0.9c-1.5,0-2.8,0.3-3.9,0.9
			c-1.1,0.6-1.8,1.3-2.2,2.3c0.2,0,0.4-0.1,0.6-0.1c0.8,0,1.5,0.3,2,1c0.5,0.6,0.8,1.4,0.8,2.2c0,0.9-0.3,1.7-1,2.3
			c-0.6,0.6-1.4,0.9-2.3,0.9c-0.6,0-1.1-0.2-1.5-0.4c-1.3-0.8-1.9-1.8-1.9-3.1c0-0.6,0.1-1.3,0.4-2.1c0.6-1.7,2.1-2.9,4.5-3.7
			c1.7-0.6,3.5-0.8,5.2-0.8c3.2,0,5.6,0.6,7.2,1.8c1.5,1.1,2.2,2.4,2.2,4V35c0,2.6,0.1,4.2,0.2,4.8c0.3,1.5,1.1,2.2,2.3,2.2
			c1.1,0,1.9-0.6,2.3-1.7c0.4-1.2,0.6-2.8,0.6-5c0-0.6,0-1.2,0-1.8c0-0.6,0-1.2,0-1.9V31h0.8v2.8c0,0.9,0,1.8,0.1,2.6
			c0,2.5-0.3,4.2-0.9,5c-0.8,1.1-2.4,1.6-4.7,1.6c-1.9,0-3.2-0.3-4.1-1c-1.1-0.8-1.8-2.1-2.1-3.9c-0.9,2.1-2.3,3.5-4.1,4.2
			c-1.1,0.4-2.5,0.6-4.3,0.6c-1.8,0-3.4-0.4-4.7-1.3c-1.8-1.2-2.8-2.9-2.8-5.3c0-2.3,0.9-4.3,2.7-5.9c1.8-1.5,4-2.4,6.5-2.6
			c2.6-0.2,4.3-0.6,5.2-1C222.6,26.5,223,25.4,223,23.8z M222.8,35.5v-8.6c-0.5,0.7-1.3,1.1-2.3,1.3c-1,0.2-2,0.3-2.9,0.4
			c-1.2,0.3-2.2,1-3,2.1c-0.9,1.3-1.3,3.1-1.3,5.4c0,2.5,0.2,4.2,0.7,5.1c0.5,0.9,1.3,1.3,2.3,1.3c1.6,0,3.1-0.7,4.4-2
			C222.2,39,222.8,37.4,222.8,35.5z"/>
		<path style="fill:#ED2B2F;" d="M263.5,22.8c0.3-2,0.8-3.5,1.5-4.7c1.1-1.8,2.5-2.9,4.4-3.1c0.3,0,0.6,0,1-0.1
			c0.4,0,0.6-0.1,0.8-0.1c2.6,0,4.8,0.8,6.3,2.5c1.3,1.4,2,3,2,4.9v17.1c0,0.8,0.1,1.4,0.2,1.6c0.1,0.2,0.3,0.3,0.6,0.5
			c0.3,0.1,0.9,0.2,1.7,0.3c0.8,0.1,1.5,0.1,2.1,0.1v0.6h-15.2v-0.6c1,0,1.8,0,2.4-0.1c0.6-0.1,1.2-0.3,1.8-0.6
			c0.3-0.2,0.4-0.8,0.4-1.8V23c0-2-0.2-3.6-0.5-4.7c-0.6-1.8-1.6-2.7-3-2.7c-1.5,0-2.8,0.7-3.8,2.1c-1.1,1.6-2,4.5-2.6,8.7v12.9
			c0,0.9,0.1,1.4,0.2,1.7c0.1,0.1,0.3,0.2,0.6,0.4c0.3,0.1,0.8,0.2,1.6,0.3c0.8,0.1,1.5,0.2,2.2,0.2v0.6h-15.3v-0.6
			c1.6,0,2.9-0.1,3.8-0.5l0.5-0.2c0.3-0.2,0.4-0.8,0.4-1.9V23c0-2.1-0.2-3.6-0.5-4.7c-0.6-1.8-1.6-2.7-3.1-2.7
			c-1.9,0-3.4,1.2-4.5,3.7c-0.7,1.7-1.3,4.2-1.7,7.4v12.7c0,0.9,0.1,1.4,0.2,1.7c0.1,0.1,0.3,0.3,0.6,0.4c0.3,0.1,0.9,0.2,1.7,0.3
			c0.8,0.1,1.5,0.1,2.1,0.1v0.6H236v-0.6c0.9,0,1.8,0,2.7-0.1c0.9-0.1,1.7-0.3,2.5-0.5c0.3-0.2,0.4-0.8,0.4-1.9V19.9
			c0-0.4,0-0.8,0-1.2c0-0.4-0.1-0.7-0.3-0.9c-0.3-0.4-0.6-0.7-0.8-0.8c-0.6-0.2-2.1-0.3-4.4-0.3v-0.6l11.6-1.1v8.2
			c0.3-2.1,0.8-3.7,1.4-4.9c1-2,2.5-3.1,4.4-3.3c0.4,0,0.8-0.1,1.1-0.1c0.3,0,0.6,0,0.7,0c2.8,0,4.8,0.8,6.3,2.3
			C262.8,18.7,263.5,20.5,263.5,22.8z"/>
	</g>
</g>
</svg>
