<?xml version="1.0" encoding="UTF-8"?>
<svg width="137px" height="138px" viewBox="0 0 137 138" version="1.1" xmlns="http://www.w3.org/2000/svg" xmlns:xlink="http://www.w3.org/1999/xlink">
    <!-- Generator: Sketch 47.1 (45422) - http://www.bohemiancoding.com/sketch -->
    <title>Group 6 Copy 4svg</title>
    <desc>Created with Sketch.</desc>
    <defs>
        <filter x="-57.5%" y="-53.0%" width="215.0%" height="210.8%" filterUnits="objectBoundingBox" id="filter-1">
            <feOffset dx="0" dy="2" in="SourceAlpha" result="shadowOffsetOuter1"></feOffset>
            <feGaussianBlur stdDeviation="15" in="shadowOffsetOuter1" result="shadowBlurOuter1"></feGaussianBlur>
            <feColorMatrix values="0 0 0 0 0   0 0 0 0 0   0 0 0 0 0  0 0 0 0.25 0" type="matrix" in="shadowBlurOuter1" result="shadowMatrixOuter1"></feColorMatrix>
            <feMerge>
                <feMergeNode in="shadowMatrixOuter1"></feMergeNode>
                <feMergeNode in="SourceGraphic"></feMergeNode>
            </feMerge>
        </filter>
    </defs>
    <g id="1.-Homepages" stroke="none" stroke-width="1" fill="none" fill-rule="evenodd">
        <g id="SR-homepage" transform="translate(-451.000000, -111.000000)">
            <g id="Group-6-Copy-4" filter="url(#filter-1)" transform="translate(480.000000, 137.000000)">
                <path d="M77.3149109,46.1081453 C81.0216376,50.6522826 78.7900368,57.4934198 73.1098006,58.9992677 C69.4019614,59.9821133 66.8944698,63.4204108 67.1013879,67.2354473 C67.4184398,73.0826583 61.5768965,77.3098916 56.0924538,75.2023692 C52.5125478,73.8272719 48.4553952,75.1403181 46.371752,78.349248 C43.1778706,83.264584 35.9568732,83.264584 32.7629918,78.349248 C30.6782361,75.1403181 26.6210835,73.8272719 23.04229,75.2023692 C17.5567348,77.3098916 11.7151915,73.0826583 12.0322435,67.2354473 C12.2391616,63.4204108 9.73166995,59.9821133 6.02494316,58.9992677 C0.343594521,57.4934198 -1.88689383,50.6522826 1.81983295,46.1081453 C4.23832755,43.1418797 4.23832755,38.8935933 1.81983295,35.9273277 C-1.88689383,31.3831904 0.343594521,24.5431613 6.02494316,23.0362053 C9.73166995,22.0533597 12.2391616,18.6161703 12.0322435,14.8000257 C11.7151915,8.9528147 17.5567348,4.72558142 23.04229,6.83310375 C26.6210835,8.20820113 30.6782361,6.89515489 32.7629918,3.68733304 C35.9568732,-1.22911101 43.1778706,-1.22911101 46.371752,3.68733304 C48.4553952,6.89515489 52.5125478,8.20820113 56.0924538,6.83310375 C61.5768965,4.72558142 67.4184398,8.9528147 67.1013879,14.8000257 C66.8944698,18.6161703 69.4019614,22.0533597 73.1098006,23.0362053 C78.7900368,24.5431613 81.0216376,31.3831904 77.3149109,35.9273277 C74.8953038,38.8935933 74.8953038,43.1418797 77.3149109,46.1081453 Z" id="Fill-1" fill="#BD10E0"></path>
                <text id="RESUME-OF-THE-MONTH" font-family="PathwayGothicOne-Book, Pathway Gothic One" font-size="15" font-weight="normal" line-spacing="9" fill="#FFFFFF">
                    <tspan x="21" y="37">RESUME</tspan>
                    <tspan x="24.6975" y="51">OF THE</tspan>
                    <tspan x="23.46" y="65">MONTH</tspan>
                </text>
            </g>
        </g>
    </g>
</svg>