<?xml version="1.0" encoding="utf-8"?>
<!-- Generator: Adobe Illustrator 21.0.2, SVG Export Plug-In . SVG Version: 6.00 Build 0)  -->
<svg version="1.1" id="Layer_1" xmlns="http://www.w3.org/2000/svg" xmlns:xlink="http://www.w3.org/1999/xlink" x="0px" y="0px"
	 viewBox="0 0 36 36" style="enable-background:new 0 0 36 36;" xml:space="preserve">
<style type="text/css">
	.st0{fill:#2DC08D;}
</style>
<path id="path-1" class="st0" d="M5.4,21.6h18v-7.2h-18V21.6z M31.5,15.3v-3.6H2.6v12.6h28.8v-3.6h1.8v-5.4H31.5z M2.6,9h28.8
	c0.7,0,1.4,0.3,1.9,0.8s0.8,1.1,0.8,1.9v0.9h0.5c0.4,0,0.7,0.1,1,0.4c0.3,0.3,0.4,0.6,0.4,1V22c0,0.4-0.1,0.7-0.4,1
	c-0.3,0.3-0.6,0.4-1,0.4h-0.5v0.9c0,0.7-0.3,1.4-0.8,1.9c-0.5,0.5-1.1,0.8-1.9,0.8H2.6c-0.7,0-1.4-0.3-1.9-0.8
	C0.3,25.7,0,25.1,0,24.4V11.8c0-0.7,0.3-1.3,0.8-1.9c0.5-0.5,1.1-0.8,1.9-0.8V9z"/>
</svg>
