<?xml version="1.0" encoding="UTF-8"?>
<svg width="36px" height="18px" viewBox="0 0 36 18" version="1.1" xmlns="http://www.w3.org/2000/svg" xmlns:xlink="http://www.w3.org/1999/xlink">
    <!-- Generator: Sketch 46 (44423) - http://www.bohemiancoding.com/sketch -->
    <title>1.A/Icon/60x60/Smile Copy 13</title>
    <desc>Created with Sketch.</desc>
    <defs>
        <path d="M5.35315092,12.6 L23.3812748,12.6 L23.3812748,5.4 L5.35315092,5.4 L5.35315092,12.6 Z M31.4939305,6.3 L31.4939305,2.7 L2.64893233,2.7 L2.64893233,15.3 L31.4939305,15.3 L31.4939305,11.7 L33.2967429,11.7 L33.2967429,6.3 L31.4939305,6.3 Z M2.64893233,0 L31.4939305,0 C32.2246705,0 32.8448379,0.2808 33.3520292,0.7872 C33.8592204,1.2936 34.1404591,1.9128 34.1404591,2.6448 L34.1404591,3.5448 L34.5923641,3.5448 C34.9865791,3.5448 35.323104,3.6552 35.6067465,3.9384 C35.8879853,4.2192 36.0009615,4.5552 36.0009615,4.9512 L36.0009615,13.0488 C36.0009615,13.4448 35.8879853,13.7808 35.6067465,14.0616 C35.323104,14.3448 34.9865791,14.4552 34.5923641,14.4552 L34.1404591,14.4552 L34.1404591,15.3552 C34.1404591,16.0872 33.8592204,16.7064 33.3520292,17.2128 C32.8448379,17.7192 32.2246705,18 31.4939305,18 L2.64893233,18 C1.91578863,18 1.29562117,17.7192 0.788429951,17.2128 C0.281238732,16.7064 0,16.0872 0,15.3552 L0,2.7552 C0,2.0256 0.281238732,1.4064 0.788429951,0.9 C1.29562117,0.3936 1.91578863,0.1128 2.64893233,0.1128 L2.64893233,0 Z" id="path-1"></path>
    </defs>
    <g id="Homepages" stroke="none" stroke-width="1" fill="none" fill-rule="evenodd">
        <g id="Carrer-Page" transform="translate(-622.000000, -1706.000000)">
            <g id="1.A/Icon/60x60/Battery" transform="translate(610.000000, 1685.000000)">
                <g id="Colors/Blue" transform="translate(12.000000, 21.000000)">
                    <mask id="mask-2" fill="white">
                        <use xlink:href="#path-1"></use>
                    </mask>
                    <use id="Mask" fill="#000000" xlink:href="#path-1"></use>
                    <g id="1.A/Colors/Green" mask="url(#mask-2)" fill="#2DC08D">
                        <g transform="translate(-12.000000, -21.000000)" id="Rectangle-2-Copy-3">
                            <rect x="0" y="0" width="60" height="60"></rect>
                        </g>
                    </g>
                </g>
            </g>
        </g>
    </g>
</svg>