<?xml version="1.0" encoding="UTF-8"?>
<svg width="48px" height="33px" viewBox="0 0 48 33" version="1.1" xmlns="http://www.w3.org/2000/svg" xmlns:xlink="http://www.w3.org/1999/xlink">
    <!-- Generator: Sketch 45.2 (43514) - http://www.bohemiancoding.com/sketch -->
    <title>1.A/Icon/60x60/Smile Copy 13</title>
    <desc>Created with Sketch.</desc>
    <defs>
        <path d="M37.2741149,9.86901156 C37.1866934,9.86901156 37.1029048,9.88037869 37.0173583,9.88272243 L35.5584982,1.35233439 C35.4792799,0.892258513 35.2055312,0.488549547 34.8086191,0.242691372 C34.4126445,-0.00222930661 33.9297171,-0.0653930607 33.4815943,0.0697234671 L29.088022,1.40038103 C28.2292762,1.66088757 27.7435364,2.56908626 28.0040429,3.42970706 C28.2644323,4.28939036 29.1754435,4.77688798 30.0318455,4.5149752 L32.6598796,3.7189244 L33.2623376,7.23089944 L19.4301786,7.23089944 L19.4301786,6.53973094 L21.1298578,6.11035803 C21.8054404,5.94043699 22.2870787,5.3100885 22.2467664,4.58868578 C22.201415,3.77118977 21.5006372,3.14588032 20.6820865,3.19298947 L14.4020391,3.54958929 C14.2771178,3.55732363 14.1383685,3.57841727 14.0111035,3.61005774 C12.8960698,3.89200949 12.2186122,5.02497271 12.500564,6.14047507 C12.782047,7.25609463 13.9164164,7.93214601 15.0315672,7.65066301 L16.1749601,7.36179724 L16.1749601,8.41835458 L14.8373885,10.7222496 C13.5708322,10.1742835 12.1860342,9.86901156 10.7312757,9.86901156 C4.81427337,9.86901156 0,14.8727762 0,21.0228633 C0,27.1742396 4.81427337,32.1780042 10.7312757,32.1780042 C16.1122651,32.1780042 20.5694699,28.0306416 21.3303646,22.650121 L23.0651999,22.650121 C23.5276195,22.650121 23.9678908,22.4533642 24.276444,22.1081315 L26.6631901,19.4425976 C26.5913545,19.9607982 26.5419017,20.4854441 26.5419017,21.0228633 C26.5419017,27.1742396 31.3571125,32.1780042 37.2741149,32.1780042 C43.1888907,32.1780042 48,27.1742396 48,21.0228633 C48,14.8727762 43.1888907,9.86901156 37.2741149,9.86901156 Z M10.7312757,28.9237232 C6.60875679,28.9237232 3.25381224,25.3792874 3.25381224,21.0228633 C3.25381224,16.6667909 6.60875679,13.1236441 10.7312757,13.1236441 C11.5895528,13.1236441 12.400252,13.3085651 13.1693498,13.5914543 L9.32362635,20.2057189 C9.03112778,20.7088024 9.02983872,21.3300103 9.3204623,21.8343828 C9.60932808,22.3388725 10.1481536,22.650121 10.7312757,22.650121 L18.0408103,22.650121 C17.3290169,26.2279551 14.3234066,28.9237232 10.7312757,28.9237232 Z M18.0408103,19.3959572 L13.5602854,19.3959572 L15.912227,15.3511332 C16.9669093,16.4281983 17.7281556,17.8226055 18.0408103,19.3959572 Z M22.3378206,19.3959572 L21.3303646,19.3959572 C20.939429,16.6233145 19.5729122,14.1760999 17.5931563,12.4581395 L18.7402991,10.4847117 L30.312977,10.4847117 L22.3378206,19.3959572 Z M37.2741149,28.9237232 C33.1506584,28.9237232 29.7966514,25.3792874 29.7966514,21.0228633 C29.7966514,17.752059 31.6875797,14.9395727 34.3756134,13.741688 L35.6692399,21.2979011 C35.8061142,22.0912566 36.4927124,22.650121 37.2709508,22.650121 C37.3634113,22.650121 37.4558718,22.6433242 37.5473948,22.6272696 C38.4349686,22.4752781 39.0287547,21.633876 38.8777008,20.7486459 L37.577629,13.1562221 C41.5550705,13.32919 44.745719,16.7775325 44.745719,21.0228633 C44.745719,25.3792874 41.3926494,28.9237232 37.2741149,28.9237232 Z" id="path-1"></path>
    </defs>
    <g id="Homepages" stroke="none" stroke-width="1" fill="none" fill-rule="evenodd">
        <g id="Carrer-Page" transform="translate(-616.000000, -1699.000000)">
            <g id="1.A/Icon/60x60/Bike" transform="translate(610.000000, 1685.000000)">
                <g id="Colors/Blue" transform="translate(6.000000, 14.000000)">
                    <mask id="mask-2" fill="white">
                        <use xlink:href="#path-1"></use>
                    </mask>
                    <use id="Mask" fill="#000000" xlink:href="#path-1"></use>
                    <g id="1.A/Colors/Green" mask="url(#mask-2)" fill="#2DC08D">
                        <g transform="translate(-6.000000, -14.000000)" id="Rectangle-2-Copy-3">
                            <rect x="0" y="0" width="60" height="60"></rect>
                        </g>
                    </g>
                </g>
            </g>
        </g>
    </g>
</svg>