<?xml version="1.0" encoding="utf-8"?>
<!-- Generator: Adobe Illustrator 21.0.2, SVG Export Plug-In . SVG Version: 6.00 Build 0)  -->
<svg version="1.1" id="Layer_1" xmlns="http://www.w3.org/2000/svg" xmlns:xlink="http://www.w3.org/1999/xlink" x="0px" y="0px"
	 viewBox="0 0 36 36" style="enable-background:new 0 0 36 36;" xml:space="preserve">
<style type="text/css">
	.st0{fill:#2DC08D;}
</style>
<g>
	<path id="path-1" class="st0" d="M28,13.3c-0.1,0-0.1,0-0.2,0l-1.1-6.4c-0.1-0.3-0.3-0.6-0.6-0.8c-0.3-0.2-0.7-0.2-1-0.1l-3.3,1
		c-0.6,0.2-1,0.9-0.8,1.5c0.2,0.6,0.9,1,1.5,0.8l2-0.6l0.5,2.6H14.6v-0.5l1.3-0.3c0.5-0.1,0.9-0.6,0.8-1.1c0-0.6-0.6-1.1-1.2-1
		l-4.7,0.3c-0.1,0-0.2,0-0.3,0c-0.8,0.2-1.3,1.1-1.1,1.9c0.2,0.8,1.1,1.3,1.9,1.1l0.9-0.2v0.8l-1,1.7c-0.9-0.4-2-0.6-3.1-0.6
		c-4.4,0-8,3.8-8,8.4c0,4.6,3.6,8.4,8,8.4c4,0,7.4-3.1,7.9-7.1h1.3c0.3,0,0.7-0.1,0.9-0.4l1.8-2c-0.1,0.4-0.1,0.8-0.1,1.2
		c0,4.6,3.6,8.4,8,8.4c4.4,0,8-3.8,8-8.4C36,17.1,32.4,13.3,28,13.3z M8,27.6c-3.1,0-5.6-2.7-5.6-5.9c0-3.3,2.5-5.9,5.6-5.9
		c0.6,0,1.3,0.1,1.8,0.4l-2.9,5c-0.2,0.4-0.2,0.8,0,1.2c0.2,0.4,0.6,0.6,1.1,0.6h5.5C13,25.6,10.7,27.6,8,27.6z M13.5,20.5h-3.4
		l1.8-3C12.7,18.3,13.3,19.3,13.5,20.5z M16.8,20.5H16c-0.3-2.1-1.3-3.9-2.8-5.2l0.9-1.5h8.7L16.8,20.5z M28,27.6
		c-3.1,0-5.6-2.7-5.6-5.9c0-2.5,1.4-4.6,3.4-5.5l1,5.7c0.1,0.6,0.6,1,1.2,1c0.1,0,0.1,0,0.2,0c0.7-0.1,1.1-0.7,1-1.4l-1-5.7
		c3,0.1,5.4,2.7,5.4,5.9C33.6,25,31,27.6,28,27.6z"/>
</g>
</svg>
