<?xml version="1.0" encoding="UTF-8"?>
<svg width="36px" height="36px" viewBox="0 0 36 36" version="1.1" xmlns="http://www.w3.org/2000/svg" xmlns:xlink="http://www.w3.org/1999/xlink">
    <!-- Generator: Sketch 45.2 (43514) - http://www.bohemiancoding.com/sketch -->
    <title>1.A/Icon/60x60/Smile Copy 16</title>
    <desc>Created with Sketch.</desc>
    <defs>
        <path d="M18,7.3635285 C19.3090366,7.3635285 20.4544216,6.21823136 20.4544216,4.90910689 C20.4544216,4.41824015 20.2909458,4.09102495 20.1272064,3.60007031 L18,0 L15.8727936,3.60007031 C15.7089663,3.92728551 15.5452268,4.41824015 15.5452268,4.90910689 C15.5452268,6.21823136 16.6908755,7.3635285 18,7.3635285 Z M28.6360321,11.4545534 L19.6362518,11.4545534 L19.6362518,8.99978027 L16.3637482,8.99978027 L16.3637482,11.4545534 L7.3635285,11.4545534 C3.27285511,11.4545534 0,14.727057 0,18.8180819 C0,21.436243 1.30912447,23.5635373 3.27285511,24.8725739 L3.27285511,36 L32.727057,36 L32.727057,24.8725739 C34.6908755,23.5635373 36,21.2725036 36,18.8180819 C36,14.727057 32.727057,11.4545534 28.6360321,11.4545534 Z M28.6360321,22.9091069 C27.4907349,22.9091069 26.5088256,22.4181523 25.6907437,21.7634582 L23.2363221,19.3090366 L20.7815489,21.7634582 C20.1272064,22.4181523 19.1452971,22.9091069 18,22.9091069 C16.8543513,22.9091069 15.8727936,22.4181523 15.0546238,21.7634582 L12.5998506,19.3090366 L10.1455169,21.7634582 C9.49073491,22.4181523 8.5091772,22.9091069 7.3635285,22.9091069 C5.07258265,22.9091069 3.27285511,21.1091157 3.27285511,18.8180819 C3.27285511,16.5271361 5.07258265,14.727057 7.3635285,14.727057 L28.6360321,14.727057 C30.9270658,14.727057 32.727057,16.5271361 32.727057,18.8180819 C32.727057,21.1091157 30.9270658,22.9091069 28.6360321,22.9091069 Z" id="path-1"></path>
    </defs>
    <g id="Homepages" stroke="none" stroke-width="1" fill="none" fill-rule="evenodd">
        <g id="Carrer-Page" transform="translate(-622.000000, -1829.000000)">
            <g id="1.A/Icon/60x60/Cake" transform="translate(610.000000, 1817.000000)">
                <g id="Colors/Blue" transform="translate(12.000000, 12.000000)">
                    <mask id="mask-2" fill="white">
                        <use xlink:href="#path-1"></use>
                    </mask>
                    <use id="Mask" fill="#000000" xlink:href="#path-1"></use>
                    <g id="1.A/Colors/Green" mask="url(#mask-2)" fill="#2DC08D">
                        <g transform="translate(-12.000000, -12.000000)" id="Rectangle-2-Copy-3">
                            <rect x="0" y="0" width="60" height="60"></rect>
                        </g>
                    </g>
                </g>
            </g>
        </g>
    </g>
</svg>