<?xml version="1.0" encoding="UTF-8"?>
<svg width="36px" height="40px" viewBox="0 0 36 40" version="1.1" xmlns="http://www.w3.org/2000/svg" xmlns:xlink="http://www.w3.org/1999/xlink">
    <!-- Generator: Sketch 45.2 (43514) - http://www.bohemiancoding.com/sketch -->
    <title>1.A/Icon/60x60/Smile Copy 15</title>
    <desc>Created with Sketch.</desc>
    <defs>
        <path d="M33.7774924,2.92613728 L34.9493674,2.92613728 C35.4181197,2.92613728 35.6524924,2.69176463 35.6524924,2.22301228 C35.6524924,1.75425994 35.4181197,1.51988728 34.9493674,1.51988728 L33.7774924,1.51988728 C33.1004056,1.51988728 32.5274947,1.83238416 32.0587424,2.45738728 L30.4962424,4.64488728 L29.4024924,2.61363728 C29.2462416,2.30113572 28.9337447,2.2230115 28.4649924,2.37926228 C28.0483236,2.69176385 27.9701994,3.00426072 28.2306174,3.31676228 L29.7149924,5.89488728 L28.8556174,7.14488728 C28.5951994,7.0407201 28.3087439,7.0407201 27.9962424,7.14488728 L27.6837424,7.30113728 L24.9493674,3.47301228 L26.1212424,1.67613728 C26.4337439,1.25946853 26.3816611,0.946971659 25.9649924,0.738637284 C25.5483236,0.426135721 25.2358267,0.478218534 25.0274924,0.894887284 L24.0899924,2.37926228 C23.360822,1.80634275 22.5795799,1.67613572 21.7462424,1.98863728 L20.5743674,2.30113728 L19.2462424,0.348012284 C18.9858244,-0.0165728723 18.6733275,-0.094697091 18.3087424,0.113637284 C17.9441572,0.374055253 17.866033,0.686552128 18.0743674,1.05113728 L19.2462424,2.69176228 L17.2149924,3.23863728 C16.6941564,3.34280447 16.537908,3.62925994 16.7462424,4.09801228 C16.8504095,4.56676463 17.1108236,4.69697166 17.5274924,4.48863728 L22.1368674,3.23863728 C22.7618705,3.03030291 23.2045744,3.18655135 23.4649924,3.70738728 L24.1681174,4.64488728 L21.8243674,5.66051228 C21.4597822,5.71259588 21.3295752,5.99905135 21.4337424,6.51988728 C21.6420767,6.83238885 21.850408,6.98863728 22.0587424,6.98863728 C22.2149931,6.98863728 22.3191588,6.96259588 22.3712424,6.91051228 L24.9493674,5.73863728 L26.7462424,8.23863728 L26.2774924,9.41051228 L21.2774924,16.9105123 L7.13686735,16.9105123 C5.57435954,16.9105123 4.27228923,17.5094646 3.23061735,18.7073873 C1.9806111,18.1344678 1.17332751,17.3532256 0.808742352,16.3636373 C0.756658758,16.2594701 0.704575946,16.2073873 0.652492352,16.2073873 C0.600408758,16.2073873 0.522284539,16.2594701 0.418117352,16.3636373 C-0.467303742,18.707399 0.0535243831,20.2698834 1.98061735,21.0511373 C1.87645016,21.467806 1.82436735,21.8584271 1.82436735,22.2230123 C1.82436735,23.7855201 2.4233197,25.1136318 3.62124235,26.2073873 L1.66811735,29.3323873 L1.58999235,29.4886373 C1.48582516,29.5928045 1.43374235,29.8011357 1.43374235,30.1136373 L1.74624235,39.0980123 C1.74624235,39.514681 1.9545736,39.7750951 2.37124235,39.8792623 C2.99624548,39.9834295 3.30874235,39.7490568 3.30874235,39.1761373 L4.40249235,32.6136373 L6.19936735,39.3323873 C6.35561813,39.749056 6.6420736,39.9573873 7.05874235,39.9573873 C7.26707673,39.9573873 7.46238727,39.8662424 7.64467985,39.6839498 C7.82697243,39.5016572 7.89207595,39.3063467 7.83999235,39.0980123 L7.37124235,30.9730123 L9.55874235,27.6917623 L17.9181174,27.6917623 L19.4024924,30.7386373 L17.9962424,39.0198873 C17.7358244,39.4886396 17.8920728,39.7750951 18.4649924,39.8792623 C18.9858283,40.1396803 19.350408,39.9834318 19.5587424,39.4105123 L22.3712424,31.6761373 L23.7774924,39.2542623 C23.8816595,39.7230146 24.168115,39.9573873 24.6368674,39.9573873 C25.2097869,39.9573873 25.4962424,39.6709318 25.4962424,39.0980123 L24.5587424,25.7386373 L29.7149924,14.0198873 L32.6837424,15.4261373 C33.1524947,15.5823881 33.6472814,15.5823881 34.1681174,15.4261373 C34.6368697,15.2178029 34.975408,14.905306 35.1837424,14.4886373 L35.3399924,14.0980123 C35.7045775,13.2125912 35.5483291,12.4834318 34.8712424,11.9105123 L30.1056174,7.92613728 L31.8243674,5.26988728 L32.6056174,5.81676228 C32.6577009,5.92092947 32.787908,5.97301228 32.9962424,5.97301228 C33.2045767,5.97301228 33.412908,5.89488807 33.6212424,5.73863728 C33.9337439,5.32196853 33.8816611,5.00947166 33.4649924,4.80113728 L32.6837424,4.17613728 L33.3087424,3.23863728 C33.3087424,3.03030291 33.4649908,2.92613728 33.7774924,2.92613728 Z" id="path-1"></path>
    </defs>
    <g id="Homepages" stroke="none" stroke-width="1" fill="none" fill-rule="evenodd">
        <g id="Carrer-Page" transform="translate(-286.000000, -1695.000000)">
            <g id="1.A/Icon/60x60/elen" transform="translate(274.000000, 1685.000000)">
                <g id="Colors/Blue" transform="translate(12.000000, 10.000000)">
                    <mask id="mask-2" fill="white">
                        <use xlink:href="#path-1"></use>
                    </mask>
                    <use id="Mask" fill="#2DC08D" xlink:href="#path-1"></use>
                    <g id="1.A/Colors/Green" mask="url(#mask-2)" fill="#2DC08D">
                        <g transform="translate(-12.000000, -10.000000)" id="Rectangle-2-Copy-3">
                            <rect x="0" y="0" width="60" height="60"></rect>
                        </g>
                    </g>
                </g>
            </g>
        </g>
    </g>
</svg>