<?xml version="1.0" encoding="utf-8"?>
<!-- Generator: Adobe Illustrator 21.0.2, SVG Export Plug-In . SVG Version: 6.00 Build 0)  -->
<svg version="1.1" id="Layer_1" xmlns="http://www.w3.org/2000/svg" xmlns:xlink="http://www.w3.org/1999/xlink" x="0px" y="0px"
	 viewBox="0 0 36 36" style="enable-background:new 0 0 36 36;" xml:space="preserve">
<style type="text/css">
	.st0{fill:#2DC08D;}
</style>
<g>
	<path id="path-1" class="st0" d="M33.6,9C32,6.2,29.8,4,27,2.4C24.3,0.8,21.3,0,18,0c-3.3,0-6.3,0.8-9,2.4C6.2,4,4,6.2,2.4,9
		C0.8,11.7,0,14.7,0,18s0.8,6.3,2.4,9C4,29.8,6.2,32,9,33.6c2.8,1.6,5.8,2.4,9,2.4s6.3-0.8,9-2.4c2.8-1.6,4.9-3.8,6.6-6.6
		c1.6-2.8,2.4-5.8,2.4-9C36,14.7,35.2,11.7,33.6,9L33.6,9z M20.3,27.5c-0.2-0.2-0.2-0.3-0.2-0.5c0,0.1-0.1,0.1-0.2,0.2
		c-0.1-0.1-0.2-0.2-0.4-0.4c-0.2-0.1-0.3-0.3-0.4-0.4c0,0-0.1-0.1-0.1-0.2c-0.1-0.1-0.1-0.2-0.2-0.3c-0.1-0.1-0.1-0.3-0.2-0.4
		c0-0.1,0-0.2,0-0.2c-0.3,0.1-0.7,0-1.3-0.3c-0.1-0.1-0.3-0.2-0.5-0.5c-0.2-0.3-0.4-0.4-0.7-0.4c-0.1,0-0.2,0-0.3,0.1
		c-0.1,0-0.2,0.1-0.3,0.1c-0.1,0-0.2,0-0.4-0.1c-0.1,0-0.3-0.1-0.5-0.3c-0.2-0.1-0.4-0.2-0.4-0.2c-0.2-0.1-0.3-0.2-0.3-0.2l-0.4-0.2
		c-0.1,0-0.2-0.1-0.3-0.2C13,23.2,13,23.1,12.9,23c0-0.1-0.1-0.3-0.1-0.6c0-0.3-0.1-0.5-0.2-0.6c-0.1-0.2-0.2-0.3-0.4-0.5
		c-0.2-0.2-0.3-0.2-0.5-0.2c0.1,0,0.1-0.1,0-0.3c-0.1-0.2-0.2-0.4-0.3-0.5c0,0-0.1-0.1-0.3-0.3c-0.2-0.2-0.3-0.3-0.4-0.4
		c-0.1-0.1-0.2-0.3-0.3-0.4c-0.1-0.2-0.1-0.3,0-0.4c0,0,0,0,0-0.1c0,0-0.1-0.1-0.2-0.1c-0.1,0-0.1-0.1-0.2-0.1c-0.1,0-0.1,0-0.1,0
		c0,0.1,0.1,0.2,0.1,0.3c0,0.2,0.1,0.3,0.1,0.4c0,0.1,0.2,0.3,0.4,0.7c0.4,0.7,0.6,1.1,0.6,1.5c-0.1,0-0.2,0-0.2,0
		c0-0.1-0.1-0.1-0.1-0.3c0-0.1,0-0.2,0-0.2c0-0.1-0.2-0.2-0.4-0.3c-0.2-0.1-0.3-0.2-0.4-0.3c0,0,0,0,0.1,0c0,0,0,0,0.1,0
		c0-0.1-0.1-0.3-0.2-0.5c-0.2-0.2-0.3-0.4-0.2-0.5c-0.1-0.1-0.2-0.3-0.3-0.6c-0.1-0.3-0.2-0.4-0.2-0.5c-0.1-0.1-0.1-0.2-0.2-0.2
		c-0.1-0.1-0.2-0.1-0.4-0.2c-0.1-0.1-0.2-0.1-0.3-0.2c0,0-0.1-0.1-0.2-0.2c-0.5-0.6-0.7-1-0.5-1c-0.2,0-0.4-0.1-0.5-0.5
		C7,15.3,6.9,15,7,14.8l0,0c0-0.1,0-0.2,0-0.6c0-0.3,0-0.6,0.1-0.8c0-0.2,0.1-0.4,0.2-0.4C7.1,13.1,7,13,7,12.8
		c-0.1-0.2-0.1-0.4,0-0.4c0,0,0.1,0,0.2,0.1c0.1,0.1,0.2,0.2,0.2,0.2c0.2-0.1,0.3-0.2,0.2-0.4c0-0.1-0.2-0.2-0.5-0.5
		c-0.7-0.4-1-0.6-1-0.6c0.1-0.2,0.1-0.3-0.1-0.4c-0.2,0.1-0.2,0.1-0.3,0.1c0,0,0-0.1-0.1-0.3c0-0.1-0.1-0.2-0.1-0.2
		c-0.1,0-0.2-0.1-0.3-0.2c1.4-2.2,3.2-4,5.5-5.2c0.1,0,0.3,0,0.5,0c0.1,0,0.2,0.1,0.4,0.1s0.2,0.1,0.3,0.3c0.1,0.1,0.2,0.2,0.3,0.2
		c0-0.1,0-0.2-0.1-0.4c0-0.1,0.2-0.2,0.5-0.3c0.4,0,0.6,0,0.7,0c-0.1-0.1-0.2-0.3-0.5-0.6l-0.1,0.1c-0.1-0.1-0.5-0.1-1,0.2
		c0,0-0.1,0.1-0.2,0.1c-0.1,0.1-0.2,0.1-0.3,0.2c-0.1,0-0.2,0-0.3,0c0.7-0.4,1.5-0.7,2.2-1c0,0,0.1,0.1,0.2,0.2
		c0.1,0.1,0.2,0.2,0.3,0.2c0,0-0.1,0-0.1,0c-0.1,0.2-0.1,0.3,0,0.5c0.1,0.1,0.2,0.2,0.3,0.2c0.1,0,0.3,0,0.5,0c0.2,0,0.3,0,0.4,0
		l0.2,0c0.5,0,0.7,0,0.6-0.1c0,0.1,0.1,0.2,0.2,0.4c0.1,0.2,0.1,0.3,0.2,0.4c0.1-0.1,0.1-0.2,0-0.3c0-0.2,0-0.3,0-0.3
		c0,0,0.1-0.1,0.1-0.1s0.2-0.1,0.3-0.1s0.2-0.1,0.2-0.1c0.1-0.1,0-0.2-0.2-0.3c0,0-0.1,0-0.2-0.1c-0.1,0-0.2-0.1-0.3-0.1
		c-0.1,0-0.2-0.1-0.2-0.1c-0.1-0.1-0.1-0.1-0.1-0.2c0-0.1,0.1-0.2,0.1-0.3c0.1-0.1,0.2-0.1,0.5-0.1c0.2,0,0.4,0.1,0.5,0.1
		c0.4,0.2,0.5,0.4,0.2,0.6c0.2,0,0.3,0.1,0.6,0.2c0.2,0.1,0.3,0.2,0.3,0.4c0.1-0.2,0.2-0.4,0.4-0.4c0.1,0,0.2,0.1,0.2,0.3
		C18.3,4.9,18.4,5,18.4,5c0.1,0.2,0.2,0.2,0.4,0.1C18.9,5,19,4.9,19.2,4.7c0.1-0.2,0.2-0.3,0.2-0.2c-0.2-0.1-0.2-0.1,0-0.2
		c0.2-0.1,0.4-0.2,0.6-0.1c0,0,0.1,0.1,0.2,0.2c0.1,0.3,0.1,0.4-0.1,0.4c0.1,0.1,0.2,0.3,0.2,0.5c0,0.2-0.1,0.3-0.4,0.3
		c-0.1,0-0.2,0-0.3-0.1c-0.1-0.1-0.3-0.1-0.3-0.1c-0.1,0-0.2,0-0.3,0.1c-0.1,0.1-0.1,0.2-0.2,0.4c-0.1,0.2-0.2,0.3-0.3,0.4
		c-0.2,0.2-0.6,0.3-1.2,0.3c0,0,0,0,0,0.1c-0.1,0.1-0.1,0.2-0.2,0.3c-0.1,0.1-0.1,0.2-0.2,0.2c-0.1,0.2-0.2,0.3-0.3,0.5
		c0,0,0,0.1,0,0.3c0,0.2,0,0.3-0.1,0.4c0.2,0,0.3,0,0.4,0.3c0.1,0.2,0.1,0.3,0,0.4c0.5-0.1,1,0,1.4,0.1c0.6,0.2,0.9,0.4,1,0.6
		c0.1-0.1,0.3-0.1,0.7,0c0.1,0.1,0.3,0.3,0.4,0.7c0.1,0.2,0.2,0.4,0.3,0.6c0.1,0.2,0.3,0.2,0.5,0.1l0.1,0c0.1,0,0.1-0.1,0.2-0.1
		c0,0,0.1-0.1,0.1-0.1c0,0,0.1-0.1,0.1-0.1c0,0,0-0.1,0-0.1c-0.1-0.1-0.2-0.2-0.2-0.4c-0.1-0.2,0-0.3,0-0.4c0-0.1,0.2-0.2,0.4-0.3
		c0.2-0.1,0.3-0.2,0.4-0.4c0.1-0.2,0-0.4-0.2-0.5c-0.2-0.1-0.3-0.3-0.3-0.4c0-0.1,0.1-0.2,0.2-0.3c0.1-0.1,0.1-0.2,0.1-0.3
		c0,0,0-0.1-0.1-0.3c-0.1-0.1-0.1-0.3-0.1-0.3c0-0.1,0-0.2,0.1-0.2c0.1-0.1,0.4-0.1,0.8,0C22.8,7,23.1,7,23.2,7.1
		c0,0,0.1,0.1,0.3,0.1c0.2,0.1,0.3,0.1,0.4,0.2c0.1,0.1,0.2,0.1,0.2,0.2H24c0.1,0.1,0.2,0.2,0.2,0.3c0,0.1,0,0.2-0.2,0.3
		c0.1,0,0.2,0,0.4,0.1c0.2,0.1,0.3,0.2,0,0.3c0,0,0.1,0,0.2,0c0.1,0,0.2,0,0.2-0.1c0,0,0.1,0,0.1-0.1c0,0,0.1-0.1,0.1-0.1
		c0,0,0.1,0,0.1,0c0,0,0.1,0,0.1,0c0,0,0.1,0,0.1-0.1c0.1-0.1,0.1-0.2,0.2-0.2c0.1-0.1,0.1-0.1,0.2-0.1c0,0,0.1,0,0.1,0.1
		c0,0,0.1,0.1,0.1,0.1c0,0,0,0.1,0.1,0.2c0,0.1,0,0.1,0.1,0.1c0,0.1,0.1,0.2,0.2,0.2c0.1,0.1,0.2,0.2,0.2,0.2c0,0,0,0.2,0.1,0.4
		c0,0.2,0.1,0.3,0.2,0.4c0.1,0.1,0.2,0.1,0.4,0.2c0,0,0.1,0,0.2,0c0.1,0,0.2,0,0.3,0c0.1,0,0.1,0.1,0.1,0.2c0.1-0.1,0.1-0.2,0.1-0.2
		c0,0.2,0.1,0.4,0.2,0.5c0.1,0.1,0.2,0.2,0.4,0.2l0,0.5c0,0.1-0.2,0.1-0.4,0.2c-0.2,0-0.3,0.1-0.4,0.1c0,0-0.2,0.1-0.3,0.3
		c-0.2,0.2-0.3,0.3-0.2,0.3c-0.3-0.3-0.7-0.4-1.2-0.3c-0.6,0.1-1,0.2-1.2,0.3c-0.2,0.1-0.4,0.2-0.5,0.4c0,0,0,0.1-0.1,0.2
		c0,0.1-0.1,0.2-0.1,0.3c0,0.1-0.1,0.1-0.1,0.1c0.1,0,0.2-0.1,0.3-0.2c0.1-0.1,0.2-0.2,0.2-0.2c0.4-0.3,0.7-0.4,1-0.3
		c0.3,0.1,0.4,0.2,0.2,0.4c0,0-0.1,0-0.2,0c-0.1,0-0.2,0-0.3,0c0.1,0,0.3,0.1,0.4,0.1c0.1,0.1,0.1,0.1,0.1,0.2
		c0.2,0.1,0.3,0.3,0.1,0.5c-0.2,0.2-0.4,0.3-0.7,0.3c0,0,0,0,0,0.1l-0.4,0.3c0,0-0.1,0.1-0.3,0.1C24,14,23.9,14,23.9,14.1
		c0,0.1-0.1,0.2-0.1,0.3c0,0.1,0,0.2,0,0.3c0,0.1-0.1,0.1-0.2,0c0,0.1-0.2,0.2-0.4,0.2c-0.2,0.1-0.4,0.1-0.5,0.2
		c0.1,0.1,0.1,0.2,0,0.4c-0.2,0.2-0.4,0.1-0.5,0c-0.1,0-0.1,0.1-0.2,0.2c0,0.1-0.1,0.2-0.2,0.3c0.1,0.2,0.1,0.3,0,0.4
		c0,0,0.1,0,0.1,0c0.1,0,0.1,0.1,0.2,0.1c0.1,0,0.1,0.1,0.1,0.1c-0.1,0.1-0.1,0.2-0.3,0.2c0.1,0.3,0,0.5-0.4,0.8
		c-0.1,0.1-0.2,0.1-0.3,0.2C21.1,17.9,21,18,20.9,18c-0.1,0-0.2,0.1-0.2,0.1c-0.2,0.1-0.3,0.3-0.4,0.4s-0.1,0.3,0,0.4
		c0.1,0.1,0.2,0.2,0.4,0.3l0,0.2v0.4l0,0.2c0,0.1,0,0.2,0,0.3c0,0.1,0,0.2,0,0.3c0,0.1,0,0.2-0.1,0.2c-0.1,0-0.1,0-0.3,0
		c-0.1-0.1-0.3-0.4-0.4-1c0-0.2-0.1-0.3-0.3-0.6c-0.1,0.1-0.1,0.1-0.2,0.2c-0.1,0-0.1,0-0.1,0c0,0-0.1-0.1-0.1-0.1
		c-0.1-0.1-0.1-0.1-0.2-0.1c-0.1,0-0.2-0.1-0.4-0.1c-0.2,0-0.3-0.1-0.4-0.1c-0.4,0.3-0.6,0.2-0.7-0.2c0,0.1,0,0.2,0,0.3
		c0,0.1,0.1,0.2,0.1,0.2c-0.1,0.2-0.3,0.2-0.5,0c-0.1-0.1-0.3-0.1-0.6,0c-0.3,0.1-0.6,0.1-0.7,0c0,0,0,0,0.1,0.1
		c0,0,0.1,0.1,0.1,0.1c0,0.1,0,0.1-0.1,0.1c0,0-0.1,0-0.1,0c0,0-0.1,0-0.1,0c0,0-0.1,0-0.1,0c-0.1,0-0.1,0.1-0.2,0.2
		c-0.1,0.1-0.2,0.2-0.2,0.2c0.1,0.2,0.1,0.4,0.1,0.6c0,0.1,0,0.3-0.1,0.6c0,0.3-0.1,0.5-0.1,0.6c0,0.2,0.1,0.5,0.2,0.9
		c0.1,0.3,0.3,0.6,0.5,0.7c0.1,0.1,0.3,0.1,0.6,0.1c0.3,0,0.5,0,0.6,0c0.1,0,0.2-0.1,0.2-0.2c0-0.1,0.1-0.2,0.1-0.3
		c0-0.1,0.1-0.2,0.1-0.2c0.1-0.3,0.3-0.5,0.6-0.5c0.2,0,0.3,0,0.4,0.1c0.1,0.1,0.1,0.1,0.1,0.2c0,0.1,0,0.2-0.1,0.3
		c0,0.1-0.1,0.2-0.2,0.3c-0.1,0.1-0.1,0.2-0.1,0.3c0,0.1-0.1,0.3-0.1,0.5c0,0.2,0,0.4-0.1,0.4c0,0,0.1,0,0.4,0c0,0,0-0.1,0-0.2
		c0-0.1,0-0.1,0-0.1c0.1,0.1,0.2,0.2,0.4,0.2c0.2,0,0.3,0,0.4-0.2c0,0,0.1,0.2,0.3,0.4c0.2,0.2,0.2,0.3,0.3,0.5c0,0.1,0,0.2,0.1,0.3
		c0,0.1,0.1,0.2,0,0.3c0,0.1-0.1,0.1-0.2,0.1c-0.1,0-0.1,0-0.1,0.1c0,0,0,0.1,0,0.2c0,0.1,0,0.1,0.1,0.2c0,0.1,0.1,0.1,0.1,0.2
		c0,0.1,0.1,0.1,0.1,0.1c0.3,0.5,0.7,0.7,1.1,0.4c0,0.5-0.1,0.7-0.3,0.7C20.5,27.7,20.4,27.7,20.3,27.5L20.3,27.5z M20.6,32.8
		c0-0.2,0-0.3,0-0.4c0-0.1,0-0.3,0.2-0.5c0.1-0.2,0.2-0.4,0.2-0.5c-0.2-0.1-0.3-0.3-0.3-0.6c0-0.2,0.3-0.5,0.7-0.9
		c0.3-0.3,0.4-0.6,0.3-1.1c0-0.2-0.1-0.5-0.1-0.9c0-0.4-0.1-0.7-0.1-0.8c0,0,0.1,0.1,0.2,0.1c0.1,0,0.2,0.1,0.3,0.2
		c0,0,0.1-0.1,0.1-0.3c0-0.1,0.1-0.2,0.1-0.3c0,0,0.1-0.1,0.2-0.2c0.1-0.1,0.2-0.1,0.2-0.1c0,0,0.1-0.1,0.2-0.2
		c0.1-0.1,0.2-0.2,0.3-0.2c0.1,0,0.2-0.1,0.3-0.1c0.1,0,0.2,0,0.2,0.1c0.1,0.1,0.1,0.2,0,0.4c-0.1,0.2-0.1,0.3,0,0.4
		c0,0,0-0.1,0-0.3c0-0.2,0.1-0.3,0.1-0.4c0.1-0.1,0.2-0.1,0.3-0.2c0.1,0,0.2,0,0.2,0c0.1,0,0.2,0.1,0.2,0.2c0.1,0.1,0.2,0.1,0.3,0.1
		c0.2,0.1,0.5,0.2,0.8,0.5c0,0,0,0,0-0.1c0,0,0,0,0.1-0.1c0,0,0.1,0,0.1-0.1c0,0,0.1,0,0.1-0.1l0.1,0c0.1,0,0.2,0,0.2,0
		c0,0,0.1,0,0.2,0c0.1,0,0.1,0.1,0.2,0.1c0,0,0.1,0.1,0.2,0.1c0.1,0.1,0.1,0.1,0.2,0.1c0,0,0.1,0.1,0.3,0.2c0.1,0.1,0.2,0.1,0.3,0.2
		c0.1,0,0.1,0.1,0.2,0.2c0.1,0.1,0.1,0.2,0.1,0.3c0.1,0,0.3,0.1,0.6,0.2c0,0,0.1,0.1,0.3,0.1c0.1,0,0.2,0.1,0.3,0.1
		C26.6,30.7,23.8,32.2,20.6,32.8L20.6,32.8z"/>
</g>
</svg>
