<?xml version="1.0" encoding="UTF-8"?>
<svg width="42px" height="42px" viewBox="0 0 42 42" version="1.1" xmlns="http://www.w3.org/2000/svg" xmlns:xlink="http://www.w3.org/1999/xlink">
    <!-- Generator: Sketch 45.2 (43514) - http://www.bohemiancoding.com/sketch -->
    <title>1.A/Icon/60x60/Smile Copy 14</title>
    <desc>Created with Sketch.</desc>
    <defs>
        <path d="M39.06,10.5306667 C37.195,7.33533333 34.665,4.80533333 31.4696667,2.94033333 C28.2736667,1.07533333 24.7846667,0.143 21.0003333,0.143 C17.2163333,0.143 13.7266667,1.07533333 10.531,2.94033333 C7.33533333,4.805 4.80533333,7.335 2.94033333,10.5306667 C1.075,13.7263333 0.142666667,17.2163333 0.142666667,21 C0.142666667,24.7836667 1.07533333,28.2733333 2.94,31.4693333 C4.805,34.664 7.335,37.1946667 10.5306667,39.0596667 C13.7263333,40.9246667 17.216,41.857 21,41.857 C24.784,41.857 28.274,40.9246667 31.4693333,39.0596667 C34.6646667,37.195 37.1946667,34.6646667 39.0596667,31.4693333 C40.9243333,28.2733333 41.8566667,24.7833333 41.8566667,21 C41.8566667,17.2163333 40.9243333,13.726 39.06,10.5306667 L39.06,10.5306667 Z M23.6086667,31.974 C23.427,31.757 23.364,31.5756667 23.4186667,31.4303333 C23.4006667,31.521 23.337,31.6023333 23.2286667,31.6746667 C23.138,31.566 22.9746667,31.43 22.7396667,31.2673333 C22.504,31.104 22.3413333,30.9683333 22.2506667,30.8593333 C22.2143333,30.8053333 22.1646667,30.7283333 22.1013333,30.6286667 C22.038,30.529 21.9566667,30.398 21.857,30.235 C21.758,30.072 21.6856667,29.9316667 21.64,29.8136667 C21.595,29.696 21.591,29.6283333 21.6266667,29.6103333 C21.2826667,29.7556667 20.7846667,29.656 20.133,29.3116667 C20.0063333,29.2393333 19.816,29.0493333 19.5626667,28.7413333 C19.3093333,28.4336667 19.0466667,28.298 18.775,28.334 C18.6846667,28.352 18.5623333,28.3836667 18.4083333,28.429 C18.2546667,28.4743333 18.1233333,28.4966667 18.0146667,28.4966667 C17.906,28.4966667 17.761,28.4606667 17.58,28.388 C17.4353333,28.3336667 17.2406667,28.2293333 16.9963333,28.0756667 C16.752,27.922 16.5843333,27.8263333 16.494,27.7906667 C16.2586667,27.664 16.141,27.6006667 16.141,27.6006667 L15.7063333,27.384 C15.5976667,27.3296667 15.4843333,27.244 15.3666667,27.126 C15.249,27.0083333 15.1723333,26.886 15.136,26.7593333 C15.1,26.6506667 15.0546667,26.4333333 15.0003333,26.1073333 C14.946,25.7813333 14.8733333,25.546 14.783,25.4013333 C14.6746667,25.2203333 14.5206667,25.0393333 14.3213333,24.8583333 C14.1223333,24.6773333 13.9413333,24.5866667 13.7783333,24.5866667 C13.9233333,24.5866667 13.9233333,24.465 13.7783333,24.22 C13.6333333,23.975 13.5066667,23.7986667 13.398,23.6903333 C13.3616667,23.654 13.253,23.5366667 13.072,23.337 C12.891,23.1376667 12.737,22.9663333 12.6103333,22.821 C12.4836667,22.676 12.3746667,22.5086667 12.2843333,22.3183333 C12.194,22.128 12.1756667,21.97 12.23,21.843 C12.248,21.825 12.23,21.7976667 12.1756667,21.7616667 C12.1213333,21.7256667 12.0536667,21.689 11.972,21.653 C11.8906667,21.617 11.8136667,21.5853333 11.7413333,21.558 C11.6686667,21.531 11.6143333,21.5173333 11.5783333,21.5173333 C11.6146667,21.5903333 11.6553333,21.721 11.7006667,21.9113333 C11.746,22.1016667 11.7956667,22.242 11.85,22.3326667 C11.8863333,22.4046667 12.04,22.6676667 12.3116667,23.1196667 C12.7826667,23.88 12.9996667,24.442 12.9636667,24.804 C12.855,24.8396667 12.7823333,24.8223333 12.7463333,24.7496667 C12.71,24.6776667 12.6826667,24.578 12.6646667,24.451 C12.6466667,24.3246667 12.6286667,24.234 12.6103333,24.1796667 C12.556,24.0706667 12.4156667,23.953 12.1893333,23.826 C11.963,23.6996667 11.8226667,23.5726667 11.7683333,23.4456667 C11.7866667,23.4456667 11.809,23.4373333 11.8363333,23.4186667 C11.8636667,23.4003333 11.8863333,23.3916667 11.9043333,23.3916667 C11.9226667,23.229 11.8276667,23.0206667 11.6193333,22.767 C11.411,22.5133333 11.3253333,22.3323333 11.3613333,22.2236667 C11.2163333,22.115 11.0896667,21.9023333 10.981,21.5856667 C10.8723333,21.2686667 10.7816667,21.065 10.7093333,20.9743333 C10.637,20.866 10.5466667,20.771 10.438,20.6893333 C10.3293333,20.608 10.1936667,20.5176667 10.0306667,20.418 C9.86766667,20.3183333 9.759,20.2506667 9.70466667,20.2143333 C9.66833333,20.1966667 9.596,20.1153333 9.48733333,19.9703333 C8.89,19.246 8.709,18.8566667 8.94433333,18.8023333 C8.709,18.8566667 8.51433333,18.6803333 8.36033333,18.2726667 C8.20633333,17.8653333 8.15666667,17.5526667 8.211,17.3356667 L8.15666667,17.3086667 C8.175,17.236 8.184,17.0236667 8.184,16.6703333 C8.184,16.317 8.20666667,15.9956667 8.252,15.706 C8.29733333,15.4163333 8.38333333,15.2713333 8.51,15.2713333 C8.38333333,15.2893333 8.28833333,15.176 8.225,14.932 C8.16166667,14.6873333 8.157,14.5196667 8.21133333,14.4293333 C8.22933333,14.375 8.311,14.4116667 8.45566667,14.538 C8.60033333,14.6643333 8.682,14.7463333 8.7,14.7823333 C8.93533333,14.6553333 9.026,14.4926667 8.97166667,14.2933333 C8.93533333,14.221 8.74533333,14.031 8.40133333,13.723 C7.62266667,13.2163333 7.22433333,12.9716667 7.20633333,12.9896667 C7.31466667,12.7906667 7.28766667,12.6186667 7.12466667,12.4736667 C6.94366667,12.5823333 6.83966667,12.6093333 6.81233333,12.5553333 C6.78533333,12.501 6.76266667,12.4016667 6.74433333,12.2566667 C6.72633333,12.112 6.681,12.0306667 6.60866667,12.0123333 C6.518,11.9943333 6.40933333,11.922 6.28266667,11.7953333 C7.894,9.22433333 10.0213333,7.21466667 12.6646667,5.766 C12.7733333,5.748 12.9723333,5.739 13.262,5.739 C13.4066667,5.757 13.5426667,5.80233333 13.6693333,5.87466667 C13.796,5.947 13.9273333,6.04666667 14.063,6.17333333 C14.199,6.29966667 14.303,6.39033333 14.3753333,6.44466667 C14.4116667,6.336 14.3663333,6.173 14.2396667,5.95566667 C14.2756667,5.847 14.475,5.73833333 14.837,5.62966667 C15.2533333,5.57533333 15.525,5.58433333 15.6516667,5.657 C15.5433333,5.494 15.3623333,5.26766667 15.1086667,4.978 L14.973,5.11366667 C14.828,4.987 14.448,5.05033333 13.8323333,5.30366667 C13.7963333,5.32166667 13.7056667,5.37166667 13.5606667,5.453 C13.416,5.53433333 13.298,5.59333333 13.2076667,5.62933333 C13.099,5.66566667 12.9903333,5.67466667 12.8816667,5.65666667 C13.7506667,5.186 14.6016667,4.81433333 15.4346667,4.543 C15.4886667,4.579 15.5793333,4.656 15.706,4.77366667 C15.8326667,4.89133333 15.9323333,4.97733333 16.0046667,5.03166667 C15.9503333,4.99566667 15.914,5.01333333 15.896,5.086 C15.8236667,5.303 15.8236667,5.484 15.896,5.629 C15.9863333,5.756 16.1086667,5.828 16.2626667,5.84633333 C16.4166667,5.86433333 16.602,5.85533333 16.8193333,5.819 C17.0366667,5.783 17.1816667,5.76466667 17.254,5.76466667 L17.5256667,5.792 C18.105,5.84633333 18.3313333,5.792 18.2046667,5.629 C18.259,5.70166667 18.3223333,5.851 18.3946667,6.07733333 C18.467,6.30366667 18.5486667,6.46233333 18.639,6.55266667 C18.7296667,6.48 18.7476667,6.35333333 18.6933333,6.17233333 C18.639,5.99133333 18.639,5.86433333 18.6933333,5.792 C18.7113333,5.756 18.7656667,5.71933333 18.8563333,5.68333333 C18.947,5.64733333 19.051,5.60666667 19.1686667,5.56133333 C19.2863333,5.516 19.3633333,5.48433333 19.3996667,5.46633333 C19.5083333,5.39366667 19.4356667,5.267 19.1823333,5.086 C19.146,5.06766667 19.0693333,5.04066667 18.9516667,5.00433333 C18.834,4.96866667 18.7296667,4.932 18.6393333,4.896 C18.549,4.86 18.454,4.81 18.3543333,4.74666667 C18.2546667,4.68333333 18.2093333,4.611 18.2183333,4.52933333 C18.2273333,4.44766667 18.2773333,4.34366667 18.3676667,4.217 C18.4763333,4.12666667 18.653,4.09033333 18.8973333,4.10833333 C19.1416667,4.12633333 19.3273333,4.17133333 19.454,4.244 C19.943,4.51566667 20.0153333,4.76033333 19.6713333,4.97733333 C19.8526667,4.99533333 20.07,5.06766667 20.3233333,5.19433333 C20.5766667,5.32133333 20.6763333,5.457 20.622,5.602 C20.767,5.33033333 20.9116667,5.19433333 21.0566667,5.19433333 C21.147,5.21266667 21.2333333,5.335 21.3146667,5.56133333 C21.396,5.78766667 21.4456667,5.90966667 21.4636667,5.928 C21.609,6.127 21.753,6.17233333 21.8986667,6.06366667 C22.0433333,5.955 22.1926667,5.79666667 22.3466667,5.58833333 C22.5003333,5.38033333 22.5863333,5.28533333 22.6043333,5.30333333 C22.4233333,5.23133333 22.4046667,5.15866667 22.5503333,5.08633333 C22.8213333,4.92333333 23.066,4.878 23.2833333,4.95066667 C23.3373333,4.98666667 23.4103333,5.06833333 23.5003333,5.19466667 C23.6626667,5.521 23.6353333,5.67466667 23.419,5.65666667 C23.5816667,5.80166667 23.649,5.98266667 23.6223333,6.19966667 C23.5953333,6.417 23.4543333,6.51666667 23.201,6.49833333 C23.1106667,6.49833333 22.979,6.453 22.807,6.36266667 C22.635,6.27233333 22.5036667,6.22266667 22.413,6.21333333 C22.3223333,6.204 22.1956667,6.254 22.0326667,6.36266667 C21.9603333,6.45333333 21.8653333,6.60733333 21.7476667,6.82433333 C21.6296667,7.042 21.5256667,7.19566667 21.435,7.286 C21.1636667,7.55766667 20.7106667,7.65733333 20.077,7.58466667 C20.1313333,7.58466667 20.1266667,7.639 20.0633333,7.74766667 C19.9996667,7.85633333 19.914,7.97866667 19.8053333,8.11433333 C19.6966667,8.25 19.6333333,8.327 19.6153333,8.345 C19.4523333,8.526 19.3436667,8.73433333 19.2893333,8.96966667 C19.2893333,9.006 19.2803333,9.12833333 19.262,9.33633333 C19.2436667,9.54466667 19.2076667,9.70333333 19.1533333,9.81166667 C19.3706667,9.75733333 19.5426667,9.86633333 19.6693333,10.1376667 C19.778,10.3913333 19.778,10.527 19.6693333,10.5453333 C20.267,10.455 20.792,10.491 21.245,10.654 C21.8966667,10.8893333 22.2683333,11.1246667 22.3586667,11.36 C22.467,11.197 22.7293333,11.1876667 23.146,11.3326667 C23.309,11.423 23.4533333,11.695 23.5806667,12.1473333 C23.653,12.4186667 23.7753333,12.6543333 23.9473333,12.8533333 C24.1196667,13.0523333 24.3046667,13.1066667 24.5043333,13.0163333 L24.5853333,12.962 C24.658,12.926 24.7166667,12.894 24.762,12.867 C24.8073333,12.84 24.857,12.8036667 24.911,12.7583333 C24.9656667,12.713 24.9973333,12.6723333 25.006,12.6363333 C25.0146667,12.6003333 25.0013333,12.5636667 24.9656667,12.5276667 C24.8386667,12.419 24.7436667,12.2696667 24.6806667,12.0796667 C24.6176667,11.8896667 24.6313333,11.722 24.7213333,11.577 C24.7756667,11.5046667 24.9203333,11.396 25.156,11.251 C25.3913333,11.106 25.5363333,10.9613333 25.5903333,10.8163333 C25.6633333,10.581 25.5726667,10.3863333 25.3193333,10.2323333 C25.0656667,10.0786667 24.9386667,9.93833333 24.9386667,9.81133333 C24.9386667,9.72066667 24.9976667,9.61233333 25.115,9.48533333 C25.233,9.35866667 25.283,9.24066667 25.2646667,9.13233333 C25.2646667,9.07766667 25.2326667,8.96466667 25.1696667,8.79266667 C25.1066667,8.62033333 25.07,8.49366667 25.061,8.41233333 C25.052,8.33066667 25.093,8.23566667 25.183,8.12733333 C25.3093333,8.05466667 25.6083333,8.05933333 26.079,8.14066667 C26.5496667,8.22233333 26.8576667,8.30833333 27.0026667,8.39866667 C27.0573333,8.43466667 27.175,8.489 27.356,8.56166667 C27.537,8.63366667 27.6956667,8.71066667 27.8316667,8.79233333 C27.9666667,8.87366667 28.044,8.95033333 28.0616667,9.023 L27.9263333,9.023 C28.053,9.132 28.13,9.25833333 28.1566667,9.40333333 C28.184,9.54866667 28.1163333,9.657 27.9536667,9.72966667 C28.0616667,9.71133333 28.2073333,9.73866667 28.3883333,9.811 C28.678,9.91966667 28.687,10.0193333 28.4153333,10.1096667 C28.4696667,10.0913333 28.5463333,10.0736667 28.6456667,10.0553333 C28.7453333,10.0373333 28.822,10.01 28.8766667,9.974 C28.9123333,9.95566667 28.958,9.92433333 29.012,9.879 C29.0666667,9.83366667 29.107,9.80633333 29.1343333,9.79766667 C29.1616667,9.78866667 29.202,9.77933333 29.2566667,9.77033333 C29.3106667,9.76133333 29.3646667,9.775 29.419,9.811 C29.4376667,9.811 29.478,9.76566667 29.5413333,9.67533333 C29.604,9.585 29.6726667,9.49433333 29.7446667,9.404 C29.817,9.31366667 29.88,9.26833333 29.9346667,9.26833333 C29.9886667,9.26833333 30.0386667,9.29066667 30.0836667,9.336 C30.1293333,9.38133333 30.165,9.431 30.1923333,9.48533333 C30.2193333,9.53966667 30.2463333,9.59866667 30.2736667,9.66166667 C30.301,9.725 30.323,9.775 30.3413333,9.811 C30.3773333,9.90133333 30.4636667,9.99666667 30.599,10.096 C30.7346667,10.1953333 30.8206667,10.2906667 30.857,10.381 C30.8753333,10.4353333 30.9106667,10.5713333 30.9653333,10.7886667 C31.0193333,11.006 31.0923333,11.1553333 31.1823333,11.2366667 C31.273,11.3183333 31.4086667,11.386 31.5896667,11.4403333 C31.626,11.4586667 31.7076667,11.4493333 31.834,11.4133333 C31.9606667,11.377 32.065,11.368 32.1463333,11.386 C32.2283333,11.404 32.2686667,11.4763333 32.2686667,11.6033333 C32.3773333,11.4946667 32.4313333,11.422 32.4313333,11.386 C32.4496667,11.6213333 32.508,11.8116667 32.608,11.9563333 C32.7076667,12.101 32.866,12.1646667 33.0833333,12.1463333 L33.029,12.744 C32.975,12.8343333 32.839,12.902 32.6213333,12.9473333 C32.404,12.9926667 32.2683333,13.0336667 32.2136667,13.0696667 C32.1596667,13.0876667 32.028,13.1963333 31.82,13.3956667 C31.6116667,13.595 31.526,13.7126667 31.562,13.7486667 C31.2546667,13.4046667 30.7926667,13.305 30.1773333,13.45 C29.4893333,13.5586667 29.0183333,13.6673333 28.7653333,13.776 C28.4756667,13.921 28.2763333,14.0566667 28.1676667,14.1833333 C28.1493333,14.2013333 28.1183333,14.265 28.0726667,14.3733333 C28.0273333,14.482 27.9823333,14.5816667 27.9373333,14.672 C27.8916667,14.7623333 27.8513333,14.8076667 27.8153333,14.8076667 C27.9243333,14.79 28.046,14.7036667 28.182,14.55 C28.3176667,14.396 28.404,14.3103333 28.4396667,14.292 C28.91,13.9843333 29.2993333,13.8756667 29.609,13.9683333 C30.007,14.077 30.0703333,14.222 29.7986667,14.403 C29.763,14.439 29.6676667,14.4526667 29.514,14.4436667 C29.3603333,14.4346667 29.256,14.439 29.2013333,14.4573333 C29.3646667,14.4933333 29.5003333,14.5433333 29.6093333,14.6063333 C29.7176667,14.6696667 29.745,14.7556667 29.6906667,14.8643333 C29.98,15.0273333 30.0346667,15.2083333 29.8536667,15.4076667 C29.618,15.6433333 29.338,15.7426667 29.0116667,15.7063333 C29.0663333,15.7063333 29.0663333,15.7426667 29.0116667,15.815 L28.5496667,16.1136667 C28.5136667,16.1313333 28.396,16.1766667 28.1966667,16.2493333 C27.9973333,16.3213333 27.8616667,16.4033333 27.789,16.4936667 C27.735,16.566 27.7076667,16.6746667 27.7076667,16.82 C27.7076667,16.965 27.6986667,17.0736667 27.6803333,17.146 C27.6626667,17.2186667 27.59,17.2363333 27.4636667,17.2003333 C27.409,17.309 27.2416667,17.395 26.961,17.458 C26.6803333,17.5213333 26.495,17.6163333 26.4043333,17.743 C26.5126667,17.888 26.504,18.0326667 26.377,18.1776667 C26.1596667,18.359 25.9693333,18.3406667 25.8066667,18.1233333 C25.7163333,18.1596667 25.6483333,18.25 25.603,18.395 C25.558,18.54 25.4896667,18.6396667 25.3996667,18.6936667 C25.5266667,18.893 25.508,19.038 25.3456667,19.1283333 C25.3636667,19.1283333 25.4043333,19.1466667 25.4676667,19.1826667 C25.5306667,19.2186667 25.5986667,19.264 25.6713333,19.3183333 C25.7436667,19.3726667 25.7886667,19.4 25.8066667,19.4 C25.7346667,19.5626667 25.6346667,19.644 25.508,19.644 C25.6166667,19.934 25.4813333,20.251 25.101,20.5946667 C25.028,20.667 24.915,20.7393333 24.761,20.812 C24.6066667,20.8843333 24.4666667,20.943 24.3396667,20.9883333 C24.2126667,21.0336667 24.1406667,21.0653333 24.1226667,21.0833333 C23.9416667,21.2466667 23.8056667,21.414 23.7153333,21.586 C23.625,21.758 23.6113333,21.9253333 23.6743333,22.0883333 C23.7376667,22.2516667 23.9053333,22.3596667 24.1773333,22.4146667 L24.2036667,22.6316667 L24.2036667,23.1203333 L24.231,23.3376667 C24.2496667,23.4643333 24.2633333,23.5776667 24.272,23.6776667 C24.2806667,23.7773333 24.2806667,23.9036667 24.272,24.058 C24.2633333,24.2116667 24.2223333,24.2976667 24.15,24.3153333 C24.078,24.334 23.9783333,24.3153333 23.8513333,24.261 C23.706,24.1886667 23.5343333,23.7903333 23.335,23.0663333 C23.2986667,22.8853333 23.1896667,22.6683333 23.0086667,22.4146667 C22.9183333,22.505 22.8413333,22.5636667 22.778,22.5906667 C22.7153333,22.618 22.6696667,22.623 22.643,22.6043333 C22.6156667,22.5863333 22.566,22.5453333 22.4933333,22.4823333 C22.421,22.4193333 22.358,22.369 22.3033333,22.3333333 C22.213,22.279 22.0546667,22.2336667 21.828,22.1976667 C21.602,22.1616667 21.461,22.116 21.4073333,22.062 C20.9723333,22.3883333 20.7096667,22.3063333 20.6193333,21.818 C20.5833333,21.9083333 20.5876667,22.0306667 20.633,22.1846667 C20.6783333,22.3386667 20.701,22.4243333 20.701,22.4423333 C20.5743333,22.678 20.3753333,22.696 20.1036667,22.4963333 C19.995,22.3883333 19.746,22.3746667 19.3566667,22.456 C18.9673333,22.5373333 18.7093333,22.551 18.5826667,22.4963333 C18.601,22.4963333 18.637,22.5236667 18.6913333,22.5783333 C18.7456667,22.614 18.782,22.641 18.8,22.6593333 C18.7816667,22.732 18.7546667,22.786 18.7183333,22.8223333 C18.682,22.858 18.6456667,22.8716667 18.6096667,22.863 C18.5733333,22.854 18.5326667,22.854 18.4873333,22.863 C18.442,22.8716667 18.4013333,22.8853333 18.365,22.9036667 C18.2926667,22.9576667 18.2023333,23.0526667 18.0936667,23.1883333 C17.985,23.324 17.9036667,23.41 17.8493333,23.446 C17.9576667,23.7353333 18.0076667,23.9573333 17.9986667,24.111 C17.9893333,24.2653333 17.9623333,24.4916667 17.917,24.79 C17.8716667,25.0886667 17.849,25.329 17.849,25.51 C17.849,25.7993333 17.935,26.135 18.107,26.515 C18.279,26.895 18.4826667,27.1573333 18.718,27.3023333 C18.845,27.375 19.0623333,27.42 19.37,27.4376667 C19.6776667,27.456 19.895,27.4376667 20.0216667,27.3836667 C20.1303333,27.3296667 20.2116667,27.266 20.266,27.194 C20.3203333,27.1213333 20.3656667,27.017 20.4016667,26.8813333 C20.438,26.746 20.4653333,26.651 20.4833333,26.5966667 C20.61,26.2526667 20.8453333,26.0716667 21.189,26.0533333 C21.407,26.035 21.5646667,26.0583333 21.6646667,26.121 C21.7643333,26.1843333 21.805,26.2703333 21.7866667,26.379 C21.7683333,26.4876667 21.7323333,26.6006667 21.6783333,26.7186667 C21.624,26.8366667 21.556,26.9673333 21.4746667,27.1126667 C21.3936667,27.258 21.3436667,27.3663333 21.326,27.439 C21.2896667,27.584 21.2576667,27.7873333 21.231,28.0503333 C21.2036667,28.3126667 21.1806667,28.4713333 21.1626667,28.5256667 C21.199,28.5436667 21.3346667,28.5526667 21.57,28.5526667 C21.57,28.5166667 21.5836667,28.4576667 21.611,28.3763333 C21.6376667,28.2946667 21.6513333,28.245 21.6513333,28.227 C21.742,28.372 21.887,28.453 22.0863333,28.4713333 C22.2853333,28.4893333 22.4303333,28.417 22.521,28.254 C22.5573333,28.3083333 22.666,28.4443333 22.8473333,28.662 C23.0283333,28.8786667 23.128,29.0596667 23.146,29.205 C23.164,29.2776667 23.2,29.395 23.254,29.5583333 C23.3086667,29.7213333 23.327,29.8346667 23.3086667,29.8983333 C23.2906667,29.961 23.2,29.993 23.0373333,29.993 C22.965,29.993 22.9196667,30.0203333 22.9016667,30.0743333 C22.883,30.129 22.883,30.1963333 22.9016667,30.278 C22.92,30.3593333 22.9426667,30.4363333 22.9693333,30.5086667 C22.9966667,30.5806667 23.0326667,30.658 23.0776667,30.7393333 C23.1236667,30.8203333 23.146,30.8703333 23.146,30.8883333 C23.4716667,31.4856667 23.9153333,31.6486667 24.4766667,31.3773333 C24.4766667,31.9023333 24.3496667,32.1916667 24.096,32.246 C23.9523333,32.282 23.7896667,32.1906667 23.6086667,31.974 L23.6086667,31.974 Z M24.0143333,38.1093333 C23.9786667,37.9283333 23.9603333,37.7836667 23.9623333,37.6756667 C23.9436667,37.5303333 24.0073333,37.3356667 24.152,37.0916667 C24.2966667,36.8476667 24.369,36.6616667 24.369,36.535 C24.0793333,36.4626667 23.9706667,36.227 24.0426667,35.829 C24.079,35.5573333 24.3413333,35.1953333 24.83,34.7426667 C25.1746667,34.4346667 25.2826667,34 25.1563333,33.439 C25.1016667,33.2036667 25.0563333,32.8593333 25.0203333,32.4066667 C24.9846667,31.954 24.948,31.637 24.9116667,31.456 C24.9116667,31.5103333 24.9976667,31.56 25.17,31.6053333 C25.342,31.6503333 25.446,31.7093333 25.4823333,31.7813333 C25.5183333,31.7273333 25.5633333,31.6276667 25.618,31.4826667 C25.672,31.3376667 25.7266667,31.2293333 25.7803333,31.1566667 C25.8166667,31.1023333 25.8933333,31.0346667 26.0113333,30.953 C26.129,30.8716667 26.206,30.822 26.242,30.804 C26.2776667,30.786 26.3593333,30.7273333 26.486,30.6276667 C26.6126667,30.528 26.717,30.4513333 26.7986667,30.397 C26.8806667,30.3426667 26.9886667,30.302 27.1246667,30.275 C27.2606667,30.2476667 27.3553333,30.2883333 27.4093333,30.397 C27.5,30.5056667 27.4823333,30.673 27.3553333,30.8996667 C27.2283333,31.126 27.2283333,31.2846667 27.3553333,31.3753333 C27.3736667,31.3206667 27.3913333,31.2026667 27.4093333,31.0216667 C27.4276667,30.8406667 27.4823333,30.7046667 27.5726667,30.614 C27.681,30.5056667 27.785,30.442 27.885,30.4243333 C27.9843333,30.4056667 28.0746667,30.4193333 28.156,30.465 C28.2376667,30.51 28.3326667,30.573 28.441,30.655 C28.5496667,30.736 28.6493333,30.786 28.7396667,30.804 C29.011,30.8943333 29.3373333,31.0936667 29.7176667,31.4013333 C29.6993333,31.383 29.6993333,31.3606667 29.7176667,31.3333333 C29.736,31.3063333 29.7716667,31.2793333 29.8263333,31.252 C29.8803333,31.2253333 29.93,31.198 29.9753333,31.1706667 C30.0203333,31.1433333 30.07,31.1213333 30.1243333,31.103 L30.206,31.0756667 C30.3323333,31.0756667 30.423,31.067 30.477,31.0483333 C30.531,31.0303333 30.6086667,31.0483333 30.7076667,31.103 C30.807,31.157 30.8753333,31.1976667 30.911,31.225 C30.9473333,31.252 31.0106667,31.3016667 31.101,31.3743333 C31.1913333,31.4466667 31.2553333,31.501 31.2906667,31.537 C31.3453333,31.5726667 31.4446667,31.6366667 31.5893333,31.727 C31.7346667,31.8173333 31.8476667,31.8896667 31.9293333,31.944 C32.011,31.998 32.0833333,32.0796667 32.146,32.1876667 C32.2093333,32.297 32.2326667,32.4146667 32.2143333,32.5413333 C32.323,32.5596667 32.54,32.6316667 32.866,32.7583333 C32.9206667,32.7943333 33.0333333,32.8263333 33.2056667,32.853 C33.378,32.8803333 33.491,32.9213333 33.5453333,32.9753333 C30.922,35.7466667 27.744,37.4576667 24.0143333,38.1093333 L24.0143333,38.1093333 Z" id="path-1"></path>
    </defs>
    <g id="Homepages" stroke="none" stroke-width="1" fill="none" fill-rule="evenodd">
        <g id="Carrer-Page" transform="translate(-955.000000, -1694.000000)">
            <g id="1.A/Icon/60x60/Globe" transform="translate(946.000000, 1685.000000)">
                <g id="Colors/Blue" transform="translate(9.000000, 9.000000)">
                    <mask id="mask-2" fill="white">
                        <use xlink:href="#path-1"></use>
                    </mask>
                    <use id="Mask" fill="#000000" xlink:href="#path-1"></use>
                    <g id="1.A/Colors/Green" mask="url(#mask-2)" fill="#2DC08D">
                        <g transform="translate(-9.000000, -9.000000)" id="Rectangle-2-Copy-3">
                            <rect x="0" y="0" width="60" height="60"></rect>
                        </g>
                    </g>
                </g>
            </g>
        </g>
    </g>
</svg>