<?xml version="1.0" encoding="UTF-8"?>
<svg width="38px" height="32px" viewBox="0 0 38 32" version="1.1" xmlns="http://www.w3.org/2000/svg" xmlns:xlink="http://www.w3.org/1999/xlink">
    <!-- Generator: Sketch 46 (44423) - http://www.bohemiancoding.com/sketch -->
    <title>1.A/Icon/60x60/Smile Copy 16</title>
    <desc>Created with Sketch.</desc>
    <defs>
        <path d="M22.5070545,5.99970909 C24.2315636,7.08189091 25.4411636,8.91112727 25.6610909,11.0365091 C26.3633455,11.3634909 27.1453091,11.552 27.9726545,11.552 C30.9934545,11.552 33.4429091,9.10429091 33.4429091,6.08407273 C33.4429091,3.06152727 30.9934545,0.613818182 27.9726545,0.613818182 C24.9797818,0.613818182 22.5524364,3.01789091 22.5070545,5.99970909 Z M18.9224727,17.1997091 C21.9456,17.1997091 24.3933091,14.752 24.3933091,11.7294545 C24.3933091,8.70923636 21.9456,6.26152727 18.9224727,6.26152727 C15.9022545,6.26152727 13.4522182,8.70923636 13.4522182,11.7317818 C13.4522182,14.752 15.9022545,17.1997091 18.9224727,17.1997091 Z M21.2433455,17.5726545 L16.6021818,17.5726545 C12.7406545,17.5726545 9.59767273,20.7156364 9.59767273,24.5771636 L9.59767273,30.2545455 L9.61338182,30.3429818 L10.0043636,30.4657455 C13.6884364,31.616 16.8907636,32 19.5269818,32 C24.6749091,32 27.6567273,30.5338182 27.8429091,30.4384 L28.2065455,30.2545455 L28.2455273,30.2545455 L28.2455273,24.5771636 C28.2478545,20.7156364 25.1042909,17.5726545 21.2433455,17.5726545 Z M30.2929455,11.9272727 L25.6884364,11.9272727 C25.6384,13.7681455 24.8523636,15.4292364 23.6066909,16.6225455 C27.0411636,17.6430545 29.5522909,20.8250182 29.5522909,24.5864727 L29.5522909,26.3342545 C34.0997818,26.1678545 36.7202909,24.8797091 36.8930909,24.7930182 L37.2567273,24.6068364 L37.2974545,24.6068364 L37.2974545,18.9294545 C37.2974545,15.0679273 34.1544727,11.9272727 30.2929455,11.9272727 Z M9.3248,11.5543273 C10.3953455,11.5543273 11.3908364,11.2407273 12.2338909,10.7089455 C12.5021091,8.96116364 13.4411636,7.43156364 14.7793455,6.39069091 C14.784,6.28887273 14.7956364,6.1888 14.7956364,6.08407273 C14.7956364,3.06385455 12.3456,0.613818182 9.3248,0.613818182 C6.30458182,0.613818182 3.85454545,3.06385455 3.85454545,6.08407273 C3.85454545,9.10429091 6.30458182,11.5543273 9.3248,11.5543273 Z M14.2388364,16.6225455 C13.0001455,15.4338909 12.2158545,13.7838545 12.1588364,11.9522909 C11.9883636,11.9406545 11.8178909,11.9272727 11.6456727,11.9272727 L7.00450909,11.9272727 C3.14065455,11.9272727 0,15.0679273 0,18.9294545 L0,24.6068364 L0.0133818182,24.6952727 L0.404363636,24.8180364 C3.36116364,25.7408 5.99970909,26.1661091 8.29323636,26.2999273 L8.29323636,24.5864727 C8.29323636,20.8250182 10.8043636,17.6430545 14.2388364,16.6225455 Z" id="path-1"></path>
    </defs>
    <g id="Homepages" stroke="none" stroke-width="1" fill="none" fill-rule="evenodd">
        <g id="Carrer-Page" transform="translate(-621.000000, -1831.000000)">
            <g id="1.A/Icon/60x60/People" transform="translate(610.000000, 1817.000000)">
                <g id="Colors/Blue" transform="translate(11.000000, 14.000000)">
                    <mask id="mask-2" fill="white">
                        <use xlink:href="#path-1"></use>
                    </mask>
                    <use id="Mask" fill="#000000" xlink:href="#path-1"></use>
                    <g id="1.A/Colors/Green" mask="url(#mask-2)" fill="#2DC08D">
                        <g transform="translate(-11.000000, -14.000000)" id="Rectangle-2-Copy-3">
                            <rect x="0" y="0" width="60" height="60"></rect>
                        </g>
                    </g>
                </g>
            </g>
        </g>
    </g>
</svg>