<?xml version="1.0" encoding="utf-8"?>
<!-- Generator: Adobe Illustrator 21.0.2, SVG Export Plug-In . SVG Version: 6.00 Build 0)  -->
<svg version="1.1" id="Layer_1" xmlns="http://www.w3.org/2000/svg" xmlns:xlink="http://www.w3.org/1999/xlink" x="0px" y="0px"
	 viewBox="0 0 36 36" style="enable-background:new 0 0 36 36;" xml:space="preserve">
<style type="text/css">
	.st0{fill:#2DC08D;}
</style>
<g>
	<path id="path-1" class="st0" d="M21.7,8.1c1.7,1,2.8,2.8,3,4.9c0.7,0.3,1.4,0.5,2.2,0.5c2.9,0,5.3-2.4,5.3-5.3
		c0-2.9-2.4-5.3-5.3-5.3C24.1,2.9,21.8,5.2,21.7,8.1z M18.3,18.9c2.9,0,5.3-2.4,5.3-5.3c0-2.9-2.4-5.3-5.3-5.3
		c-2.9,0-5.3,2.4-5.3,5.3C13,16.5,15.3,18.9,18.3,18.9z M20.5,19.2H16c-3.7,0-6.8,3-6.8,6.8v5.5l0,0.1l0.4,0.1
		c3.6,1.1,6.6,1.5,9.2,1.5c5,0,7.8-1.4,8-1.5l0.4-0.2h0V26C27.3,22.3,24.2,19.2,20.5,19.2z M29.2,13.8h-4.4c0,1.8-0.8,3.4-2,4.5
		c3.3,1,5.7,4.1,5.7,7.7v1.7c4.4-0.2,6.9-1.4,7.1-1.5L36,26h0v-5.5C36,16.8,33,13.8,29.2,13.8z M9,13.4c1,0,2-0.3,2.8-0.8
		c0.3-1.7,1.2-3.2,2.5-4.2c0-0.1,0-0.2,0-0.3c0-2.9-2.4-5.3-5.3-5.3c-2.9,0-5.3,2.4-5.3,5.3S6.1,13.4,9,13.4z M13.7,18.3
		c-1.2-1.1-2-2.7-2-4.5c-0.2,0-0.3,0-0.5,0H6.8c-3.7,0-6.8,3-6.8,6.8V26l0,0.1l0.4,0.1c2.9,0.9,5.4,1.3,7.6,1.4V26
		C8,22.4,10.4,19.3,13.7,18.3z"/>
</g>
</svg>
