<?xml version="1.0" encoding="UTF-8"?>
<svg width="34px" height="34px" viewBox="0 0 34 34" version="1.1" xmlns="http://www.w3.org/2000/svg" xmlns:xlink="http://www.w3.org/1999/xlink">
    <!-- Generator: Sketch 45.2 (43514) - http://www.bohemiancoding.com/sketch -->
    <title>1.A/Icon/60x60/Smile Copy 12</title>
    <desc>Created with Sketch.</desc>
    <defs>
        <path d="M35.7909574,2.19791675 C35.6519365,2.06622795 35.4855713,2 35.2910953,2 C31.6683723,2 28.6771214,2.49300192 26.3175982,3.47926146 C23.958075,4.465521 21.4733307,6.25725567 18.8638763,8.85420975 C17.7534974,9.97931787 16.5319529,11.3335389 15.1994982,12.9168729 L7.30852473,13.3334186 C7.08644895,13.3615463 6.90602835,13.4725228 6.76726293,13.6668597 L2.10341599,21.6671455 C1.93679526,21.9448426 1.97155051,22.2158914 2.20742616,22.4797804 L3.53988085,23.8130335 C3.66484639,23.9380739 3.82431162,24.0004663 4.01878765,24.0004663 C4.10209801,24.0004663 4.16445301,23.9935622 4.20610819,23.9794984 L9.95273428,22.2084759 L15.8033705,28.0628737 L14.0336642,33.8126875 C13.9644093,34.0627684 14.0198644,34.2847215 14.200285,34.4790584 L15.5327396,35.8125672 C15.6855605,35.9373519 15.8452813,36 16.0116464,36 C16.1368675,36 16.2477777,35.972128 16.3448879,35.9166397 L24.3403826,31.2499981 C24.5348587,31.1111496 24.6457688,30.9306208 24.6736241,30.708412 L25.0899204,22.8124544 C26.6723061,21.4792013 28.0259717,20.2571805 29.1501505,19.1458805 C31.6213505,16.6593916 33.3803236,14.1562817 34.4280919,11.6355281 C35.4761158,9.11477456 36,6.12505547 36,2.66688226 C35.9997444,2.48635355 35.9304895,2.33011695 35.7909574,2.19791675 L35.7909574,2.19791675 Z M30.7529805,10.0836461 C30.3645396,10.4723198 29.8925327,10.6669123 29.3372155,10.6669123 C28.7818983,10.6669123 28.3101469,10.4725755 27.9214504,10.0836461 C27.5330095,9.69471665 27.3385335,9.22242695 27.3385335,8.66677697 C27.3385335,8.11138269 27.5327539,7.63909299 27.9214504,7.25016358 C28.3098914,6.86148987 28.7818983,6.6668973 29.3372155,6.6668973 C29.8925327,6.6668973 30.364284,6.86123416 30.7529805,7.25016358 C31.1414215,7.63909299 31.3358975,8.11138269 31.3358975,8.66677697 C31.3358975,9.22242695 31.1419326,9.69446095 30.7529805,10.0836461 L30.7529805,10.0836461 Z" id="path-1"></path>
    </defs>
    <g id="Homepages" stroke="none" stroke-width="1" fill="none" fill-rule="evenodd">
        <g id="Carrer-Page" transform="translate(-287.000000, -1832.000000)">
            <g id="1.A/Icon/60x60/Rocket" transform="translate(274.000000, 1819.000000)">
                <g id="Colors/Blue" transform="translate(11.000000, 11.000000)">
                    <g>
                        <mask id="mask-2" fill="white">
                            <use xlink:href="#path-1"></use>
                        </mask>
                        <use id="Mask" fill="#000000" xlink:href="#path-1"></use>
                        <g id="1.A/Colors/Green" mask="url(#mask-2)" fill="#2DC08D">
                            <g transform="translate(-11.000000, -11.000000)" id="Rectangle-2-Copy-3">
                                <rect x="0" y="0" width="60" height="60"></rect>
                            </g>
                        </g>
                    </g>
                </g>
            </g>
        </g>
    </g>
</svg>