<?xml version="1.0" encoding="utf-8"?>
<!-- Generator: Adobe Illustrator 21.0.2, SVG Export Plug-In . SVG Version: 6.00 Build 0)  -->
<svg version="1.1" id="Layer_1" xmlns="http://www.w3.org/2000/svg" xmlns:xlink="http://www.w3.org/1999/xlink" x="0px" y="0px"
	 viewBox="0 0 36 36" style="enable-background:new 0 0 36 36;" xml:space="preserve">
<style type="text/css">
	.st0{fill:#2DC08D;}
</style>
<path id="path-1" class="st0" d="M35.8,0.2C35.6,0.1,35.5,0,35.2,0c-3.8,0-7,0.5-9.5,1.6s-5.1,2.9-7.9,5.7c-1.2,1.2-2.5,2.6-3.9,4.3
	L5.6,12c-0.2,0-0.4,0.1-0.6,0.4l-4.9,8.5c-0.2,0.3-0.1,0.6,0.1,0.9l1.4,1.4c0.1,0.1,0.3,0.2,0.5,0.2c0.1,0,0.2,0,0.2,0l6.1-1.9
	l6.2,6.2l-1.9,6.1c-0.1,0.3,0,0.5,0.2,0.7l1.4,1.4c0.2,0.1,0.3,0.2,0.5,0.2c0.1,0,0.3,0,0.4-0.1l8.5-4.9c0.2-0.1,0.3-0.3,0.4-0.6
	l0.4-8.4c1.7-1.4,3.1-2.7,4.3-3.9c2.6-2.6,4.5-5.3,5.6-8C35.4,7.5,36,4.4,36,0.7C36,0.5,35.9,0.3,35.8,0.2L35.8,0.2z M30.4,8.6
	C30,9,29.5,9.2,28.9,9.2c-0.6,0-1.1-0.2-1.5-0.6c-0.4-0.4-0.6-0.9-0.6-1.5c0-0.6,0.2-1.1,0.6-1.5c0.4-0.4,0.9-0.6,1.5-0.6
	c0.6,0,1.1,0.2,1.5,0.6c0.4,0.4,0.6,0.9,0.6,1.5C31.1,7.6,30.9,8.1,30.4,8.6L30.4,8.6z"/>
</svg>
