<?xml version="1.0" encoding="utf-8"?>
<!-- Generator: Adobe Illustrator 21.0.2, SVG Export Plug-In . SVG Version: 6.00 Build 0)  -->
<svg version="1.1" id="Layer_1" xmlns="http://www.w3.org/2000/svg" xmlns:xlink="http://www.w3.org/1999/xlink" x="0px" y="0px"
	 viewBox="0 0 36 36" style="enable-background:new 0 0 36 36;" xml:space="preserve">
<style type="text/css">
	.st0{fill:#2DC08D;}
</style>
<path id="path-1" class="st0" d="M18,36C8.1,36,0,27.9,0,18S8.1,0,18,0s18,8.1,18,18S27.9,36,18,36z M18,27c4.5,0,8.2-3.7,8.2-8.2
	H9.8C9.8,23.3,13.5,27,18,27z M12.9,14.7c1.1,0,2-0.9,2-2s-0.9-2-2-2s-2,0.9-2,2S11.8,14.7,12.9,14.7z M23.1,14.7c1.1,0,2-0.9,2-2
	s-0.9-2-2-2c-1.1,0-2,0.9-2,2S22,14.7,23.1,14.7z"/>
</svg>
