<?xml version="1.0" encoding="UTF-8"?>
<svg width="40px" height="40px" viewBox="0 0 40 40" version="1.1" xmlns="http://www.w3.org/2000/svg" xmlns:xlink="http://www.w3.org/1999/xlink">
    <!-- Generator: Sketch 45.2 (43514) - http://www.bohemiancoding.com/sketch -->
    <title>1.A/Icon/60x60/Smile Copy 17</title>
    <desc>Created with Sketch.</desc>
    <defs>
        <path d="M20,40 C8.954305,40 0,31.045695 0,20 C0,8.954305 8.954305,0 20,0 C31.045695,0 40,8.954305 40,20 C40,31.045695 31.045695,40 20,40 Z M20,30 C25.0207705,30 29.0909091,25.9298614 29.0909091,20.9090909 C29.0909091,20.9090909 10.9090909,20.9090909 10.9090909,20.9090909 C10.9090909,25.9298614 14.9792295,30 20,30 Z M14.3181818,16.3636364 C15.5733744,16.3636364 16.5909091,15.3461017 16.5909091,14.0909091 C16.5909091,12.8357165 15.5733744,11.8181818 14.3181818,11.8181818 C13.0629892,11.8181818 12.0454545,12.8357165 12.0454545,14.0909091 C12.0454545,15.3461017 13.0629892,16.3636364 14.3181818,16.3636364 Z M25.6818182,16.3636364 C26.9370108,16.3636364 27.9545455,15.3461017 27.9545455,14.0909091 C27.9545455,12.8357165 26.9370108,11.8181818 25.6818182,11.8181818 C24.4266256,11.8181818 23.4090909,12.8357165 23.4090909,14.0909091 C23.4090909,15.3461017 24.4266256,16.3636364 25.6818182,16.3636364 Z" id="path-1"></path>
    </defs>
    <g id="Homepages" stroke="none" stroke-width="1" fill="none" fill-rule="evenodd">
        <g id="Carrer-Page" transform="translate(-956.000000, -1827.000000)">
            <g id="1.A/Icon/60x60/Smile" transform="translate(946.000000, 1817.000000)">
                <g id="Colors/Blue" transform="translate(10.000000, 10.000000)">
                    <mask id="mask-2" fill="white">
                        <use xlink:href="#path-1"></use>
                    </mask>
                    <use id="Mask" fill="#D8D8D8" xlink:href="#path-1"></use>
                    <g id="1.A/Colors/Green" mask="url(#mask-2)" fill="#2DC08D">
                        <g transform="translate(-10.000000, -10.000000)" id="Rectangle-2-Copy-3">
                            <rect x="0" y="0" width="60" height="60"></rect>
                        </g>
                    </g>
                </g>
            </g>
        </g>
    </g>
</svg>