<svg xmlns="http://www.w3.org/2000/svg" viewBox="0 0 143 22"><path fill="#FFF" d="M100.56 6.134c-2.757 0-5.002 2.244-5.002 5.002v2.022c0 2.758 2.245 5.002 5.003 5.002 1.46 0 2.77-.63 3.69-1.627v1.627h1.32v-7.024c0-2.758-2.24-5.002-5-5.002m3.68 6.364v.66c0 2.03-1.65 3.682-3.68 3.682s-3.68-1.652-3.68-3.68v-2.023c0-2.03 1.65-3.682 3.68-3.682 2.03 0 3.68 1.652 3.68 3.682v1.36zM87.86 6.134c-1.457 0-2.766.63-3.68 1.627V3.43h-1.32v14.74h1.32v-7.03c0-2.03 1.65-3.68 3.68-3.68 2.03 0 3.682 1.65 3.682 3.68v7.025h1.32V11.14c0-2.76-2.25-5.003-5.006-5.003m25.59 0c-1.458 0-2.767.63-3.68 1.626V6.136h-1.323V18.16h1.32v-7.022c0-2.03 1.654-3.682 3.684-3.682s3.682 1.652 3.682 3.68v7.026h1.32v-7.024c0-2.758-2.25-5.002-5.008-5.002M74.64 6.134c-1.456 0-2.765.63-3.68 1.627V6.14h-1.322v12.02h1.32v-7.022c0-2.03 1.653-3.682 3.683-3.682s3.69 1.652 3.69 3.68v7.026h1.32v-7.024c0-2.758-2.24-5.002-5-5.002m51.5 10.704c-2.03 0-3.68-1.652-3.68-3.68v-2.023c0-2.03 1.65-3.682 3.68-3.682 1.56 0 2.958.988 3.476 2.458l1.25-.44c-.705-1.997-2.602-3.34-4.72-3.34-2.76 0-5.003 2.245-5.003 5.004v2.022c0 2.75 2.24 5 5 5 2.12 0 4.02-1.35 4.72-3.35l-1.25-.44c-.517 1.47-1.91 2.46-3.475 2.46m15.5-10.7v5.014c0 .99-.388 1.917-1.095 2.62l-2.59 2.586-2.59-2.59c-.704-.696-1.09-1.626-1.09-2.614V6.13h-1.32v5.017c0 1.345.525 2.606 1.48 3.552l3.52 3.52 3.52-3.52c.957-.95 1.482-2.21 1.482-3.557V6.13h-1.32zm-83.39 5.16h8.1V9.97h-8.1V4.74h8.49V3.42h-9.81v14.74H66.94v-1.32h-8.684m-22.784 4.613l.062-.062c.025-.02.046-.05.066-.08s.04-.05.058-.08l.048-.07L43.09 7.28c.38-.714.58-1.523.58-2.34 0-2.756-2.242-5-5-5-1.185 0-2.337.424-3.24 1.192l-.063.056-7.315 6.426.57.567c.036.038.076.078.122.13.34.387.955.435 1.35.118l6.596-5.8c.556-.473 1.257-.73 1.98-.73 1.68 0 3.046 1.365 3.046 3.045 0 .503-.117.98-.35 1.42l-6.79 12.753L18.59 3.12c-2.06-2.055-4.794-3.19-7.704-3.19s-5.645 1.134-7.7 3.19C1.13 5.176 0 7.91 0 10.823s1.132 5.647 3.186 7.7c2.056 2.06 4.79 3.19 7.7 3.19 2.892 0 5.615-1.12 7.667-3.154l4.116-3.62-.56-.56c-.04-.04-.09-.08-.13-.13-.35-.39-1-.44-1.39-.09l-3.34 2.94c-1.74 1.73-3.98 2.66-6.37 2.66s-4.635-.93-6.32-2.62c-1.686-1.69-2.615-3.93-2.615-6.32s.93-4.64 2.615-6.32c1.687-1.69 3.93-2.62 6.32-2.62 2.387 0 4.63.93 6.32 2.616l16.92 16.92c.06.05.09.07.117.093.025.02.05.036.08.053l.074.04c.046.02.076.03.107.043.03.01.06.02.09.026l.1.02.09.01.076.002c.044-.01.077-.014.11-.018.027-.004.057-.01.088-.02.035-.008.06-.016.088-.025.03-.01.06-.02.09-.034.036-.017.06-.03.086-.045.03-.014.054-.03.078-.05.03-.02.06-.04.085-.064"/></svg>