<svg xmlns="http://www.w3.org/2000/svg" width="40" height="40" fill="#07c1a3"><path d="M36 13c-.6 0-1-.4-1-1V7c0-1.1-.9-2-2-2h-5c-.6 0-1-.4-1-1s.4-1 1-1h5c2.2 0 4 1.8 4 4v5c0 .6-.4 1-1 1zM4 13c-.6 0-1-.4-1-1V7c0-2.2 1.8-4 4-4h5c.6 0 1 .4 1 1s-.4 1-1 1H7c-1.1 0-2 .9-2 2v5c0 .6-.4 1-1 1zm8 24H7c-2.2 0-4-1.8-4-4v-5c0-.6.4-1 1-1s1 .4 1 1v5c0 1.1.9 2 2 2h5c.6 0 1 .4 1 1s-.4 1-1 1zm21 0h-5c-.6 0-1-.4-1-1s.4-1 1-1h5c1.1 0 2-.9 2-2v-5c0-.6.4-1 1-1s1 .4 1 1v5c0 2.2-1.8 4-4 4zm-7.7-16.5c1-1.2 1.7-2.8 1.7-4.5 0-3.9-3.1-7-7-7s-7 3.1-7 7c0 1.7.6 3.3 1.7 4.5-2.9 1.8-4.7 5-4.7 8.5v1c0 .6.4 1 1 1h18c.6 0 1-.4 1-1v-1c0-3.5-1.8-6.6-4.7-8.5zM20 11c2.8 0 5 2.2 5 5 0 1.7-.8 3.1-2.1 4-.1.1-.3.2-.4.3-.1.1-.2.1-.3.2-.2.1-.3.2-.5.2-.1 0-.2.1-.3.1-.9.3-1.9.3-2.9 0-.1 0-.2 0-.3-.1-.2-.1-.3-.1-.5-.2-.1-.1-.2-.1-.3-.2-.1-.1-.3-.2-.4-.3-1.3-.9-2.1-2.4-2.1-4 .1-2.8 2.3-5 5.1-5zm-8 18c0-3 1.7-5.7 4.3-7.1h.1c.3.2.5.3.8.4.8.5 1.8.7 2.8.7s2-.2 2.9-.6c.3-.1.5-.3.8-.4h.1c2.5 1.3 4.2 4 4.2 7H12z"/></svg>