<svg xmlns="http://www.w3.org/2000/svg" width="40" height="40" fill="#07c1a3"><path d="M38.9 32.6L35 23.8V7.5c0-.2-.1-.4-.2-.6l-2-2.5c-.2-.3-.5-.4-.8-.4H8c-.3 0-.5.1-.7.3l-2 2c-.2.2-.3.4-.3.7v16.8l-3.9 8.8c-.2.4-.1.8.2 1.1l1 1c.2.2.4.3.7.3h34c.3 0 .5-.1.7-.3l1-1c.3-.3.4-.7.2-1.1zM7 7.4L8.4 6h23.1L33 7.9V23H7V7.4zM36.6 33H3.4l-.2-.2L6.7 25h26.7l3.5 7.8-.3.2z"/><path d="M16 13h1c.6 0 1-.4 1-1v-1c0-.6-.4-1-1-1h-1c-.6 0-1 .4-1 1v1c0 .6.4 1 1 1zm8-3h-1c-.6 0-1 .4-1 1v1c0 .6.4 1 1 1h1c.6 0 1-.4 1-1v-1c0-.6-.4-1-1-1zm0 5c-.6 0-1 .4-1 1v.6l-.4.4h-5.2l-.4-.4V16c0-.6-.4-1-1-1s-1 .4-1 1v1c0 .3.1.5.3.7l1 1c.2.2.4.3.7.3h6c.3 0 .5-.1.7-.3l1-1c.2-.2.3-.4.3-.7v-1c0-.6-.4-1-1-1zm-7 13l-1 3h8l-1-3"/></svg>